<?xml version="1.0" encoding="UTF-8" standalone="no"?><svg xmlns="http://www.w3.org/2000/svg" xmlns:xlink="http://www.w3.org/1999/xlink" contentStyleType="text/css" height="206px" preserveAspectRatio="none" style="width:140px;height:206px;background:#FFFFFF;" version="1.1" viewBox="0 0 140 206" width="140px" zoomAndPan="magnify"><defs/><g><ellipse cx="70" cy="20" fill="#222222" rx="10" ry="10" style="stroke:#222222;stroke-width:1.0;"/><rect fill="#F1F1F1" height="35.0938" rx="12.5" ry="12.5" style="stroke:#181818;stroke-width:0.5;" width="82" x="29" y="50"/><text fill="#000000" font-family="sans-serif" font-size="12" lengthAdjust="spacing" textLength="62" x="39" y="72.457">Hello world</text><rect fill="#F1F1F1" height="50.1875" rx="12.5" ry="12.5" style="stroke:#181818;stroke-width:0.5;" width="118" x="11" y="105.0938"/><text fill="#000000" font-family="sans-serif" font-size="12" lengthAdjust="spacing" textLength="98" x="21" y="127.5508">This is defined on</text><text fill="#000000" font-family="sans-serif" font-size="12" lengthAdjust="spacing" textLength="40" x="21" y="142.6445">several</text><text fill="#000000" font-family="sans-serif" font-size="12" font-weight="bold" lengthAdjust="spacing" textLength="27" x="64" y="142.6445">lines</text><ellipse cx="70" cy="185.2813" rx="10" ry="10" style="stroke:#222222;stroke-width:1.5;fill:none;"/><line style="stroke:#222222;stroke-width:2.5;fill:none;" x1="63.8128" x2="76.1872" y1="179.0941" y2="191.4684"/><line style="stroke:#222222;stroke-width:2.5;fill:none;" x1="76.1872" x2="63.8128" y1="179.0941" y2="191.4684"/><line style="stroke:#181818;stroke-width:1.0;fill:none;" x1="70" x2="70" y1="30" y2="50"/><polygon fill="#181818" points="66,40,70,50,74,40,70,44" style="stroke:#181818;stroke-width:1.0;"/><line style="stroke:#181818;stroke-width:1.0;" x1="70" x2="70" y1="85.0938" y2="105.0938"/><polygon fill="#181818" points="66,95.0938,70,105.0938,74,95.0938,70,99.0938" style="stroke:#181818;stroke-width:1.0;"/><line style="stroke:#181818;stroke-width:1.0;" x1="70" x2="70" y1="155.2813" y2="175.2813"/><polygon fill="#181818" points="66,165.2813,70,175.2813,74,165.2813,70,169.2813" style="stroke:#181818;stroke-width:1.0;"/><!--MD5=[017caf1a483ab5a6cce53dd6e24b720e]
@startuml
start
:Hello world;
:This is defined on
several **lines**;
end
@enduml

PlantUML version 1.2022.3beta3(Unknown compile time)
(GPL source distribution)
Java Runtime: OpenJDK Runtime Environment
JVM: OpenJDK 64-Bit Server VM
Default Encoding: Cp1252
Language: en
Country: US
--></g></svg>