<?xml version="1.0" encoding="UTF-8" standalone="no"?><svg xmlns="http://www.w3.org/2000/svg" xmlns:xlink="http://www.w3.org/1999/xlink" contentStyleType="text/css" height="540px" preserveAspectRatio="none" style="width:182px;height:540px;background:#FFFFFF;" version="1.1" viewBox="0 0 182 540" width="182px" zoomAndPan="magnify"><defs/><g><ellipse cx="90" cy="20" fill="#222222" rx="10" ry="10" style="stroke:#222222;stroke-width:1.0;"/><rect fill="#F1F1F1" height="35.0938" rx="12.5" ry="12.5" style="stroke:#181818;stroke-width:0.5;" width="52" x="108" y="74"/><text fill="#000000" font-family="sans-serif" font-size="12" lengthAdjust="spacing" textLength="32" x="118" y="96.457">Text 1</text><rect fill="#F1F1F1" height="35.0938" rx="12.5" ry="12.5" style="stroke:#181818;stroke-width:0.5;" width="52" x="108" y="153.0938"/><text fill="#000000" font-family="sans-serif" font-size="12" lengthAdjust="spacing" textLength="32" x="118" y="175.5508">Text 2</text><ellipse cx="134" cy="219.1875" rx="11" ry="11" style="stroke:#222222;stroke-width:1.0;fill:none;"/><ellipse cx="134" cy="219.1875" fill="#222222" rx="6" ry="6" style="stroke:#111111;stroke-width:1.0;"/><rect fill="#F1F1F1" height="35.0938" rx="12.5" ry="12.5" style="stroke:#181818;stroke-width:0.5;" width="52" x="108" y="274.1875"/><text fill="#000000" font-family="sans-serif" font-size="12" lengthAdjust="spacing" textLength="32" x="118" y="296.6445">Text 3</text><rect fill="#F1F1F1" height="35.0938" rx="12.5" ry="12.5" style="stroke:#181818;stroke-width:0.5;" width="52" x="108" y="353.2813"/><text fill="#000000" font-family="sans-serif" font-size="12" lengthAdjust="spacing" textLength="32" x="118" y="375.7383">Text 4</text><polygon fill="#F1F1F1" points="32,50,86,50,98,62,86,74,32,74,20,62,32,50" style="stroke:#181818;stroke-width:0.5;"/><text fill="#000000" font-family="sans-serif" font-size="11" lengthAdjust="spacing" textLength="54" x="32" y="66.501">condition A</text><text fill="#000000" font-family="sans-serif" font-size="11" lengthAdjust="spacing" textLength="18" x="98" y="59.583">yes</text><polygon fill="#F1F1F1" points="32.5,129.0938,85.5,129.0938,97.5,141.0938,85.5,153.0938,32.5,153.0938,20.5,141.0938,32.5,129.0938" style="stroke:#181818;stroke-width:0.5;"/><text fill="#000000" font-family="sans-serif" font-size="11" lengthAdjust="spacing" textLength="53" x="32.5" y="145.5947">condition B</text><text fill="#000000" font-family="sans-serif" font-size="11" lengthAdjust="spacing" textLength="18" x="97.5" y="138.6768">yes</text><polygon fill="#F1F1F1" points="32.5,250.1875,85.5,250.1875,97.5,262.1875,85.5,274.1875,32.5,274.1875,20.5,262.1875,32.5,250.1875" style="stroke:#181818;stroke-width:0.5;"/><text fill="#000000" font-family="sans-serif" font-size="11" lengthAdjust="spacing" textLength="53" x="32.5" y="266.6885">condition C</text><text fill="#000000" font-family="sans-serif" font-size="11" lengthAdjust="spacing" textLength="18" x="97.5" y="259.7705">yes</text><polygon fill="#F1F1F1" points="32.5,329.2813,85.5,329.2813,97.5,341.2813,85.5,353.2813,32.5,353.2813,20.5,341.2813,32.5,329.2813" style="stroke:#181818;stroke-width:0.5;"/><text fill="#000000" font-family="sans-serif" font-size="11" lengthAdjust="spacing" textLength="53" x="32.5" y="345.7822">condition D</text><text fill="#000000" font-family="sans-serif" font-size="11" lengthAdjust="spacing" textLength="18" x="97.5" y="338.8643">yes</text><rect fill="#F1F1F1" height="35.0938" rx="12.5" ry="12.5" style="stroke:#181818;stroke-width:0.5;" width="69" x="55.5" y="408.375"/><text fill="#000000" font-family="sans-serif" font-size="12" lengthAdjust="spacing" textLength="49" x="65.5" y="430.832">Text else</text><polygon fill="#F1F1F1" points="90,463.4688,102,475.4688,90,487.4688,78,475.4688,90,463.4688" style="stroke:#181818;stroke-width:0.5;"/><ellipse cx="90" cy="518.4688" rx="11" ry="11" style="stroke:#222222;stroke-width:1.0;fill:none;"/><ellipse cx="90" cy="518.4688" fill="#222222" rx="6" ry="6" style="stroke:#111111;stroke-width:1.0;"/><line style="stroke:#181818;stroke-width:1.0;" x1="134" x2="134" y1="188.1875" y2="208.1875"/><polygon fill="#181818" points="130,198.1875,134,208.1875,138,198.1875,134,202.1875" style="stroke:#181818;stroke-width:1.0;"/><line style="stroke:#181818;stroke-width:1.0;" x1="98" x2="134" y1="62" y2="62"/><line style="stroke:#181818;stroke-width:1.0;" x1="134" x2="134" y1="62" y2="74"/><polygon fill="#181818" points="130,64,134,74,138,64,134,68" style="stroke:#181818;stroke-width:1.0;"/><line style="stroke:#181818;stroke-width:1.0;" x1="97.5" x2="134" y1="141.0938" y2="141.0938"/><line style="stroke:#181818;stroke-width:1.0;" x1="134" x2="134" y1="141.0938" y2="153.0938"/><polygon fill="#181818" points="130,143.0938,134,153.0938,138,143.0938,134,147.0938" style="stroke:#181818;stroke-width:1.0;"/><line style="stroke:#181818;stroke-width:1.0;" x1="97.5" x2="134" y1="262.1875" y2="262.1875"/><line style="stroke:#181818;stroke-width:1.0;" x1="134" x2="134" y1="262.1875" y2="274.1875"/><polygon fill="#181818" points="130,264.1875,134,274.1875,138,264.1875,134,268.1875" style="stroke:#181818;stroke-width:1.0;"/><line style="stroke:#181818;stroke-width:1.0;" x1="97.5" x2="134" y1="341.2813" y2="341.2813"/><line style="stroke:#181818;stroke-width:1.0;" x1="134" x2="134" y1="341.2813" y2="353.2813"/><polygon fill="#181818" points="130,343.2813,134,353.2813,138,343.2813,134,347.2813" style="stroke:#181818;stroke-width:1.0;"/><line style="stroke:#181818;stroke-width:1.0;" x1="59" x2="59" y1="74" y2="129.0938"/><polygon fill="#181818" points="55,119.0938,59,129.0938,63,119.0938,59,123.0938" style="stroke:#181818;stroke-width:1.0;"/><line style="stroke:#181818;stroke-width:1.0;" x1="59" x2="59" y1="153.0938" y2="250.1875"/><polygon fill="#181818" points="55,240.1875,59,250.1875,63,240.1875,59,244.1875" style="stroke:#181818;stroke-width:1.0;"/><line style="stroke:#181818;stroke-width:1.0;" x1="59" x2="59" y1="274.1875" y2="329.2813"/><polygon fill="#181818" points="55,319.2813,59,329.2813,63,319.2813,59,323.2813" style="stroke:#181818;stroke-width:1.0;"/><line style="stroke:#181818;stroke-width:1.0;" x1="134" x2="134" y1="109.0938" y2="124.0938"/><line style="stroke:#181818;stroke-width:1.0;" x1="134" x2="160" y1="124.0938" y2="124.0938"/><line style="stroke:#181818;stroke-width:1.0;" x1="160" x2="160" y1="124.0938" y2="475.4688"/><line style="stroke:#181818;stroke-width:1.0;" x1="160" x2="102" y1="475.4688" y2="475.4688"/><polygon fill="#181818" points="112,471.4688,102,475.4688,112,479.4688,108,475.4688" style="stroke:#181818;stroke-width:1.0;"/><line style="stroke:#181818;stroke-width:1.0;" x1="134" x2="134" y1="309.2813" y2="324.2813"/><line style="stroke:#181818;stroke-width:1.0;" x1="134" x2="160" y1="324.2813" y2="324.2813"/><polygon fill="#181818" points="150,320.2813,160,324.2813,150,328.2813,154,324.2813" style="stroke:#181818;stroke-width:1.0;"/><line style="stroke:#181818;stroke-width:1.0;" x1="134" x2="134" y1="388.375" y2="403.375"/><line style="stroke:#181818;stroke-width:1.0;" x1="134" x2="160" y1="403.375" y2="403.375"/><polygon fill="#181818" points="150,399.375,160,403.375,150,407.375,154,403.375" style="stroke:#181818;stroke-width:1.0;"/><line style="stroke:#181818;stroke-width:1.0;" x1="90" x2="90" y1="30" y2="35"/><line style="stroke:#181818;stroke-width:1.0;" x1="90" x2="59" y1="35" y2="35"/><line style="stroke:#181818;stroke-width:1.0;" x1="59" x2="59" y1="35" y2="50"/><polygon fill="#181818" points="55,40,59,50,63,40,59,44" style="stroke:#181818;stroke-width:1.0;"/><line style="stroke:#181818;stroke-width:1.0;" x1="59" x2="59" y1="353.2813" y2="393.375"/><line style="stroke:#181818;stroke-width:1.0;" x1="59" x2="90" y1="393.375" y2="393.375"/><line style="stroke:#181818;stroke-width:1.0;" x1="90" x2="90" y1="393.375" y2="408.375"/><polygon fill="#181818" points="86,398.375,90,408.375,94,398.375,90,402.375" style="stroke:#181818;stroke-width:1.0;"/><text fill="#000000" font-family="sans-serif" font-size="11" lengthAdjust="spacing" textLength="35" x="59" y="380.3291">nothing</text><line style="stroke:#181818;stroke-width:1.0;" x1="90" x2="90" y1="443.4688" y2="448.4688"/><line style="stroke:#181818;stroke-width:1.0;" x1="90" x2="90" y1="448.4688" y2="463.4688"/><polygon fill="#181818" points="86,453.4688,90,463.4688,94,453.4688,90,457.4688" style="stroke:#181818;stroke-width:1.0;"/><line style="stroke:#181818;stroke-width:1.0;" x1="90" x2="90" y1="487.4688" y2="507.4688"/><polygon fill="#181818" points="86,497.4688,90,507.4688,94,497.4688,90,501.4688" style="stroke:#181818;stroke-width:1.0;"/><!--MD5=[6dd5bdb053910b6f4240ad42ca7d95ab]
@startuml
!pragma useVerticalIf on
start
if (condition A) then (yes)
:Text 1;
elseif (condition B) then (yes)
:Text 2;
stop
elseif (condition C) then (yes)
:Text 3;
elseif (condition D) then (yes)
:Text 4;
else (nothing)
:Text else;
endif
stop
@enduml

PlantUML version 1.2022.3beta3(Unknown compile time)
(GPL source distribution)
Java Runtime: OpenJDK Runtime Environment
JVM: OpenJDK 64-Bit Server VM
Default Encoding: Cp1252
Language: en
Country: US
--></g></svg>