<?xml version="1.0" encoding="UTF-8" standalone="no"?><svg xmlns="http://www.w3.org/2000/svg" xmlns:xlink="http://www.w3.org/1999/xlink" contentStyleType="text/css" height="217px" preserveAspectRatio="none" style="width:316px;height:217px;background:#FFFFFF;" version="1.1" viewBox="0 0 316 217" width="316px" zoomAndPan="magnify"><defs/><g><ellipse cx="130" cy="20" fill="#222222" rx="10" ry="10" style="stroke:#222222;stroke-width:1.0;"/><polygon fill="#F1F1F1" points="84,50,176,50,188,62,176,74,84,74,72,62,84,50" style="stroke:#181818;stroke-width:0.5;"/><text fill="#000000" font-family="sans-serif" font-size="11" lengthAdjust="spacing" textLength="92" x="84" y="66.501">Graphviz installed?</text><text fill="#000000" font-family="sans-serif" font-size="11" lengthAdjust="spacing" textLength="18" x="54" y="59.583">yes</text><text fill="#000000" font-family="sans-serif" font-size="11" lengthAdjust="spacing" textLength="12" x="188" y="59.583">no</text><rect fill="#F1F1F1" height="50.1875" rx="12.5" ry="12.5" style="stroke:#181818;stroke-width:0.5;" width="81" x="11" y="84"/><text fill="#000000" font-family="sans-serif" font-size="12" lengthAdjust="spacing" textLength="61" x="21" y="106.457">process all</text><text fill="#000000" font-family="sans-serif" font-size="12" lengthAdjust="spacing" textLength="53" x="21" y="121.5508">diagrams</text><rect fill="#F1F1F1" height="50.1875" rx="12.5" ry="12.5" style="stroke:#181818;stroke-width:0.5;" width="193" x="112" y="84"/><text fill="#000000" font-family="sans-serif" font-size="12" lengthAdjust="spacing" textLength="70" x="122" y="106.457">process only</text><text fill="#000000" font-family="sans-serif" font-size="12" lengthAdjust="spacing" text-decoration="underline" textLength="55" x="122" y="121.5508">sequence</text><text fill="#000000" font-family="sans-serif" font-size="12" lengthAdjust="spacing" textLength="21" x="180" y="121.5508">and</text><text fill="#000000" font-family="sans-serif" font-size="12" lengthAdjust="spacing" text-decoration="underline" textLength="35" x="204" y="121.5508">activity</text><text fill="#000000" font-family="sans-serif" font-size="12" lengthAdjust="spacing" textLength="53" x="242" y="121.5508">diagrams</text><polygon fill="#F1F1F1" points="130,140.1875,142,152.1875,130,164.1875,118,152.1875,130,140.1875" style="stroke:#181818;stroke-width:0.5;"/><ellipse cx="130" cy="195.1875" rx="11" ry="11" style="stroke:#222222;stroke-width:1.0;fill:none;"/><ellipse cx="130" cy="195.1875" fill="#222222" rx="6" ry="6" style="stroke:#111111;stroke-width:1.0;"/><line style="stroke:#181818;stroke-width:1.0;" x1="72" x2="51.5" y1="62" y2="62"/><line style="stroke:#181818;stroke-width:1.0;" x1="51.5" x2="51.5" y1="62" y2="84"/><polygon fill="#181818" points="47.5,74,51.5,84,55.5,74,51.5,78" style="stroke:#181818;stroke-width:1.0;"/><line style="stroke:#181818;stroke-width:1.0;" x1="188" x2="208.5" y1="62" y2="62"/><line style="stroke:#181818;stroke-width:1.0;" x1="208.5" x2="208.5" y1="62" y2="84"/><polygon fill="#181818" points="204.5,74,208.5,84,212.5,74,208.5,78" style="stroke:#181818;stroke-width:1.0;"/><line style="stroke:#181818;stroke-width:1.0;" x1="51.5" x2="51.5" y1="134.1875" y2="152.1875"/><line style="stroke:#181818;stroke-width:1.0;" x1="51.5" x2="118" y1="152.1875" y2="152.1875"/><polygon fill="#181818" points="108,148.1875,118,152.1875,108,156.1875,112,152.1875" style="stroke:#181818;stroke-width:1.0;"/><line style="stroke:#181818;stroke-width:1.0;" x1="208.5" x2="208.5" y1="134.1875" y2="152.1875"/><line style="stroke:#181818;stroke-width:1.0;" x1="208.5" x2="142" y1="152.1875" y2="152.1875"/><polygon fill="#181818" points="152,148.1875,142,152.1875,152,156.1875,148,152.1875" style="stroke:#181818;stroke-width:1.0;"/><line style="stroke:#181818;stroke-width:1.0;" x1="130" x2="130" y1="30" y2="50"/><polygon fill="#181818" points="126,40,130,50,134,40,130,44" style="stroke:#181818;stroke-width:1.0;"/><line style="stroke:#181818;stroke-width:1.0;" x1="130" x2="130" y1="164.1875" y2="184.1875"/><polygon fill="#181818" points="126,174.1875,130,184.1875,134,174.1875,130,178.1875" style="stroke:#181818;stroke-width:1.0;"/><!--MD5=[14b411e2aa45b8b58e4e038c219f816b]
@startuml
start
if (Graphviz installed?) then (yes)
:process all\ndiagrams;
else (no)
:process only
__sequence__ and __activity__ diagrams;
endif
stop
@enduml

PlantUML version 1.2022.3beta3(Unknown compile time)
(GPL source distribution)
Java Runtime: OpenJDK Runtime Environment
JVM: OpenJDK 64-Bit Server VM
Default Encoding: Cp1252
Language: en
Country: US
--></g></svg>