<?xml version="1.0" encoding="UTF-8" standalone="no"?><svg xmlns="http://www.w3.org/2000/svg" xmlns:xlink="http://www.w3.org/1999/xlink" contentStyleType="text/css" height="123px" preserveAspectRatio="none" style="width:173px;height:123px;background:#FFFFFF;" version="1.1" viewBox="0 0 173 123" width="173px" zoomAndPan="magnify"><defs/><g><polygon fill="#F1F1F1" points="60,12.7529,103,12.7529,115,24.7529,103,36.7529,60,36.7529,48,24.7529,60,12.7529" style="stroke:#181818;stroke-width:0.5;"/><text fill="#000000" font-family="sans-serif" font-size="11" lengthAdjust="spacing" textLength="43" x="60" y="29.2539">counter?</text><text fill="#000000" font-family="sans-serif" font-size="11" lengthAdjust="spacing" textLength="6" x="42" y="22.3359">5</text><rect fill="#F1F1F1" height="35.0938" rx="12.5" ry="12.5" style="stroke:#181818;stroke-width:0.5;" width="54" x="11" y="46.7529"/><text fill="#000000" font-family="sans-serif" font-size="12" lengthAdjust="spacing" textLength="34" x="21" y="69.21">print 5</text><rect fill="#F1F1F1" height="35.0938" rx="12.5" ry="12.5" style="stroke:#181818;stroke-width:0.5;" width="74" x="88" y="46.7529"/><text fill="#000000" font-family="sans-serif" font-size="12" lengthAdjust="spacing" textLength="54" x="98" y="69.21">print not 5</text><polygon fill="#F1F1F1" points="81.5,87.8467,93.5,99.8467,81.5,111.8467,69.5,99.8467,81.5,87.8467" style="stroke:#181818;stroke-width:0.5;"/><line style="stroke:#181818;stroke-width:1.0;" x1="48" x2="38" y1="24.7529" y2="24.7529"/><line style="stroke:#181818;stroke-width:1.0;" x1="38" x2="38" y1="24.7529" y2="46.7529"/><polygon fill="#181818" points="34,36.7529,38,46.7529,42,36.7529,38,40.7529" style="stroke:#181818;stroke-width:1.0;"/><line style="stroke:#181818;stroke-width:1.0;" x1="115" x2="125" y1="24.7529" y2="24.7529"/><line style="stroke:#181818;stroke-width:1.0;" x1="125" x2="125" y1="24.7529" y2="46.7529"/><polygon fill="#181818" points="121,36.7529,125,46.7529,129,36.7529,125,40.7529" style="stroke:#181818;stroke-width:1.0;"/><line style="stroke:#181818;stroke-width:1.0;" x1="38" x2="38" y1="81.8467" y2="99.8467"/><line style="stroke:#181818;stroke-width:1.0;" x1="38" x2="69.5" y1="99.8467" y2="99.8467"/><polygon fill="#181818" points="59.5,95.8467,69.5,99.8467,59.5,103.8467,63.5,99.8467" style="stroke:#181818;stroke-width:1.0;"/><line style="stroke:#181818;stroke-width:1.0;" x1="125" x2="125" y1="81.8467" y2="99.8467"/><line style="stroke:#181818;stroke-width:1.0;" x1="125" x2="93.5" y1="99.8467" y2="99.8467"/><polygon fill="#181818" points="103.5,95.8467,93.5,99.8467,103.5,103.8467,99.5,99.8467" style="stroke:#181818;stroke-width:1.0;"/><!--MD5=[60fd20d82d464d52dab19cab95e86a46]
@startuml
if (counter?) equals (5) then
:print 5;
else
:print not 5;
@enduml

PlantUML version 1.2022.3beta3(Unknown compile time)
(GPL source distribution)
Java Runtime: OpenJDK Runtime Environment
JVM: OpenJDK 64-Bit Server VM
Default Encoding: Cp1252
Language: en
Country: US
--></g></svg>