<?xml version="1.0" encoding="UTF-8" standalone="no"?><svg xmlns="http://www.w3.org/2000/svg" xmlns:xlink="http://www.w3.org/1999/xlink" contentStyleType="text/css" height="227px" preserveAspectRatio="none" style="width:131px;height:227px;background:#FFFFFF;" version="1.1" viewBox="0 0 131 227" width="131px" zoomAndPan="magnify"><defs/><g><rect fill="#F1F1F1" height="35.0938" rx="12.5" ry="12.5" style="stroke:#181818;stroke-width:0.5;" width="46" x="33.5" y="54"/><text fill="#000000" font-family="sans-serif" font-size="12" lengthAdjust="spacing" textLength="26" x="43.5" y="76.457">error</text><ellipse cx="56.5" cy="128.0469" rx="11" ry="11" style="stroke:#222222;stroke-width:1.0;fill:none;"/><ellipse cx="56.5" cy="128.0469" fill="#222222" rx="6" ry="6" style="stroke:#111111;stroke-width:1.0;"/><polygon fill="#F1F1F1" points="32,10,81,10,93,22,81,34,32,34,20,22,32,10" style="stroke:#181818;stroke-width:0.5;"/><text fill="#000000" font-family="sans-serif" font-size="11" lengthAdjust="spacing" textLength="49" x="32" y="26.501">condition?</text><rect fill="#98FB98" height="35.0938" rx="12.5" ry="12.5" style="stroke:#181818;stroke-width:0.5;" width="53" x="30" y="181.0469"/><text fill="#000000" font-family="sans-serif" font-size="12" lengthAdjust="spacing" textLength="33" x="40" y="203.5039">action</text><line style="stroke:#181818;stroke-width:1.0;" x1="56.5" x2="56.5" y1="89.0938" y2="117.0469"/><polygon fill="#181818" points="52.5,107.0469,56.5,117.0469,60.5,107.0469,56.5,111.0469" style="stroke:#181818;stroke-width:1.0;"/><line style="stroke:#181818;stroke-width:1.0;" x1="56.5" x2="56.5" y1="34" y2="54"/><polygon fill="#181818" points="52.5,44,56.5,54,60.5,44,56.5,48" style="stroke:#181818;stroke-width:1.0;"/><line style="stroke:#181818;stroke-width:1.0;" x1="93" x2="105" y1="22" y2="22"/><polygon fill="#181818" points="101,87.0469,105,97.0469,109,87.0469,105,91.0469" style="stroke:#181818;stroke-width:1.0;"/><line style="stroke:#181818;stroke-width:1.0;" x1="105" x2="105" y1="22" y2="161.0469"/><line style="stroke:#181818;stroke-width:1.0;" x1="105" x2="56.5" y1="161.0469" y2="161.0469"/><line style="stroke:#181818;stroke-width:1.0;" x1="56.5" x2="56.5" y1="161.0469" y2="181.0469"/><polygon fill="#181818" points="52.5,171.0469,56.5,181.0469,60.5,171.0469,56.5,175.0469" style="stroke:#181818;stroke-width:1.0;"/><!--MD5=[f61a63db17b298685025ffa187372e0c]
@startuml
if (condition?) then
:error;
stop
endif
#palegreen:action;
@enduml

PlantUML version 1.2022.3beta3(Unknown compile time)
(GPL source distribution)
Java Runtime: OpenJDK Runtime Environment
JVM: OpenJDK 64-Bit Server VM
Default Encoding: Cp1252
Language: en
Country: US
--></g></svg>