<?xml version="1.0" encoding="UTF-8" standalone="no"?><svg xmlns="http://www.w3.org/2000/svg" xmlns:xlink="http://www.w3.org/1999/xlink" contentStyleType="text/css" height="272px" preserveAspectRatio="none" style="width:489px;height:272px;background:#FFFFFF;" version="1.1" viewBox="0 0 489 272" width="489px" zoomAndPan="magnify"><defs/><g><ellipse cx="249" cy="20" fill="#222222" rx="10" ry="10" style="stroke:#222222;stroke-width:1.0;"/><polygon fill="#F1F1F1" points="32,50,86,50,98,62,86,74,32,74,20,62,32,50" style="stroke:#181818;stroke-width:0.5;"/><text fill="#000000" font-family="sans-serif" font-size="11" lengthAdjust="spacing" textLength="18" x="63" y="85.4189">yes</text><text fill="#000000" font-family="sans-serif" font-size="11" lengthAdjust="spacing" textLength="54" x="32" y="66.501">condition A</text><rect fill="#F1F1F1" height="35.0938" rx="12.5" ry="12.5" style="stroke:#181818;stroke-width:0.5;" width="52" x="33" y="106.9189"/><text fill="#000000" font-family="sans-serif" font-size="12" lengthAdjust="spacing" textLength="32" x="43" y="129.376">Text 1</text><polygon fill="#F1F1F1" points="130,50,183,50,195,62,183,74,130,74,118,62,130,50" style="stroke:#181818;stroke-width:0.5;"/><text fill="#000000" font-family="sans-serif" font-size="11" lengthAdjust="spacing" textLength="18" x="160.5" y="85.4189">yes</text><text fill="#000000" font-family="sans-serif" font-size="11" lengthAdjust="spacing" textLength="53" x="130" y="66.501">condition B</text><rect fill="#F1F1F1" height="35.0938" rx="12.5" ry="12.5" style="stroke:#181818;stroke-width:0.5;" width="52" x="130.5" y="106.9189"/><text fill="#000000" font-family="sans-serif" font-size="12" lengthAdjust="spacing" textLength="32" x="140.5" y="129.376">Text 2</text><ellipse cx="156.5" cy="188.0127" rx="11" ry="11" style="stroke:#222222;stroke-width:1.0;fill:none;"/><ellipse cx="156.5" cy="188.0127" fill="#222222" rx="6" ry="6" style="stroke:#111111;stroke-width:1.0;"/><polygon fill="#F1F1F1" points="227,50,280,50,292,62,280,74,227,74,215,62,227,50" style="stroke:#181818;stroke-width:0.5;"/><text fill="#000000" font-family="sans-serif" font-size="11" lengthAdjust="spacing" textLength="18" x="257.5" y="85.4189">yes</text><text fill="#000000" font-family="sans-serif" font-size="11" lengthAdjust="spacing" textLength="53" x="227" y="66.501">condition C</text><rect fill="#F1F1F1" height="35.0938" rx="12.5" ry="12.5" style="stroke:#181818;stroke-width:0.5;" width="52" x="227.5" y="106.9189"/><text fill="#000000" font-family="sans-serif" font-size="12" lengthAdjust="spacing" textLength="32" x="237.5" y="129.376">Text 3</text><polygon fill="#F1F1F1" points="324,50,377,50,389,62,377,74,324,74,312,62,324,50" style="stroke:#181818;stroke-width:0.5;"/><text fill="#000000" font-family="sans-serif" font-size="11" lengthAdjust="spacing" textLength="18" x="354.5" y="85.4189">yes</text><text fill="#000000" font-family="sans-serif" font-size="11" lengthAdjust="spacing" textLength="53" x="324" y="66.501">condition D</text><text fill="#000000" font-family="sans-serif" font-size="11" lengthAdjust="spacing" textLength="35" x="389" y="59.583">nothing</text><rect fill="#F1F1F1" height="35.0938" rx="12.5" ry="12.5" style="stroke:#181818;stroke-width:0.5;" width="52" x="324.5" y="106.9189"/><text fill="#000000" font-family="sans-serif" font-size="12" lengthAdjust="spacing" textLength="32" x="334.5" y="129.376">Text 4</text><rect fill="#F1F1F1" height="35.0938" rx="12.5" ry="12.5" style="stroke:#181818;stroke-width:0.5;" width="69" x="409" y="131.501"/><text fill="#000000" font-family="sans-serif" font-size="12" lengthAdjust="spacing" textLength="49" x="419" y="153.958">Text else</text><ellipse cx="249" cy="250.0127" rx="11" ry="11" style="stroke:#222222;stroke-width:1.0;fill:none;"/><ellipse cx="249" cy="250.0127" fill="#222222" rx="6" ry="6" style="stroke:#111111;stroke-width:1.0;"/><line style="stroke:#181818;stroke-width:1.0;" x1="156.5" x2="156.5" y1="142.0127" y2="177.0127"/><polygon fill="#181818" points="152.5,167.0127,156.5,177.0127,160.5,167.0127,156.5,171.0127" style="stroke:#181818;stroke-width:1.0;"/><line style="stroke:#181818;stroke-width:1.0;" x1="59" x2="59" y1="74" y2="106.9189"/><polygon fill="#181818" points="55,96.9189,59,106.9189,63,96.9189,59,100.9189" style="stroke:#181818;stroke-width:1.0;"/><line style="stroke:#181818;stroke-width:1.0;" x1="59" x2="59" y1="142.0127" y2="219.0127"/><polygon fill="#181818" points="55,209.0127,59,219.0127,63,209.0127,59,213.0127" style="stroke:#181818;stroke-width:1.0;"/><line style="stroke:#181818;stroke-width:1.0;" x1="156.5" x2="156.5" y1="74" y2="106.9189"/><polygon fill="#181818" points="152.5,96.9189,156.5,106.9189,160.5,96.9189,156.5,100.9189" style="stroke:#181818;stroke-width:1.0;"/><line style="stroke:#181818;stroke-width:1.0;" x1="253.5" x2="253.5" y1="74" y2="106.9189"/><polygon fill="#181818" points="249.5,96.9189,253.5,106.9189,257.5,96.9189,253.5,100.9189" style="stroke:#181818;stroke-width:1.0;"/><line style="stroke:#181818;stroke-width:1.0;" x1="253.5" x2="253.5" y1="142.0127" y2="219.0127"/><polygon fill="#181818" points="249.5,209.0127,253.5,219.0127,257.5,209.0127,253.5,213.0127" style="stroke:#181818;stroke-width:1.0;"/><line style="stroke:#181818;stroke-width:1.0;" x1="350.5" x2="350.5" y1="74" y2="106.9189"/><polygon fill="#181818" points="346.5,96.9189,350.5,106.9189,354.5,96.9189,350.5,100.9189" style="stroke:#181818;stroke-width:1.0;"/><line style="stroke:#181818;stroke-width:1.0;" x1="350.5" x2="350.5" y1="142.0127" y2="219.0127"/><polygon fill="#181818" points="346.5,209.0127,350.5,219.0127,354.5,209.0127,350.5,213.0127" style="stroke:#181818;stroke-width:1.0;"/><line style="stroke:#181818;stroke-width:1.0;" x1="98" x2="118" y1="62" y2="62"/><polygon fill="#181818" points="108,58,118,62,108,66,112,62" style="stroke:#181818;stroke-width:1.0;"/><line style="stroke:#181818;stroke-width:1.0;" x1="195" x2="215" y1="62" y2="62"/><polygon fill="#181818" points="205,58,215,62,205,66,209,62" style="stroke:#181818;stroke-width:1.0;"/><line style="stroke:#181818;stroke-width:1.0;" x1="292" x2="312" y1="62" y2="62"/><polygon fill="#181818" points="302,58,312,62,302,66,306,62" style="stroke:#181818;stroke-width:1.0;"/><line style="stroke:#181818;stroke-width:1.0;" x1="249" x2="249" y1="30" y2="35"/><line style="stroke:#181818;stroke-width:1.0;" x1="249" x2="59" y1="35" y2="35"/><line style="stroke:#181818;stroke-width:1.0;" x1="59" x2="59" y1="35" y2="50"/><polygon fill="#181818" points="55,40,59,50,63,40,59,44" style="stroke:#181818;stroke-width:1.0;"/><line style="stroke:#181818;stroke-width:1.0;" x1="389" x2="443.5" y1="62" y2="62"/><line style="stroke:#181818;stroke-width:1.0;" x1="443.5" x2="443.5" y1="62" y2="131.501"/><polygon fill="#181818" points="439.5,121.501,443.5,131.501,447.5,121.501,443.5,125.501" style="stroke:#181818;stroke-width:1.0;"/><line style="stroke:#181818;stroke-width:1.0;" x1="443.5" x2="443.5" y1="166.5947" y2="219.0127"/><polygon fill="#181818" points="439.5,209.0127,443.5,219.0127,447.5,209.0127,443.5,213.0127" style="stroke:#181818;stroke-width:1.0;"/><line style="stroke:#181818;stroke-width:1.0;" x1="59" x2="443.5" y1="219.0127" y2="219.0127"/><line style="stroke:#181818;stroke-width:1.0;" x1="249" x2="249" y1="219.0127" y2="239.0127"/><polygon fill="#181818" points="245,229.0127,249,239.0127,253,229.0127,249,233.0127" style="stroke:#181818;stroke-width:1.0;"/><!--MD5=[b03268856dd19b6686967df8128adc67]
@startuml
start
if (condition A) then (yes)
:Text 1;
elseif (condition B) then (yes)
:Text 2;
stop
elseif (condition C) then (yes)
:Text 3;
elseif (condition D) then (yes)
:Text 4;
else (nothing)
:Text else;
endif
stop
@enduml

PlantUML version 1.2022.3beta3(Unknown compile time)
(GPL source distribution)
Java Runtime: OpenJDK Runtime Environment
JVM: OpenJDK 64-Bit Server VM
Default Encoding: Cp1252
Language: en
Country: US
--></g></svg>