<?xml version="1.0" encoding="UTF-8" standalone="no"?><svg xmlns="http://www.w3.org/2000/svg" xmlns:xlink="http://www.w3.org/1999/xlink" contentStyleType="text/css" height="123px" preserveAspectRatio="none" style="width:192px;height:123px;background:#FFFFFF;" version="1.1" viewBox="0 0 192 123" width="192px" zoomAndPan="magnify"><defs/><g><polygon fill="#F1F1F1" points="76,12.7529,106,12.7529,118,24.7529,106,36.7529,76,36.7529,64,24.7529,76,12.7529" style="stroke:#181818;stroke-width:0.5;"/><text fill="#000000" font-family="sans-serif" font-size="11" lengthAdjust="spacing" textLength="30" x="76" y="29.2539">color?</text><text fill="#FF0000" font-family="sans-serif" font-size="11" lengthAdjust="spacing" textLength="16" x="48" y="22.3359">red</text><rect fill="#F1F1F1" height="35.0938" rx="12.5" ry="12.5" style="stroke:#181818;stroke-width:0.5;" width="65" x="11" y="46.7529"/><text fill="#000000" font-family="sans-serif" font-size="12" lengthAdjust="spacing" textLength="45" x="21" y="69.21">print red</text><rect fill="#F1F1F1" height="35.0938" rx="12.5" ry="12.5" style="stroke:#181818;stroke-width:0.5;" width="85" x="96" y="46.7529"/><text fill="#000000" font-family="sans-serif" font-size="12" lengthAdjust="spacing" textLength="65" x="106" y="69.21">print not red</text><polygon fill="#F1F1F1" points="91,87.8467,103,99.8467,91,111.8467,79,99.8467,91,87.8467" style="stroke:#181818;stroke-width:0.5;"/><line style="stroke:#181818;stroke-width:1.0;" x1="64" x2="43.5" y1="24.7529" y2="24.7529"/><line style="stroke:#181818;stroke-width:1.0;" x1="43.5" x2="43.5" y1="24.7529" y2="46.7529"/><polygon fill="#181818" points="39.5,36.7529,43.5,46.7529,47.5,36.7529,43.5,40.7529" style="stroke:#181818;stroke-width:1.0;"/><line style="stroke:#181818;stroke-width:1.0;" x1="118" x2="138.5" y1="24.7529" y2="24.7529"/><line style="stroke:#181818;stroke-width:1.0;" x1="138.5" x2="138.5" y1="24.7529" y2="46.7529"/><polygon fill="#181818" points="134.5,36.7529,138.5,46.7529,142.5,36.7529,138.5,40.7529" style="stroke:#181818;stroke-width:1.0;"/><line style="stroke:#181818;stroke-width:1.0;" x1="43.5" x2="43.5" y1="81.8467" y2="99.8467"/><line style="stroke:#181818;stroke-width:1.0;" x1="43.5" x2="79" y1="99.8467" y2="99.8467"/><polygon fill="#181818" points="69,95.8467,79,99.8467,69,103.8467,73,99.8467" style="stroke:#181818;stroke-width:1.0;"/><line style="stroke:#181818;stroke-width:1.0;" x1="138.5" x2="138.5" y1="81.8467" y2="99.8467"/><line style="stroke:#181818;stroke-width:1.0;" x1="138.5" x2="103" y1="99.8467" y2="99.8467"/><polygon fill="#181818" points="113,95.8467,103,99.8467,113,103.8467,109,99.8467" style="stroke:#181818;stroke-width:1.0;"/><!--MD5=[cc5920672a39ccc179b8503858d4fcfe]
@startuml
if (color?) is (<color:red>red) then
:print red;
else
:print not red;
@enduml

PlantUML version 1.2022.3beta3(Unknown compile time)
(GPL source distribution)
Java Runtime: OpenJDK Runtime Environment
JVM: OpenJDK 64-Bit Server VM
Default Encoding: Cp1252
Language: en
Country: US
--></g></svg>