<?xml version="1.0" encoding="UTF-8" standalone="no"?><svg xmlns="http://www.w3.org/2000/svg" xmlns:xlink="http://www.w3.org/1999/xlink" contentStyleType="text/css" height="233px" preserveAspectRatio="none" style="width:208px;height:233px;background:#FFFFFF;" version="1.1" viewBox="0 0 208 233" width="208px" zoomAndPan="magnify"><defs/><g><ellipse cx="107.5" cy="20" fill="#222222" rx="10" ry="10" style="stroke:#222222;stroke-width:1.0;"/><rect fill="#F1F1F1" height="35.0938" rx="12.5" ry="12.5" style="stroke:#181818;stroke-width:0.5;" width="72" x="71.5" y="94"/><text fill="#000000" font-family="sans-serif" font-size="12" lengthAdjust="spacing" textLength="52" x="81.5" y="116.457">read data</text><rect fill="#F1F1F1" height="35.0938" rx="12.5" ry="12.5" style="stroke:#181818;stroke-width:0.5;" width="125" x="45" y="164.0938"/><text fill="#000000" font-family="sans-serif" font-size="12" lengthAdjust="spacing" textLength="105" x="55" y="186.5508">generate diagrams</text><polygon fill="#F1F1F1" points="71.5,50,143.5,50,155.5,62,143.5,74,71.5,74,59.5,62,71.5,50" style="stroke:#181818;stroke-width:0.5;"/><text fill="#000000" font-family="sans-serif" font-size="11" lengthAdjust="spacing" textLength="72" x="71.5" y="66.501">data available?</text><ellipse cx="24" cy="105" rx="11" ry="11" style="stroke:#222222;stroke-width:1.0;fill:none;"/><ellipse cx="24" cy="105" fill="#222222" rx="6" ry="6" style="stroke:#111111;stroke-width:1.0;"/><line style="stroke:#181818;stroke-width:1.0;" x1="107.5" x2="107.5" y1="129.0938" y2="164.0938"/><polygon fill="#181818" points="103.5,154.0938,107.5,164.0938,111.5,154.0938,107.5,158.0938" style="stroke:#181818;stroke-width:1.0;"/><line style="stroke:#181818;stroke-width:1.0;" x1="107.5" x2="107.5" y1="74" y2="94"/><polygon fill="#181818" points="103.5,84,107.5,94,111.5,84,107.5,88" style="stroke:#181818;stroke-width:1.0;"/><line style="stroke:#181818;stroke-width:1.0;" x1="107.5" x2="107.5" y1="199.1875" y2="209.1875"/><line style="stroke:#181818;stroke-width:1.0;" x1="107.5" x2="182" y1="209.1875" y2="209.1875"/><polygon fill="#181818" points="178,144.5938,182,134.5938,186,144.5938,182,140.5938" style="stroke:#181818;stroke-width:1.0;"/><line style="stroke:#181818;stroke-width:1.0;" x1="182" x2="182" y1="62" y2="209.1875"/><line style="stroke:#181818;stroke-width:1.0;" x1="182" x2="155.5" y1="62" y2="62"/><polygon fill="#181818" points="165.5,58,155.5,62,165.5,66,161.5,62" style="stroke:#181818;stroke-width:1.0;"/><line style="stroke:#181818;stroke-width:1.0;" x1="59.5" x2="24" y1="62" y2="62"/><line style="stroke:#181818;stroke-width:1.0;" x1="24" x2="24" y1="62" y2="94"/><polygon fill="#181818" points="20,84,24,94,28,84,24,88" style="stroke:#181818;stroke-width:1.0;"/><line style="stroke:#181818;stroke-width:1.0;" x1="107.5" x2="107.5" y1="30" y2="50"/><polygon fill="#181818" points="103.5,40,107.5,50,111.5,40,107.5,44" style="stroke:#181818;stroke-width:1.0;"/><!--MD5=[eacec893b79c275fd2005f1b3c7b96bb]
@startuml
start

while (data available?)
  :read data;
  :generate diagrams;
end  while

stop
@enduml

PlantUML version 1.2022.3beta3(Unknown compile time)
(GPL source distribution)
Java Runtime: OpenJDK Runtime Environment
JVM: OpenJDK 64-Bit Server VM
Default Encoding: Cp1252
Language: en
Country: US
--></g></svg>