<?xml version="1.0" encoding="UTF-8" standalone="no"?><svg xmlns="http://www.w3.org/2000/svg" xmlns:xlink="http://www.w3.org/1999/xlink" contentStyleType="text/css" height="310px" preserveAspectRatio="none" style="width:174px;height:310px;background:#FFFFFF;" version="1.1" viewBox="0 0 174 310" width="174px" zoomAndPan="magnify"><defs/><g><ellipse cx="73.5" cy="20" fill="#222222" rx="10" ry="10" style="stroke:#222222;stroke-width:1.0;"/><rect fill="#F1F1F1" height="35.0938" rx="12.5" ry="12.5" style="stroke:#181818;stroke-width:0.5;" width="72" x="37.5" y="94"/><text fill="#000000" font-family="sans-serif" font-size="12" lengthAdjust="spacing" textLength="52" x="47.5" y="116.457">read data</text><rect fill="#F1F1F1" height="35.0938" rx="12.5" ry="12.5" style="stroke:#181818;stroke-width:0.5;" width="125" x="11" y="156.5938"/><text fill="#000000" font-family="sans-serif" font-size="12" lengthAdjust="spacing" textLength="105" x="21" y="179.0508">generate diagrams</text><polygon fill="#F1F1F1" points="73.5,50,85.5,62,73.5,74,61.5,62,73.5,50" style="stroke:#181818;stroke-width:0.5;"/><polygon fill="#F1F1F1" points="46.5,211.6875,100.5,211.6875,112.5,223.6875,100.5,235.6875,46.5,235.6875,34.5,223.6875,46.5,211.6875" style="stroke:#181818;stroke-width:0.5;"/><text fill="#000000" font-family="sans-serif" font-size="11" lengthAdjust="spacing" textLength="54" x="46.5" y="228.1885">more data?</text><text fill="#000000" font-family="sans-serif" font-size="11" lengthAdjust="spacing" textLength="18" x="112.5" y="221.2705">yes</text><ellipse cx="73.5" cy="288.9404" rx="11" ry="11" style="stroke:#222222;stroke-width:1.0;fill:none;"/><ellipse cx="73.5" cy="288.9404" fill="#222222" rx="6" ry="6" style="stroke:#111111;stroke-width:1.0;"/><line style="stroke:#181818;stroke-width:1.0;" x1="73.5" x2="73.5" y1="129.0938" y2="156.5938"/><polygon fill="#181818" points="69.5,146.5938,73.5,156.5938,77.5,146.5938,73.5,150.5938" style="stroke:#181818;stroke-width:1.0;"/><line style="stroke:#181818;stroke-width:1.0;" x1="73.5" x2="73.5" y1="74" y2="94"/><polygon fill="#181818" points="69.5,84,73.5,94,77.5,84,73.5,88" style="stroke:#181818;stroke-width:1.0;"/><line style="stroke:#181818;stroke-width:1.0;" x1="112.5" x2="148" y1="223.6875" y2="223.6875"/><polygon fill="#181818" points="144,149.0938,148,139.0938,152,149.0938,148,145.0938" style="stroke:#181818;stroke-width:1.0;"/><line style="stroke:#181818;stroke-width:1.0;" x1="148" x2="148" y1="62" y2="223.6875"/><line style="stroke:#181818;stroke-width:1.0;" x1="148" x2="85.5" y1="62" y2="62"/><polygon fill="#181818" points="95.5,58,85.5,62,95.5,66,91.5,62" style="stroke:#181818;stroke-width:1.0;"/><line style="stroke:#181818;stroke-width:1.0;" x1="73.5" x2="73.5" y1="191.6875" y2="211.6875"/><polygon fill="#181818" points="69.5,201.6875,73.5,211.6875,77.5,201.6875,73.5,205.6875" style="stroke:#181818;stroke-width:1.0;"/><line style="stroke:#181818;stroke-width:1.0;" x1="73.5" x2="73.5" y1="30" y2="50"/><polygon fill="#181818" points="69.5,40,73.5,50,77.5,40,73.5,44" style="stroke:#181818;stroke-width:1.0;"/><line style="stroke:#181818;stroke-width:1.0;" x1="73.5" x2="73.5" y1="235.6875" y2="277.9404"/><polygon fill="#181818" points="69.5,267.9404,73.5,277.9404,77.5,267.9404,73.5,271.9404" style="stroke:#181818;stroke-width:1.0;"/><text fill="#000000" font-family="sans-serif" font-size="11" lengthAdjust="spacing" textLength="12" x="77.5" y="258.0234">no</text><!--MD5=[556c2f830e0cbc0faf45beda43f10303]
@startuml
start
repeat
        :read data;
        :generate diagrams;
repeat while (more data?) is (yes)
->no;
stop
@enduml

PlantUML version 1.2022.3beta3(Unknown compile time)
(GPL source distribution)
Java Runtime: OpenJDK Runtime Environment
JVM: OpenJDK 64-Bit Server VM
Default Encoding: Cp1252
Language: en
Country: US
--></g></svg>