<?xml version="1.0" encoding="UTF-8" standalone="no"?><svg xmlns="http://www.w3.org/2000/svg" xmlns:xlink="http://www.w3.org/1999/xlink" contentStyleType="text/css" height="307px" preserveAspectRatio="none" style="width:283px;height:307px;background:#FFFFFF;" version="1.1" viewBox="0 0 283 307" width="283px" zoomAndPan="magnify"><defs/><g><ellipse cx="75" cy="20" fill="#222222" rx="10" ry="10" style="stroke:#222222;stroke-width:1.0;"/><rect fill="#F1F1F1" height="35.0938" rx="12.5" ry="12.5" style="stroke:#181818;stroke-width:0.5;" width="72" x="39" y="105.0938"/><text fill="#000000" font-family="sans-serif" font-size="12" lengthAdjust="spacing" textLength="52" x="49" y="127.5508">read data</text><rect fill="#F1F1F1" height="35.0938" rx="12.5" ry="12.5" style="stroke:#181818;stroke-width:0.5;" width="125" x="12.5" y="175.1875"/><text fill="#000000" font-family="sans-serif" font-size="12" lengthAdjust="spacing" textLength="105" x="22.5" y="197.6445">generate diagrams</text><rect fill="#F1F1F1" height="35.0938" rx="12.5" ry="12.5" style="stroke:#181818;stroke-width:0.5;" width="128" x="11" y="50"/><text fill="#000000" font-family="sans-serif" font-size="12" lengthAdjust="spacing" textLength="108" x="21" y="72.457">foo as starting label</text><polygon fill="#F1F1F1" points="48,230.2813,102,230.2813,114,242.2813,102,254.2813,48,254.2813,36,242.2813,48,230.2813" style="stroke:#181818;stroke-width:0.5;"/><text fill="#000000" font-family="sans-serif" font-size="11" lengthAdjust="spacing" textLength="54" x="48" y="246.7822">more data?</text><rect fill="#F1F1F1" height="35.0938" rx="12.5" ry="12.5" style="stroke:#181818;stroke-width:0.5;" width="113" x="159" y="134.5938"/><text fill="#000000" font-family="sans-serif" font-size="12" lengthAdjust="spacing" textLength="93" x="169" y="157.0508">This is backward</text><ellipse cx="75" cy="285.2813" rx="11" ry="11" style="stroke:#222222;stroke-width:1.0;fill:none;"/><ellipse cx="75" cy="285.2813" fill="#222222" rx="6" ry="6" style="stroke:#111111;stroke-width:1.0;"/><line style="stroke:#181818;stroke-width:1.0;" x1="75" x2="75" y1="140.1875" y2="175.1875"/><polygon fill="#181818" points="71,165.1875,75,175.1875,79,165.1875,75,169.1875" style="stroke:#181818;stroke-width:1.0;"/><line style="stroke:#181818;stroke-width:1.0;" x1="75" x2="75" y1="85.0938" y2="105.0938"/><polygon fill="#181818" points="71,95.0938,75,105.0938,79,95.0938,75,99.0938" style="stroke:#181818;stroke-width:1.0;"/><line style="stroke:#181818;stroke-width:1.0;" x1="114" x2="215.5" y1="242.2813" y2="242.2813"/><line style="stroke:#181818;stroke-width:1.0;" x1="215.5" x2="215.5" y1="169.6875" y2="242.2813"/><polygon fill="#181818" points="211.5,179.6875,215.5,169.6875,219.5,179.6875,215.5,175.6875" style="stroke:#181818;stroke-width:1.0;"/><line style="stroke:#181818;stroke-width:1.0;" x1="215.5" x2="215.5" y1="67.5469" y2="134.5938"/><line style="stroke:#181818;stroke-width:1.0;" x1="215.5" x2="139" y1="67.5469" y2="67.5469"/><polygon fill="#181818" points="149,63.5469,139,67.5469,149,71.5469,145,67.5469" style="stroke:#181818;stroke-width:1.0;"/><line style="stroke:#181818;stroke-width:1.0;" x1="75" x2="75" y1="210.2813" y2="230.2813"/><polygon fill="#181818" points="71,220.2813,75,230.2813,79,220.2813,75,224.2813" style="stroke:#181818;stroke-width:1.0;"/><line style="stroke:#181818;stroke-width:1.0;" x1="75" x2="75" y1="30" y2="50"/><polygon fill="#181818" points="71,40,75,50,79,40,75,44" style="stroke:#181818;stroke-width:1.0;"/><line style="stroke:#181818;stroke-width:1.0;" x1="75" x2="75" y1="254.2813" y2="274.2813"/><polygon fill="#181818" points="71,264.2813,75,274.2813,79,264.2813,75,268.2813" style="stroke:#181818;stroke-width:1.0;"/><!--MD5=[e51a3b5a4da035961befb76ee1447ecb]
@startuml
start
repeat :foo as starting label;
:read data;
:generate diagrams;
backward :This is backward;
repeat while (more data?)
stop
@enduml

PlantUML version 1.2022.3beta3(Unknown compile time)
(GPL source distribution)
Java Runtime: OpenJDK Runtime Environment
JVM: OpenJDK 64-Bit Server VM
Default Encoding: Cp1252
Language: en
Country: US
--></g></svg>