<?xml version="1.0" encoding="UTF-8" standalone="no"?><svg xmlns="http://www.w3.org/2000/svg" xmlns:xlink="http://www.w3.org/1999/xlink" contentStyleType="text/css" height="571px" preserveAspectRatio="none" style="width:269px;height:571px;background:#FFFFFF;" version="1.1" viewBox="0 0 269 571" width="269px" zoomAndPan="magnify"><defs/><g><ellipse cx="125.5" cy="20" fill="#222222" rx="10" ry="10" style="stroke:#222222;stroke-width:1.0;"/><rect fill="#F1F1F1" height="35.0938" rx="12.5" ry="12.5" style="stroke:#181818;stroke-width:0.5;" width="106" x="72.5" y="94"/><text fill="#000000" font-family="sans-serif" font-size="12" lengthAdjust="spacing" textLength="86" x="82.5" y="116.457">Test something</text><rect fill="#98FB98" height="35.0938" rx="12.5" ry="12.5" style="stroke:#181818;stroke-width:0.5;" width="37" x="107" y="198.0117"/><text fill="#000000" font-family="sans-serif" font-size="12" lengthAdjust="spacing" textLength="17" x="117" y="220.4688">OK</text><polygon fill="#F1F1F1" points="66,149.0938,185,149.0938,197,161.0938,185,173.0938,66,173.0938,54,161.0938,66,149.0938" style="stroke:#181818;stroke-width:0.5;"/><text fill="#000000" font-family="sans-serif" font-size="11" lengthAdjust="spacing" textLength="12" x="129.5" y="184.5127">no</text><text fill="#000000" font-family="sans-serif" font-size="11" lengthAdjust="spacing" textLength="119" x="66" y="165.5947">Something went wrong?</text><rect fill="#F1F1F1" height="35.0938" rx="12.5" ry="12.5" style="stroke:#181818;stroke-width:0.5;" width="155" x="48" y="305.2295"/><text fill="#000000" font-family="sans-serif" font-size="12" lengthAdjust="spacing" textLength="135" x="58" y="327.6865">Alert "Error with long text"</text><polygon fill="#F1F1F1" points="125.5,50,137.5,62,125.5,74,113.5,62,125.5,50" style="stroke:#181818;stroke-width:0.5;"/><polygon fill="#F1F1F1" points="32,360.3232,219,360.3232,231,372.3232,219,384.3232,32,384.3232,20,372.3232,32,360.3232" style="stroke:#181818;stroke-width:0.5;"/><text fill="#000000" font-family="sans-serif" font-size="11" lengthAdjust="spacing" textLength="12" x="129.5" y="395.7422">no</text><text fill="#000000" font-family="sans-serif" font-size="11" lengthAdjust="spacing" textLength="187" x="32" y="376.8242">Something went wrong with long text?</text><text fill="#000000" font-family="sans-serif" font-size="11" lengthAdjust="spacing" textLength="18" x="231" y="369.9063">yes</text><polygon fill="#F1F1F1" points="125.5,417.2422,137.5,429.2422,125.5,441.2422,113.5,429.2422,125.5,417.2422" style="stroke:#181818;stroke-width:0.5;"/><rect fill="#F1F1F1" height="35.0938" rx="12.5" ry="12.5" style="stroke:#181818;stroke-width:0.5;" width="97" x="77" y="483.4951"/><text fill="#000000" font-family="sans-serif" font-size="12" lengthAdjust="spacing" textLength="77" x="87" y="505.9521">Alert "Sucess"</text><ellipse cx="125.5" cy="549.5889" rx="11" ry="11" style="stroke:#222222;stroke-width:1.0;fill:none;"/><ellipse cx="125.5" cy="549.5889" fill="#222222" rx="6" ry="6" style="stroke:#111111;stroke-width:1.0;"/><line style="stroke:#181818;stroke-width:1.0;" x1="125.5" x2="125.5" y1="233.1055" y2="245.9766"/><line style="stroke:#181818;stroke-width:1.0;" x1="125.5" x2="10" y1="245.9766" y2="245.9766"/><line style="stroke:#181818;stroke-width:1.0;" x1="10" x2="10" y1="245.9766" y2="429.2422"/><line style="stroke:#181818;stroke-width:1.0;" x1="10" x2="113.5" y1="429.2422" y2="429.2422"/><polygon fill="#181818" points="103.5,425.2422,113.5,429.2422,103.5,433.2422,107.5,429.2422" style="stroke:#181818;stroke-width:1.0;"/><line style="stroke:#181818;stroke-width:1.0;" x1="125.5" x2="125.5" y1="173.0938" y2="198.0117"/><polygon fill="#181818" points="121.5,188.0117,125.5,198.0117,129.5,188.0117,125.5,192.0117" style="stroke:#181818;stroke-width:1.0;"/><line style="stroke:#181818;stroke-width:1.0;" x1="197" x2="209" y1="161.0938" y2="161.0938"/><polygon fill="#181818" points="205,220.0586,209,230.0586,213,220.0586,209,224.0586" style="stroke:#181818;stroke-width:1.0;"/><line style="stroke:#181818;stroke-width:1.0;" x1="209" x2="209" y1="161.0938" y2="262.9766"/><line style="stroke:#181818;stroke-width:1.0;" x1="209" x2="125.5" y1="262.9766" y2="262.9766"/><line style="stroke:#181818;stroke-width:1.0;" x1="125.5" x2="125.5" y1="129.0938" y2="149.0938"/><polygon fill="#181818" points="121.5,139.0938,125.5,149.0938,129.5,139.0938,125.5,143.0938" style="stroke:#181818;stroke-width:1.0;"/><line style="stroke:#181818;stroke-width:1.0;" x1="125.5" x2="125.5" y1="262.9766" y2="305.2295"/><polygon fill="#181818" points="121.5,295.2295,125.5,305.2295,129.5,295.2295,125.5,299.2295" style="stroke:#181818;stroke-width:1.0;"/><text fill="#000000" font-family="sans-serif" font-size="11" lengthAdjust="spacing" textLength="22" x="129.5" y="285.3125">NOK</text><line style="stroke:#181818;stroke-width:1.0;" x1="125.5" x2="125.5" y1="74" y2="94"/><polygon fill="#181818" points="121.5,84,125.5,94,129.5,84,125.5,88" style="stroke:#181818;stroke-width:1.0;"/><line style="stroke:#181818;stroke-width:1.0;" x1="231" x2="243" y1="372.3232" y2="372.3232"/><polygon fill="#181818" points="239,240.9766,243,230.9766,247,240.9766,243,236.9766" style="stroke:#181818;stroke-width:1.0;"/><line style="stroke:#181818;stroke-width:1.0;" x1="243" x2="243" y1="62" y2="372.3232"/><line style="stroke:#181818;stroke-width:1.0;" x1="243" x2="137.5" y1="62" y2="62"/><polygon fill="#181818" points="147.5,58,137.5,62,147.5,66,143.5,62" style="stroke:#181818;stroke-width:1.0;"/><line style="stroke:#181818;stroke-width:1.0;" x1="125.5" x2="125.5" y1="340.3232" y2="360.3232"/><polygon fill="#181818" points="121.5,350.3232,125.5,360.3232,129.5,350.3232,125.5,354.3232" style="stroke:#181818;stroke-width:1.0;"/><line style="stroke:#181818;stroke-width:1.0;" x1="125.5" x2="125.5" y1="384.3232" y2="417.2422"/><polygon fill="#181818" points="121.5,407.2422,125.5,417.2422,129.5,407.2422,125.5,411.2422" style="stroke:#181818;stroke-width:1.0;"/><line style="stroke:#181818;stroke-width:1.0;" x1="125.5" x2="125.5" y1="30" y2="50"/><polygon fill="#181818" points="121.5,40,125.5,50,129.5,40,125.5,44" style="stroke:#181818;stroke-width:1.0;"/><line style="stroke:#181818;stroke-width:1.0;" x1="125.5" x2="125.5" y1="441.2422" y2="483.4951"/><polygon fill="#181818" points="121.5,473.4951,125.5,483.4951,129.5,473.4951,125.5,477.4951" style="stroke:#181818;stroke-width:1.0;"/><text fill="#000000" font-family="sans-serif" font-size="11" font-style="italic" lengthAdjust="spacing" textLength="61" x="129.5" y="463.5781">merged step</text><line style="stroke:#181818;stroke-width:1.0;" x1="125.5" x2="125.5" y1="518.5889" y2="538.5889"/><polygon fill="#181818" points="121.5,528.5889,125.5,538.5889,129.5,528.5889,125.5,532.5889" style="stroke:#181818;stroke-width:1.0;"/><!--MD5=[f4419ed41465f7ec56a74bf01a4576c6]
@startuml
start
repeat
  :Test something;
    if (Something went wrong?) then (no)
      #palegreen:OK;
      break
    endif
    ->NOK;
    :Alert "Error with long text";
repeat while (Something went wrong with long text?) is (yes) not (no)
->//merged step//;
:Alert "Sucess";
stop
@enduml

PlantUML version 1.2022.3beta3(Unknown compile time)
(GPL source distribution)
Java Runtime: OpenJDK Runtime Environment
JVM: OpenJDK 64-Bit Server VM
Default Encoding: Cp1252
Language: en
Country: US
--></g></svg>