<?xml version="1.0" encoding="UTF-8" standalone="no"?><svg xmlns="http://www.w3.org/2000/svg" xmlns:xlink="http://www.w3.org/1999/xlink" contentStyleType="text/css" height="186px" preserveAspectRatio="none" style="width:415px;height:186px;background:#FFFFFF;" version="1.1" viewBox="0 0 415 186" width="415px" zoomAndPan="magnify"><defs/><g><!--MD5=[bdbee0fc59a29b9ec21c283a244fef13]
entity DA--><g id="elem_DA"><ellipse cx="55" cy="31" fill="#F1F1F1" rx="8" ry="8" style="stroke:#181818;stroke-width:0.5;"/><text fill="#000000" font-family="sans-serif" font-size="14" lengthAdjust="spacing" textLength="79" x="15.5" y="62.5332">Data Access</text></g><!--MD5=[cbd7cda55f2530e2efe43ec72c097853]
entity First Component--><g id="elem_First Component"><rect fill="#F1F1F1" height="47.6094" rx="2.5" ry="2.5" style="stroke:#181818;stroke-width:0.5;" width="145" x="99.5" y="7"/><rect fill="#F1F1F1" height="10" style="stroke:#181818;stroke-width:0.5;" width="15" x="224.5" y="12"/><rect fill="#F1F1F1" height="2" style="stroke:#181818;stroke-width:0.5;" width="4" x="222.5" y="14"/><rect fill="#F1F1F1" height="2" style="stroke:#181818;stroke-width:0.5;" width="4" x="222.5" y="18"/><text fill="#000000" font-family="sans-serif" font-size="14" lengthAdjust="spacing" textLength="105" x="114.5" y="41.5332">First Component</text></g><!--MD5=[96f7e1299d4a43069e6ed32352fcac20]
entity HTTP--><g id="elem_HTTP"><ellipse cx="172" cy="146" fill="#F1F1F1" rx="8" ry="8" style="stroke:#181818;stroke-width:0.5;"/><text fill="#000000" font-family="sans-serif" font-size="14" lengthAdjust="spacing" textLength="36" x="154" y="177.5332">HTTP</text></g><g id="elem_GMN8"><path d="M6,133 L6,159.3516 A0,0 0 0 0 6,159.3516 L128,159.3516 A0,0 0 0 0 128,159.3516 L128,151 L162.74,146 L128,143 L128,143 L118,133 L6,133 A0,0 0 0 0 6,133 " fill="#FEFFDD" style="stroke:#181818;stroke-width:0.5;"/><path d="M118,133 L118,143 L128,143 L118,133 " fill="#FEFFDD" style="stroke:#181818;stroke-width:0.5;"/><text fill="#000000" font-family="sans-serif" font-size="13" lengthAdjust="spacing" textLength="101" x="12" y="151.4951">Web Service only</text></g><g id="elem_GMN11"><path d="M280,9.5 L280,27 L244.56,31 L280,35 L280,52.2031 A0,0 0 0 0 280,52.2031 L408,52.2031 A0,0 0 0 0 408,52.2031 L408,19.5 L398,9.5 L280,9.5 A0,0 0 0 0 280,9.5 " fill="#FEFFDD" style="stroke:#181818;stroke-width:0.5;"/><path d="M398,9.5 L398,19.5 L408,19.5 L398,9.5 " fill="#FEFFDD" style="stroke:#181818;stroke-width:0.5;"/><text fill="#000000" font-family="sans-serif" font-size="13" lengthAdjust="spacing" textLength="91" x="286" y="27.9951">A note can also</text><text fill="#000000" font-family="sans-serif" font-size="13" lengthAdjust="spacing" textLength="107" x="286" y="44.3467">be on several lines</text></g><g id="elem_N1"><path d="M216,133 L216,142 L181.11,146 L216,150 L216,159.3516 A0,0 0 0 0 216,159.3516 L350,159.3516 A0,0 0 0 0 350,159.3516 L350,143 L340,133 L216,133 A0,0 0 0 0 216,133 " fill="#FEFFDD" style="stroke:#181818;stroke-width:0.5;"/><path d="M340,133 L340,143 L350,143 L340,133 " fill="#FEFFDD" style="stroke:#181818;stroke-width:0.5;"/><text fill="#000000" font-family="sans-serif" font-size="13" lengthAdjust="spacing" textLength="113" x="222" y="151.4951">A new note, at right</text></g><!--MD5=[363fa5e0e34baebc00cf77642f1dd18b]
link DA to First Component--><g id="link_DA_First Component"><path d="M64.14,31 C75.8,31 87.45,31 99.11,31 " fill="none" id="DA-First Component" style="stroke:#181818;stroke-width:1.0;"/></g><!--MD5=[b31ac7abd68f04ca600009a3528fb133]
link First Component to HTTP--><g id="link_First Component_HTTP"><path d="M172,55.14 C172,78.2 172,112.8 172,131.63 " fill="none" id="First Component-to-HTTP" style="stroke:#181818;stroke-width:1.0;stroke-dasharray:7.0,7.0;"/><polygon fill="#181818" points="172,136.93,176,127.93,172,131.93,168,127.93,172,136.93" style="stroke:#181818;stroke-width:1.0;"/><text fill="#000000" font-family="sans-serif" font-size="13" lengthAdjust="spacing" textLength="21" x="173" y="99.4951">use</text></g><!--MD5=[c7208517572b07dccdb74a7a2b54464a]
@startuml
interface "Data Access" as DA
DA - [First Component]
[First Component] ..> HTTP : use

note left of HTTP : Web Service only
note right of [First Component]
        A note can also
        be on several lines
end note
note "A new note, at right" as N1
HTTP .r. N1
@enduml

PlantUML version 1.2022.3beta3(Unknown compile time)
(GPL source distribution)
Java Runtime: OpenJDK Runtime Environment
JVM: OpenJDK 64-Bit Server VM
Default Encoding: UTF-8
Language: en
Country: US
--></g></svg>