<?xml version="1.0" encoding="UTF-8" standalone="no"?><svg xmlns="http://www.w3.org/2000/svg" xmlns:xlink="http://www.w3.org/1999/xlink" contentStyleType="text/css" height="82px" preserveAspectRatio="none" style="width:214px;height:82px;background:#FFFFFF;" version="1.1" viewBox="0 0 214 82" width="214px" zoomAndPan="magnify"><defs/><g><rect fill="#F1E5E5" height="35.6719" style="stroke:none;stroke-width:1.0;" width="8" x="4" y="29"/><rect fill="#F1E5E5" height="35.6719" style="stroke:none;stroke-width:1.0;" width="8" x="32" y="29"/><rect fill="#F1E5E5" height="35.6719" style="stroke:none;stroke-width:1.0;" width="8" x="60" y="29"/><rect fill="#FA8072" height="35.6719" style="stroke:none;stroke-width:1.0;" width="20" x="68" y="29"/><rect fill="#F1E5E5" height="35.6719" style="stroke:none;stroke-width:1.0;" width="8" x="88" y="29"/><rect fill="#F1E5E5" height="35.6719" style="stroke:none;stroke-width:1.0;" width="8" x="116" y="29"/><rect fill="#F1E5E5" height="35.6719" style="stroke:none;stroke-width:1.0;" width="8" x="144" y="29"/><rect fill="#F1E5E5" height="35.6719" style="stroke:none;stroke-width:1.0;" width="8" x="172" y="29"/><text fill="#000000" font-family="Serif" font-size="10" lengthAdjust="spacing" textLength="5" x="17" y="26.4785">1</text><text fill="#000000" font-family="Serif" font-size="10" lengthAdjust="spacing" textLength="5" x="45" y="26.4785">2</text><text fill="#000000" font-family="Serif" font-size="10" lengthAdjust="spacing" textLength="5" x="73" y="26.4785">3</text><text fill="#000000" font-family="Serif" font-size="10" lengthAdjust="spacing" textLength="5" x="101" y="26.4785">4</text><text fill="#000000" font-family="Serif" font-size="10" lengthAdjust="spacing" textLength="5" x="129" y="26.4785">5</text><text fill="#000000" font-family="Serif" font-size="10" lengthAdjust="spacing" textLength="5" x="157" y="26.4785">6</text><text fill="#000000" font-family="Serif" font-size="10" lengthAdjust="spacing" textLength="5" x="185" y="26.4785">7</text><line style="stroke:#C0C0C0;stroke-width:1.0;" x1="12" x2="12" y1="16" y2="64.6719"/><line style="stroke:#C0C0C0;stroke-width:1.0;" x1="40" x2="40" y1="16" y2="64.6719"/><line style="stroke:#C0C0C0;stroke-width:1.0;" x1="68" x2="68" y1="16" y2="64.6719"/><line style="stroke:#C0C0C0;stroke-width:1.0;" x1="96" x2="96" y1="16" y2="64.6719"/><line style="stroke:#C0C0C0;stroke-width:1.0;" x1="124" x2="124" y1="16" y2="64.6719"/><line style="stroke:#C0C0C0;stroke-width:1.0;" x1="152" x2="152" y1="16" y2="64.6719"/><line style="stroke:#C0C0C0;stroke-width:1.0;" x1="180" x2="180" y1="16" y2="64.6719"/><line style="stroke:#C0C0C0;stroke-width:1.0;" x1="188" x2="188" y1="16" y2="64.6719"/><line style="stroke:#C0C0C0;stroke-width:1.0;" x1="0" x2="0" y1="0" y2="16"/><line style="stroke:#C0C0C0;stroke-width:1.0;" x1="124" x2="124" y1="0" y2="16"/><text fill="#000000" font-family="Serif" font-size="12" font-weight="bold" lengthAdjust="spacing" textLength="46" x="39" y="12.5742">Jan 2021</text><line style="stroke:#C0C0C0;stroke-width:1.0;" x1="188" x2="188" y1="0" y2="16"/><text fill="#000000" font-family="Serif" font-size="12" font-weight="bold" lengthAdjust="spacing" textLength="46" x="133" y="12.5742">Feb 2021</text><line style="stroke:#C0C0C0;stroke-width:1.0;" x1="0" x2="188" y1="0" y2="0"/><line style="stroke:#C0C0C0;stroke-width:1.0;" x1="0" x2="188" y1="16" y2="16"/><line style="stroke:#C0C0C0;stroke-width:1.0;" x1="0" x2="188" y1="29" y2="29"/><line style="stroke:#181818;stroke-width:1.5;" x1="99" x2="99" y1="44.8359" y2="55.7539"/><line style="stroke:#181818;stroke-width:1.5;" x1="99" x2="107" y1="55.7539" y2="55.7539"/><polygon fill="#181818" points="103,51.7539,103,55.7539,103,59.7539,107,55.7539" style="stroke:#181818;stroke-width:1.5;"/><rect fill="#E6E6FA" height="13.8359" style="stroke:none;stroke-width:1.0;" width="3" x="2" y="31"/><line style="stroke:#ADD8E6;stroke-width:1.0;" x1="2" x2="3" y1="31" y2="31"/><line style="stroke:#ADD8E6;stroke-width:1.0;" x1="2" x2="3" y1="44.8359" y2="44.8359"/><line style="stroke:#ADD8E6;stroke-width:1.0;" x1="2" x2="2" y1="31" y2="44.8359"/><rect fill="#E6E6FA" height="13.8359" style="stroke:none;stroke-width:1.0;" width="21" x="12" y="31"/><line style="stroke:#ADD8E6;stroke-width:1.0;" x1="13" x2="32" y1="31" y2="31"/><line style="stroke:#ADD8E6;stroke-width:1.0;" x1="13" x2="32" y1="44.8359" y2="44.8359"/><rect fill="#E6E6FA" height="13.8359" style="stroke:none;stroke-width:1.0;" width="21" x="40" y="31"/><line style="stroke:#ADD8E6;stroke-width:1.0;" x1="41" x2="60" y1="31" y2="31"/><line style="stroke:#ADD8E6;stroke-width:1.0;" x1="41" x2="60" y1="44.8359" y2="44.8359"/><rect fill="#E6E6FA" height="13.8359" style="stroke:none;stroke-width:1.0;" width="21" x="68" y="31"/><line style="stroke:#ADD8E6;stroke-width:1.0;" x1="69" x2="88" y1="31" y2="31"/><line style="stroke:#ADD8E6;stroke-width:1.0;" x1="69" x2="88" y1="44.8359" y2="44.8359"/><rect fill="#E6E6FA" height="13.8359" style="stroke:none;stroke-width:1.0;" width="10" x="96" y="31"/><line style="stroke:#ADD8E6;stroke-width:1.0;" x1="97" x2="106" y1="31" y2="31"/><line style="stroke:#ADD8E6;stroke-width:1.0;" x1="97" x2="106" y1="44.8359" y2="44.8359"/><line style="stroke:#ADD8E6;stroke-width:1.0;" x1="106" x2="106" y1="31" y2="44.8359"/><line style="stroke:#ADD8E6;stroke-width:1.0;stroke-dasharray:2.0,3.0;" x1="7" x2="9" y1="31" y2="31"/><line style="stroke:#ADD8E6;stroke-width:1.0;stroke-dasharray:2.0,3.0;" x1="7" x2="9" y1="44.8359" y2="44.8359"/><line style="stroke:#ADD8E6;stroke-width:1.0;stroke-dasharray:2.0,3.0;" x1="35" x2="37" y1="31" y2="31"/><line style="stroke:#ADD8E6;stroke-width:1.0;stroke-dasharray:2.0,3.0;" x1="35" x2="37" y1="44.8359" y2="44.8359"/><line style="stroke:#ADD8E6;stroke-width:1.0;stroke-dasharray:2.0,3.0;" x1="63" x2="65" y1="31" y2="31"/><line style="stroke:#ADD8E6;stroke-width:1.0;stroke-dasharray:2.0,3.0;" x1="63" x2="65" y1="44.8359" y2="44.8359"/><line style="stroke:#ADD8E6;stroke-width:1.0;stroke-dasharray:2.0,3.0;" x1="91" x2="93" y1="31" y2="31"/><line style="stroke:#ADD8E6;stroke-width:1.0;stroke-dasharray:2.0,3.0;" x1="91" x2="93" y1="44.8359" y2="44.8359"/><rect fill="#E2E2F0" height="13.8359" style="stroke:none;stroke-width:1.0;" width="7" x="110" y="48.8359"/><line style="stroke:#181818;stroke-width:1.0;" x1="110" x2="115" y1="48.8359" y2="48.8359"/><line style="stroke:#181818;stroke-width:1.0;" x1="110" x2="115" y1="62.6719" y2="62.6719"/><line style="stroke:#181818;stroke-width:1.0;" x1="110" x2="110" y1="48.8359" y2="62.6719"/><rect fill="#E2E2F0" height="13.8359" style="stroke:none;stroke-width:1.0;" width="21" x="124" y="48.8359"/><line style="stroke:#181818;stroke-width:1.0;" x1="125" x2="144" y1="48.8359" y2="48.8359"/><line style="stroke:#181818;stroke-width:1.0;" x1="125" x2="144" y1="62.6719" y2="62.6719"/><rect fill="#E2E2F0" height="13.8359" style="stroke:none;stroke-width:1.0;" width="21" x="152" y="48.8359"/><line style="stroke:#181818;stroke-width:1.0;" x1="153" x2="172" y1="48.8359" y2="48.8359"/><line style="stroke:#181818;stroke-width:1.0;" x1="153" x2="172" y1="62.6719" y2="62.6719"/><rect fill="#E2E2F0" height="13.8359" style="stroke:none;stroke-width:1.0;" width="6" x="180" y="48.8359"/><line style="stroke:#181818;stroke-width:1.0;" x1="181" x2="186" y1="48.8359" y2="48.8359"/><line style="stroke:#181818;stroke-width:1.0;" x1="181" x2="186" y1="62.6719" y2="62.6719"/><line style="stroke:#181818;stroke-width:1.0;" x1="186" x2="186" y1="48.8359" y2="62.6719"/><line style="stroke:#181818;stroke-width:1.0;stroke-dasharray:2.0,3.0;" x1="119" x2="121" y1="48.8359" y2="48.8359"/><line style="stroke:#181818;stroke-width:1.0;stroke-dasharray:2.0,3.0;" x1="119" x2="121" y1="62.6719" y2="62.6719"/><line style="stroke:#181818;stroke-width:1.0;stroke-dasharray:2.0,3.0;" x1="147" x2="149" y1="48.8359" y2="48.8359"/><line style="stroke:#181818;stroke-width:1.0;stroke-dasharray:2.0,3.0;" x1="147" x2="149" y1="62.6719" y2="62.6719"/><line style="stroke:#181818;stroke-width:1.0;stroke-dasharray:2.0,3.0;" x1="175" x2="177" y1="48.8359" y2="48.8359"/><line style="stroke:#181818;stroke-width:1.0;stroke-dasharray:2.0,3.0;" x1="175" x2="177" y1="62.6719" y2="62.6719"/><text fill="#000000" font-family="sans-serif" font-size="11" lengthAdjust="spacing" textLength="102" x="110" y="42.4189">Prototype design end</text><text fill="#000000" font-family="sans-serif" font-size="11" lengthAdjust="spacing" textLength="35" x="114" y="60.2549">Testing</text><line style="stroke:#C0C0C0;stroke-width:1.0;" x1="0" x2="188" y1="64.6719" y2="64.6719"/><line style="stroke:#C0C0C0;stroke-width:1.0;" x1="0" x2="0" y1="64.6719" y2="80.6719"/><line style="stroke:#C0C0C0;stroke-width:1.0;" x1="124" x2="124" y1="64.6719" y2="80.6719"/><text fill="#000000" font-family="Serif" font-size="12" font-weight="bold" lengthAdjust="spacing" textLength="46" x="39" y="77.2461">Jan 2021</text><line style="stroke:#C0C0C0;stroke-width:1.0;" x1="188" x2="188" y1="64.6719" y2="80.6719"/><text fill="#000000" font-family="Serif" font-size="12" font-weight="bold" lengthAdjust="spacing" textLength="46" x="133" y="77.2461">Feb 2021</text><line style="stroke:#C0C0C0;stroke-width:1.0;" x1="0" x2="188" y1="80.6719" y2="80.6719"/><!--MD5=[b7ac13ab4977c87379df5f2908ec0cb6]
@startuml
printscale weekly
saturday are closed
sunday are closed
Project starts the 1st of january 2021
[Prototype design end] as [TASK1] lasts 19 days
[TASK1] is colored in Lavender/LightBlue
[Testing] lasts 14 days
[TASK1]->[Testing]
2021-01-18 to 2021-01-22 are named [End's committee]
2021-01-18 to 2021-01-22 are colored in salmon
@enduml

PlantUML version 1.2022.3beta3(Unknown compile time)
(GPL source distribution)
Java Runtime: OpenJDK Runtime Environment
JVM: OpenJDK 64-Bit Server VM
Default Encoding: UTF-8
Language: en
Country: US
--></g></svg>