<?xml version="1.0" encoding="UTF-8" standalone="no"?><svg xmlns="http://www.w3.org/2000/svg" xmlns:xlink="http://www.w3.org/1999/xlink" contentStyleType="text/css" height="51px" preserveAspectRatio="none" style="width:162px;height:51px;background:#FFFFFF;" version="1.1" viewBox="0 0 162 51" width="162px" zoomAndPan="magnify"><defs/><g><line style="stroke:#C0C0C0;stroke-width:1.0;" x1="0" x2="0" y1="0" y2="33.8359"/><line style="stroke:#C0C0C0;stroke-width:1.0;" x1="16" x2="16" y1="0" y2="33.8359"/><line style="stroke:#C0C0C0;stroke-width:1.0;" x1="32" x2="32" y1="0" y2="33.8359"/><line style="stroke:#C0C0C0;stroke-width:1.0;" x1="48" x2="48" y1="0" y2="33.8359"/><line style="stroke:#C0C0C0;stroke-width:1.0;" x1="64" x2="64" y1="0" y2="33.8359"/><line style="stroke:#C0C0C0;stroke-width:1.0;" x1="80" x2="80" y1="0" y2="33.8359"/><line style="stroke:#C0C0C0;stroke-width:1.0;" x1="96" x2="96" y1="0" y2="33.8359"/><line style="stroke:#C0C0C0;stroke-width:1.0;" x1="112" x2="112" y1="0" y2="33.8359"/><line style="stroke:#C0C0C0;stroke-width:1.0;" x1="128" x2="128" y1="0" y2="33.8359"/><line style="stroke:#C0C0C0;stroke-width:1.0;" x1="144" x2="144" y1="0" y2="33.8359"/><line style="stroke:#C0C0C0;stroke-width:1.0;" x1="160" x2="160" y1="0" y2="33.8359"/><text fill="#000000" font-family="Serif" font-size="10" lengthAdjust="spacing" textLength="5" x="5.5" y="10.4785">1</text><text fill="#000000" font-family="Serif" font-size="10" lengthAdjust="spacing" textLength="5" x="21.5" y="10.4785">2</text><text fill="#000000" font-family="Serif" font-size="10" lengthAdjust="spacing" textLength="5" x="37.5" y="10.4785">3</text><text fill="#000000" font-family="Serif" font-size="10" lengthAdjust="spacing" textLength="5" x="53.5" y="10.4785">4</text><text fill="#000000" font-family="Serif" font-size="10" lengthAdjust="spacing" textLength="5" x="69.5" y="10.4785">5</text><text fill="#000000" font-family="Serif" font-size="10" lengthAdjust="spacing" textLength="5" x="85.5" y="10.4785">6</text><text fill="#000000" font-family="Serif" font-size="10" lengthAdjust="spacing" textLength="5" x="101.5" y="10.4785">7</text><text fill="#000000" font-family="Serif" font-size="10" lengthAdjust="spacing" textLength="5" x="117.5" y="10.4785">8</text><text fill="#000000" font-family="Serif" font-size="10" lengthAdjust="spacing" textLength="5" x="133.5" y="10.4785">9</text><text fill="#000000" font-family="Serif" font-size="10" lengthAdjust="spacing" textLength="10" x="147" y="10.4785">10</text><line style="stroke:#C0C0C0;stroke-width:1.0;" x1="0" x2="160" y1="0" y2="0"/><line style="stroke:#C0C0C0;stroke-width:1.0;" x1="0" x2="160" y1="13" y2="13"/><a href="http://plantuml.com" target="_top" title="http://plantuml.com" xlink:actuate="onRequest" xlink:href="http://plantuml.com" xlink:show="new" xlink:title="http://plantuml.com" xlink:type="simple"><rect fill="#E2E2F0" height="13.8359" style="stroke:none;stroke-width:1.0;" width="156" x="2" y="18"/><line style="stroke:#181818;stroke-width:1.0;" x1="2" x2="158" y1="18" y2="18"/><line style="stroke:#181818;stroke-width:1.0;" x1="2" x2="158" y1="31.8359" y2="31.8359"/><line style="stroke:#181818;stroke-width:1.0;" x1="2" x2="2" y1="18" y2="31.8359"/><line style="stroke:#181818;stroke-width:1.0;" x1="158" x2="158" y1="18" y2="31.8359"/></a><text fill="#000000" font-family="sans-serif" font-size="11" lengthAdjust="spacing" textLength="26" x="6" y="29.4189">task1</text><line style="stroke:#C0C0C0;stroke-width:1.0;" x1="0" x2="0" y1="33.8359" y2="49.8359"/><line style="stroke:#C0C0C0;stroke-width:1.0;" x1="16" x2="16" y1="33.8359" y2="49.8359"/><line style="stroke:#C0C0C0;stroke-width:1.0;" x1="32" x2="32" y1="33.8359" y2="49.8359"/><line style="stroke:#C0C0C0;stroke-width:1.0;" x1="48" x2="48" y1="33.8359" y2="49.8359"/><line style="stroke:#C0C0C0;stroke-width:1.0;" x1="64" x2="64" y1="33.8359" y2="49.8359"/><line style="stroke:#C0C0C0;stroke-width:1.0;" x1="80" x2="80" y1="33.8359" y2="49.8359"/><line style="stroke:#C0C0C0;stroke-width:1.0;" x1="96" x2="96" y1="33.8359" y2="49.8359"/><line style="stroke:#C0C0C0;stroke-width:1.0;" x1="112" x2="112" y1="33.8359" y2="49.8359"/><line style="stroke:#C0C0C0;stroke-width:1.0;" x1="128" x2="128" y1="33.8359" y2="49.8359"/><line style="stroke:#C0C0C0;stroke-width:1.0;" x1="144" x2="144" y1="33.8359" y2="49.8359"/><line style="stroke:#C0C0C0;stroke-width:1.0;" x1="160" x2="160" y1="33.8359" y2="49.8359"/><text fill="#000000" font-family="Serif" font-size="10" lengthAdjust="spacing" textLength="5" x="5.5" y="47.3145">1</text><text fill="#000000" font-family="Serif" font-size="10" lengthAdjust="spacing" textLength="5" x="21.5" y="47.3145">2</text><text fill="#000000" font-family="Serif" font-size="10" lengthAdjust="spacing" textLength="5" x="37.5" y="47.3145">3</text><text fill="#000000" font-family="Serif" font-size="10" lengthAdjust="spacing" textLength="5" x="53.5" y="47.3145">4</text><text fill="#000000" font-family="Serif" font-size="10" lengthAdjust="spacing" textLength="5" x="69.5" y="47.3145">5</text><text fill="#000000" font-family="Serif" font-size="10" lengthAdjust="spacing" textLength="5" x="85.5" y="47.3145">6</text><text fill="#000000" font-family="Serif" font-size="10" lengthAdjust="spacing" textLength="5" x="101.5" y="47.3145">7</text><text fill="#000000" font-family="Serif" font-size="10" lengthAdjust="spacing" textLength="5" x="117.5" y="47.3145">8</text><text fill="#000000" font-family="Serif" font-size="10" lengthAdjust="spacing" textLength="5" x="133.5" y="47.3145">9</text><text fill="#000000" font-family="Serif" font-size="10" lengthAdjust="spacing" textLength="10" x="147" y="47.3145">10</text><line style="stroke:#C0C0C0;stroke-width:1.0;" x1="0" x2="160" y1="36.8359" y2="36.8359"/><!--MD5=[10395b5836cf3c98ae7381b599247bba]
@startuml
[task1] lasts 10 days
[task1] links to [[http://plantuml.com]]
@enduml

PlantUML version 1.2022.3beta3(Unknown compile time)
(GPL source distribution)
Java Runtime: OpenJDK Runtime Environment
JVM: OpenJDK 64-Bit Server VM
Default Encoding: UTF-8
Language: en
Country: US
--></g></svg>