<?xml version="1.0" encoding="UTF-8" standalone="no"?><svg xmlns="http://www.w3.org/2000/svg" xmlns:xlink="http://www.w3.org/1999/xlink" contentStyleType="text/css" height="69px" preserveAspectRatio="none" style="width:402px;height:69px;background:#FFFFFF;" version="1.1" viewBox="0 0 402 69" width="402px" zoomAndPan="magnify"><defs/><g><line style="stroke:#C0C0C0;stroke-width:1.0;" x1="0" x2="0" y1="0" y2="51.6719"/><line style="stroke:#C0C0C0;stroke-width:1.0;" x1="16" x2="16" y1="0" y2="51.6719"/><line style="stroke:#C0C0C0;stroke-width:1.0;" x1="32" x2="32" y1="0" y2="51.6719"/><line style="stroke:#C0C0C0;stroke-width:1.0;" x1="48" x2="48" y1="0" y2="51.6719"/><line style="stroke:#C0C0C0;stroke-width:1.0;" x1="64" x2="64" y1="0" y2="51.6719"/><line style="stroke:#C0C0C0;stroke-width:1.0;" x1="80" x2="80" y1="0" y2="51.6719"/><line style="stroke:#C0C0C0;stroke-width:1.0;" x1="96" x2="96" y1="0" y2="51.6719"/><line style="stroke:#C0C0C0;stroke-width:1.0;" x1="112" x2="112" y1="0" y2="51.6719"/><line style="stroke:#C0C0C0;stroke-width:1.0;" x1="128" x2="128" y1="0" y2="51.6719"/><line style="stroke:#C0C0C0;stroke-width:1.0;" x1="144" x2="144" y1="0" y2="51.6719"/><line style="stroke:#C0C0C0;stroke-width:1.0;" x1="160" x2="160" y1="0" y2="51.6719"/><line style="stroke:#C0C0C0;stroke-width:1.0;" x1="176" x2="176" y1="0" y2="51.6719"/><line style="stroke:#C0C0C0;stroke-width:1.0;" x1="192" x2="192" y1="0" y2="51.6719"/><line style="stroke:#C0C0C0;stroke-width:1.0;" x1="208" x2="208" y1="0" y2="51.6719"/><line style="stroke:#C0C0C0;stroke-width:1.0;" x1="224" x2="224" y1="0" y2="51.6719"/><line style="stroke:#C0C0C0;stroke-width:1.0;" x1="240" x2="240" y1="0" y2="51.6719"/><line style="stroke:#C0C0C0;stroke-width:1.0;" x1="256" x2="256" y1="0" y2="51.6719"/><line style="stroke:#C0C0C0;stroke-width:1.0;" x1="272" x2="272" y1="0" y2="51.6719"/><line style="stroke:#C0C0C0;stroke-width:1.0;" x1="288" x2="288" y1="0" y2="51.6719"/><line style="stroke:#C0C0C0;stroke-width:1.0;" x1="304" x2="304" y1="0" y2="51.6719"/><line style="stroke:#C0C0C0;stroke-width:1.0;" x1="320" x2="320" y1="0" y2="51.6719"/><line style="stroke:#C0C0C0;stroke-width:1.0;" x1="336" x2="336" y1="0" y2="51.6719"/><line style="stroke:#C0C0C0;stroke-width:1.0;" x1="352" x2="352" y1="0" y2="51.6719"/><line style="stroke:#C0C0C0;stroke-width:1.0;" x1="368" x2="368" y1="0" y2="51.6719"/><line style="stroke:#C0C0C0;stroke-width:1.0;" x1="384" x2="384" y1="0" y2="51.6719"/><line style="stroke:#C0C0C0;stroke-width:1.0;" x1="400" x2="400" y1="0" y2="51.6719"/><text fill="#000000" font-family="Serif" font-size="10" lengthAdjust="spacing" textLength="5" x="5.5" y="10.4785">1</text><text fill="#000000" font-family="Serif" font-size="10" lengthAdjust="spacing" textLength="5" x="21.5" y="10.4785">2</text><text fill="#000000" font-family="Serif" font-size="10" lengthAdjust="spacing" textLength="5" x="37.5" y="10.4785">3</text><text fill="#000000" font-family="Serif" font-size="10" lengthAdjust="spacing" textLength="5" x="53.5" y="10.4785">4</text><text fill="#000000" font-family="Serif" font-size="10" lengthAdjust="spacing" textLength="5" x="69.5" y="10.4785">5</text><text fill="#000000" font-family="Serif" font-size="10" lengthAdjust="spacing" textLength="5" x="85.5" y="10.4785">6</text><text fill="#000000" font-family="Serif" font-size="10" lengthAdjust="spacing" textLength="5" x="101.5" y="10.4785">7</text><text fill="#000000" font-family="Serif" font-size="10" lengthAdjust="spacing" textLength="5" x="117.5" y="10.4785">8</text><text fill="#000000" font-family="Serif" font-size="10" lengthAdjust="spacing" textLength="5" x="133.5" y="10.4785">9</text><text fill="#000000" font-family="Serif" font-size="10" lengthAdjust="spacing" textLength="10" x="147" y="10.4785">10</text><text fill="#000000" font-family="Serif" font-size="10" lengthAdjust="spacing" textLength="10" x="163" y="10.4785">11</text><text fill="#000000" font-family="Serif" font-size="10" lengthAdjust="spacing" textLength="10" x="179" y="10.4785">12</text><text fill="#000000" font-family="Serif" font-size="10" lengthAdjust="spacing" textLength="10" x="195" y="10.4785">13</text><text fill="#000000" font-family="Serif" font-size="10" lengthAdjust="spacing" textLength="10" x="211" y="10.4785">14</text><text fill="#000000" font-family="Serif" font-size="10" lengthAdjust="spacing" textLength="10" x="227" y="10.4785">15</text><text fill="#000000" font-family="Serif" font-size="10" lengthAdjust="spacing" textLength="10" x="243" y="10.4785">16</text><text fill="#000000" font-family="Serif" font-size="10" lengthAdjust="spacing" textLength="10" x="259" y="10.4785">17</text><text fill="#000000" font-family="Serif" font-size="10" lengthAdjust="spacing" textLength="10" x="275" y="10.4785">18</text><text fill="#000000" font-family="Serif" font-size="10" lengthAdjust="spacing" textLength="10" x="291" y="10.4785">19</text><text fill="#000000" font-family="Serif" font-size="10" lengthAdjust="spacing" textLength="10" x="307" y="10.4785">20</text><text fill="#000000" font-family="Serif" font-size="10" lengthAdjust="spacing" textLength="10" x="323" y="10.4785">21</text><text fill="#000000" font-family="Serif" font-size="10" lengthAdjust="spacing" textLength="10" x="339" y="10.4785">22</text><text fill="#000000" font-family="Serif" font-size="10" lengthAdjust="spacing" textLength="10" x="355" y="10.4785">23</text><text fill="#000000" font-family="Serif" font-size="10" lengthAdjust="spacing" textLength="10" x="371" y="10.4785">24</text><text fill="#000000" font-family="Serif" font-size="10" lengthAdjust="spacing" textLength="10" x="387" y="10.4785">25</text><line style="stroke:#C0C0C0;stroke-width:1.0;" x1="0" x2="400" y1="0" y2="0"/><line style="stroke:#C0C0C0;stroke-width:1.0;" x1="0" x2="400" y1="13" y2="13"/><line style="stroke:#181818;stroke-width:1.5;" x1="231" x2="231" y1="31.8359" y2="42.7539"/><line style="stroke:#181818;stroke-width:1.5;" x1="231" x2="239" y1="42.7539" y2="42.7539"/><polygon fill="#181818" points="235,38.7539,235,42.7539,235,46.7539,239,42.7539" style="stroke:#181818;stroke-width:1.5;"/><rect fill="#E2E2F0" height="13.8359" style="stroke:none;stroke-width:1.0;" width="236" x="2" y="18"/><line style="stroke:#181818;stroke-width:1.0;" x1="2" x2="238" y1="18" y2="18"/><line style="stroke:#181818;stroke-width:1.0;" x1="2" x2="238" y1="31.8359" y2="31.8359"/><line style="stroke:#181818;stroke-width:1.0;" x1="2" x2="2" y1="18" y2="31.8359"/><line style="stroke:#181818;stroke-width:1.0;" x1="238" x2="238" y1="18" y2="31.8359"/><rect fill="#E2E2F0" height="13.8359" style="stroke:none;stroke-width:1.0;" width="156" x="242" y="35.8359"/><line style="stroke:#181818;stroke-width:1.0;" x1="242" x2="398" y1="35.8359" y2="35.8359"/><line style="stroke:#181818;stroke-width:1.0;" x1="242" x2="398" y1="49.6719" y2="49.6719"/><line style="stroke:#181818;stroke-width:1.0;" x1="242" x2="242" y1="35.8359" y2="49.6719"/><line style="stroke:#181818;stroke-width:1.0;" x1="398" x2="398" y1="35.8359" y2="49.6719"/><text fill="#000000" font-family="sans-serif" font-size="11" lengthAdjust="spacing" textLength="81" x="6" y="29.4189">Prototype design</text><text fill="#000000" font-family="sans-serif" font-size="11" lengthAdjust="spacing" textLength="70" x="246" y="47.2549">Test prototype</text><line style="stroke:#C0C0C0;stroke-width:1.0;" x1="0" x2="0" y1="51.6719" y2="67.6719"/><line style="stroke:#C0C0C0;stroke-width:1.0;" x1="16" x2="16" y1="51.6719" y2="67.6719"/><line style="stroke:#C0C0C0;stroke-width:1.0;" x1="32" x2="32" y1="51.6719" y2="67.6719"/><line style="stroke:#C0C0C0;stroke-width:1.0;" x1="48" x2="48" y1="51.6719" y2="67.6719"/><line style="stroke:#C0C0C0;stroke-width:1.0;" x1="64" x2="64" y1="51.6719" y2="67.6719"/><line style="stroke:#C0C0C0;stroke-width:1.0;" x1="80" x2="80" y1="51.6719" y2="67.6719"/><line style="stroke:#C0C0C0;stroke-width:1.0;" x1="96" x2="96" y1="51.6719" y2="67.6719"/><line style="stroke:#C0C0C0;stroke-width:1.0;" x1="112" x2="112" y1="51.6719" y2="67.6719"/><line style="stroke:#C0C0C0;stroke-width:1.0;" x1="128" x2="128" y1="51.6719" y2="67.6719"/><line style="stroke:#C0C0C0;stroke-width:1.0;" x1="144" x2="144" y1="51.6719" y2="67.6719"/><line style="stroke:#C0C0C0;stroke-width:1.0;" x1="160" x2="160" y1="51.6719" y2="67.6719"/><line style="stroke:#C0C0C0;stroke-width:1.0;" x1="176" x2="176" y1="51.6719" y2="67.6719"/><line style="stroke:#C0C0C0;stroke-width:1.0;" x1="192" x2="192" y1="51.6719" y2="67.6719"/><line style="stroke:#C0C0C0;stroke-width:1.0;" x1="208" x2="208" y1="51.6719" y2="67.6719"/><line style="stroke:#C0C0C0;stroke-width:1.0;" x1="224" x2="224" y1="51.6719" y2="67.6719"/><line style="stroke:#C0C0C0;stroke-width:1.0;" x1="240" x2="240" y1="51.6719" y2="67.6719"/><line style="stroke:#C0C0C0;stroke-width:1.0;" x1="256" x2="256" y1="51.6719" y2="67.6719"/><line style="stroke:#C0C0C0;stroke-width:1.0;" x1="272" x2="272" y1="51.6719" y2="67.6719"/><line style="stroke:#C0C0C0;stroke-width:1.0;" x1="288" x2="288" y1="51.6719" y2="67.6719"/><line style="stroke:#C0C0C0;stroke-width:1.0;" x1="304" x2="304" y1="51.6719" y2="67.6719"/><line style="stroke:#C0C0C0;stroke-width:1.0;" x1="320" x2="320" y1="51.6719" y2="67.6719"/><line style="stroke:#C0C0C0;stroke-width:1.0;" x1="336" x2="336" y1="51.6719" y2="67.6719"/><line style="stroke:#C0C0C0;stroke-width:1.0;" x1="352" x2="352" y1="51.6719" y2="67.6719"/><line style="stroke:#C0C0C0;stroke-width:1.0;" x1="368" x2="368" y1="51.6719" y2="67.6719"/><line style="stroke:#C0C0C0;stroke-width:1.0;" x1="384" x2="384" y1="51.6719" y2="67.6719"/><line style="stroke:#C0C0C0;stroke-width:1.0;" x1="400" x2="400" y1="51.6719" y2="67.6719"/><text fill="#000000" font-family="Serif" font-size="10" lengthAdjust="spacing" textLength="5" x="5.5" y="65.1504">1</text><text fill="#000000" font-family="Serif" font-size="10" lengthAdjust="spacing" textLength="5" x="21.5" y="65.1504">2</text><text fill="#000000" font-family="Serif" font-size="10" lengthAdjust="spacing" textLength="5" x="37.5" y="65.1504">3</text><text fill="#000000" font-family="Serif" font-size="10" lengthAdjust="spacing" textLength="5" x="53.5" y="65.1504">4</text><text fill="#000000" font-family="Serif" font-size="10" lengthAdjust="spacing" textLength="5" x="69.5" y="65.1504">5</text><text fill="#000000" font-family="Serif" font-size="10" lengthAdjust="spacing" textLength="5" x="85.5" y="65.1504">6</text><text fill="#000000" font-family="Serif" font-size="10" lengthAdjust="spacing" textLength="5" x="101.5" y="65.1504">7</text><text fill="#000000" font-family="Serif" font-size="10" lengthAdjust="spacing" textLength="5" x="117.5" y="65.1504">8</text><text fill="#000000" font-family="Serif" font-size="10" lengthAdjust="spacing" textLength="5" x="133.5" y="65.1504">9</text><text fill="#000000" font-family="Serif" font-size="10" lengthAdjust="spacing" textLength="10" x="147" y="65.1504">10</text><text fill="#000000" font-family="Serif" font-size="10" lengthAdjust="spacing" textLength="10" x="163" y="65.1504">11</text><text fill="#000000" font-family="Serif" font-size="10" lengthAdjust="spacing" textLength="10" x="179" y="65.1504">12</text><text fill="#000000" font-family="Serif" font-size="10" lengthAdjust="spacing" textLength="10" x="195" y="65.1504">13</text><text fill="#000000" font-family="Serif" font-size="10" lengthAdjust="spacing" textLength="10" x="211" y="65.1504">14</text><text fill="#000000" font-family="Serif" font-size="10" lengthAdjust="spacing" textLength="10" x="227" y="65.1504">15</text><text fill="#000000" font-family="Serif" font-size="10" lengthAdjust="spacing" textLength="10" x="243" y="65.1504">16</text><text fill="#000000" font-family="Serif" font-size="10" lengthAdjust="spacing" textLength="10" x="259" y="65.1504">17</text><text fill="#000000" font-family="Serif" font-size="10" lengthAdjust="spacing" textLength="10" x="275" y="65.1504">18</text><text fill="#000000" font-family="Serif" font-size="10" lengthAdjust="spacing" textLength="10" x="291" y="65.1504">19</text><text fill="#000000" font-family="Serif" font-size="10" lengthAdjust="spacing" textLength="10" x="307" y="65.1504">20</text><text fill="#000000" font-family="Serif" font-size="10" lengthAdjust="spacing" textLength="10" x="323" y="65.1504">21</text><text fill="#000000" font-family="Serif" font-size="10" lengthAdjust="spacing" textLength="10" x="339" y="65.1504">22</text><text fill="#000000" font-family="Serif" font-size="10" lengthAdjust="spacing" textLength="10" x="355" y="65.1504">23</text><text fill="#000000" font-family="Serif" font-size="10" lengthAdjust="spacing" textLength="10" x="371" y="65.1504">24</text><text fill="#000000" font-family="Serif" font-size="10" lengthAdjust="spacing" textLength="10" x="387" y="65.1504">25</text><line style="stroke:#C0C0C0;stroke-width:1.0;" x1="0" x2="400" y1="54.6719" y2="54.6719"/><!--MD5=[d07c69e5d67e0592400f98b6d84ce1c4]
@startuml
[Prototype design] lasts 15 days
[Test prototype] lasts 10 days
[Test prototype] starts at [Prototype design]'s end
@enduml

PlantUML version 1.2022.3beta3(Unknown compile time)
(GPL source distribution)
Java Runtime: OpenJDK Runtime Environment
JVM: OpenJDK 64-Bit Server VM
Default Encoding: UTF-8
Language: en
Country: US
--></g></svg>