<?xml version="1.0" encoding="UTF-8" standalone="no"?><svg xmlns="http://www.w3.org/2000/svg" xmlns:xlink="http://www.w3.org/1999/xlink" contentStyleType="text/css" height="137px" preserveAspectRatio="none" style="width:239px;height:137px;background:#FFFFFF;" version="1.1" viewBox="0 0 239 137" width="239px" zoomAndPan="magnify"><defs/><g><line style="stroke:#C0C0C0;stroke-width:1.0;" x1="0" x2="0" y1="0" y2="119.1797"/><line style="stroke:#C0C0C0;stroke-width:1.0;" x1="16" x2="16" y1="0" y2="119.1797"/><line style="stroke:#C0C0C0;stroke-width:1.0;" x1="32" x2="32" y1="0" y2="119.1797"/><line style="stroke:#C0C0C0;stroke-width:1.0;" x1="48" x2="48" y1="0" y2="119.1797"/><line style="stroke:#C0C0C0;stroke-width:1.0;" x1="64" x2="64" y1="0" y2="119.1797"/><line style="stroke:#C0C0C0;stroke-width:1.0;" x1="80" x2="80" y1="0" y2="119.1797"/><line style="stroke:#C0C0C0;stroke-width:1.0;" x1="96" x2="96" y1="0" y2="119.1797"/><line style="stroke:#C0C0C0;stroke-width:1.0;" x1="112" x2="112" y1="0" y2="119.1797"/><line style="stroke:#C0C0C0;stroke-width:1.0;" x1="128" x2="128" y1="0" y2="119.1797"/><line style="stroke:#C0C0C0;stroke-width:1.0;" x1="144" x2="144" y1="0" y2="119.1797"/><line style="stroke:#C0C0C0;stroke-width:1.0;" x1="160" x2="160" y1="0" y2="119.1797"/><line style="stroke:#C0C0C0;stroke-width:1.0;" x1="176" x2="176" y1="0" y2="119.1797"/><text fill="#000000" font-family="Serif" font-size="10" lengthAdjust="spacing" textLength="5" x="5.5" y="10.4785">1</text><text fill="#000000" font-family="Serif" font-size="10" lengthAdjust="spacing" textLength="5" x="21.5" y="10.4785">2</text><text fill="#000000" font-family="Serif" font-size="10" lengthAdjust="spacing" textLength="5" x="37.5" y="10.4785">3</text><text fill="#000000" font-family="Serif" font-size="10" lengthAdjust="spacing" textLength="5" x="53.5" y="10.4785">4</text><text fill="#000000" font-family="Serif" font-size="10" lengthAdjust="spacing" textLength="5" x="69.5" y="10.4785">5</text><text fill="#000000" font-family="Serif" font-size="10" lengthAdjust="spacing" textLength="5" x="85.5" y="10.4785">6</text><text fill="#000000" font-family="Serif" font-size="10" lengthAdjust="spacing" textLength="5" x="101.5" y="10.4785">7</text><text fill="#000000" font-family="Serif" font-size="10" lengthAdjust="spacing" textLength="5" x="117.5" y="10.4785">8</text><text fill="#000000" font-family="Serif" font-size="10" lengthAdjust="spacing" textLength="5" x="133.5" y="10.4785">9</text><text fill="#000000" font-family="Serif" font-size="10" lengthAdjust="spacing" textLength="10" x="147" y="10.4785">10</text><text fill="#000000" font-family="Serif" font-size="10" lengthAdjust="spacing" textLength="10" x="163" y="10.4785">11</text><line style="stroke:#C0C0C0;stroke-width:1.0;" x1="0" x2="176" y1="0" y2="0"/><line style="stroke:#C0C0C0;stroke-width:1.0;" x1="0" x2="176" y1="13" y2="13"/><line style="stroke:#181818;stroke-width:1.5;" x1="55" x2="55" y1="31.8359" y2="42.7539"/><line style="stroke:#181818;stroke-width:1.5;" x1="55" x2="63" y1="42.7539" y2="42.7539"/><polygon fill="#181818" points="59,38.7539,59,42.7539,59,46.7539,63,42.7539" style="stroke:#181818;stroke-width:1.5;"/><line style="stroke:#181818;stroke-width:1.5;" x1="55" x2="55" y1="31.8359" y2="60.5898"/><line style="stroke:#181818;stroke-width:1.5;" x1="55" x2="63" y1="60.5898" y2="60.5898"/><polygon fill="#181818" points="59,56.5898,59,60.5898,59,64.5898,63,60.5898" style="stroke:#181818;stroke-width:1.5;"/><line style="stroke:#181818;stroke-width:1.5;" x1="71" x2="71" y1="85.3438" y2="96.2617"/><line style="stroke:#181818;stroke-width:1.5;" x1="71" x2="79" y1="96.2617" y2="96.2617"/><polygon fill="#181818" points="75,92.2617,75,96.2617,75,100.2617,79,96.2617" style="stroke:#181818;stroke-width:1.5;"/><rect fill="#E2E2F0" height="13.8359" style="stroke:none;stroke-width:1.0;" width="60" x="2" y="18"/><line style="stroke:#181818;stroke-width:1.0;" x1="2" x2="62" y1="18" y2="18"/><line style="stroke:#181818;stroke-width:1.0;" x1="2" x2="62" y1="31.8359" y2="31.8359"/><line style="stroke:#181818;stroke-width:1.0;" x1="2" x2="2" y1="18" y2="31.8359"/><line style="stroke:#181818;stroke-width:1.0;" x1="62" x2="62" y1="18" y2="31.8359"/><rect fill="#E2E2F0" height="13.8359" style="stroke:none;stroke-width:1.0;" width="60" x="66" y="35.8359"/><line style="stroke:#181818;stroke-width:1.0;" x1="66" x2="126" y1="35.8359" y2="35.8359"/><line style="stroke:#181818;stroke-width:1.0;" x1="66" x2="126" y1="49.6719" y2="49.6719"/><line style="stroke:#181818;stroke-width:1.0;" x1="66" x2="66" y1="35.8359" y2="49.6719"/><line style="stroke:#181818;stroke-width:1.0;" x1="126" x2="126" y1="35.8359" y2="49.6719"/><rect fill="#E2E2F0" height="13.8359" style="stroke:none;stroke-width:1.0;" width="108" x="66" y="53.6719"/><line style="stroke:#181818;stroke-width:1.0;" x1="66" x2="174" y1="53.6719" y2="53.6719"/><line style="stroke:#181818;stroke-width:1.0;" x1="66" x2="174" y1="67.5078" y2="67.5078"/><line style="stroke:#181818;stroke-width:1.0;" x1="66" x2="66" y1="53.6719" y2="67.5078"/><line style="stroke:#181818;stroke-width:1.0;" x1="174" x2="174" y1="53.6719" y2="67.5078"/><rect fill="#E2E2F0" height="13.8359" style="stroke:none;stroke-width:1.0;" width="76" x="2" y="71.5078"/><line style="stroke:#181818;stroke-width:1.0;" x1="2" x2="78" y1="71.5078" y2="71.5078"/><line style="stroke:#181818;stroke-width:1.0;" x1="2" x2="78" y1="85.3438" y2="85.3438"/><line style="stroke:#181818;stroke-width:1.0;" x1="2" x2="2" y1="71.5078" y2="85.3438"/><line style="stroke:#181818;stroke-width:1.0;" x1="78" x2="78" y1="71.5078" y2="85.3438"/><rect fill="#E2E2F0" height="13.8359" style="stroke:none;stroke-width:1.0;" width="60" x="82" y="89.3438"/><line style="stroke:#181818;stroke-width:1.0;" x1="82" x2="142" y1="89.3438" y2="89.3438"/><line style="stroke:#181818;stroke-width:1.0;" x1="82" x2="142" y1="103.1797" y2="103.1797"/><line style="stroke:#181818;stroke-width:1.0;" x1="82" x2="82" y1="89.3438" y2="103.1797"/><line style="stroke:#181818;stroke-width:1.0;" x1="142" x2="142" y1="89.3438" y2="103.1797"/><polygon fill="#000000" points="168,107.1797,173,112.1797,168,117.1797,163,112.1797" style="stroke:#000000;stroke-width:1.0;"/><text fill="#000000" font-family="sans-serif" font-size="11" lengthAdjust="spacing" textLength="29" x="6" y="29.4189">Task1</text><text fill="#000000" font-family="sans-serif" font-size="11" lengthAdjust="spacing" textLength="38" x="70" y="47.2549">Task1.1</text><text fill="#000000" font-family="sans-serif" font-size="11" lengthAdjust="spacing" textLength="38" x="70" y="65.0908">Task1.2</text><text fill="#000000" font-family="sans-serif" font-size="11" lengthAdjust="spacing" textLength="29" x="6" y="82.9268">Task2</text><text fill="#000000" font-family="sans-serif" font-size="11" lengthAdjust="spacing" textLength="38" x="86" y="100.7627">Task2.1</text><text fill="#000000" font-family="sans-serif" font-size="11" lengthAdjust="spacing" textLength="61" x="176" y="116.6807">MaxTaskEnd</text><line style="stroke:#C0C0C0;stroke-width:1.0;" x1="0" x2="0" y1="119.1797" y2="135.1797"/><line style="stroke:#C0C0C0;stroke-width:1.0;" x1="16" x2="16" y1="119.1797" y2="135.1797"/><line style="stroke:#C0C0C0;stroke-width:1.0;" x1="32" x2="32" y1="119.1797" y2="135.1797"/><line style="stroke:#C0C0C0;stroke-width:1.0;" x1="48" x2="48" y1="119.1797" y2="135.1797"/><line style="stroke:#C0C0C0;stroke-width:1.0;" x1="64" x2="64" y1="119.1797" y2="135.1797"/><line style="stroke:#C0C0C0;stroke-width:1.0;" x1="80" x2="80" y1="119.1797" y2="135.1797"/><line style="stroke:#C0C0C0;stroke-width:1.0;" x1="96" x2="96" y1="119.1797" y2="135.1797"/><line style="stroke:#C0C0C0;stroke-width:1.0;" x1="112" x2="112" y1="119.1797" y2="135.1797"/><line style="stroke:#C0C0C0;stroke-width:1.0;" x1="128" x2="128" y1="119.1797" y2="135.1797"/><line style="stroke:#C0C0C0;stroke-width:1.0;" x1="144" x2="144" y1="119.1797" y2="135.1797"/><line style="stroke:#C0C0C0;stroke-width:1.0;" x1="160" x2="160" y1="119.1797" y2="135.1797"/><line style="stroke:#C0C0C0;stroke-width:1.0;" x1="176" x2="176" y1="119.1797" y2="135.1797"/><text fill="#000000" font-family="Serif" font-size="10" lengthAdjust="spacing" textLength="5" x="5.5" y="132.6582">1</text><text fill="#000000" font-family="Serif" font-size="10" lengthAdjust="spacing" textLength="5" x="21.5" y="132.6582">2</text><text fill="#000000" font-family="Serif" font-size="10" lengthAdjust="spacing" textLength="5" x="37.5" y="132.6582">3</text><text fill="#000000" font-family="Serif" font-size="10" lengthAdjust="spacing" textLength="5" x="53.5" y="132.6582">4</text><text fill="#000000" font-family="Serif" font-size="10" lengthAdjust="spacing" textLength="5" x="69.5" y="132.6582">5</text><text fill="#000000" font-family="Serif" font-size="10" lengthAdjust="spacing" textLength="5" x="85.5" y="132.6582">6</text><text fill="#000000" font-family="Serif" font-size="10" lengthAdjust="spacing" textLength="5" x="101.5" y="132.6582">7</text><text fill="#000000" font-family="Serif" font-size="10" lengthAdjust="spacing" textLength="5" x="117.5" y="132.6582">8</text><text fill="#000000" font-family="Serif" font-size="10" lengthAdjust="spacing" textLength="5" x="133.5" y="132.6582">9</text><text fill="#000000" font-family="Serif" font-size="10" lengthAdjust="spacing" textLength="10" x="147" y="132.6582">10</text><text fill="#000000" font-family="Serif" font-size="10" lengthAdjust="spacing" textLength="10" x="163" y="132.6582">11</text><line style="stroke:#C0C0C0;stroke-width:1.0;" x1="0" x2="176" y1="122.1797" y2="122.1797"/><!--MD5=[81f0fcb997657b5f083ca514034e4690]
@startuml
[Task1] lasts 4 days
then [Task1.1] lasts 4 days
[Task1.2] starts at [Task1]'s end and lasts 7 days
[Task2] lasts 5 days
then [Task2.1] lasts 4 days
[MaxTaskEnd] happens at [Task1.1]'s end
[MaxTaskEnd] happens at [Task1.2]'s end
[MaxTaskEnd] happens at [Task2.1]'s end
@enduml

PlantUML version 1.2022.3beta3(Unknown compile time)
(GPL source distribution)
Java Runtime: OpenJDK Runtime Environment
JVM: OpenJDK 64-Bit Server VM
Default Encoding: UTF-8
Language: en
Country: US
--></g></svg>