<?xml version="1.0" encoding="UTF-8" standalone="no"?><svg xmlns="http://www.w3.org/2000/svg" xmlns:xlink="http://www.w3.org/1999/xlink" contentStyleType="text/css" height="82px" preserveAspectRatio="none" style="width:604px;height:82px;background:#FFFFFF;" version="1.1" viewBox="0 0 604 82" width="604px" zoomAndPan="magnify"><defs/><g><rect fill="#FA8072" height="35.6719" style="stroke:none;stroke-width:1.0;" width="20" x="480" y="29"/><text fill="#000000" font-family="Serif" font-size="10" lengthAdjust="spacing" textLength="10" x="9" y="26.4785">39</text><text fill="#000000" font-family="Serif" font-size="10" lengthAdjust="spacing" textLength="10" x="37" y="26.4785">40</text><text fill="#000000" font-family="Serif" font-size="10" lengthAdjust="spacing" textLength="10" x="65" y="26.4785">41</text><text fill="#000000" font-family="Serif" font-size="10" lengthAdjust="spacing" textLength="10" x="93" y="26.4785">42</text><text fill="#000000" font-family="Serif" font-size="10" lengthAdjust="spacing" textLength="10" x="121" y="26.4785">43</text><text fill="#000000" font-family="Serif" font-size="10" lengthAdjust="spacing" textLength="10" x="149" y="26.4785">44</text><text fill="#000000" font-family="Serif" font-size="10" lengthAdjust="spacing" textLength="10" x="177" y="26.4785">45</text><text fill="#000000" font-family="Serif" font-size="10" lengthAdjust="spacing" textLength="10" x="205" y="26.4785">46</text><text fill="#000000" font-family="Serif" font-size="10" lengthAdjust="spacing" textLength="10" x="233" y="26.4785">47</text><text fill="#000000" font-family="Serif" font-size="10" lengthAdjust="spacing" textLength="10" x="261" y="26.4785">48</text><text fill="#000000" font-family="Serif" font-size="10" lengthAdjust="spacing" textLength="10" x="289" y="26.4785">49</text><text fill="#000000" font-family="Serif" font-size="10" lengthAdjust="spacing" textLength="10" x="317" y="26.4785">50</text><text fill="#000000" font-family="Serif" font-size="10" lengthAdjust="spacing" textLength="10" x="345" y="26.4785">51</text><text fill="#000000" font-family="Serif" font-size="10" lengthAdjust="spacing" textLength="10" x="373" y="26.4785">52</text><text fill="#000000" font-family="Serif" font-size="10" lengthAdjust="spacing" textLength="10" x="401" y="26.4785">53</text><text fill="#000000" font-family="Serif" font-size="10" lengthAdjust="spacing" textLength="5" x="429" y="26.4785">1</text><text fill="#000000" font-family="Serif" font-size="10" lengthAdjust="spacing" textLength="5" x="457" y="26.4785">2</text><text fill="#000000" font-family="Serif" font-size="10" lengthAdjust="spacing" textLength="5" x="485" y="26.4785">3</text><text fill="#000000" font-family="Serif" font-size="10" lengthAdjust="spacing" textLength="5" x="513" y="26.4785">4</text><text fill="#000000" font-family="Serif" font-size="10" lengthAdjust="spacing" textLength="5" x="541" y="26.4785">5</text><text fill="#000000" font-family="Serif" font-size="10" lengthAdjust="spacing" textLength="5" x="569" y="26.4785">6</text><text fill="#000000" font-family="Serif" font-size="10" lengthAdjust="spacing" textLength="5" x="597" y="26.4785">7</text><line style="stroke:#C0C0C0;stroke-width:1.0;" x1="4" x2="4" y1="16" y2="64.6719"/><line style="stroke:#C0C0C0;stroke-width:1.0;" x1="32" x2="32" y1="16" y2="64.6719"/><line style="stroke:#C0C0C0;stroke-width:1.0;" x1="60" x2="60" y1="16" y2="64.6719"/><line style="stroke:#C0C0C0;stroke-width:1.0;" x1="88" x2="88" y1="16" y2="64.6719"/><line style="stroke:#C0C0C0;stroke-width:1.0;" x1="116" x2="116" y1="16" y2="64.6719"/><line style="stroke:#C0C0C0;stroke-width:1.0;" x1="144" x2="144" y1="16" y2="64.6719"/><line style="stroke:#C0C0C0;stroke-width:1.0;" x1="172" x2="172" y1="16" y2="64.6719"/><line style="stroke:#C0C0C0;stroke-width:1.0;" x1="200" x2="200" y1="16" y2="64.6719"/><line style="stroke:#C0C0C0;stroke-width:1.0;" x1="228" x2="228" y1="16" y2="64.6719"/><line style="stroke:#C0C0C0;stroke-width:1.0;" x1="256" x2="256" y1="16" y2="64.6719"/><line style="stroke:#C0C0C0;stroke-width:1.0;" x1="284" x2="284" y1="16" y2="64.6719"/><line style="stroke:#C0C0C0;stroke-width:1.0;" x1="312" x2="312" y1="16" y2="64.6719"/><line style="stroke:#C0C0C0;stroke-width:1.0;" x1="340" x2="340" y1="16" y2="64.6719"/><line style="stroke:#C0C0C0;stroke-width:1.0;" x1="368" x2="368" y1="16" y2="64.6719"/><line style="stroke:#C0C0C0;stroke-width:1.0;" x1="396" x2="396" y1="16" y2="64.6719"/><line style="stroke:#C0C0C0;stroke-width:1.0;" x1="424" x2="424" y1="16" y2="64.6719"/><line style="stroke:#C0C0C0;stroke-width:1.0;" x1="452" x2="452" y1="16" y2="64.6719"/><line style="stroke:#C0C0C0;stroke-width:1.0;" x1="480" x2="480" y1="16" y2="64.6719"/><line style="stroke:#C0C0C0;stroke-width:1.0;" x1="508" x2="508" y1="16" y2="64.6719"/><line style="stroke:#C0C0C0;stroke-width:1.0;" x1="536" x2="536" y1="16" y2="64.6719"/><line style="stroke:#C0C0C0;stroke-width:1.0;" x1="564" x2="564" y1="16" y2="64.6719"/><line style="stroke:#C0C0C0;stroke-width:1.0;" x1="592" x2="592" y1="16" y2="64.6719"/><line style="stroke:#C0C0C0;stroke-width:1.0;" x1="600" x2="600" y1="16" y2="64.6719"/><line style="stroke:#C0C0C0;stroke-width:1.0;" x1="0" x2="0" y1="0" y2="16"/><line style="stroke:#C0C0C0;stroke-width:1.0;" x1="44" x2="44" y1="0" y2="16"/><text fill="#000000" font-family="Serif" font-size="12" font-weight="bold" lengthAdjust="spacing" textLength="20" x="12" y="12.5742">Sep</text><line style="stroke:#C0C0C0;stroke-width:1.0;" x1="168" x2="168" y1="0" y2="16"/><text fill="#000000" font-family="Serif" font-size="12" font-weight="bold" lengthAdjust="spacing" textLength="46" x="83" y="12.5742">Oct 2020</text><line style="stroke:#C0C0C0;stroke-width:1.0;" x1="288" x2="288" y1="0" y2="16"/><text fill="#000000" font-family="Serif" font-size="12" font-weight="bold" lengthAdjust="spacing" textLength="47" x="204.5" y="12.5742">Nov 2020</text><line style="stroke:#C0C0C0;stroke-width:1.0;" x1="412" x2="412" y1="0" y2="16"/><text fill="#000000" font-family="Serif" font-size="12" font-weight="bold" lengthAdjust="spacing" textLength="47" x="326.5" y="12.5742">Dec 2020</text><line style="stroke:#C0C0C0;stroke-width:1.0;" x1="536" x2="536" y1="0" y2="16"/><text fill="#000000" font-family="Serif" font-size="12" font-weight="bold" lengthAdjust="spacing" textLength="46" x="451" y="12.5742">Jan 2021</text><line style="stroke:#C0C0C0;stroke-width:1.0;" x1="600" x2="600" y1="0" y2="16"/><text fill="#000000" font-family="Serif" font-size="12" font-weight="bold" lengthAdjust="spacing" textLength="46" x="545" y="12.5742">Feb 2021</text><line style="stroke:#C0C0C0;stroke-width:1.0;" x1="0" x2="600" y1="0" y2="0"/><line style="stroke:#C0C0C0;stroke-width:1.0;" x1="0" x2="600" y1="16" y2="16"/><line style="stroke:#C0C0C0;stroke-width:1.0;" x1="0" x2="600" y1="29" y2="29"/><line style="stroke:#181818;stroke-width:1.5;" x1="511" x2="511" y1="44.8359" y2="55.7539"/><line style="stroke:#181818;stroke-width:1.5;" x1="511" x2="519" y1="55.7539" y2="55.7539"/><polygon fill="#181818" points="515,51.7539,515,55.7539,515,59.7539,519,55.7539" style="stroke:#181818;stroke-width:1.5;"/><rect fill="#E6E6FA" height="13.8359" style="stroke:none;stroke-width:1.0;" width="516" x="2" y="31"/><line style="stroke:#ADD8E6;stroke-width:1.0;" x1="2" x2="518" y1="31" y2="31"/><line style="stroke:#ADD8E6;stroke-width:1.0;" x1="2" x2="518" y1="44.8359" y2="44.8359"/><line style="stroke:#ADD8E6;stroke-width:1.0;" x1="2" x2="2" y1="31" y2="44.8359"/><line style="stroke:#ADD8E6;stroke-width:1.0;" x1="518" x2="518" y1="31" y2="44.8359"/><rect fill="#E2E2F0" height="13.8359" style="stroke:none;stroke-width:1.0;" width="76" x="522" y="48.8359"/><line style="stroke:#181818;stroke-width:1.0;" x1="522" x2="598" y1="48.8359" y2="48.8359"/><line style="stroke:#181818;stroke-width:1.0;" x1="522" x2="598" y1="62.6719" y2="62.6719"/><line style="stroke:#181818;stroke-width:1.0;" x1="522" x2="522" y1="48.8359" y2="62.6719"/><line style="stroke:#181818;stroke-width:1.0;" x1="598" x2="598" y1="48.8359" y2="62.6719"/><text fill="#000000" font-family="sans-serif" font-size="11" lengthAdjust="spacing" textLength="81" x="6" y="42.4189">Prototype design</text><text fill="#000000" font-family="sans-serif" font-size="11" lengthAdjust="spacing" textLength="35" x="526" y="60.2549">Testing</text><line style="stroke:#C0C0C0;stroke-width:1.0;" x1="0" x2="600" y1="64.6719" y2="64.6719"/><line style="stroke:#C0C0C0;stroke-width:1.0;" x1="0" x2="0" y1="64.6719" y2="80.6719"/><line style="stroke:#C0C0C0;stroke-width:1.0;" x1="44" x2="44" y1="64.6719" y2="80.6719"/><text fill="#000000" font-family="Serif" font-size="12" font-weight="bold" lengthAdjust="spacing" textLength="20" x="12" y="77.2461">Sep</text><line style="stroke:#C0C0C0;stroke-width:1.0;" x1="168" x2="168" y1="64.6719" y2="80.6719"/><text fill="#000000" font-family="Serif" font-size="12" font-weight="bold" lengthAdjust="spacing" textLength="46" x="83" y="77.2461">Oct 2020</text><line style="stroke:#C0C0C0;stroke-width:1.0;" x1="288" x2="288" y1="64.6719" y2="80.6719"/><text fill="#000000" font-family="Serif" font-size="12" font-weight="bold" lengthAdjust="spacing" textLength="47" x="204.5" y="77.2461">Nov 2020</text><line style="stroke:#C0C0C0;stroke-width:1.0;" x1="412" x2="412" y1="64.6719" y2="80.6719"/><text fill="#000000" font-family="Serif" font-size="12" font-weight="bold" lengthAdjust="spacing" textLength="47" x="326.5" y="77.2461">Dec 2020</text><line style="stroke:#C0C0C0;stroke-width:1.0;" x1="536" x2="536" y1="64.6719" y2="80.6719"/><text fill="#000000" font-family="Serif" font-size="12" font-weight="bold" lengthAdjust="spacing" textLength="46" x="451" y="77.2461">Jan 2021</text><line style="stroke:#C0C0C0;stroke-width:1.0;" x1="600" x2="600" y1="64.6719" y2="80.6719"/><text fill="#000000" font-family="Serif" font-size="12" font-weight="bold" lengthAdjust="spacing" textLength="46" x="545" y="77.2461">Feb 2021</text><line style="stroke:#C0C0C0;stroke-width:1.0;" x1="0" x2="600" y1="80.6719" y2="80.6719"/><!--MD5=[3c9505a43b3566c7487430b5764d531e]
@startuml
printscale weekly
Project starts the 20th of september 2020
[Prototype design] as [TASK1] lasts 130 days
[TASK1] is colored in Lavender/LightBlue
[Testing] lasts 20 days
[TASK1]->[Testing]
2021-01-18 to 2021-01-22 are named [End's committee]
2021-01-18 to 2021-01-22 are colored in salmon
@enduml

PlantUML version 1.2022.3beta3(Unknown compile time)
(GPL source distribution)
Java Runtime: OpenJDK Runtime Environment
JVM: OpenJDK 64-Bit Server VM
Default Encoding: UTF-8
Language: en
Country: US
--></g></svg>