<?xml version="1.0" encoding="UTF-8" standalone="no"?><svg xmlns="http://www.w3.org/2000/svg" xmlns:xlink="http://www.w3.org/1999/xlink" contentStyleType="text/css" height="139px" preserveAspectRatio="none" style="width:402px;height:139px;background:#FFFFFF;" version="1.1" viewBox="0 0 402 139" width="402px" zoomAndPan="magnify"><defs/><g><line style="stroke:#C0C0C0;stroke-width:1.0;" x1="0" x2="0" y1="0" y2="121.1797"/><line style="stroke:#C0C0C0;stroke-width:1.0;" x1="16" x2="16" y1="0" y2="121.1797"/><line style="stroke:#C0C0C0;stroke-width:1.0;" x1="32" x2="32" y1="0" y2="121.1797"/><line style="stroke:#C0C0C0;stroke-width:1.0;" x1="48" x2="48" y1="0" y2="121.1797"/><line style="stroke:#C0C0C0;stroke-width:1.0;" x1="64" x2="64" y1="0" y2="121.1797"/><line style="stroke:#C0C0C0;stroke-width:1.0;" x1="80" x2="80" y1="0" y2="121.1797"/><line style="stroke:#C0C0C0;stroke-width:1.0;" x1="96" x2="96" y1="0" y2="121.1797"/><line style="stroke:#C0C0C0;stroke-width:1.0;" x1="112" x2="112" y1="0" y2="121.1797"/><line style="stroke:#C0C0C0;stroke-width:1.0;" x1="128" x2="128" y1="0" y2="121.1797"/><line style="stroke:#C0C0C0;stroke-width:1.0;" x1="144" x2="144" y1="0" y2="121.1797"/><line style="stroke:#C0C0C0;stroke-width:1.0;" x1="160" x2="160" y1="0" y2="121.1797"/><line style="stroke:#C0C0C0;stroke-width:1.0;" x1="176" x2="176" y1="0" y2="121.1797"/><line style="stroke:#C0C0C0;stroke-width:1.0;" x1="192" x2="192" y1="0" y2="121.1797"/><line style="stroke:#C0C0C0;stroke-width:1.0;" x1="208" x2="208" y1="0" y2="121.1797"/><line style="stroke:#C0C0C0;stroke-width:1.0;" x1="224" x2="224" y1="0" y2="121.1797"/><line style="stroke:#C0C0C0;stroke-width:1.0;" x1="240" x2="240" y1="0" y2="121.1797"/><line style="stroke:#C0C0C0;stroke-width:1.0;" x1="256" x2="256" y1="0" y2="121.1797"/><line style="stroke:#C0C0C0;stroke-width:1.0;" x1="272" x2="272" y1="0" y2="121.1797"/><line style="stroke:#C0C0C0;stroke-width:1.0;" x1="288" x2="288" y1="0" y2="121.1797"/><line style="stroke:#C0C0C0;stroke-width:1.0;" x1="304" x2="304" y1="0" y2="121.1797"/><line style="stroke:#C0C0C0;stroke-width:1.0;" x1="320" x2="320" y1="0" y2="121.1797"/><line style="stroke:#C0C0C0;stroke-width:1.0;" x1="336" x2="336" y1="0" y2="121.1797"/><line style="stroke:#C0C0C0;stroke-width:1.0;" x1="352" x2="352" y1="0" y2="121.1797"/><line style="stroke:#C0C0C0;stroke-width:1.0;" x1="368" x2="368" y1="0" y2="121.1797"/><line style="stroke:#C0C0C0;stroke-width:1.0;" x1="384" x2="384" y1="0" y2="121.1797"/><line style="stroke:#C0C0C0;stroke-width:1.0;" x1="400" x2="400" y1="0" y2="121.1797"/><text fill="#000000" font-family="Serif" font-size="10" lengthAdjust="spacing" textLength="5" x="5.5" y="10.4785">1</text><text fill="#000000" font-family="Serif" font-size="10" lengthAdjust="spacing" textLength="5" x="21.5" y="10.4785">2</text><text fill="#000000" font-family="Serif" font-size="10" lengthAdjust="spacing" textLength="5" x="37.5" y="10.4785">3</text><text fill="#000000" font-family="Serif" font-size="10" lengthAdjust="spacing" textLength="5" x="53.5" y="10.4785">4</text><text fill="#000000" font-family="Serif" font-size="10" lengthAdjust="spacing" textLength="5" x="69.5" y="10.4785">5</text><text fill="#000000" font-family="Serif" font-size="10" lengthAdjust="spacing" textLength="5" x="85.5" y="10.4785">6</text><text fill="#000000" font-family="Serif" font-size="10" lengthAdjust="spacing" textLength="5" x="101.5" y="10.4785">7</text><text fill="#000000" font-family="Serif" font-size="10" lengthAdjust="spacing" textLength="5" x="117.5" y="10.4785">8</text><text fill="#000000" font-family="Serif" font-size="10" lengthAdjust="spacing" textLength="5" x="133.5" y="10.4785">9</text><text fill="#000000" font-family="Serif" font-size="10" lengthAdjust="spacing" textLength="10" x="147" y="10.4785">10</text><text fill="#000000" font-family="Serif" font-size="10" lengthAdjust="spacing" textLength="10" x="163" y="10.4785">11</text><text fill="#000000" font-family="Serif" font-size="10" lengthAdjust="spacing" textLength="10" x="179" y="10.4785">12</text><text fill="#000000" font-family="Serif" font-size="10" lengthAdjust="spacing" textLength="10" x="195" y="10.4785">13</text><text fill="#000000" font-family="Serif" font-size="10" lengthAdjust="spacing" textLength="10" x="211" y="10.4785">14</text><text fill="#000000" font-family="Serif" font-size="10" lengthAdjust="spacing" textLength="10" x="227" y="10.4785">15</text><text fill="#000000" font-family="Serif" font-size="10" lengthAdjust="spacing" textLength="10" x="243" y="10.4785">16</text><text fill="#000000" font-family="Serif" font-size="10" lengthAdjust="spacing" textLength="10" x="259" y="10.4785">17</text><text fill="#000000" font-family="Serif" font-size="10" lengthAdjust="spacing" textLength="10" x="275" y="10.4785">18</text><text fill="#000000" font-family="Serif" font-size="10" lengthAdjust="spacing" textLength="10" x="291" y="10.4785">19</text><text fill="#000000" font-family="Serif" font-size="10" lengthAdjust="spacing" textLength="10" x="307" y="10.4785">20</text><text fill="#000000" font-family="Serif" font-size="10" lengthAdjust="spacing" textLength="10" x="323" y="10.4785">21</text><text fill="#000000" font-family="Serif" font-size="10" lengthAdjust="spacing" textLength="10" x="339" y="10.4785">22</text><text fill="#000000" font-family="Serif" font-size="10" lengthAdjust="spacing" textLength="10" x="355" y="10.4785">23</text><text fill="#000000" font-family="Serif" font-size="10" lengthAdjust="spacing" textLength="10" x="371" y="10.4785">24</text><text fill="#000000" font-family="Serif" font-size="10" lengthAdjust="spacing" textLength="10" x="387" y="10.4785">25</text><line style="stroke:#C0C0C0;stroke-width:1.0;" x1="0" x2="400" y1="0" y2="0"/><line style="stroke:#C0C0C0;stroke-width:1.0;" x1="0" x2="400" y1="13" y2="13"/><line style="stroke:#181818;stroke-width:1.5;" x1="151" x2="151" y1="31.8359" y2="42.7539"/><line style="stroke:#181818;stroke-width:1.5;" x1="151" x2="159" y1="42.7539" y2="42.7539"/><polygon fill="#181818" points="155,38.7539,155,42.7539,155,46.7539,159,42.7539" style="stroke:#181818;stroke-width:1.5;"/><line style="stroke:#181818;stroke-width:1.5;" x1="215" x2="215" y1="49.6719" y2="94.4258"/><line style="stroke:#181818;stroke-width:1.5;" x1="215" x2="223" y1="94.4258" y2="94.4258"/><polygon fill="#181818" points="219,90.4258,219,94.4258,219,98.4258,223,94.4258" style="stroke:#181818;stroke-width:1.5;"/><line style="stroke:#181818;stroke-width:1.5;" x1="295" x2="295" y1="101.3438" y2="112.2617"/><line style="stroke:#181818;stroke-width:1.5;" x1="295" x2="303" y1="112.2617" y2="112.2617"/><polygon fill="#181818" points="299,108.2617,299,112.2617,299,116.2617,303,112.2617" style="stroke:#181818;stroke-width:1.5;"/><rect fill="#E2E2F0" height="13.8359" style="stroke:none;stroke-width:1.0;" width="156" x="2" y="18"/><line style="stroke:#181818;stroke-width:1.0;" x1="2" x2="158" y1="18" y2="18"/><line style="stroke:#181818;stroke-width:1.0;" x1="2" x2="158" y1="31.8359" y2="31.8359"/><line style="stroke:#181818;stroke-width:1.0;" x1="2" x2="2" y1="18" y2="31.8359"/><line style="stroke:#181818;stroke-width:1.0;" x1="158" x2="158" y1="18" y2="31.8359"/><rect fill="#E2E2F0" height="13.8359" style="stroke:none;stroke-width:1.0;" width="60" x="162" y="35.8359"/><line style="stroke:#181818;stroke-width:1.0;" x1="162" x2="222" y1="35.8359" y2="35.8359"/><line style="stroke:#181818;stroke-width:1.0;" x1="162" x2="222" y1="49.6719" y2="49.6719"/><line style="stroke:#181818;stroke-width:1.0;" x1="162" x2="162" y1="35.8359" y2="49.6719"/><line style="stroke:#181818;stroke-width:1.0;" x1="222" x2="222" y1="35.8359" y2="49.6719"/><line style="stroke:#181818;stroke-width:1.0;" x1="0" x2="5" y1="68.5898" y2="68.5898"/><line style="stroke:#181818;stroke-width:1.0;" x1="70" x2="399" y1="68.5898" y2="68.5898"/><rect fill="#E2E2F0" height="13.8359" style="stroke:none;stroke-width:1.0;" width="76" x="226" y="87.5078"/><line style="stroke:#181818;stroke-width:1.0;" x1="226" x2="302" y1="87.5078" y2="87.5078"/><line style="stroke:#181818;stroke-width:1.0;" x1="226" x2="302" y1="101.3438" y2="101.3438"/><line style="stroke:#181818;stroke-width:1.0;" x1="226" x2="226" y1="87.5078" y2="101.3438"/><line style="stroke:#181818;stroke-width:1.0;" x1="302" x2="302" y1="87.5078" y2="101.3438"/><rect fill="#E2E2F0" height="13.8359" style="stroke:none;stroke-width:1.0;" width="92" x="306" y="105.3438"/><line style="stroke:#181818;stroke-width:1.0;" x1="306" x2="398" y1="105.3438" y2="105.3438"/><line style="stroke:#181818;stroke-width:1.0;" x1="306" x2="398" y1="119.1797" y2="119.1797"/><line style="stroke:#181818;stroke-width:1.0;" x1="306" x2="306" y1="105.3438" y2="119.1797"/><line style="stroke:#181818;stroke-width:1.0;" x1="398" x2="398" y1="105.3438" y2="119.1797"/><text fill="#000000" font-family="sans-serif" font-size="11" lengthAdjust="spacing" textLength="29" x="6" y="29.4189">Task1</text><text fill="#000000" font-family="sans-serif" font-size="11" lengthAdjust="spacing" textLength="29" x="166" y="47.2549">Task2</text><text fill="#000000" font-family="sans-serif" font-size="11" lengthAdjust="spacing" textLength="55" x="10" y="73.0908">Phase Two</text><text fill="#000000" font-family="sans-serif" font-size="11" lengthAdjust="spacing" textLength="29" x="230" y="98.9268">Task3</text><text fill="#000000" font-family="sans-serif" font-size="11" lengthAdjust="spacing" textLength="29" x="310" y="116.7627">Task4</text><line style="stroke:#C0C0C0;stroke-width:1.0;" x1="0" x2="0" y1="121.1797" y2="137.1797"/><line style="stroke:#C0C0C0;stroke-width:1.0;" x1="16" x2="16" y1="121.1797" y2="137.1797"/><line style="stroke:#C0C0C0;stroke-width:1.0;" x1="32" x2="32" y1="121.1797" y2="137.1797"/><line style="stroke:#C0C0C0;stroke-width:1.0;" x1="48" x2="48" y1="121.1797" y2="137.1797"/><line style="stroke:#C0C0C0;stroke-width:1.0;" x1="64" x2="64" y1="121.1797" y2="137.1797"/><line style="stroke:#C0C0C0;stroke-width:1.0;" x1="80" x2="80" y1="121.1797" y2="137.1797"/><line style="stroke:#C0C0C0;stroke-width:1.0;" x1="96" x2="96" y1="121.1797" y2="137.1797"/><line style="stroke:#C0C0C0;stroke-width:1.0;" x1="112" x2="112" y1="121.1797" y2="137.1797"/><line style="stroke:#C0C0C0;stroke-width:1.0;" x1="128" x2="128" y1="121.1797" y2="137.1797"/><line style="stroke:#C0C0C0;stroke-width:1.0;" x1="144" x2="144" y1="121.1797" y2="137.1797"/><line style="stroke:#C0C0C0;stroke-width:1.0;" x1="160" x2="160" y1="121.1797" y2="137.1797"/><line style="stroke:#C0C0C0;stroke-width:1.0;" x1="176" x2="176" y1="121.1797" y2="137.1797"/><line style="stroke:#C0C0C0;stroke-width:1.0;" x1="192" x2="192" y1="121.1797" y2="137.1797"/><line style="stroke:#C0C0C0;stroke-width:1.0;" x1="208" x2="208" y1="121.1797" y2="137.1797"/><line style="stroke:#C0C0C0;stroke-width:1.0;" x1="224" x2="224" y1="121.1797" y2="137.1797"/><line style="stroke:#C0C0C0;stroke-width:1.0;" x1="240" x2="240" y1="121.1797" y2="137.1797"/><line style="stroke:#C0C0C0;stroke-width:1.0;" x1="256" x2="256" y1="121.1797" y2="137.1797"/><line style="stroke:#C0C0C0;stroke-width:1.0;" x1="272" x2="272" y1="121.1797" y2="137.1797"/><line style="stroke:#C0C0C0;stroke-width:1.0;" x1="288" x2="288" y1="121.1797" y2="137.1797"/><line style="stroke:#C0C0C0;stroke-width:1.0;" x1="304" x2="304" y1="121.1797" y2="137.1797"/><line style="stroke:#C0C0C0;stroke-width:1.0;" x1="320" x2="320" y1="121.1797" y2="137.1797"/><line style="stroke:#C0C0C0;stroke-width:1.0;" x1="336" x2="336" y1="121.1797" y2="137.1797"/><line style="stroke:#C0C0C0;stroke-width:1.0;" x1="352" x2="352" y1="121.1797" y2="137.1797"/><line style="stroke:#C0C0C0;stroke-width:1.0;" x1="368" x2="368" y1="121.1797" y2="137.1797"/><line style="stroke:#C0C0C0;stroke-width:1.0;" x1="384" x2="384" y1="121.1797" y2="137.1797"/><line style="stroke:#C0C0C0;stroke-width:1.0;" x1="400" x2="400" y1="121.1797" y2="137.1797"/><text fill="#000000" font-family="Serif" font-size="10" lengthAdjust="spacing" textLength="5" x="5.5" y="134.6582">1</text><text fill="#000000" font-family="Serif" font-size="10" lengthAdjust="spacing" textLength="5" x="21.5" y="134.6582">2</text><text fill="#000000" font-family="Serif" font-size="10" lengthAdjust="spacing" textLength="5" x="37.5" y="134.6582">3</text><text fill="#000000" font-family="Serif" font-size="10" lengthAdjust="spacing" textLength="5" x="53.5" y="134.6582">4</text><text fill="#000000" font-family="Serif" font-size="10" lengthAdjust="spacing" textLength="5" x="69.5" y="134.6582">5</text><text fill="#000000" font-family="Serif" font-size="10" lengthAdjust="spacing" textLength="5" x="85.5" y="134.6582">6</text><text fill="#000000" font-family="Serif" font-size="10" lengthAdjust="spacing" textLength="5" x="101.5" y="134.6582">7</text><text fill="#000000" font-family="Serif" font-size="10" lengthAdjust="spacing" textLength="5" x="117.5" y="134.6582">8</text><text fill="#000000" font-family="Serif" font-size="10" lengthAdjust="spacing" textLength="5" x="133.5" y="134.6582">9</text><text fill="#000000" font-family="Serif" font-size="10" lengthAdjust="spacing" textLength="10" x="147" y="134.6582">10</text><text fill="#000000" font-family="Serif" font-size="10" lengthAdjust="spacing" textLength="10" x="163" y="134.6582">11</text><text fill="#000000" font-family="Serif" font-size="10" lengthAdjust="spacing" textLength="10" x="179" y="134.6582">12</text><text fill="#000000" font-family="Serif" font-size="10" lengthAdjust="spacing" textLength="10" x="195" y="134.6582">13</text><text fill="#000000" font-family="Serif" font-size="10" lengthAdjust="spacing" textLength="10" x="211" y="134.6582">14</text><text fill="#000000" font-family="Serif" font-size="10" lengthAdjust="spacing" textLength="10" x="227" y="134.6582">15</text><text fill="#000000" font-family="Serif" font-size="10" lengthAdjust="spacing" textLength="10" x="243" y="134.6582">16</text><text fill="#000000" font-family="Serif" font-size="10" lengthAdjust="spacing" textLength="10" x="259" y="134.6582">17</text><text fill="#000000" font-family="Serif" font-size="10" lengthAdjust="spacing" textLength="10" x="275" y="134.6582">18</text><text fill="#000000" font-family="Serif" font-size="10" lengthAdjust="spacing" textLength="10" x="291" y="134.6582">19</text><text fill="#000000" font-family="Serif" font-size="10" lengthAdjust="spacing" textLength="10" x="307" y="134.6582">20</text><text fill="#000000" font-family="Serif" font-size="10" lengthAdjust="spacing" textLength="10" x="323" y="134.6582">21</text><text fill="#000000" font-family="Serif" font-size="10" lengthAdjust="spacing" textLength="10" x="339" y="134.6582">22</text><text fill="#000000" font-family="Serif" font-size="10" lengthAdjust="spacing" textLength="10" x="355" y="134.6582">23</text><text fill="#000000" font-family="Serif" font-size="10" lengthAdjust="spacing" textLength="10" x="371" y="134.6582">24</text><text fill="#000000" font-family="Serif" font-size="10" lengthAdjust="spacing" textLength="10" x="387" y="134.6582">25</text><line style="stroke:#C0C0C0;stroke-width:1.0;" x1="0" x2="400" y1="124.1797" y2="124.1797"/><!--MD5=[394ed662f51238b3ea3c9f6e70b14efb]
@startuml
[Task1] lasts 10 days
then [Task2] lasts 4 days
- - Phase Two - -
then [Task3] lasts 5 days
then [Task4] lasts 6 days
@enduml

PlantUML version 1.2022.3beta3(Unknown compile time)
(GPL source distribution)
Java Runtime: OpenJDK Runtime Environment
JVM: OpenJDK 64-Bit Server VM
Default Encoding: UTF-8
Language: en
Country: US
--></g></svg>