<?xml version="1.0" encoding="UTF-8" standalone="no"?><svg xmlns="http://www.w3.org/2000/svg" xmlns:xlink="http://www.w3.org/1999/xlink" contentStyleType="text/css" height="123px" preserveAspectRatio="none" style="width:415px;height:123px;background:#FFFFFF;" version="1.1" viewBox="0 0 415 123" width="415px" zoomAndPan="magnify"><defs/><g><line style="stroke:#C0C0C0;stroke-width:1.0;" x1="0" x2="0" y1="0" y2="105.1797"/><line style="stroke:#C0C0C0;stroke-width:1.0;" x1="16" x2="16" y1="0" y2="105.1797"/><line style="stroke:#C0C0C0;stroke-width:1.0;" x1="32" x2="32" y1="0" y2="105.1797"/><line style="stroke:#C0C0C0;stroke-width:1.0;" x1="48" x2="48" y1="0" y2="105.1797"/><line style="stroke:#C0C0C0;stroke-width:1.0;" x1="64" x2="64" y1="0" y2="105.1797"/><line style="stroke:#C0C0C0;stroke-width:1.0;" x1="80" x2="80" y1="0" y2="105.1797"/><line style="stroke:#C0C0C0;stroke-width:1.0;" x1="96" x2="96" y1="0" y2="105.1797"/><line style="stroke:#C0C0C0;stroke-width:1.0;" x1="112" x2="112" y1="0" y2="105.1797"/><line style="stroke:#C0C0C0;stroke-width:1.0;" x1="128" x2="128" y1="0" y2="105.1797"/><line style="stroke:#C0C0C0;stroke-width:1.0;" x1="144" x2="144" y1="0" y2="105.1797"/><line style="stroke:#C0C0C0;stroke-width:1.0;" x1="160" x2="160" y1="0" y2="105.1797"/><line style="stroke:#C0C0C0;stroke-width:1.0;" x1="176" x2="176" y1="0" y2="105.1797"/><line style="stroke:#C0C0C0;stroke-width:1.0;" x1="192" x2="192" y1="0" y2="105.1797"/><line style="stroke:#C0C0C0;stroke-width:1.0;" x1="208" x2="208" y1="0" y2="105.1797"/><line style="stroke:#C0C0C0;stroke-width:1.0;" x1="224" x2="224" y1="0" y2="105.1797"/><line style="stroke:#C0C0C0;stroke-width:1.0;" x1="240" x2="240" y1="0" y2="105.1797"/><line style="stroke:#C0C0C0;stroke-width:1.0;" x1="256" x2="256" y1="0" y2="105.1797"/><line style="stroke:#C0C0C0;stroke-width:1.0;" x1="272" x2="272" y1="0" y2="105.1797"/><line style="stroke:#C0C0C0;stroke-width:1.0;" x1="288" x2="288" y1="0" y2="105.1797"/><line style="stroke:#C0C0C0;stroke-width:1.0;" x1="304" x2="304" y1="0" y2="105.1797"/><line style="stroke:#C0C0C0;stroke-width:1.0;" x1="320" x2="320" y1="0" y2="105.1797"/><line style="stroke:#C0C0C0;stroke-width:1.0;" x1="336" x2="336" y1="0" y2="105.1797"/><line style="stroke:#C0C0C0;stroke-width:1.0;" x1="352" x2="352" y1="0" y2="105.1797"/><line style="stroke:#C0C0C0;stroke-width:1.0;" x1="368" x2="368" y1="0" y2="105.1797"/><line style="stroke:#C0C0C0;stroke-width:1.0;" x1="384" x2="384" y1="0" y2="105.1797"/><line style="stroke:#C0C0C0;stroke-width:1.0;" x1="400" x2="400" y1="0" y2="105.1797"/><text fill="#000000" font-family="Serif" font-size="10" lengthAdjust="spacing" textLength="5" x="5.5" y="10.4785">1</text><text fill="#000000" font-family="Serif" font-size="10" lengthAdjust="spacing" textLength="5" x="21.5" y="10.4785">2</text><text fill="#000000" font-family="Serif" font-size="10" lengthAdjust="spacing" textLength="5" x="37.5" y="10.4785">3</text><text fill="#000000" font-family="Serif" font-size="10" lengthAdjust="spacing" textLength="5" x="53.5" y="10.4785">4</text><text fill="#000000" font-family="Serif" font-size="10" lengthAdjust="spacing" textLength="5" x="69.5" y="10.4785">5</text><text fill="#000000" font-family="Serif" font-size="10" lengthAdjust="spacing" textLength="5" x="85.5" y="10.4785">6</text><text fill="#000000" font-family="Serif" font-size="10" lengthAdjust="spacing" textLength="5" x="101.5" y="10.4785">7</text><text fill="#000000" font-family="Serif" font-size="10" lengthAdjust="spacing" textLength="5" x="117.5" y="10.4785">8</text><text fill="#000000" font-family="Serif" font-size="10" lengthAdjust="spacing" textLength="5" x="133.5" y="10.4785">9</text><text fill="#000000" font-family="Serif" font-size="10" lengthAdjust="spacing" textLength="10" x="147" y="10.4785">10</text><text fill="#000000" font-family="Serif" font-size="10" lengthAdjust="spacing" textLength="10" x="163" y="10.4785">11</text><text fill="#000000" font-family="Serif" font-size="10" lengthAdjust="spacing" textLength="10" x="179" y="10.4785">12</text><text fill="#000000" font-family="Serif" font-size="10" lengthAdjust="spacing" textLength="10" x="195" y="10.4785">13</text><text fill="#000000" font-family="Serif" font-size="10" lengthAdjust="spacing" textLength="10" x="211" y="10.4785">14</text><text fill="#000000" font-family="Serif" font-size="10" lengthAdjust="spacing" textLength="10" x="227" y="10.4785">15</text><text fill="#000000" font-family="Serif" font-size="10" lengthAdjust="spacing" textLength="10" x="243" y="10.4785">16</text><text fill="#000000" font-family="Serif" font-size="10" lengthAdjust="spacing" textLength="10" x="259" y="10.4785">17</text><text fill="#000000" font-family="Serif" font-size="10" lengthAdjust="spacing" textLength="10" x="275" y="10.4785">18</text><text fill="#000000" font-family="Serif" font-size="10" lengthAdjust="spacing" textLength="10" x="291" y="10.4785">19</text><text fill="#000000" font-family="Serif" font-size="10" lengthAdjust="spacing" textLength="10" x="307" y="10.4785">20</text><text fill="#000000" font-family="Serif" font-size="10" lengthAdjust="spacing" textLength="10" x="323" y="10.4785">21</text><text fill="#000000" font-family="Serif" font-size="10" lengthAdjust="spacing" textLength="10" x="339" y="10.4785">22</text><text fill="#000000" font-family="Serif" font-size="10" lengthAdjust="spacing" textLength="10" x="355" y="10.4785">23</text><text fill="#000000" font-family="Serif" font-size="10" lengthAdjust="spacing" textLength="10" x="371" y="10.4785">24</text><text fill="#000000" font-family="Serif" font-size="10" lengthAdjust="spacing" textLength="10" x="387" y="10.4785">25</text><line style="stroke:#C0C0C0;stroke-width:1.0;" x1="0" x2="400" y1="0" y2="0"/><line style="stroke:#C0C0C0;stroke-width:1.0;" x1="0" x2="400" y1="13" y2="13"/><line style="stroke:#181818;stroke-width:1.5;" x1="200" x2="200" y1="31.8359" y2="42.7539"/><line style="stroke:#181818;stroke-width:1.5;" x1="200" x2="255" y1="42.7539" y2="42.7539"/><polygon fill="#181818" points="251,38.7539,251,42.7539,251,46.7539,255,42.7539" style="stroke:#181818;stroke-width:1.5;"/><line style="stroke:#181818;stroke-width:1.5;" x1="207" x2="215" y1="24.918" y2="24.918"/><line style="stroke:#181818;stroke-width:1.5;" x1="215" x2="215" y1="24.918" y2="60.5898"/><line style="stroke:#181818;stroke-width:1.5;" x1="215" x2="207" y1="60.5898" y2="60.5898"/><polygon fill="#181818" points="211,56.5898,211,60.5898,211,64.5898,207,60.5898" style="stroke:#181818;stroke-width:1.5;"/><line style="stroke:#181818;stroke-width:1.5;" x1="136" x2="136" y1="67.5078" y2="78.4258"/><line style="stroke:#181818;stroke-width:1.5;" x1="136" x2="127" y1="78.4258" y2="78.4258"/><polygon fill="#181818" points="131,74.4258,131,78.4258,131,82.4258,127,78.4258" style="stroke:#181818;stroke-width:1.5;"/><line style="stroke:#181818;stroke-width:1.5;" x1="255" x2="231" y1="42.7539" y2="42.7539"/><line style="stroke:#181818;stroke-width:1.5;" x1="231" x2="231" y1="42.7539" y2="96.2617"/><line style="stroke:#181818;stroke-width:1.5;" x1="231" x2="239" y1="96.2617" y2="96.2617"/><polygon fill="#181818" points="235,92.2617,235,96.2617,235,100.2617,239,96.2617" style="stroke:#181818;stroke-width:1.5;"/><line style="stroke:#181818;stroke-width:1.5;" x1="399" x2="407" y1="42.7539" y2="42.7539"/><line style="stroke:#181818;stroke-width:1.5;" x1="407" x2="407" y1="42.7539" y2="96.2617"/><line style="stroke:#181818;stroke-width:1.5;" x1="407" x2="399" y1="96.2617" y2="96.2617"/><polygon fill="#181818" points="403,92.2617,403,96.2617,403,100.2617,399,96.2617" style="stroke:#181818;stroke-width:1.5;"/><rect fill="#E6E6FA" height="13.8359" style="stroke:none;stroke-width:1.0;" width="204" x="2" y="18"/><line style="stroke:#ADD8E6;stroke-width:1.0;" x1="2" x2="206" y1="18" y2="18"/><line style="stroke:#ADD8E6;stroke-width:1.0;" x1="2" x2="206" y1="31.8359" y2="31.8359"/><line style="stroke:#ADD8E6;stroke-width:1.0;" x1="2" x2="2" y1="18" y2="31.8359"/><line style="stroke:#ADD8E6;stroke-width:1.0;" x1="206" x2="206" y1="18" y2="31.8359"/><rect fill="#FF7F50" height="13.8359" style="stroke:none;stroke-width:1.0;" width="140" x="258" y="35.8359"/><line style="stroke:#008000;stroke-width:1.0;" x1="258" x2="398" y1="35.8359" y2="35.8359"/><line style="stroke:#008000;stroke-width:1.0;" x1="258" x2="398" y1="49.6719" y2="49.6719"/><line style="stroke:#008000;stroke-width:1.0;" x1="258" x2="258" y1="35.8359" y2="49.6719"/><line style="stroke:#008000;stroke-width:1.0;" x1="398" x2="398" y1="35.8359" y2="49.6719"/><rect fill="#E2E2F0" height="13.8359" style="stroke:none;stroke-width:1.0;" width="76" x="130" y="53.6719"/><line style="stroke:#181818;stroke-width:1.0;" x1="130" x2="206" y1="53.6719" y2="53.6719"/><line style="stroke:#181818;stroke-width:1.0;" x1="130" x2="206" y1="67.5078" y2="67.5078"/><line style="stroke:#181818;stroke-width:1.0;" x1="130" x2="130" y1="53.6719" y2="67.5078"/><line style="stroke:#181818;stroke-width:1.0;" x1="206" x2="206" y1="53.6719" y2="67.5078"/><rect fill="#E2E2F0" height="13.8359" style="stroke:none;stroke-width:1.0;" width="92" x="34" y="71.5078"/><line style="stroke:#181818;stroke-width:1.0;" x1="34" x2="126" y1="71.5078" y2="71.5078"/><line style="stroke:#181818;stroke-width:1.0;" x1="34" x2="126" y1="85.3438" y2="85.3438"/><line style="stroke:#181818;stroke-width:1.0;" x1="34" x2="34" y1="71.5078" y2="85.3438"/><line style="stroke:#181818;stroke-width:1.0;" x1="126" x2="126" y1="71.5078" y2="85.3438"/><rect fill="#FF7F50" height="13.8359" style="stroke:none;stroke-width:1.0;" width="156" x="242" y="89.3438"/><line style="stroke:#008000;stroke-width:1.0;" x1="242" x2="398" y1="89.3438" y2="89.3438"/><line style="stroke:#008000;stroke-width:1.0;" x1="242" x2="398" y1="103.1797" y2="103.1797"/><line style="stroke:#008000;stroke-width:1.0;" x1="242" x2="242" y1="89.3438" y2="103.1797"/><line style="stroke:#008000;stroke-width:1.0;" x1="398" x2="398" y1="89.3438" y2="103.1797"/><text fill="#000000" font-family="sans-serif" font-size="11" lengthAdjust="spacing" textLength="81" x="6" y="29.4189">Prototype design</text><text fill="#000000" font-family="sans-serif" font-size="11" lengthAdjust="spacing" textLength="70" x="262" y="47.2549">Test prototype</text><text fill="#000000" font-family="sans-serif" font-size="11" lengthAdjust="spacing" textLength="52" x="134" y="65.0908">Write tests</text><text fill="#000000" font-family="sans-serif" font-size="11" lengthAdjust="spacing" textLength="84" x="140" y="82.9268">Hire tests writers</text><text fill="#000000" font-family="sans-serif" font-size="11" lengthAdjust="spacing" textLength="121" x="246" y="100.7627">Init and write tests report</text><line style="stroke:#C0C0C0;stroke-width:1.0;" x1="0" x2="0" y1="105.1797" y2="121.1797"/><line style="stroke:#C0C0C0;stroke-width:1.0;" x1="16" x2="16" y1="105.1797" y2="121.1797"/><line style="stroke:#C0C0C0;stroke-width:1.0;" x1="32" x2="32" y1="105.1797" y2="121.1797"/><line style="stroke:#C0C0C0;stroke-width:1.0;" x1="48" x2="48" y1="105.1797" y2="121.1797"/><line style="stroke:#C0C0C0;stroke-width:1.0;" x1="64" x2="64" y1="105.1797" y2="121.1797"/><line style="stroke:#C0C0C0;stroke-width:1.0;" x1="80" x2="80" y1="105.1797" y2="121.1797"/><line style="stroke:#C0C0C0;stroke-width:1.0;" x1="96" x2="96" y1="105.1797" y2="121.1797"/><line style="stroke:#C0C0C0;stroke-width:1.0;" x1="112" x2="112" y1="105.1797" y2="121.1797"/><line style="stroke:#C0C0C0;stroke-width:1.0;" x1="128" x2="128" y1="105.1797" y2="121.1797"/><line style="stroke:#C0C0C0;stroke-width:1.0;" x1="144" x2="144" y1="105.1797" y2="121.1797"/><line style="stroke:#C0C0C0;stroke-width:1.0;" x1="160" x2="160" y1="105.1797" y2="121.1797"/><line style="stroke:#C0C0C0;stroke-width:1.0;" x1="176" x2="176" y1="105.1797" y2="121.1797"/><line style="stroke:#C0C0C0;stroke-width:1.0;" x1="192" x2="192" y1="105.1797" y2="121.1797"/><line style="stroke:#C0C0C0;stroke-width:1.0;" x1="208" x2="208" y1="105.1797" y2="121.1797"/><line style="stroke:#C0C0C0;stroke-width:1.0;" x1="224" x2="224" y1="105.1797" y2="121.1797"/><line style="stroke:#C0C0C0;stroke-width:1.0;" x1="240" x2="240" y1="105.1797" y2="121.1797"/><line style="stroke:#C0C0C0;stroke-width:1.0;" x1="256" x2="256" y1="105.1797" y2="121.1797"/><line style="stroke:#C0C0C0;stroke-width:1.0;" x1="272" x2="272" y1="105.1797" y2="121.1797"/><line style="stroke:#C0C0C0;stroke-width:1.0;" x1="288" x2="288" y1="105.1797" y2="121.1797"/><line style="stroke:#C0C0C0;stroke-width:1.0;" x1="304" x2="304" y1="105.1797" y2="121.1797"/><line style="stroke:#C0C0C0;stroke-width:1.0;" x1="320" x2="320" y1="105.1797" y2="121.1797"/><line style="stroke:#C0C0C0;stroke-width:1.0;" x1="336" x2="336" y1="105.1797" y2="121.1797"/><line style="stroke:#C0C0C0;stroke-width:1.0;" x1="352" x2="352" y1="105.1797" y2="121.1797"/><line style="stroke:#C0C0C0;stroke-width:1.0;" x1="368" x2="368" y1="105.1797" y2="121.1797"/><line style="stroke:#C0C0C0;stroke-width:1.0;" x1="384" x2="384" y1="105.1797" y2="121.1797"/><line style="stroke:#C0C0C0;stroke-width:1.0;" x1="400" x2="400" y1="105.1797" y2="121.1797"/><text fill="#000000" font-family="Serif" font-size="10" lengthAdjust="spacing" textLength="5" x="5.5" y="118.6582">1</text><text fill="#000000" font-family="Serif" font-size="10" lengthAdjust="spacing" textLength="5" x="21.5" y="118.6582">2</text><text fill="#000000" font-family="Serif" font-size="10" lengthAdjust="spacing" textLength="5" x="37.5" y="118.6582">3</text><text fill="#000000" font-family="Serif" font-size="10" lengthAdjust="spacing" textLength="5" x="53.5" y="118.6582">4</text><text fill="#000000" font-family="Serif" font-size="10" lengthAdjust="spacing" textLength="5" x="69.5" y="118.6582">5</text><text fill="#000000" font-family="Serif" font-size="10" lengthAdjust="spacing" textLength="5" x="85.5" y="118.6582">6</text><text fill="#000000" font-family="Serif" font-size="10" lengthAdjust="spacing" textLength="5" x="101.5" y="118.6582">7</text><text fill="#000000" font-family="Serif" font-size="10" lengthAdjust="spacing" textLength="5" x="117.5" y="118.6582">8</text><text fill="#000000" font-family="Serif" font-size="10" lengthAdjust="spacing" textLength="5" x="133.5" y="118.6582">9</text><text fill="#000000" font-family="Serif" font-size="10" lengthAdjust="spacing" textLength="10" x="147" y="118.6582">10</text><text fill="#000000" font-family="Serif" font-size="10" lengthAdjust="spacing" textLength="10" x="163" y="118.6582">11</text><text fill="#000000" font-family="Serif" font-size="10" lengthAdjust="spacing" textLength="10" x="179" y="118.6582">12</text><text fill="#000000" font-family="Serif" font-size="10" lengthAdjust="spacing" textLength="10" x="195" y="118.6582">13</text><text fill="#000000" font-family="Serif" font-size="10" lengthAdjust="spacing" textLength="10" x="211" y="118.6582">14</text><text fill="#000000" font-family="Serif" font-size="10" lengthAdjust="spacing" textLength="10" x="227" y="118.6582">15</text><text fill="#000000" font-family="Serif" font-size="10" lengthAdjust="spacing" textLength="10" x="243" y="118.6582">16</text><text fill="#000000" font-family="Serif" font-size="10" lengthAdjust="spacing" textLength="10" x="259" y="118.6582">17</text><text fill="#000000" font-family="Serif" font-size="10" lengthAdjust="spacing" textLength="10" x="275" y="118.6582">18</text><text fill="#000000" font-family="Serif" font-size="10" lengthAdjust="spacing" textLength="10" x="291" y="118.6582">19</text><text fill="#000000" font-family="Serif" font-size="10" lengthAdjust="spacing" textLength="10" x="307" y="118.6582">20</text><text fill="#000000" font-family="Serif" font-size="10" lengthAdjust="spacing" textLength="10" x="323" y="118.6582">21</text><text fill="#000000" font-family="Serif" font-size="10" lengthAdjust="spacing" textLength="10" x="339" y="118.6582">22</text><text fill="#000000" font-family="Serif" font-size="10" lengthAdjust="spacing" textLength="10" x="355" y="118.6582">23</text><text fill="#000000" font-family="Serif" font-size="10" lengthAdjust="spacing" textLength="10" x="371" y="118.6582">24</text><text fill="#000000" font-family="Serif" font-size="10" lengthAdjust="spacing" textLength="10" x="387" y="118.6582">25</text><line style="stroke:#C0C0C0;stroke-width:1.0;" x1="0" x2="400" y1="108.1797" y2="108.1797"/><!--MD5=[e58e77a8a2e1529a45ccb9e462fc1169]
@startuml
[Prototype design] lasts 13 days and is colored in Lavender/LightBlue
[Test prototype] lasts 9 days and is colored in Coral/Green and starts 3 days after [Prototype design]'s end
[Write tests] lasts 5 days and ends at [Prototype design]'s end
[Hire tests writers] lasts 6 days and ends at [Write tests]'s start
[Init and write tests report] is colored in Coral/Green
[Init and write tests report] starts 1 day before [Test prototype]'s start and ends at [Test prototype]'s end
@enduml

PlantUML version 1.2022.3beta3(Unknown compile time)
(GPL source distribution)
Java Runtime: OpenJDK Runtime Environment
JVM: OpenJDK 64-Bit Server VM
Default Encoding: UTF-8
Language: en
Country: US
--></g></svg>