<?xml version="1.0" encoding="UTF-8" standalone="no"?><svg xmlns="http://www.w3.org/2000/svg" xmlns:xlink="http://www.w3.org/1999/xlink" contentStyleType="text/css" height="97px" preserveAspectRatio="none" style="width:199px;height:97px;background:#FFFFFF;" version="1.1" viewBox="0 0 199 97" width="199px" zoomAndPan="magnify"><defs/><g><rect fill="#FA8072" height="35.6719" style="stroke:none;stroke-width:1.0;" width="5.3333" x="128" y="29"/><line style="stroke:#C0C0C0;stroke-width:1.0;" x1="0" x2="0" y1="0" y2="15"/><line style="stroke:#C0C0C0;stroke-width:1.0;" x1="109.8667" x2="109.8667" y1="0" y2="15"/><text fill="#000000" font-family="Serif" font-size="12" font-weight="bold" lengthAdjust="spacing" textLength="24" x="42.9333" y="12.5742">2020</text><text fill="#000000" font-family="Serif" font-size="12" font-weight="bold" lengthAdjust="spacing" textLength="24" x="122.9333" y="12.5742">2021</text><line style="stroke:#C0C0C0;stroke-width:1.0;" x1="160" x2="160" y1="0" y2="15"/><line style="stroke:#C0C0C0;stroke-width:1.0;" x1="0" x2="0" y1="16" y2="28"/><line style="stroke:#C0C0C0;stroke-width:1.0;" x1="11.7333" x2="11.7333" y1="16" y2="28"/><text fill="#000000" font-family="Serif" font-size="10" lengthAdjust="spacing" textLength="15" x="0" y="26.4785">Sep</text><line style="stroke:#C0C0C0;stroke-width:1.0;" x1="44.8" x2="44.8" y1="16" y2="28"/><text fill="#000000" font-family="Serif" font-size="10" lengthAdjust="spacing" textLength="31" x="12.7667" y="26.4785">October</text><line style="stroke:#C0C0C0;stroke-width:1.0;" x1="76.8" x2="76.8" y1="16" y2="28"/><text fill="#000000" font-family="Serif" font-size="10" lengthAdjust="spacing" textLength="17" x="52.3" y="26.4785">Nov</text><line style="stroke:#C0C0C0;stroke-width:1.0;" x1="109.8667" x2="109.8667" y1="16" y2="28"/><text fill="#000000" font-family="Serif" font-size="10" lengthAdjust="spacing" textLength="15" x="85.8333" y="26.4785">Dec</text><line style="stroke:#C0C0C0;stroke-width:1.0;" x1="142.9333" x2="142.9333" y1="16" y2="28"/><text fill="#000000" font-family="Serif" font-size="10" lengthAdjust="spacing" textLength="30" x="111.4" y="26.4785">January</text><text fill="#000000" font-family="Serif" font-size="10" lengthAdjust="spacing" textLength="15" x="143.9667" y="26.4785">Feb</text><line style="stroke:#C0C0C0;stroke-width:1.0;" x1="160" x2="160" y1="16" y2="28"/><line style="stroke:#C0C0C0;stroke-width:1.0;" x1="0" x2="160" y1="0" y2="0"/><line style="stroke:#C0C0C0;stroke-width:1.0;" x1="0" x2="160" y1="16" y2="16"/><line style="stroke:#C0C0C0;stroke-width:1.0;" x1="0" x2="160" y1="29" y2="29"/><line style="stroke:#181818;stroke-width:1.5;" x1="137.6667" x2="143.6667" y1="37.918" y2="37.918"/><line style="stroke:#181818;stroke-width:1.5;" x1="143.6667" x2="143.6667" y1="37.918" y2="46.8359"/><line style="stroke:#181818;stroke-width:1.5;" x1="143.6667" x2="129.6667" y1="46.8359" y2="46.8359"/><line style="stroke:#181818;stroke-width:1.5;" x1="129.6667" x2="129.6667" y1="46.8359" y2="55.7539"/><line style="stroke:#181818;stroke-width:1.5;" x1="129.6667" x2="137.6667" y1="55.7539" y2="55.7539"/><polygon fill="#181818" points="133.6667,51.7539,133.6667,55.7539,133.6667,59.7539,137.6667,55.7539" style="stroke:#181818;stroke-width:1.5;"/><rect fill="#E6E6FA" height="13.8359" style="stroke:none;stroke-width:1.0;" width="134.6667" x="2" y="31"/><line style="stroke:#ADD8E6;stroke-width:1.0;" x1="2" x2="136.6667" y1="31" y2="31"/><line style="stroke:#ADD8E6;stroke-width:1.0;" x1="2" x2="136.6667" y1="44.8359" y2="44.8359"/><line style="stroke:#ADD8E6;stroke-width:1.0;" x1="2" x2="2" y1="31" y2="44.8359"/><line style="stroke:#ADD8E6;stroke-width:1.0;" x1="136.6667" x2="136.6667" y1="31" y2="44.8359"/><rect fill="#E2E2F0" height="13.8359" style="stroke:none;stroke-width:1.0;" width="17.3333" x="140.6667" y="48.8359"/><line style="stroke:#181818;stroke-width:1.0;" x1="140.6667" x2="158" y1="48.8359" y2="48.8359"/><line style="stroke:#181818;stroke-width:1.0;" x1="140.6667" x2="158" y1="62.6719" y2="62.6719"/><line style="stroke:#181818;stroke-width:1.0;" x1="140.6667" x2="140.6667" y1="48.8359" y2="62.6719"/><line style="stroke:#181818;stroke-width:1.0;" x1="158" x2="158" y1="48.8359" y2="62.6719"/><text fill="#000000" font-family="sans-serif" font-size="11" lengthAdjust="spacing" textLength="81" x="6" y="42.4189">Prototype design</text><text fill="#000000" font-family="sans-serif" font-size="11" lengthAdjust="spacing" textLength="35" x="162" y="60.2549">Testing</text><line style="stroke:#C0C0C0;stroke-width:1.0;" x1="0" x2="0" y1="67.6719" y2="79.6719"/><line style="stroke:#C0C0C0;stroke-width:1.0;" x1="11.7333" x2="11.7333" y1="67.6719" y2="79.6719"/><text fill="#000000" font-family="Serif" font-size="10" lengthAdjust="spacing" textLength="15" x="0" y="78.1504">Sep</text><line style="stroke:#C0C0C0;stroke-width:1.0;" x1="44.8" x2="44.8" y1="67.6719" y2="79.6719"/><text fill="#000000" font-family="Serif" font-size="10" lengthAdjust="spacing" textLength="31" x="12.7667" y="78.1504">October</text><line style="stroke:#C0C0C0;stroke-width:1.0;" x1="76.8" x2="76.8" y1="67.6719" y2="79.6719"/><text fill="#000000" font-family="Serif" font-size="10" lengthAdjust="spacing" textLength="17" x="52.3" y="78.1504">Nov</text><line style="stroke:#C0C0C0;stroke-width:1.0;" x1="109.8667" x2="109.8667" y1="67.6719" y2="79.6719"/><text fill="#000000" font-family="Serif" font-size="10" lengthAdjust="spacing" textLength="15" x="85.8333" y="78.1504">Dec</text><line style="stroke:#C0C0C0;stroke-width:1.0;" x1="142.9333" x2="142.9333" y1="67.6719" y2="79.6719"/><text fill="#000000" font-family="Serif" font-size="10" lengthAdjust="spacing" textLength="30" x="111.4" y="78.1504">January</text><text fill="#000000" font-family="Serif" font-size="10" lengthAdjust="spacing" textLength="15" x="143.9667" y="78.1504">Feb</text><line style="stroke:#C0C0C0;stroke-width:1.0;" x1="160" x2="160" y1="67.6719" y2="79.6719"/><line style="stroke:#C0C0C0;stroke-width:1.0;" x1="0" x2="0" y1="80.6719" y2="95.6719"/><line style="stroke:#C0C0C0;stroke-width:1.0;" x1="109.8667" x2="109.8667" y1="80.6719" y2="95.6719"/><text fill="#000000" font-family="Serif" font-size="12" font-weight="bold" lengthAdjust="spacing" textLength="24" x="42.9333" y="93.2461">2020</text><text fill="#000000" font-family="Serif" font-size="12" font-weight="bold" lengthAdjust="spacing" textLength="24" x="122.9333" y="93.2461">2021</text><line style="stroke:#C0C0C0;stroke-width:1.0;" x1="160" x2="160" y1="80.6719" y2="95.6719"/><line style="stroke:#C0C0C0;stroke-width:1.0;" x1="0" x2="160" y1="67.6719" y2="67.6719"/><line style="stroke:#C0C0C0;stroke-width:1.0;" x1="0" x2="160" y1="80.6719" y2="80.6719"/><line style="stroke:#C0C0C0;stroke-width:1.0;" x1="0" x2="160" y1="95.6719" y2="95.6719"/><!--MD5=[d3af7268d620aac0f95eab065549e4ce]
@startuml
projectscale monthly
Project starts the 20th of september 2020
[Prototype design] as [TASK1] lasts 130 days
[TASK1] is colored in Lavender/LightBlue
[Testing] lasts 20 days
[TASK1]->[Testing]
2021-01-18 to 2021-01-22 are named [End's committee]
2021-01-18 to 2021-01-22 are colored in salmon
@enduml

PlantUML version 1.2022.3beta3(Unknown compile time)
(GPL source distribution)
Java Runtime: OpenJDK Runtime Environment
JVM: OpenJDK 64-Bit Server VM
Default Encoding: UTF-8
Language: en
Country: US
--></g></svg>