<?xml version="1.0" encoding="UTF-8" standalone="no"?><svg xmlns="http://www.w3.org/2000/svg" xmlns:xlink="http://www.w3.org/1999/xlink" contentStyleType="text/css" height="192px" preserveAspectRatio="none" style="width:242px;height:192px;background:#FFFFFF;" version="1.1" viewBox="0 0 242 192" width="242px" zoomAndPan="magnify"><defs/><g><line style="stroke:#C0C0C0;stroke-width:1.0;" x1="0" x2="0" y1="0" y2="174.6875"/><line style="stroke:#C0C0C0;stroke-width:1.0;" x1="16" x2="16" y1="0" y2="174.6875"/><line style="stroke:#C0C0C0;stroke-width:1.0;" x1="32" x2="32" y1="0" y2="174.6875"/><line style="stroke:#C0C0C0;stroke-width:1.0;" x1="48" x2="48" y1="0" y2="174.6875"/><line style="stroke:#C0C0C0;stroke-width:1.0;" x1="64" x2="64" y1="0" y2="174.6875"/><line style="stroke:#C0C0C0;stroke-width:1.0;" x1="80" x2="80" y1="0" y2="174.6875"/><line style="stroke:#C0C0C0;stroke-width:1.0;" x1="96" x2="96" y1="0" y2="174.6875"/><line style="stroke:#C0C0C0;stroke-width:1.0;" x1="112" x2="112" y1="0" y2="174.6875"/><line style="stroke:#C0C0C0;stroke-width:1.0;" x1="128" x2="128" y1="0" y2="174.6875"/><line style="stroke:#C0C0C0;stroke-width:1.0;" x1="144" x2="144" y1="0" y2="174.6875"/><line style="stroke:#C0C0C0;stroke-width:1.0;" x1="160" x2="160" y1="0" y2="174.6875"/><line style="stroke:#C0C0C0;stroke-width:1.0;" x1="176" x2="176" y1="0" y2="174.6875"/><line style="stroke:#C0C0C0;stroke-width:1.0;" x1="192" x2="192" y1="0" y2="174.6875"/><line style="stroke:#C0C0C0;stroke-width:1.0;" x1="208" x2="208" y1="0" y2="174.6875"/><line style="stroke:#C0C0C0;stroke-width:1.0;" x1="224" x2="224" y1="0" y2="174.6875"/><line style="stroke:#C0C0C0;stroke-width:1.0;" x1="240" x2="240" y1="0" y2="174.6875"/><text fill="#000000" font-family="Serif" font-size="10" lengthAdjust="spacing" textLength="5" x="5.5" y="10.4785">1</text><text fill="#000000" font-family="Serif" font-size="10" lengthAdjust="spacing" textLength="5" x="21.5" y="10.4785">2</text><text fill="#000000" font-family="Serif" font-size="10" lengthAdjust="spacing" textLength="5" x="37.5" y="10.4785">3</text><text fill="#000000" font-family="Serif" font-size="10" lengthAdjust="spacing" textLength="5" x="53.5" y="10.4785">4</text><text fill="#000000" font-family="Serif" font-size="10" lengthAdjust="spacing" textLength="5" x="69.5" y="10.4785">5</text><text fill="#000000" font-family="Serif" font-size="10" lengthAdjust="spacing" textLength="5" x="85.5" y="10.4785">6</text><text fill="#000000" font-family="Serif" font-size="10" lengthAdjust="spacing" textLength="5" x="101.5" y="10.4785">7</text><text fill="#000000" font-family="Serif" font-size="10" lengthAdjust="spacing" textLength="5" x="117.5" y="10.4785">8</text><text fill="#000000" font-family="Serif" font-size="10" lengthAdjust="spacing" textLength="5" x="133.5" y="10.4785">9</text><text fill="#000000" font-family="Serif" font-size="10" lengthAdjust="spacing" textLength="10" x="147" y="10.4785">10</text><text fill="#000000" font-family="Serif" font-size="10" lengthAdjust="spacing" textLength="10" x="163" y="10.4785">11</text><text fill="#000000" font-family="Serif" font-size="10" lengthAdjust="spacing" textLength="10" x="179" y="10.4785">12</text><text fill="#000000" font-family="Serif" font-size="10" lengthAdjust="spacing" textLength="10" x="195" y="10.4785">13</text><text fill="#000000" font-family="Serif" font-size="10" lengthAdjust="spacing" textLength="10" x="211" y="10.4785">14</text><text fill="#000000" font-family="Serif" font-size="10" lengthAdjust="spacing" textLength="10" x="227" y="10.4785">15</text><line style="stroke:#C0C0C0;stroke-width:1.0;" x1="0" x2="240" y1="0" y2="0"/><line style="stroke:#C0C0C0;stroke-width:1.0;" x1="0" x2="240" y1="13" y2="13"/><rect fill="#E2E2F0" height="13.8359" style="stroke:none;stroke-width:1.0;" width="236" x="2" y="18"/><line style="stroke:#181818;stroke-width:1.0;" x1="2" x2="238" y1="18" y2="18"/><line style="stroke:#181818;stroke-width:1.0;" x1="2" x2="238" y1="31.8359" y2="31.8359"/><line style="stroke:#181818;stroke-width:1.0;" x1="2" x2="2" y1="18" y2="31.8359"/><line style="stroke:#181818;stroke-width:1.0;" x1="238" x2="238" y1="18" y2="31.8359"/><rect fill="#E2E2F0" height="13.8359" style="stroke:none;stroke-width:1.0;" width="156" x="2" y="35.8359"/><line style="stroke:#181818;stroke-width:1.0;" x1="2" x2="158" y1="35.8359" y2="35.8359"/><line style="stroke:#181818;stroke-width:1.0;" x1="2" x2="158" y1="49.6719" y2="49.6719"/><line style="stroke:#181818;stroke-width:1.0;" x1="2" x2="2" y1="35.8359" y2="49.6719"/><line style="stroke:#181818;stroke-width:1.0;" x1="158" x2="158" y1="35.8359" y2="49.6719"/><line style="stroke:#181818;stroke-width:1.0;" x1="0" x2="5" y1="68.5898" y2="68.5898"/><line style="stroke:#181818;stroke-width:1.0;" x1="70" x2="239" y1="68.5898" y2="68.5898"/><rect fill="#E2E2F0" height="13.8359" style="stroke:none;stroke-width:1.0;" width="12" x="2" y="87.5078"/><line style="stroke:#181818;stroke-width:1.0;" x1="2" x2="14" y1="87.5078" y2="87.5078"/><line style="stroke:#181818;stroke-width:1.0;" x1="2" x2="14" y1="101.3438" y2="101.3438"/><line style="stroke:#181818;stroke-width:1.0;" x1="2" x2="2" y1="87.5078" y2="101.3438"/><line style="stroke:#181818;stroke-width:1.0;" x1="14" x2="14" y1="87.5078" y2="101.3438"/><rect fill="#E2E2F0" height="13.8359" style="stroke:none;stroke-width:1.0;" width="76" x="2" y="105.3438"/><line style="stroke:#181818;stroke-width:1.0;" x1="2" x2="78" y1="105.3438" y2="105.3438"/><line style="stroke:#181818;stroke-width:1.0;" x1="2" x2="78" y1="119.1797" y2="119.1797"/><line style="stroke:#181818;stroke-width:1.0;" x1="2" x2="2" y1="105.3438" y2="119.1797"/><line style="stroke:#181818;stroke-width:1.0;" x1="78" x2="78" y1="105.3438" y2="119.1797"/><rect fill="#E2E2F0" height="13.8359" style="stroke:none;stroke-width:1.0;" width="108" x="2" y="123.1797"/><line style="stroke:#181818;stroke-width:1.0;" x1="2" x2="110" y1="123.1797" y2="123.1797"/><line style="stroke:#181818;stroke-width:1.0;" x1="2" x2="110" y1="137.0156" y2="137.0156"/><line style="stroke:#181818;stroke-width:1.0;" x1="2" x2="2" y1="123.1797" y2="137.0156"/><line style="stroke:#181818;stroke-width:1.0;" x1="110" x2="110" y1="123.1797" y2="137.0156"/><rect fill="#E2E2F0" height="13.8359" style="stroke:none;stroke-width:1.0;" width="172" x="2" y="141.0156"/><line style="stroke:#181818;stroke-width:1.0;" x1="2" x2="174" y1="141.0156" y2="141.0156"/><line style="stroke:#181818;stroke-width:1.0;" x1="2" x2="174" y1="154.8516" y2="154.8516"/><line style="stroke:#181818;stroke-width:1.0;" x1="2" x2="2" y1="141.0156" y2="154.8516"/><line style="stroke:#181818;stroke-width:1.0;" x1="174" x2="174" y1="141.0156" y2="154.8516"/><rect fill="#E2E2F0" height="13.8359" style="stroke:none;stroke-width:1.0;" width="220" x="2" y="158.8516"/><line style="stroke:#181818;stroke-width:1.0;" x1="2" x2="222" y1="158.8516" y2="158.8516"/><line style="stroke:#181818;stroke-width:1.0;" x1="2" x2="222" y1="172.6875" y2="172.6875"/><line style="stroke:#181818;stroke-width:1.0;" x1="2" x2="2" y1="158.8516" y2="172.6875"/><line style="stroke:#181818;stroke-width:1.0;" x1="222" x2="222" y1="158.8516" y2="172.6875"/><text fill="#000000" font-family="sans-serif" font-size="11" lengthAdjust="spacing" textLength="81" x="6" y="29.4189">Prototype design</text><text fill="#000000" font-family="sans-serif" font-size="11" lengthAdjust="spacing" textLength="70" x="6" y="47.2549">Test prototype</text><text fill="#000000" font-family="sans-serif" font-size="11" lengthAdjust="spacing" textLength="55" x="10" y="73.0908">All example</text><text fill="#000000" font-family="sans-serif" font-size="11" lengthAdjust="spacing" textLength="70" x="18" y="98.9268">Task 1 (1 day)</text><text fill="#000000" font-family="sans-serif" font-size="11" lengthAdjust="spacing" textLength="56" x="6" y="116.7627">T2 (5 days)</text><text fill="#000000" font-family="sans-serif" font-size="11" lengthAdjust="spacing" textLength="59" x="6" y="134.5986">T3 (1 week)</text><text fill="#000000" font-family="sans-serif" font-size="11" lengthAdjust="spacing" textLength="116" x="6" y="152.4346">T4 (1 week and 4 days)</text><text fill="#000000" font-family="sans-serif" font-size="11" lengthAdjust="spacing" textLength="65" x="6" y="170.2705">T5 (2 weeks)</text><line style="stroke:#C0C0C0;stroke-width:1.0;" x1="0" x2="0" y1="174.6875" y2="190.6875"/><line style="stroke:#C0C0C0;stroke-width:1.0;" x1="16" x2="16" y1="174.6875" y2="190.6875"/><line style="stroke:#C0C0C0;stroke-width:1.0;" x1="32" x2="32" y1="174.6875" y2="190.6875"/><line style="stroke:#C0C0C0;stroke-width:1.0;" x1="48" x2="48" y1="174.6875" y2="190.6875"/><line style="stroke:#C0C0C0;stroke-width:1.0;" x1="64" x2="64" y1="174.6875" y2="190.6875"/><line style="stroke:#C0C0C0;stroke-width:1.0;" x1="80" x2="80" y1="174.6875" y2="190.6875"/><line style="stroke:#C0C0C0;stroke-width:1.0;" x1="96" x2="96" y1="174.6875" y2="190.6875"/><line style="stroke:#C0C0C0;stroke-width:1.0;" x1="112" x2="112" y1="174.6875" y2="190.6875"/><line style="stroke:#C0C0C0;stroke-width:1.0;" x1="128" x2="128" y1="174.6875" y2="190.6875"/><line style="stroke:#C0C0C0;stroke-width:1.0;" x1="144" x2="144" y1="174.6875" y2="190.6875"/><line style="stroke:#C0C0C0;stroke-width:1.0;" x1="160" x2="160" y1="174.6875" y2="190.6875"/><line style="stroke:#C0C0C0;stroke-width:1.0;" x1="176" x2="176" y1="174.6875" y2="190.6875"/><line style="stroke:#C0C0C0;stroke-width:1.0;" x1="192" x2="192" y1="174.6875" y2="190.6875"/><line style="stroke:#C0C0C0;stroke-width:1.0;" x1="208" x2="208" y1="174.6875" y2="190.6875"/><line style="stroke:#C0C0C0;stroke-width:1.0;" x1="224" x2="224" y1="174.6875" y2="190.6875"/><line style="stroke:#C0C0C0;stroke-width:1.0;" x1="240" x2="240" y1="174.6875" y2="190.6875"/><text fill="#000000" font-family="Serif" font-size="10" lengthAdjust="spacing" textLength="5" x="5.5" y="188.166">1</text><text fill="#000000" font-family="Serif" font-size="10" lengthAdjust="spacing" textLength="5" x="21.5" y="188.166">2</text><text fill="#000000" font-family="Serif" font-size="10" lengthAdjust="spacing" textLength="5" x="37.5" y="188.166">3</text><text fill="#000000" font-family="Serif" font-size="10" lengthAdjust="spacing" textLength="5" x="53.5" y="188.166">4</text><text fill="#000000" font-family="Serif" font-size="10" lengthAdjust="spacing" textLength="5" x="69.5" y="188.166">5</text><text fill="#000000" font-family="Serif" font-size="10" lengthAdjust="spacing" textLength="5" x="85.5" y="188.166">6</text><text fill="#000000" font-family="Serif" font-size="10" lengthAdjust="spacing" textLength="5" x="101.5" y="188.166">7</text><text fill="#000000" font-family="Serif" font-size="10" lengthAdjust="spacing" textLength="5" x="117.5" y="188.166">8</text><text fill="#000000" font-family="Serif" font-size="10" lengthAdjust="spacing" textLength="5" x="133.5" y="188.166">9</text><text fill="#000000" font-family="Serif" font-size="10" lengthAdjust="spacing" textLength="10" x="147" y="188.166">10</text><text fill="#000000" font-family="Serif" font-size="10" lengthAdjust="spacing" textLength="10" x="163" y="188.166">11</text><text fill="#000000" font-family="Serif" font-size="10" lengthAdjust="spacing" textLength="10" x="179" y="188.166">12</text><text fill="#000000" font-family="Serif" font-size="10" lengthAdjust="spacing" textLength="10" x="195" y="188.166">13</text><text fill="#000000" font-family="Serif" font-size="10" lengthAdjust="spacing" textLength="10" x="211" y="188.166">14</text><text fill="#000000" font-family="Serif" font-size="10" lengthAdjust="spacing" textLength="10" x="227" y="188.166">15</text><line style="stroke:#C0C0C0;stroke-width:1.0;" x1="0" x2="240" y1="177.6875" y2="177.6875"/><!--MD5=[1afe8c55bdc3fb699a74c0f24abe21d8]
@startgantt
[Prototype design] lasts 15 days
[Test prototype] lasts 10 days
- - All example - -
[Task 1 (1 day)] lasts 1 day
[T2 (5 days)] lasts 5 days
[T3 (1 week)] lasts 1 week
[T4 (1 week and 4 days)] lasts 1 week and 4 days
[T5 (2 weeks)] lasts 2 weeks
@endgantt

PlantUML version 1.2022.3beta3(Unknown compile time)
(GPL source distribution)
Java Runtime: OpenJDK Runtime Environment
JVM: OpenJDK 64-Bit Server VM
Default Encoding: UTF-8
Language: en
Country: US
--></g></svg>