<?xml version="1.0" encoding="UTF-8" standalone="no"?><svg xmlns="http://www.w3.org/2000/svg" xmlns:xlink="http://www.w3.org/1999/xlink" contentStyleType="text/css" height="151px" preserveAspectRatio="none" style="width:221px;height:151px;background:#FFFFFF;" version="1.1" viewBox="0 0 221 151" width="221px" zoomAndPan="magnify"><defs/><g><line style="stroke:#C0C0C0;stroke-width:1.0;" x1="0" x2="0" y1="0" y2="133.5078"/><line style="stroke:#C0C0C0;stroke-width:1.0;" x1="16" x2="16" y1="0" y2="133.5078"/><line style="stroke:#C0C0C0;stroke-width:1.0;" x1="32" x2="32" y1="0" y2="133.5078"/><line style="stroke:#C0C0C0;stroke-width:1.0;" x1="48" x2="48" y1="0" y2="133.5078"/><line style="stroke:#C0C0C0;stroke-width:1.0;" x1="64" x2="64" y1="0" y2="133.5078"/><line style="stroke:#C0C0C0;stroke-width:1.0;" x1="80" x2="80" y1="0" y2="133.5078"/><line style="stroke:#C0C0C0;stroke-width:1.0;" x1="96" x2="96" y1="0" y2="133.5078"/><line style="stroke:#C0C0C0;stroke-width:1.0;" x1="112" x2="112" y1="0" y2="133.5078"/><line style="stroke:#C0C0C0;stroke-width:1.0;" x1="128" x2="128" y1="0" y2="133.5078"/><line style="stroke:#C0C0C0;stroke-width:1.0;" x1="144" x2="144" y1="0" y2="133.5078"/><line style="stroke:#C0C0C0;stroke-width:1.0;" x1="160" x2="160" y1="0" y2="133.5078"/><text fill="#000000" font-family="Serif" font-size="10" lengthAdjust="spacing" textLength="5" x="5.5" y="10.4785">1</text><text fill="#000000" font-family="Serif" font-size="10" lengthAdjust="spacing" textLength="5" x="21.5" y="10.4785">2</text><text fill="#000000" font-family="Serif" font-size="10" lengthAdjust="spacing" textLength="5" x="37.5" y="10.4785">3</text><text fill="#000000" font-family="Serif" font-size="10" lengthAdjust="spacing" textLength="5" x="53.5" y="10.4785">4</text><text fill="#000000" font-family="Serif" font-size="10" lengthAdjust="spacing" textLength="5" x="69.5" y="10.4785">5</text><text fill="#000000" font-family="Serif" font-size="10" lengthAdjust="spacing" textLength="5" x="85.5" y="10.4785">6</text><text fill="#000000" font-family="Serif" font-size="10" lengthAdjust="spacing" textLength="5" x="101.5" y="10.4785">7</text><text fill="#000000" font-family="Serif" font-size="10" lengthAdjust="spacing" textLength="5" x="117.5" y="10.4785">8</text><text fill="#000000" font-family="Serif" font-size="10" lengthAdjust="spacing" textLength="5" x="133.5" y="10.4785">9</text><text fill="#000000" font-family="Serif" font-size="10" lengthAdjust="spacing" textLength="10" x="147" y="10.4785">10</text><line style="stroke:#C0C0C0;stroke-width:1.0;" x1="0" x2="160" y1="0" y2="0"/><line style="stroke:#C0C0C0;stroke-width:1.0;" x1="0" x2="160" y1="13" y2="13"/><line style="stroke:#181818;stroke-width:1.5;" x1="55" x2="55" y1="49.6719" y2="60.5898"/><line style="stroke:#181818;stroke-width:1.5;" x1="55" x2="63" y1="60.5898" y2="60.5898"/><polygon fill="#181818" points="59,56.5898,59,60.5898,59,64.5898,63,60.5898" style="stroke:#181818;stroke-width:1.5;"/><rect fill="#E2E2F0" height="13.8359" style="stroke:none;stroke-width:1.0;" width="156" x="2" y="18"/><line style="stroke:#181818;stroke-width:1.0;" x1="2" x2="158" y1="18" y2="18"/><line style="stroke:#181818;stroke-width:1.0;" x1="2" x2="158" y1="31.8359" y2="31.8359"/><line style="stroke:#181818;stroke-width:1.0;" x1="2" x2="2" y1="18" y2="31.8359"/><line style="stroke:#181818;stroke-width:1.0;" x1="158" x2="158" y1="18" y2="31.8359"/><rect fill="#E2E2F0" height="13.8359" style="stroke:none;stroke-width:1.0;" width="60" x="2" y="35.8359"/><line style="stroke:#181818;stroke-width:1.0;" x1="2" x2="62" y1="35.8359" y2="35.8359"/><line style="stroke:#181818;stroke-width:1.0;" x1="2" x2="62" y1="49.6719" y2="49.6719"/><line style="stroke:#181818;stroke-width:1.0;" x1="2" x2="2" y1="35.8359" y2="49.6719"/><line style="stroke:#181818;stroke-width:1.0;" x1="62" x2="62" y1="35.8359" y2="49.6719"/><rect fill="#E2E2F0" height="13.8359" style="stroke:none;stroke-width:1.0;" width="60" x="66" y="53.6719"/><line style="stroke:#181818;stroke-width:1.0;" x1="66" x2="126" y1="53.6719" y2="53.6719"/><line style="stroke:#181818;stroke-width:1.0;" x1="66" x2="126" y1="67.5078" y2="67.5078"/><line style="stroke:#181818;stroke-width:1.0;" x1="66" x2="66" y1="53.6719" y2="67.5078"/><line style="stroke:#181818;stroke-width:1.0;" x1="126" x2="126" y1="53.6719" y2="67.5078"/><text fill="#000000" font-family="sans-serif" font-size="11" lengthAdjust="spacing" textLength="64" x="6" y="29.4189">Task1 {Alice}</text><text fill="#000000" font-family="sans-serif" font-size="11" lengthAdjust="spacing" textLength="84" x="66" y="47.2549">Task2 {Bob:50%}</text><text fill="#000000" font-family="sans-serif" font-size="11" lengthAdjust="spacing" textLength="89" x="130" y="65.0908">Task3 {Alice:25%}</text><text fill="#000000" font-family="Serif" font-size="13" lengthAdjust="spacing" textLength="28" x="0" y="83.1299">Alice</text><line style="stroke:#000000;stroke-width:1.0;" x1="0" x2="160" y1="85.9863" y2="85.9863"/><text fill="#000000" font-family="Serif" font-size="9" lengthAdjust="spacing" textLength="15" x="0.5" y="94.9385">100</text><text fill="#000000" font-family="Serif" font-size="9" lengthAdjust="spacing" textLength="15" x="16.5" y="94.9385">100</text><text fill="#000000" font-family="Serif" font-size="9" lengthAdjust="spacing" textLength="15" x="32.5" y="94.9385">100</text><text fill="#000000" font-family="Serif" font-size="9" lengthAdjust="spacing" textLength="15" x="48.5" y="94.9385">100</text><text fill="#FF0000" font-family="Serif" font-size="9" lengthAdjust="spacing" textLength="15" x="64.5" y="94.9385">125</text><text fill="#FF0000" font-family="Serif" font-size="9" lengthAdjust="spacing" textLength="15" x="80.5" y="94.9385">125</text><text fill="#FF0000" font-family="Serif" font-size="9" lengthAdjust="spacing" textLength="15" x="96.5" y="94.9385">125</text><text fill="#FF0000" font-family="Serif" font-size="9" lengthAdjust="spacing" textLength="15" x="112.5" y="94.9385">125</text><text fill="#000000" font-family="Serif" font-size="9" lengthAdjust="spacing" textLength="15" x="128.5" y="94.9385">100</text><text fill="#000000" font-family="Serif" font-size="9" lengthAdjust="spacing" textLength="15" x="144.5" y="94.9385">100</text><text fill="#000000" font-family="Serif" font-size="13" lengthAdjust="spacing" textLength="22" x="0" y="115.1299">Bob</text><line style="stroke:#000000;stroke-width:1.0;" x1="0" x2="160" y1="117.9863" y2="117.9863"/><text fill="#000000" font-family="Serif" font-size="9" lengthAdjust="spacing" textLength="10" x="3" y="126.9385">50</text><text fill="#000000" font-family="Serif" font-size="9" lengthAdjust="spacing" textLength="10" x="19" y="126.9385">50</text><text fill="#000000" font-family="Serif" font-size="9" lengthAdjust="spacing" textLength="10" x="35" y="126.9385">50</text><text fill="#000000" font-family="Serif" font-size="9" lengthAdjust="spacing" textLength="10" x="51" y="126.9385">50</text><line style="stroke:#C0C0C0;stroke-width:1.0;" x1="0" x2="0" y1="133.5078" y2="149.5078"/><line style="stroke:#C0C0C0;stroke-width:1.0;" x1="16" x2="16" y1="133.5078" y2="149.5078"/><line style="stroke:#C0C0C0;stroke-width:1.0;" x1="32" x2="32" y1="133.5078" y2="149.5078"/><line style="stroke:#C0C0C0;stroke-width:1.0;" x1="48" x2="48" y1="133.5078" y2="149.5078"/><line style="stroke:#C0C0C0;stroke-width:1.0;" x1="64" x2="64" y1="133.5078" y2="149.5078"/><line style="stroke:#C0C0C0;stroke-width:1.0;" x1="80" x2="80" y1="133.5078" y2="149.5078"/><line style="stroke:#C0C0C0;stroke-width:1.0;" x1="96" x2="96" y1="133.5078" y2="149.5078"/><line style="stroke:#C0C0C0;stroke-width:1.0;" x1="112" x2="112" y1="133.5078" y2="149.5078"/><line style="stroke:#C0C0C0;stroke-width:1.0;" x1="128" x2="128" y1="133.5078" y2="149.5078"/><line style="stroke:#C0C0C0;stroke-width:1.0;" x1="144" x2="144" y1="133.5078" y2="149.5078"/><line style="stroke:#C0C0C0;stroke-width:1.0;" x1="160" x2="160" y1="133.5078" y2="149.5078"/><text fill="#000000" font-family="Serif" font-size="10" lengthAdjust="spacing" textLength="5" x="5.5" y="146.9863">1</text><text fill="#000000" font-family="Serif" font-size="10" lengthAdjust="spacing" textLength="5" x="21.5" y="146.9863">2</text><text fill="#000000" font-family="Serif" font-size="10" lengthAdjust="spacing" textLength="5" x="37.5" y="146.9863">3</text><text fill="#000000" font-family="Serif" font-size="10" lengthAdjust="spacing" textLength="5" x="53.5" y="146.9863">4</text><text fill="#000000" font-family="Serif" font-size="10" lengthAdjust="spacing" textLength="5" x="69.5" y="146.9863">5</text><text fill="#000000" font-family="Serif" font-size="10" lengthAdjust="spacing" textLength="5" x="85.5" y="146.9863">6</text><text fill="#000000" font-family="Serif" font-size="10" lengthAdjust="spacing" textLength="5" x="101.5" y="146.9863">7</text><text fill="#000000" font-family="Serif" font-size="10" lengthAdjust="spacing" textLength="5" x="117.5" y="146.9863">8</text><text fill="#000000" font-family="Serif" font-size="10" lengthAdjust="spacing" textLength="5" x="133.5" y="146.9863">9</text><text fill="#000000" font-family="Serif" font-size="10" lengthAdjust="spacing" textLength="10" x="147" y="146.9863">10</text><line style="stroke:#C0C0C0;stroke-width:1.0;" x1="0" x2="160" y1="136.5078" y2="136.5078"/><!--MD5=[0ab847b582bc21cd176138294471b346]
@startuml
[Task1] on {Alice} lasts 10 days
[Task2] on {Bob:50%} lasts 2 days
then [Task3] on {Alice:25%} lasts 1 days
@enduml

PlantUML version 1.2022.3beta3(Unknown compile time)
(GPL source distribution)
Java Runtime: OpenJDK Runtime Environment
JVM: OpenJDK 64-Bit Server VM
Default Encoding: UTF-8
Language: en
Country: US
--></g></svg>