<?xml version="1.0" encoding="UTF-8" standalone="no"?><svg xmlns="http://www.w3.org/2000/svg" xmlns:xlink="http://www.w3.org/1999/xlink" contentStyleType="text/css" height="399px" preserveAspectRatio="none" style="width:341px;height:399px;background:#FFFFFF;" version="1.1" viewBox="0 0 341 399" width="341px" zoomAndPan="magnify"><defs/><g><rect fill="#FFFFFF" height="184.4609" style="stroke:#181818;stroke-width:1.0;" width="10" x="88.5" y="114.9609"/><rect fill="#FFFFFF" height="107.4063" style="stroke:#181818;stroke-width:1.0;" width="10" x="189.5" y="161.6641"/><rect fill="#FFFFFF" height="30.3516" style="stroke:#181818;stroke-width:1.0;" width="10" x="290" y="192.0156"/><line style="stroke:#181818;stroke-width:0.5;stroke-dasharray:5.0,5.0;" x1="22" x2="22" y1="82.6094" y2="317.4219"/><line style="stroke:#181818;stroke-width:0.5;stroke-dasharray:5.0,5.0;" x1="93" x2="93" y1="82.6094" y2="317.4219"/><line style="stroke:#181818;stroke-width:0.5;stroke-dasharray:5.0,5.0;" x1="194" x2="194" y1="82.6094" y2="317.4219"/><line style="stroke:#181818;stroke-width:0.5;stroke-dasharray:5.0,5.0;" x1="295" x2="295" y1="82.6094" y2="317.4219"/><text fill="#000000" font-family="sans-serif" font-size="14" lengthAdjust="spacing" text-decoration="underline" textLength="29" x="5" y="79.5332">User</text><ellipse cx="22.5" cy="13.5" fill="#E2E2F0" rx="8" ry="8" style="stroke:#181818;stroke-width:0.5;"/><path d="M22.5,21.5 L22.5,48.5 M9.5,29.5 L35.5,29.5 M22.5,48.5 L9.5,63.5 M22.5,48.5 L35.5,63.5 " fill="none" style="stroke:#181818;stroke-width:0.5;"/><text fill="#000000" font-family="sans-serif" font-size="14" lengthAdjust="spacing" text-decoration="underline" textLength="29" x="5" y="330.9551">User</text><ellipse cx="22.5" cy="342.5313" fill="#E2E2F0" rx="8" ry="8" style="stroke:#181818;stroke-width:0.5;"/><path d="M22.5,350.5313 L22.5,377.5313 M9.5,358.5313 L35.5,358.5313 M22.5,377.5313 L9.5,392.5313 M22.5,377.5313 L35.5,392.5313 " fill="none" style="stroke:#181818;stroke-width:0.5;"/><rect fill="#E2E2F0" height="31.6094" rx="10" ry="10" style="stroke:#181818;stroke-width:0.5;" width="81" x="53" y="50"/><text fill="#000000" font-family="sans-serif" font-size="14" lengthAdjust="spacing" text-decoration="underline" textLength="67" x="60" y="71.5332">First Class</text><rect fill="#E2E2F0" height="31.6094" rx="10" ry="10" style="stroke:#181818;stroke-width:0.5;" width="81" x="53" y="316.4219"/><text fill="#000000" font-family="sans-serif" font-size="14" lengthAdjust="spacing" text-decoration="underline" textLength="67" x="60" y="337.9551">First Class</text><rect fill="#E2E2F0" height="31.6094" rx="10" ry="10" style="stroke:#181818;stroke-width:0.5;" width="101" x="144" y="50"/><text fill="#000000" font-family="sans-serif" font-size="14" lengthAdjust="spacing" text-decoration="underline" textLength="87" x="151" y="71.5332">Second Class</text><rect fill="#E2E2F0" height="31.6094" rx="10" ry="10" style="stroke:#181818;stroke-width:0.5;" width="101" x="144" y="316.4219"/><text fill="#000000" font-family="sans-serif" font-size="14" lengthAdjust="spacing" text-decoration="underline" textLength="87" x="151" y="337.9551">Second Class</text><rect fill="#E2E2F0" height="31.6094" rx="10" ry="10" style="stroke:#181818;stroke-width:0.5;" width="80" x="255" y="50"/><text fill="#000000" font-family="sans-serif" font-size="14" lengthAdjust="spacing" text-decoration="underline" textLength="66" x="262" y="71.5332">Last Class</text><rect fill="#E2E2F0" height="31.6094" rx="10" ry="10" style="stroke:#181818;stroke-width:0.5;" width="80" x="255" y="316.4219"/><text fill="#000000" font-family="sans-serif" font-size="14" lengthAdjust="spacing" text-decoration="underline" textLength="66" x="262" y="337.9551">Last Class</text><rect fill="#FFFFFF" height="184.4609" style="stroke:#181818;stroke-width:1.0;" width="10" x="88.5" y="114.9609"/><rect fill="#FFFFFF" height="107.4063" style="stroke:#181818;stroke-width:1.0;" width="10" x="189.5" y="161.6641"/><rect fill="#FFFFFF" height="30.3516" style="stroke:#181818;stroke-width:1.0;" width="10" x="290" y="192.0156"/><polygon fill="#181818" points="76.5,110.9609,86.5,114.9609,76.5,118.9609,80.5,114.9609" style="stroke:#181818;stroke-width:1.0;"/><line style="stroke:#181818;stroke-width:2.0;" x1="22.5" x2="82.5" y1="114.9609" y2="114.9609"/><text fill="#000000" font-family="sans-serif" font-size="13" lengthAdjust="spacing" textLength="47" x="29.5" y="110.1045">DoWork</text><polygon fill="#181818" points="177.5,157.6641,187.5,161.6641,177.5,165.6641,181.5,161.6641" style="stroke:#181818;stroke-width:1.0;"/><line style="stroke:#181818;stroke-width:2.0;" x1="98.5" x2="183.5" y1="161.6641" y2="161.6641"/><text fill="#000000" font-family="sans-serif" font-size="13" lengthAdjust="spacing" textLength="38" x="105.5" y="140.4561">Create</text><text fill="#000000" font-family="sans-serif" font-size="13" lengthAdjust="spacing" textLength="48" x="105.5" y="156.8076">Request</text><polygon fill="#181818" points="278,188.0156,288,192.0156,278,196.0156,282,192.0156" style="stroke:#181818;stroke-width:1.0;"/><line style="stroke:#181818;stroke-width:2.0;" x1="199.5" x2="284" y1="192.0156" y2="192.0156"/><text fill="#000000" font-family="sans-serif" font-size="13" lengthAdjust="spacing" textLength="47" x="206.5" y="187.1592">DoWork</text><polygon fill="#181818" points="210.5,218.3672,200.5,222.3672,210.5,226.3672,206.5,222.3672" style="stroke:#181818;stroke-width:1.0;"/><line style="stroke:#181818;stroke-width:2.0;stroke-dasharray:2.0,2.0;" x1="204.5" x2="294" y1="222.3672" y2="222.3672"/><text fill="#000000" font-family="sans-serif" font-size="13" lengthAdjust="spacing" textLength="61" x="216.5" y="217.5107">WorkDone</text><line style="stroke:#A80036;stroke-width:2.0;" x1="286" x2="304" y1="213.3672" y2="231.3672"/><line style="stroke:#A80036;stroke-width:2.0;" x1="286" x2="304" y1="231.3672" y2="213.3672"/><polygon fill="#181818" points="109.5,265.0703,99.5,269.0703,109.5,273.0703,105.5,269.0703" style="stroke:#181818;stroke-width:1.0;"/><line style="stroke:#181818;stroke-width:2.0;stroke-dasharray:2.0,2.0;" x1="103.5" x2="193.5" y1="269.0703" y2="269.0703"/><text fill="#000000" font-family="sans-serif" font-size="13" lengthAdjust="spacing" textLength="48" x="115.5" y="247.8623">Request</text><text fill="#000000" font-family="sans-serif" font-size="13" lengthAdjust="spacing" textLength="45" x="115.5" y="264.2139">Created</text><polygon fill="#181818" points="33.5,295.4219,23.5,299.4219,33.5,303.4219,29.5,299.4219" style="stroke:#181818;stroke-width:1.0;"/><line style="stroke:#181818;stroke-width:2.0;stroke-dasharray:2.0,2.0;" x1="27.5" x2="92.5" y1="299.4219" y2="299.4219"/><text fill="#000000" font-family="sans-serif" font-size="13" lengthAdjust="spacing" textLength="30" x="39.5" y="294.5654">Done</text><!--MD5=[d80f1b33aac993f8518b2d24df71dd11]
@startuml
skinparam sequenceArrowThickness 2
skinparam roundcorner 20
skinparam maxmessagesize 60
skinparam sequenceParticipant underline
actor User
participant "First Class" as A
participant "Second Class" as B
participant "Last Class" as C
User -> A: DoWork
activate A
A -> B: Create Request
activate B
B -> C: DoWork
activate C
C - -> B: WorkDone
destroy C
B - -> A: Request Created
deactivate B
A - -> User: Done
deactivate A
@enduml

PlantUML version 1.2022.3beta3(Unknown compile time)
(GPL source distribution)
Java Runtime: OpenJDK Runtime Environment
JVM: OpenJDK 64-Bit Server VM
Default Encoding: UTF-8
Language: en
Country: US
--></g></svg>