<?xml version="1.0" encoding="UTF-8" standalone="no"?><svg xmlns="http://www.w3.org/2000/svg" xmlns:xlink="http://www.w3.org/1999/xlink" contentStyleType="text/css" height="159px" preserveAspectRatio="none" style="width:232px;height:159px;background:#FFFFFF;" version="1.1" viewBox="0 0 232 159" width="232px" zoomAndPan="magnify"><defs/><g><line style="stroke:#181818;stroke-width:0.5;stroke-dasharray:5.0,5.0;" x1="54" x2="54" y1="55.2188" y2="105.5703"/><line style="stroke:#181818;stroke-width:0.5;stroke-dasharray:5.0,5.0;" x1="169" x2="169" y1="55.2188" y2="105.5703"/><rect fill="#E2E2F0" height="49.2188" rx="2.5" ry="2.5" style="stroke:#181818;stroke-width:0.5;" width="98" x="5" y="5"/><text fill="#000000" font-family="sans-serif" font-size="14" font-style="italic" lengthAdjust="spacing" textLength="84" x="12" y="26.5332">«Generated»</text><text fill="#000000" font-family="sans-serif" font-size="14" lengthAdjust="spacing" textLength="80" x="14" y="44.1426">Famous Bob</text><rect fill="#E2E2F0" height="49.2188" rx="2.5" ry="2.5" style="stroke:#181818;stroke-width:0.5;" width="98" x="5" y="104.5703"/><text fill="#000000" font-family="sans-serif" font-size="14" font-style="italic" lengthAdjust="spacing" textLength="84" x="12" y="126.1035">«Generated»</text><text fill="#000000" font-family="sans-serif" font-size="14" lengthAdjust="spacing" textLength="80" x="14" y="143.7129">Famous Bob</text><rect fill="#E2E2F0" height="49.2188" rx="2.5" ry="2.5" style="stroke:#181818;stroke-width:0.5;" width="113" x="113" y="5"/><ellipse cx="131" cy="23" fill="#ADD1B2" rx="11" ry="11" style="stroke:#181818;stroke-width:1.0;"/><path d="M133.7656,18.875 Q133.9219,18.6563 134.1094,18.5469 Q134.2969,18.4375 134.5156,18.4375 Q134.8906,18.4375 135.125,18.7031 Q135.3594,18.9531 135.3594,19.5625 L135.3594,21.0156 Q135.3594,21.625 135.125,21.8906 Q134.8906,22.1563 134.5156,22.1563 Q134.1719,22.1563 133.9688,21.9531 Q133.7656,21.7656 133.6563,21.25 Q133.6094,20.8906 133.4219,20.7031 Q133.0938,20.3281 132.4844,20.1094 Q131.875,19.8906 131.25,19.8906 Q130.4844,19.8906 129.8438,20.2188 Q129.2188,20.5469 128.7188,21.2969 Q128.2344,22.0469 128.2344,23.0781 L128.2344,24.1719 Q128.2344,25.4063 129.125,26.2344 Q130.0156,27.0469 131.6094,27.0469 Q132.5469,27.0469 133.2031,26.7969 Q133.5938,26.6406 134.0156,26.2031 Q134.2813,25.9375 134.4219,25.8594 Q134.5781,25.7813 134.7813,25.7813 Q135.1094,25.7813 135.3594,26.0469 Q135.625,26.2969 135.625,26.6406 Q135.625,26.9844 135.2813,27.3906 Q134.7813,27.9688 133.9844,28.2969 Q132.9063,28.75 131.6094,28.75 Q130.0938,28.75 128.8906,28.125 Q127.9063,27.625 127.2188,26.5625 Q126.5313,25.4844 126.5313,24.2031 L126.5313,23.0469 Q126.5313,21.7188 127.1406,20.5781 Q127.7656,19.4219 128.8594,18.8125 Q129.9531,18.1875 131.1875,18.1875 Q131.9219,18.1875 132.5625,18.3594 Q133.2188,18.5156 133.7656,18.875 Z " fill="#000000"/><text fill="#000000" font-family="sans-serif" font-size="14" font-style="italic" lengthAdjust="spacing" textLength="71" x="148" y="26.5332">«Testable»</text><text fill="#000000" font-family="sans-serif" font-size="14" lengthAdjust="spacing" textLength="30" x="168.5" y="44.1426">Alice</text><rect fill="#E2E2F0" height="49.2188" rx="2.5" ry="2.5" style="stroke:#181818;stroke-width:0.5;" width="113" x="113" y="104.5703"/><ellipse cx="131" cy="122.5703" fill="#ADD1B2" rx="11" ry="11" style="stroke:#181818;stroke-width:1.0;"/><path d="M133.7656,118.4453 Q133.9219,118.2266 134.1094,118.1172 Q134.2969,118.0078 134.5156,118.0078 Q134.8906,118.0078 135.125,118.2734 Q135.3594,118.5234 135.3594,119.1328 L135.3594,120.5859 Q135.3594,121.1953 135.125,121.4609 Q134.8906,121.7266 134.5156,121.7266 Q134.1719,121.7266 133.9688,121.5234 Q133.7656,121.3359 133.6563,120.8203 Q133.6094,120.4609 133.4219,120.2734 Q133.0938,119.8984 132.4844,119.6797 Q131.875,119.4609 131.25,119.4609 Q130.4844,119.4609 129.8438,119.7891 Q129.2188,120.1172 128.7188,120.8672 Q128.2344,121.6172 128.2344,122.6484 L128.2344,123.7422 Q128.2344,124.9766 129.125,125.8047 Q130.0156,126.6172 131.6094,126.6172 Q132.5469,126.6172 133.2031,126.3672 Q133.5938,126.2109 134.0156,125.7734 Q134.2813,125.5078 134.4219,125.4297 Q134.5781,125.3516 134.7813,125.3516 Q135.1094,125.3516 135.3594,125.6172 Q135.625,125.8672 135.625,126.2109 Q135.625,126.5547 135.2813,126.9609 Q134.7813,127.5391 133.9844,127.8672 Q132.9063,128.3203 131.6094,128.3203 Q130.0938,128.3203 128.8906,127.6953 Q127.9063,127.1953 127.2188,126.1328 Q126.5313,125.0547 126.5313,123.7734 L126.5313,122.6172 Q126.5313,121.2891 127.1406,120.1484 Q127.7656,118.9922 128.8594,118.3828 Q129.9531,117.7578 131.1875,117.7578 Q131.9219,117.7578 132.5625,117.9297 Q133.2188,118.0859 133.7656,118.4453 Z " fill="#000000"/><text fill="#000000" font-family="sans-serif" font-size="14" font-style="italic" lengthAdjust="spacing" textLength="71" x="148" y="126.1035">«Testable»</text><text fill="#000000" font-family="sans-serif" font-size="14" lengthAdjust="spacing" textLength="30" x="168.5" y="143.7129">Alice</text><polygon fill="#181818" points="157.5,83.5703,167.5,87.5703,157.5,91.5703,161.5,87.5703" style="stroke:#181818;stroke-width:1.0;"/><line style="stroke:#181818;stroke-width:1.0;" x1="54" x2="163.5" y1="87.5703" y2="87.5703"/><text fill="#000000" font-family="sans-serif" font-size="13" lengthAdjust="spacing" textLength="83" x="61" y="82.7139">First message</text><!--MD5=[29c8efcb996e4bb56d2f55ca36cd16c8]
@startuml
participant "Famous Bob" as Bob << Generated >>
participant Alice << (C,#ADD1B2) Testable >>

Bob->Alice: First message
@enduml

PlantUML version 1.2022.3beta3(Unknown compile time)
(GPL source distribution)
Java Runtime: OpenJDK Runtime Environment
JVM: OpenJDK 64-Bit Server VM
Default Encoding: UTF-8
Language: en
Country: US
--></g></svg>