<?xml version="1.0" encoding="UTF-8" standalone="no"?><svg xmlns="http://www.w3.org/2000/svg" xmlns:xlink="http://www.w3.org/1999/xlink" contentStyleType="text/css" height="234px" preserveAspectRatio="none" style="width:104px;height:234px;background:#FFFFFF;" version="1.1" viewBox="0 0 104 234" width="104px" zoomAndPan="magnify"><defs/><g><line style="stroke:#181818;stroke-width:0.5;stroke-dasharray:5.0,5.0;" x1="24" x2="24" y1="37.6094" y2="197.6094"/><line style="stroke:#181818;stroke-width:0.5;stroke-dasharray:5.0,5.0;" x1="76" x2="76" y1="37.6094" y2="197.6094"/><rect fill="#E2E2F0" height="31.6094" rx="2.5" ry="2.5" style="stroke:#181818;stroke-width:0.5;" width="39" x="5" y="5"/><text fill="#000000" font-family="sans-serif" font-size="14" lengthAdjust="spacing" textLength="25" x="12" y="26.5332">Bob</text><rect fill="#E2E2F0" height="31.6094" rx="2.5" ry="2.5" style="stroke:#181818;stroke-width:0.5;" width="39" x="5" y="196.6094"/><text fill="#000000" font-family="sans-serif" font-size="14" lengthAdjust="spacing" textLength="25" x="12" y="218.1426">Bob</text><rect fill="#E2E2F0" height="31.6094" rx="2.5" ry="2.5" style="stroke:#181818;stroke-width:0.5;" width="44" x="54" y="5"/><text fill="#000000" font-family="sans-serif" font-size="14" lengthAdjust="spacing" textLength="30" x="61" y="26.5332">Alice</text><rect fill="#E2E2F0" height="31.6094" rx="2.5" ry="2.5" style="stroke:#181818;stroke-width:0.5;" width="44" x="54" y="196.6094"/><text fill="#000000" font-family="sans-serif" font-size="14" lengthAdjust="spacing" textLength="30" x="61" y="218.1426">Alice</text><line style="stroke:#181818;stroke-width:2.0;" x1="58" x2="68" y1="48.6094" y2="58.6094"/><line style="stroke:#181818;stroke-width:2.0;" x1="58" x2="68" y1="58.6094" y2="48.6094"/><line style="stroke:#181818;stroke-width:1.0;" x1="24.5" x2="63" y1="53.6094" y2="53.6094"/><polygon fill="#181818" points="64,63.6094,74,67.6094,64,71.6094,68,67.6094" style="stroke:#181818;stroke-width:1.0;"/><line style="stroke:#181818;stroke-width:1.0;" x1="24.5" x2="70" y1="67.6094" y2="67.6094"/><line style="stroke:#181818;stroke-width:1.0;" x1="74" x2="64" y1="81.6094" y2="77.6094"/><line style="stroke:#181818;stroke-width:1.0;" x1="74" x2="64" y1="81.6094" y2="85.6094"/><line style="stroke:#181818;stroke-width:1.0;" x1="24.5" x2="75" y1="81.6094" y2="81.6094"/><polygon fill="#181818" points="64,91.6094,74,95.6094,64,95.6094" style="stroke:#181818;stroke-width:1.0;"/><line style="stroke:#181818;stroke-width:1.0;" x1="24.5" x2="75" y1="95.6094" y2="95.6094"/><line style="stroke:#181818;stroke-width:1.0;" x1="24.5" x2="34.5" y1="109.6094" y2="113.6094"/><line style="stroke:#181818;stroke-width:1.0;" x1="24.5" x2="75" y1="109.6094" y2="109.6094"/><line style="stroke:#181818;stroke-width:1.0;" x1="24.5" x2="34.5" y1="123.6094" y2="119.6094"/><line style="stroke:#181818;stroke-width:1.0;stroke-dasharray:2.0,2.0;" x1="24.5" x2="75" y1="123.6094" y2="123.6094"/><ellipse cx="75.5" cy="136.8594" fill="none" rx="4" ry="4" style="stroke:#181818;stroke-width:1.5;"/><polygon fill="#181818" points="58.5,133.6094,68.5,137.6094,58.5,141.6094,62.5,137.6094" style="stroke:#181818;stroke-width:1.0;"/><line style="stroke:#181818;stroke-width:1.0;" x1="24.5" x2="64.5" y1="137.6094" y2="137.6094"/><ellipse cx="24" cy="150.8594" fill="none" rx="4" ry="4" style="stroke:#181818;stroke-width:1.5;"/><line style="stroke:#181818;stroke-width:1.0;" x1="30" x2="40" y1="151.6094" y2="155.6094"/><line style="stroke:#181818;stroke-width:1.0;stroke-dasharray:2.0,2.0;" x1="24.5" x2="75" y1="151.6094" y2="151.6094"/><polygon fill="#181818" points="35.5,161.6094,25.5,165.6094,35.5,169.6094,31.5,165.6094" style="stroke:#181818;stroke-width:1.0;"/><polygon fill="#181818" points="64,161.6094,74,165.6094,64,169.6094,68,165.6094" style="stroke:#181818;stroke-width:1.0;"/><line style="stroke:#181818;stroke-width:1.0;" x1="29.5" x2="70" y1="165.6094" y2="165.6094"/><polygon fill="#181818" points="35.5,175.6094,25.5,179.6094,35.5,183.6094,31.5,179.6094" style="stroke:#181818;stroke-width:1.0;"/><ellipse cx="75.5" cy="178.8594" fill="none" rx="4" ry="4" style="stroke:#181818;stroke-width:1.5;"/><polygon fill="#181818" points="58.5,175.6094,68.5,179.6094,58.5,183.6094,62.5,179.6094" style="stroke:#181818;stroke-width:1.0;"/><line style="stroke:#181818;stroke-width:1.0;" x1="29.5" x2="64.5" y1="179.6094" y2="179.6094"/><!--MD5=[2bdfff35f7247ef2907b1b1da8d54b4a]
@startuml
Bob ->x Alice
Bob -> Alice
Bob ->> Alice
Bob -\ Alice
Bob \\- Alice
Bob //- - Alice
Bob ->o Alice
Bob o\\- - Alice
Bob <-> Alice
Bob <->o Alice
@enduml

PlantUML version 1.2022.3beta3(Unknown compile time)
(GPL source distribution)
Java Runtime: OpenJDK Runtime Environment
JVM: OpenJDK 64-Bit Server VM
Default Encoding: UTF-8
Language: en
Country: US
--></g></svg>