<?xml version="1.0" encoding="UTF-8" standalone="no"?><svg xmlns="http://www.w3.org/2000/svg" xmlns:xlink="http://www.w3.org/1999/xlink" contentStyleType="text/css" height="258px" preserveAspectRatio="none" style="width:273px;height:258px;background:#FFFFFF;" version="1.1" viewBox="0 0 273 258" width="273px" zoomAndPan="magnify"><defs/><g><rect fill="#FFBBBB" height="134.4063" style="stroke:#181818;stroke-width:1.0;" width="10" x="92.5" y="69.9609"/><rect fill="#E9967A" height="65.7031" style="stroke:#181818;stroke-width:1.0;" width="10" x="97.5" y="108.3125"/><rect fill="#FFFFFF" height="30.3516" style="stroke:#181818;stroke-width:1.0;" width="10" x="250.5" y="143.6641"/><line style="stroke:#181818;stroke-width:0.5;stroke-dasharray:5.0,5.0;" x1="26" x2="26" y1="37.6094" y2="222.3672"/><line style="stroke:#181818;stroke-width:0.5;stroke-dasharray:5.0,5.0;" x1="97" x2="97" y1="37.6094" y2="222.3672"/><line style="stroke:#181818;stroke-width:0.5;stroke-dasharray:5.0,5.0;" x1="255" x2="255" y1="37.6094" y2="222.3672"/><rect fill="#E2E2F0" height="31.6094" rx="2.5" ry="2.5" style="stroke:#181818;stroke-width:0.5;" width="43" x="5" y="5"/><text fill="#000000" font-family="sans-serif" font-size="14" lengthAdjust="spacing" textLength="29" x="12" y="26.5332">User</text><rect fill="#E2E2F0" height="31.6094" rx="2.5" ry="2.5" style="stroke:#181818;stroke-width:0.5;" width="43" x="5" y="221.3672"/><text fill="#000000" font-family="sans-serif" font-size="14" lengthAdjust="spacing" textLength="29" x="12" y="242.9004">User</text><rect fill="#E2E2F0" height="31.6094" rx="2.5" ry="2.5" style="stroke:#181818;stroke-width:0.5;" width="23" x="86" y="5"/><text fill="#000000" font-family="sans-serif" font-size="14" lengthAdjust="spacing" textLength="9" x="93" y="26.5332">A</text><rect fill="#E2E2F0" height="31.6094" rx="2.5" ry="2.5" style="stroke:#181818;stroke-width:0.5;" width="23" x="86" y="221.3672"/><text fill="#000000" font-family="sans-serif" font-size="14" lengthAdjust="spacing" textLength="9" x="93" y="242.9004">A</text><rect fill="#E2E2F0" height="31.6094" rx="2.5" ry="2.5" style="stroke:#181818;stroke-width:0.5;" width="23" x="244" y="5"/><text fill="#000000" font-family="sans-serif" font-size="14" lengthAdjust="spacing" textLength="9" x="251" y="26.5332">B</text><rect fill="#E2E2F0" height="31.6094" rx="2.5" ry="2.5" style="stroke:#181818;stroke-width:0.5;" width="23" x="244" y="221.3672"/><text fill="#000000" font-family="sans-serif" font-size="14" lengthAdjust="spacing" textLength="9" x="251" y="242.9004">B</text><rect fill="#FFBBBB" height="134.4063" style="stroke:#181818;stroke-width:1.0;" width="10" x="92.5" y="69.9609"/><rect fill="#E9967A" height="65.7031" style="stroke:#181818;stroke-width:1.0;" width="10" x="97.5" y="108.3125"/><rect fill="#FFFFFF" height="30.3516" style="stroke:#181818;stroke-width:1.0;" width="10" x="250.5" y="143.6641"/><polygon fill="#181818" points="80.5,65.9609,90.5,69.9609,80.5,73.9609,84.5,69.9609" style="stroke:#181818;stroke-width:1.0;"/><line style="stroke:#181818;stroke-width:1.0;" x1="26.5" x2="86.5" y1="69.9609" y2="69.9609"/><text fill="#000000" font-family="sans-serif" font-size="13" lengthAdjust="spacing" textLength="47" x="33.5" y="65.1045">DoWork</text><line style="stroke:#181818;stroke-width:1.0;" x1="102.5" x2="149.5" y1="95.3125" y2="95.3125"/><line style="stroke:#181818;stroke-width:1.0;" x1="149.5" x2="149.5" y1="95.3125" y2="108.3125"/><line style="stroke:#181818;stroke-width:1.0;" x1="108.5" x2="149.5" y1="108.3125" y2="108.3125"/><polygon fill="#181818" points="118.5,104.3125,108.5,108.3125,118.5,112.3125,114.5,108.3125" style="stroke:#181818;stroke-width:1.0;"/><text fill="#000000" font-family="sans-serif" font-size="13" lengthAdjust="spacing" textLength="66" x="114.5" y="90.4561">Internal call</text><polygon fill="#181818" points="238.5,139.6641,248.5,143.6641,238.5,147.6641,242.5,143.6641" style="stroke:#181818;stroke-width:1.0;"/><line style="stroke:#181818;stroke-width:1.0;" x1="107.5" x2="244.5" y1="143.6641" y2="143.6641"/><text fill="#000000" font-family="sans-serif" font-size="13" lengthAdjust="spacing" textLength="124" x="114.5" y="138.8076">&lt;&lt; createRequest &gt;&gt;</text><polygon fill="#181818" points="113.5,170.0156,103.5,174.0156,113.5,178.0156,109.5,174.0156" style="stroke:#181818;stroke-width:1.0;"/><line style="stroke:#181818;stroke-width:1.0;stroke-dasharray:2.0,2.0;" x1="107.5" x2="254.5" y1="174.0156" y2="174.0156"/><text fill="#000000" font-family="sans-serif" font-size="13" lengthAdjust="spacing" textLength="93" x="119.5" y="169.1592">RequestCreated</text><polygon fill="#181818" points="37.5,200.3672,27.5,204.3672,37.5,208.3672,33.5,204.3672" style="stroke:#181818;stroke-width:1.0;"/><line style="stroke:#181818;stroke-width:1.0;" x1="31.5" x2="96.5" y1="204.3672" y2="204.3672"/><text fill="#000000" font-family="sans-serif" font-size="13" lengthAdjust="spacing" textLength="30" x="43.5" y="199.5107">Done</text><!--MD5=[1425faea0eb1bfd41f644a4b2ff67bd3]
@startuml
participant User

User -> A: DoWork
activate A #FFBBBB

A -> A: Internal call
activate A #DarkSalmon

A -> B: << createRequest >>
activate B

B - -> A: RequestCreated
deactivate B
deactivate A

A -> User: Done
deactivate A
@enduml

PlantUML version 1.2022.3beta3(Unknown compile time)
(GPL source distribution)
Java Runtime: OpenJDK Runtime Environment
JVM: OpenJDK 64-Bit Server VM
Default Encoding: UTF-8
Language: en
Country: US
--></g></svg>