<?xml version="1.0" encoding="UTF-8" standalone="no"?><svg xmlns="http://www.w3.org/2000/svg" xmlns:xlink="http://www.w3.org/1999/xlink" contentStyleType="text/css" height="375px" preserveAspectRatio="none" style="width:336px;height:375px;background:#FFFFFF;" version="1.1" viewBox="0 0 336 375" width="336px" zoomAndPan="magnify"><defs/><g><rect fill="#FFFFFF" height="250.7188" style="stroke:#181818;stroke-width:1.0;" width="10" x="99.5" y="69.9609"/><rect fill="#FFFFFF" height="144.6641" style="stroke:#181818;stroke-width:1.0;" width="10" x="104.5" y="108.3125"/><rect fill="#005500" height="72.9609" style="stroke:#181818;stroke-width:1.0;" width="10" x="109.5" y="143.6641"/><line style="stroke:#181818;stroke-width:0.5;stroke-dasharray:5.0,5.0;" x1="26" x2="26" y1="37.6094" y2="338.6797"/><line style="stroke:#181818;stroke-width:0.5;stroke-dasharray:5.0,5.0;" x1="104.5" x2="104.5" y1="37.6094" y2="338.6797"/><line style="stroke:#181818;stroke-width:0.5;stroke-dasharray:5.0,5.0;" x1="245" x2="245" y1="37.6094" y2="338.6797"/><line style="stroke:#181818;stroke-width:0.5;stroke-dasharray:5.0,5.0;" x1="300" x2="300" y1="182.9688" y2="338.6797"/><rect fill="#E2E2F0" height="31.6094" rx="2.5" ry="2.5" style="stroke:#181818;stroke-width:0.5;" width="43" x="5" y="5"/><text fill="#000000" font-family="sans-serif" font-size="14" lengthAdjust="spacing" textLength="29" x="12" y="26.5332">alice</text><rect fill="#E2E2F0" height="31.6094" rx="2.5" ry="2.5" style="stroke:#181818;stroke-width:0.5;" width="43" x="5" y="337.6797"/><text fill="#000000" font-family="sans-serif" font-size="14" lengthAdjust="spacing" textLength="29" x="12" y="359.2129">alice</text><rect fill="#E2E2F0" height="31.6094" rx="2.5" ry="2.5" style="stroke:#181818;stroke-width:0.5;" width="38" x="85.5" y="5"/><text fill="#000000" font-family="sans-serif" font-size="14" lengthAdjust="spacing" textLength="24" x="92.5" y="26.5332">bob</text><rect fill="#E2E2F0" height="31.6094" rx="2.5" ry="2.5" style="stroke:#181818;stroke-width:0.5;" width="38" x="85.5" y="337.6797"/><text fill="#000000" font-family="sans-serif" font-size="14" lengthAdjust="spacing" textLength="24" x="92.5" y="359.2129">bob</text><rect fill="#E2E2F0" height="31.6094" rx="2.5" ry="2.5" style="stroke:#181818;stroke-width:0.5;" width="31" x="230" y="5"/><text fill="#000000" font-family="sans-serif" font-size="14" lengthAdjust="spacing" textLength="17" x="237" y="26.5332">bill</text><rect fill="#E2E2F0" height="31.6094" rx="2.5" ry="2.5" style="stroke:#181818;stroke-width:0.5;" width="31" x="230" y="337.6797"/><text fill="#000000" font-family="sans-serif" font-size="14" lengthAdjust="spacing" textLength="17" x="237" y="359.2129">bill</text><rect fill="#E2E2F0" height="31.6094" rx="2.5" ry="2.5" style="stroke:#181818;stroke-width:0.5;" width="59" x="271" y="337.6797"/><text fill="#000000" font-family="sans-serif" font-size="14" lengthAdjust="spacing" textLength="45" x="278" y="359.2129">george</text><rect fill="#FFFFFF" height="250.7188" style="stroke:#181818;stroke-width:1.0;" width="10" x="99.5" y="69.9609"/><rect fill="#FFFFFF" height="144.6641" style="stroke:#181818;stroke-width:1.0;" width="10" x="104.5" y="108.3125"/><rect fill="#005500" height="72.9609" style="stroke:#181818;stroke-width:1.0;" width="10" x="109.5" y="143.6641"/><polygon fill="#181818" points="87.5,65.9609,97.5,69.9609,87.5,73.9609,91.5,69.9609" style="stroke:#181818;stroke-width:1.0;"/><line style="stroke:#181818;stroke-width:1.0;" x1="26.5" x2="93.5" y1="69.9609" y2="69.9609"/><text fill="#000000" font-family="sans-serif" font-size="13" lengthAdjust="spacing" textLength="27" x="33.5" y="65.1045">hello</text><line style="stroke:#181818;stroke-width:1.0;" x1="109.5" x2="156.5" y1="95.3125" y2="95.3125"/><line style="stroke:#181818;stroke-width:1.0;" x1="156.5" x2="156.5" y1="95.3125" y2="108.3125"/><line style="stroke:#181818;stroke-width:1.0;" x1="115.5" x2="156.5" y1="108.3125" y2="108.3125"/><polygon fill="#181818" points="125.5,104.3125,115.5,108.3125,125.5,112.3125,121.5,108.3125" style="stroke:#181818;stroke-width:1.0;"/><text fill="#000000" font-family="sans-serif" font-size="13" lengthAdjust="spacing" textLength="44" x="121.5" y="90.4561">self call</text><polygon fill="#181818" points="130.5,139.6641,120.5,143.6641,130.5,147.6641,126.5,143.6641" style="stroke:#181818;stroke-width:1.0;"/><line style="stroke:#181818;stroke-width:1.0;" x1="124.5" x2="244.5" y1="143.6641" y2="143.6641"/><text fill="#000000" font-family="sans-serif" font-size="13" lengthAdjust="spacing" textLength="107" x="136.5" y="138.8076">hello from thread 2</text><polygon fill="#181818" points="259,170.0156,269,174.0156,259,178.0156,263,174.0156" style="stroke:#181818;stroke-width:1.0;"/><line style="stroke:#181818;stroke-width:1.0;" x1="119.5" x2="265" y1="174.0156" y2="174.0156"/><text fill="#000000" font-family="sans-serif" font-size="13" lengthAdjust="spacing" textLength="36" x="126.5" y="169.1592">create</text><rect fill="#E2E2F0" height="31.6094" rx="2.5" ry="2.5" style="stroke:#181818;stroke-width:0.5;" width="59" x="271" y="151.6641"/><text fill="#000000" font-family="sans-serif" font-size="14" lengthAdjust="spacing" textLength="45" x="278" y="173.1973">george</text><polygon fill="#181818" points="233.5,212.625,243.5,216.625,233.5,220.625,237.5,216.625" style="stroke:#181818;stroke-width:1.0;"/><line style="stroke:#181818;stroke-width:1.0;stroke-dasharray:2.0,2.0;" x1="114.5" x2="239.5" y1="216.625" y2="216.625"/><text fill="#000000" font-family="sans-serif" font-size="13" lengthAdjust="spacing" textLength="93" x="121.5" y="211.7686">done in thread 2</text><line style="stroke:#181818;stroke-width:1.0;stroke-dasharray:2.0,2.0;" x1="114.5" x2="156.5" y1="251.9766" y2="251.9766"/><line style="stroke:#181818;stroke-width:1.0;stroke-dasharray:2.0,2.0;" x1="156.5" x2="156.5" y1="251.9766" y2="264.9766"/><line style="stroke:#181818;stroke-width:1.0;stroke-dasharray:2.0,2.0;" x1="109.5" x2="156.5" y1="264.9766" y2="264.9766"/><polygon fill="#181818" points="119.5,260.9766,109.5,264.9766,119.5,268.9766,115.5,264.9766" style="stroke:#181818;stroke-width:1.0;"/><text fill="#000000" font-family="sans-serif" font-size="13" lengthAdjust="spacing" textLength="11" x="121.5" y="247.1201">rc</text><polygon fill="#181818" points="288.5,286.3281,298.5,290.3281,288.5,294.3281,292.5,290.3281" style="stroke:#181818;stroke-width:1.0;"/><line style="stroke:#181818;stroke-width:1.0;" x1="109.5" x2="294.5" y1="290.3281" y2="290.3281"/><text fill="#000000" font-family="sans-serif" font-size="13" lengthAdjust="spacing" textLength="35" x="116.5" y="285.4717">delete</text><line style="stroke:#A80036;stroke-width:2.0;" x1="291.5" x2="309.5" y1="281.3281" y2="299.3281"/><line style="stroke:#A80036;stroke-width:2.0;" x1="291.5" x2="309.5" y1="299.3281" y2="281.3281"/><polygon fill="#181818" points="37.5,316.6797,27.5,320.6797,37.5,324.6797,33.5,320.6797" style="stroke:#181818;stroke-width:1.0;"/><line style="stroke:#181818;stroke-width:1.0;stroke-dasharray:2.0,2.0;" x1="31.5" x2="103.5" y1="320.6797" y2="320.6797"/><text fill="#000000" font-family="sans-serif" font-size="13" lengthAdjust="spacing" textLength="49" x="43.5" y="315.8232">success</text><!--MD5=[d4f055ff8787255fae811ed4a54b4b1d]
@startuml
autoactivate on
alice -> bob : hello
bob -> bob : self call
bill -> bob #005500 : hello from thread 2
bob -> george ** : create
return done in thread 2
return rc
bob -> george !! : delete
return success
@enduml

PlantUML version 1.2022.3beta3(Unknown compile time)
(GPL source distribution)
Java Runtime: OpenJDK Runtime Environment
JVM: OpenJDK 64-Bit Server VM
Default Encoding: UTF-8
Language: en
Country: US
--></g></svg>