<?xml version="1.0" encoding="UTF-8" standalone="no"?><svg xmlns="http://www.w3.org/2000/svg" xmlns:xlink="http://www.w3.org/1999/xlink" contentStyleType="text/css" height="402px" preserveAspectRatio="none" style="width:167px;height:402px;background:#FFFFFF;" version="1.1" viewBox="0 0 167 402" width="167px" zoomAndPan="magnify"><defs/><g><line style="stroke:#181818;stroke-width:0.5;stroke-dasharray:5.0,5.0;" x1="27" x2="27" y1="37.6094" y2="75.6094"/><line style="stroke:#A80036;stroke-width:1.0;stroke-dasharray:1.0,4.0;" x1="27" x2="27" y1="75.6094" y2="103.6094"/><line style="stroke:#181818;stroke-width:0.5;stroke-dasharray:5.0,5.0;" x1="27" x2="27" y1="103.6094" y2="159.6094"/><line style="stroke:#A80036;stroke-width:1.0;stroke-dasharray:1.0,4.0;" x1="27" x2="27" y1="159.6094" y2="187.6094"/><line style="stroke:#181818;stroke-width:0.5;stroke-dasharray:5.0,5.0;" x1="27" x2="27" y1="187.6094" y2="215.6094"/><line style="stroke:#A80036;stroke-width:1.0;stroke-dasharray:1.0,4.0;" x1="27" x2="27" y1="215.6094" y2="243.6094"/><line style="stroke:#181818;stroke-width:0.5;stroke-dasharray:5.0,5.0;" x1="27" x2="27" y1="243.6094" y2="299.6094"/><line style="stroke:#A80036;stroke-width:1.0;stroke-dasharray:1.0,4.0;" x1="27" x2="27" y1="299.6094" y2="327.6094"/><line style="stroke:#181818;stroke-width:0.5;stroke-dasharray:5.0,5.0;" x1="27" x2="27" y1="327.6094" y2="365.6094"/><line style="stroke:#181818;stroke-width:0.5;stroke-dasharray:5.0,5.0;" x1="78" x2="78" y1="37.6094" y2="75.6094"/><line style="stroke:#A80036;stroke-width:1.0;stroke-dasharray:1.0,4.0;" x1="78" x2="78" y1="75.6094" y2="103.6094"/><line style="stroke:#181818;stroke-width:0.5;stroke-dasharray:5.0,5.0;" x1="78" x2="78" y1="103.6094" y2="159.6094"/><line style="stroke:#A80036;stroke-width:1.0;stroke-dasharray:1.0,4.0;" x1="78" x2="78" y1="159.6094" y2="187.6094"/><line style="stroke:#181818;stroke-width:0.5;stroke-dasharray:5.0,5.0;" x1="78" x2="78" y1="187.6094" y2="215.6094"/><line style="stroke:#A80036;stroke-width:1.0;stroke-dasharray:1.0,4.0;" x1="78" x2="78" y1="215.6094" y2="243.6094"/><line style="stroke:#181818;stroke-width:0.5;stroke-dasharray:5.0,5.0;" x1="78" x2="78" y1="243.6094" y2="299.6094"/><line style="stroke:#A80036;stroke-width:1.0;stroke-dasharray:1.0,4.0;" x1="78" x2="78" y1="299.6094" y2="327.6094"/><line style="stroke:#181818;stroke-width:0.5;stroke-dasharray:5.0,5.0;" x1="78" x2="78" y1="327.6094" y2="365.6094"/><line style="stroke:#181818;stroke-width:0.5;stroke-dasharray:5.0,5.0;" x1="132" x2="132" y1="37.6094" y2="75.6094"/><line style="stroke:#A80036;stroke-width:1.0;stroke-dasharray:1.0,4.0;" x1="132" x2="132" y1="75.6094" y2="103.6094"/><line style="stroke:#181818;stroke-width:0.5;stroke-dasharray:5.0,5.0;" x1="132" x2="132" y1="103.6094" y2="159.6094"/><line style="stroke:#A80036;stroke-width:1.0;stroke-dasharray:1.0,4.0;" x1="132" x2="132" y1="159.6094" y2="187.6094"/><line style="stroke:#181818;stroke-width:0.5;stroke-dasharray:5.0,5.0;" x1="132" x2="132" y1="187.6094" y2="215.6094"/><line style="stroke:#A80036;stroke-width:1.0;stroke-dasharray:1.0,4.0;" x1="132" x2="132" y1="215.6094" y2="243.6094"/><line style="stroke:#181818;stroke-width:0.5;stroke-dasharray:5.0,5.0;" x1="132" x2="132" y1="243.6094" y2="299.6094"/><line style="stroke:#A80036;stroke-width:1.0;stroke-dasharray:1.0,4.0;" x1="132" x2="132" y1="299.6094" y2="327.6094"/><line style="stroke:#181818;stroke-width:0.5;stroke-dasharray:5.0,5.0;" x1="132" x2="132" y1="327.6094" y2="365.6094"/><rect fill="#E2E2F0" height="31.6094" rx="2.5" ry="2.5" style="stroke:#181818;stroke-width:0.5;" width="44" x="5" y="5"/><text fill="#000000" font-family="sans-serif" font-size="14" lengthAdjust="spacing" textLength="30" x="12" y="26.5332">Alice</text><rect fill="#E2E2F0" height="31.6094" rx="2.5" ry="2.5" style="stroke:#181818;stroke-width:0.5;" width="44" x="5" y="364.6094"/><text fill="#000000" font-family="sans-serif" font-size="14" lengthAdjust="spacing" textLength="30" x="12" y="386.1426">Alice</text><rect fill="#ADD8E6" height="31.6094" rx="2.5" ry="2.5" style="stroke:#181818;stroke-width:0.5;" width="39" x="59" y="5"/><text fill="#000000" font-family="sans-serif" font-size="14" lengthAdjust="spacing" textLength="25" x="66" y="26.5332">Bob</text><rect fill="#ADD8E6" height="31.6094" rx="2.5" ry="2.5" style="stroke:#181818;stroke-width:0.5;" width="39" x="59" y="364.6094"/><text fill="#000000" font-family="sans-serif" font-size="14" lengthAdjust="spacing" textLength="25" x="66" y="386.1426">Bob</text><rect fill="#E2E2F0" height="31.6094" rx="2.5" ry="2.5" style="stroke:#181818;stroke-width:0.5;" width="48" x="108" y="5"/><text fill="#000000" font-family="sans-serif" font-size="14" lengthAdjust="spacing" textLength="34" x="115" y="26.5332">Carol</text><rect fill="#E2E2F0" height="31.6094" rx="2.5" ry="2.5" style="stroke:#181818;stroke-width:0.5;" width="48" x="108" y="364.6094"/><text fill="#000000" font-family="sans-serif" font-size="14" lengthAdjust="spacing" textLength="34" x="115" y="386.1426">Carol</text><polygon fill="#181818" points="66.5,49.6094,76.5,53.6094,66.5,57.6094,70.5,53.6094" style="stroke:#181818;stroke-width:1.0;"/><line style="stroke:#181818;stroke-width:1.0;" x1="27" x2="72.5" y1="53.6094" y2="53.6094"/><polygon fill="#181818" points="120,63.6094,130,67.6094,120,71.6094,124,67.6094" style="stroke:#181818;stroke-width:1.0;"/><line style="stroke:#181818;stroke-width:1.0;" x1="78.5" x2="126" y1="67.6094" y2="67.6094"/><polygon fill="#181818" points="66.5,105.6094,76.5,109.6094,66.5,113.6094,70.5,109.6094" style="stroke:#181818;stroke-width:1.0;"/><line style="stroke:#181818;stroke-width:1.0;" x1="0" x2="72.5" y1="109.6094" y2="109.6094"/><ellipse cx="7.5" cy="122.8594" fill="none" rx="4" ry="4" style="stroke:#181818;stroke-width:1.5;"/><polygon fill="#181818" points="66.5,119.6094,76.5,123.6094,66.5,127.6094,70.5,123.6094" style="stroke:#181818;stroke-width:1.0;"/><line style="stroke:#181818;stroke-width:1.0;" x1="12" x2="72.5" y1="123.6094" y2="123.6094"/><ellipse cx="7.5" cy="136.8594" fill="none" rx="4" ry="4" style="stroke:#181818;stroke-width:1.5;"/><ellipse cx="78" cy="136.8594" fill="none" rx="4" ry="4" style="stroke:#181818;stroke-width:1.5;"/><polygon fill="#181818" points="61,133.6094,71,137.6094,61,141.6094,65,137.6094" style="stroke:#181818;stroke-width:1.0;"/><line style="stroke:#181818;stroke-width:1.0;" x1="12" x2="67" y1="137.6094" y2="137.6094"/><line style="stroke:#181818;stroke-width:2.0;" x1="6" x2="16" y1="146.6094" y2="156.6094"/><line style="stroke:#181818;stroke-width:2.0;" x1="6" x2="16" y1="156.6094" y2="146.6094"/><polygon fill="#181818" points="66.5,147.6094,76.5,151.6094,66.5,155.6094,70.5,151.6094" style="stroke:#181818;stroke-width:1.0;"/><line style="stroke:#181818;stroke-width:1.0;" x1="12" x2="72.5" y1="151.6094" y2="151.6094"/><polygon fill="#181818" points="11,189.6094,1,193.6094,11,197.6094,7,193.6094" style="stroke:#181818;stroke-width:1.0;"/><line style="stroke:#181818;stroke-width:1.0;" x1="5" x2="77.5" y1="193.6094" y2="193.6094"/><line style="stroke:#181818;stroke-width:2.0;" x1="6" x2="16" y1="202.6094" y2="212.6094"/><line style="stroke:#181818;stroke-width:2.0;" x1="6" x2="16" y1="212.6094" y2="202.6094"/><line style="stroke:#181818;stroke-width:1.0;" x1="12" x2="77.5" y1="207.6094" y2="207.6094"/><polygon fill="#181818" points="149,245.6094,159,249.6094,149,253.6094,153,249.6094" style="stroke:#181818;stroke-width:1.0;"/><line style="stroke:#181818;stroke-width:1.0;" x1="78.5" x2="155" y1="249.6094" y2="249.6094"/><ellipse cx="152.5" cy="262.8594" fill="none" rx="4" ry="4" style="stroke:#181818;stroke-width:1.5;"/><polygon fill="#181818" points="135.5,259.6094,145.5,263.6094,135.5,267.6094,139.5,263.6094" style="stroke:#181818;stroke-width:1.0;"/><line style="stroke:#181818;stroke-width:1.0;" x1="78.5" x2="141.5" y1="263.6094" y2="263.6094"/><ellipse cx="78" cy="276.8594" fill="none" rx="4" ry="4" style="stroke:#181818;stroke-width:1.5;"/><ellipse cx="152.5" cy="276.8594" fill="none" rx="4" ry="4" style="stroke:#181818;stroke-width:1.5;"/><polygon fill="#181818" points="135.5,273.6094,145.5,277.6094,135.5,281.6094,139.5,277.6094" style="stroke:#181818;stroke-width:1.0;"/><line style="stroke:#181818;stroke-width:1.0;" x1="82.5" x2="141.5" y1="277.6094" y2="277.6094"/><line style="stroke:#181818;stroke-width:2.0;" x1="143" x2="153" y1="286.6094" y2="296.6094"/><line style="stroke:#181818;stroke-width:2.0;" x1="143" x2="153" y1="296.6094" y2="286.6094"/><line style="stroke:#181818;stroke-width:1.0;" x1="78.5" x2="148" y1="291.6094" y2="291.6094"/><polygon fill="#181818" points="89.5,329.6094,79.5,333.6094,89.5,337.6094,85.5,333.6094" style="stroke:#181818;stroke-width:1.0;"/><line style="stroke:#181818;stroke-width:1.0;" x1="83.5" x2="160" y1="333.6094" y2="333.6094"/><line style="stroke:#181818;stroke-width:2.0;" x1="84.5" x2="94.5" y1="342.6094" y2="352.6094"/><line style="stroke:#181818;stroke-width:2.0;" x1="84.5" x2="94.5" y1="352.6094" y2="342.6094"/><line style="stroke:#181818;stroke-width:1.0;" x1="90.5" x2="160" y1="347.6094" y2="347.6094"/><!--MD5=[9336c1d39aa1b95ac511161c802db6d0]
@startuml
participant Alice
participant Bob #lightblue
Alice -> Bob
Bob -> Carol
...
[-> Bob
[o-> Bob
[o->o Bob
[x-> Bob
...
[<- Bob
[x<- Bob
...
Bob ->]
Bob ->o]
Bob o->o]
Bob ->x]
...
Bob <-]
Bob x<-]
@enduml

PlantUML version 1.2022.3beta3(Unknown compile time)
(GPL source distribution)
Java Runtime: OpenJDK Runtime Environment
JVM: OpenJDK 64-Bit Server VM
Default Encoding: UTF-8
Language: en
Country: US
--></g></svg>