<?xml version="1.0" encoding="UTF-8" standalone="no"?><svg xmlns="http://www.w3.org/2000/svg" xmlns:xlink="http://www.w3.org/1999/xlink" contentStyleType="text/css" height="397px" preserveAspectRatio="none" style="width:566px;height:397px;background:#FFFFFF;" version="1.1" viewBox="0 0 566 397" width="566px" zoomAndPan="magnify"><defs/><g><line style="stroke:#181818;stroke-width:0.5;stroke-dasharray:5.0,5.0;" x1="45" x2="45" y1="82.6094" y2="315.0703"/><line style="stroke:#181818;stroke-width:0.5;stroke-dasharray:5.0,5.0;" x1="116" x2="116" y1="82.6094" y2="315.0703"/><line style="stroke:#181818;stroke-width:0.5;stroke-dasharray:5.0,5.0;" x1="178" x2="178" y1="82.6094" y2="315.0703"/><line style="stroke:#181818;stroke-width:0.5;stroke-dasharray:5.0,5.0;" x1="245" x2="245" y1="82.6094" y2="315.0703"/><line style="stroke:#181818;stroke-width:0.5;stroke-dasharray:5.0,5.0;" x1="300" x2="300" y1="82.6094" y2="315.0703"/><line style="stroke:#181818;stroke-width:0.5;stroke-dasharray:5.0,5.0;" x1="362" x2="362" y1="82.6094" y2="315.0703"/><line style="stroke:#181818;stroke-width:0.5;stroke-dasharray:5.0,5.0;" x1="447" x2="447" y1="82.6094" y2="315.0703"/><line style="stroke:#181818;stroke-width:0.5;stroke-dasharray:5.0,5.0;" x1="529" x2="529" y1="82.6094" y2="315.0703"/><rect fill="#E2E2F0" height="31.6094" rx="2.5" ry="2.5" style="stroke:#181818;stroke-width:0.5;" width="80" x="5" y="50"/><text fill="#000000" font-family="sans-serif" font-size="14" lengthAdjust="spacing" textLength="66" x="12" y="71.5332">participant</text><rect fill="#E2E2F0" height="31.6094" rx="2.5" ry="2.5" style="stroke:#181818;stroke-width:0.5;" width="80" x="5" y="314.0703"/><text fill="#000000" font-family="sans-serif" font-size="14" lengthAdjust="spacing" textLength="66" x="12" y="335.6035">participant</text><text fill="#000000" font-family="sans-serif" font-size="14" lengthAdjust="spacing" textLength="32" x="97" y="79.5332">actor</text><ellipse cx="116" cy="13.5" fill="#E2E2F0" rx="8" ry="8" style="stroke:#181818;stroke-width:0.5;"/><path d="M116,21.5 L116,48.5 M103,29.5 L129,29.5 M116,48.5 L103,63.5 M116,48.5 L129,63.5 " fill="none" style="stroke:#181818;stroke-width:0.5;"/><text fill="#000000" font-family="sans-serif" font-size="14" lengthAdjust="spacing" textLength="32" x="97" y="328.6035">actor</text><ellipse cx="116" cy="340.1797" fill="#E2E2F0" rx="8" ry="8" style="stroke:#181818;stroke-width:0.5;"/><path d="M116,348.1797 L116,375.1797 M103,356.1797 L129,356.1797 M116,375.1797 L103,390.1797 M116,375.1797 L129,390.1797 " fill="none" style="stroke:#181818;stroke-width:0.5;"/><text fill="#000000" font-family="sans-serif" font-size="14" lengthAdjust="spacing" textLength="60" x="145" y="79.5332">boundary</text><path d="M157.5,37 L157.5,61 M157.5,49 L174.5,49 " fill="none" style="stroke:#181818;stroke-width:0.5;"/><ellipse cx="186.5" cy="49" fill="#E2E2F0" rx="12" ry="12" style="stroke:#181818;stroke-width:0.5;"/><text fill="#000000" font-family="sans-serif" font-size="14" lengthAdjust="spacing" textLength="60" x="145" y="328.6035">boundary</text><path d="M157.5,335.6797 L157.5,359.6797 M157.5,347.6797 L174.5,347.6797 " fill="none" style="stroke:#181818;stroke-width:0.5;"/><ellipse cx="186.5" cy="347.6797" fill="#E2E2F0" rx="12" ry="12" style="stroke:#181818;stroke-width:0.5;"/><text fill="#000000" font-family="sans-serif" font-size="14" lengthAdjust="spacing" textLength="43" x="221" y="79.5332">control</text><ellipse cx="245.5" cy="49" fill="#E2E2F0" rx="12" ry="12" style="stroke:#181818;stroke-width:0.5;"/><polygon fill="#181818" points="241.5,37,247.5,32,245.5,37,247.5,42,241.5,37" style="stroke:#181818;stroke-width:1.0;"/><text fill="#000000" font-family="sans-serif" font-size="14" lengthAdjust="spacing" textLength="43" x="221" y="328.6035">control</text><ellipse cx="245.5" cy="347.6797" fill="#E2E2F0" rx="12" ry="12" style="stroke:#181818;stroke-width:0.5;"/><polygon fill="#181818" points="241.5,335.6797,247.5,330.6797,245.5,335.6797,247.5,340.6797,241.5,335.6797" style="stroke:#181818;stroke-width:1.0;"/><text fill="#000000" font-family="sans-serif" font-size="14" lengthAdjust="spacing" textLength="34" x="280" y="79.5332">entity</text><ellipse cx="300" cy="49" fill="#E2E2F0" rx="12" ry="12" style="stroke:#181818;stroke-width:0.5;"/><line style="stroke:#181818;stroke-width:0.5;" x1="288" x2="312" y1="63" y2="63"/><text fill="#000000" font-family="sans-serif" font-size="14" lengthAdjust="spacing" textLength="34" x="280" y="328.6035">entity</text><ellipse cx="300" cy="347.6797" fill="#E2E2F0" rx="12" ry="12" style="stroke:#181818;stroke-width:0.5;"/><line style="stroke:#181818;stroke-width:0.5;" x1="288" x2="312" y1="361.6797" y2="361.6797"/><text fill="#000000" font-family="sans-serif" font-size="14" lengthAdjust="spacing" textLength="59" x="330" y="79.5332">database</text><path d="M344.5,29 C344.5,19 362.5,19 362.5,19 C362.5,19 380.5,19 380.5,29 L380.5,55 C380.5,65 362.5,65 362.5,65 C362.5,65 344.5,65 344.5,55 L344.5,29 " fill="#E2E2F0" style="stroke:#181818;stroke-width:1.5;"/><path d="M344.5,29 C344.5,39 362.5,39 362.5,39 C362.5,39 380.5,39 380.5,29 " fill="none" style="stroke:#181818;stroke-width:1.5;"/><text fill="#000000" font-family="sans-serif" font-size="14" lengthAdjust="spacing" textLength="59" x="330" y="328.6035">database</text><path d="M344.5,341.6797 C344.5,331.6797 362.5,331.6797 362.5,331.6797 C362.5,331.6797 380.5,331.6797 380.5,341.6797 L380.5,367.6797 C380.5,377.6797 362.5,377.6797 362.5,377.6797 C362.5,377.6797 344.5,377.6797 344.5,367.6797 L344.5,341.6797 " fill="#E2E2F0" style="stroke:#181818;stroke-width:1.5;"/><path d="M344.5,341.6797 C344.5,351.6797 362.5,351.6797 362.5,351.6797 C362.5,351.6797 380.5,351.6797 380.5,341.6797 " fill="none" style="stroke:#181818;stroke-width:1.5;"/><rect fill="#E2E2F0" height="31.6094" style="stroke:#181818;stroke-width:0.5;" width="80" x="409" y="46"/><rect fill="#E2E2F0" height="31.6094" style="stroke:#181818;stroke-width:0.5;" width="80" x="405" y="50"/><text fill="#000000" font-family="sans-serif" font-size="14" lengthAdjust="spacing" textLength="66" x="412" y="71.5332">collections</text><rect fill="#E2E2F0" height="31.6094" style="stroke:#181818;stroke-width:0.5;" width="80" x="409" y="314.0703"/><rect fill="#E2E2F0" height="31.6094" style="stroke:#181818;stroke-width:0.5;" width="80" x="405" y="318.0703"/><text fill="#000000" font-family="sans-serif" font-size="14" lengthAdjust="spacing" textLength="66" x="412" y="339.6035">collections</text><path d="M504,55 L554,55 C559,55 559,68.8047 559,68.8047 C559,68.8047 559,82.6094 554,82.6094 L504,82.6094 C499,82.6094 499,68.8047 499,68.8047 C499,68.8047 499,55 504,55 " fill="#E2E2F0" style="stroke:#181818;stroke-width:0.5;"/><path d="M554,55 C549,55 549,68.8047 549,68.8047 C549,82.6094 554,82.6094 554,82.6094 " fill="none" style="stroke:#181818;stroke-width:0.5;"/><text fill="#000000" font-family="sans-serif" font-size="14" lengthAdjust="spacing" textLength="40" x="504" y="74.5332">queue</text><path d="M504,314.0703 L554,314.0703 C559,314.0703 559,327.875 559,327.875 C559,327.875 559,341.6797 554,341.6797 L504,341.6797 C499,341.6797 499,327.875 499,327.875 C499,327.875 499,314.0703 504,314.0703 " fill="#E2E2F0" style="stroke:#181818;stroke-width:0.5;"/><path d="M554,314.0703 C549,314.0703 549,327.875 549,327.875 C549,341.6797 554,341.6797 554,341.6797 " fill="none" style="stroke:#181818;stroke-width:0.5;"/><text fill="#000000" font-family="sans-serif" font-size="14" lengthAdjust="spacing" textLength="40" x="504" y="333.6035">queue</text><polygon fill="#181818" points="104,110.9609,114,114.9609,104,118.9609,108,114.9609" style="stroke:#181818;stroke-width:1.0;"/><line style="stroke:#181818;stroke-width:1.0;" x1="45" x2="110" y1="114.9609" y2="114.9609"/><text fill="#000000" font-family="sans-serif" font-size="13" lengthAdjust="spacing" textLength="47" x="52" y="110.1045">To actor</text><polygon fill="#181818" points="166,141.3125,176,145.3125,166,149.3125,170,145.3125" style="stroke:#181818;stroke-width:1.0;"/><line style="stroke:#181818;stroke-width:1.0;" x1="45" x2="172" y1="145.3125" y2="145.3125"/><text fill="#000000" font-family="sans-serif" font-size="13" lengthAdjust="spacing" textLength="71" x="52" y="140.4561">To boundary</text><polygon fill="#181818" points="233.5,171.6641,243.5,175.6641,233.5,179.6641,237.5,175.6641" style="stroke:#181818;stroke-width:1.0;"/><line style="stroke:#181818;stroke-width:1.0;" x1="45" x2="239.5" y1="175.6641" y2="175.6641"/><text fill="#000000" font-family="sans-serif" font-size="13" lengthAdjust="spacing" textLength="57" x="52" y="170.8076">To control</text><polygon fill="#181818" points="288,202.0156,298,206.0156,288,210.0156,292,206.0156" style="stroke:#181818;stroke-width:1.0;"/><line style="stroke:#181818;stroke-width:1.0;" x1="45" x2="294" y1="206.0156" y2="206.0156"/><text fill="#000000" font-family="sans-serif" font-size="13" lengthAdjust="spacing" textLength="50" x="52" y="201.1592">To entity</text><polygon fill="#181818" points="350.5,232.3672,360.5,236.3672,350.5,240.3672,354.5,236.3672" style="stroke:#181818;stroke-width:1.0;"/><line style="stroke:#181818;stroke-width:1.0;" x1="45" x2="356.5" y1="236.3672" y2="236.3672"/><text fill="#000000" font-family="sans-serif" font-size="13" lengthAdjust="spacing" textLength="71" x="52" y="231.5107">To database</text><polygon fill="#181818" points="435,262.7188,445,266.7188,435,270.7188,439,266.7188" style="stroke:#181818;stroke-width:1.0;"/><line style="stroke:#181818;stroke-width:1.0;" x1="45" x2="441" y1="266.7188" y2="266.7188"/><text fill="#000000" font-family="sans-serif" font-size="13" lengthAdjust="spacing" textLength="80" x="52" y="261.8623">To collections</text><polygon fill="#181818" points="517,293.0703,527,297.0703,517,301.0703,521,297.0703" style="stroke:#181818;stroke-width:1.0;"/><line style="stroke:#181818;stroke-width:1.0;" x1="45" x2="523" y1="297.0703" y2="297.0703"/><text fill="#000000" font-family="sans-serif" font-size="13" lengthAdjust="spacing" textLength="53" x="52" y="292.2139">To queue</text><!--MD5=[471bb286cbd57ebddfd4940fac9a69c7]
@startuml
participant participant as Foo
actor actor as Foo1
boundary boundary as Foo2
control control as Foo3
entity entity as Foo4
database database as Foo5
collections collections as Foo6
queue queue as Foo7

Foo -> Foo1 : To actor
Foo -> Foo2 : To boundary
Foo -> Foo3 : To control
Foo -> Foo4 : To entity
Foo -> Foo5 : To database
Foo -> Foo6 : To collections
Foo -> Foo7: To queue
@enduml

PlantUML version 1.2022.3beta3(Unknown compile time)
(GPL source distribution)
Java Runtime: OpenJDK Runtime Environment
JVM: OpenJDK 64-Bit Server VM
Default Encoding: UTF-8
Language: en
Country: US
--></g></svg>