<?xml version="1.0" encoding="UTF-8" standalone="no"?><svg xmlns="http://www.w3.org/2000/svg" xmlns:xlink="http://www.w3.org/1999/xlink" contentStyleType="text/css" height="214px" preserveAspectRatio="none" style="width:377px;height:214px;background:#FFFFFF;" version="1.1" viewBox="0 0 377 214" width="377px" zoomAndPan="magnify"><defs/><g><line style="stroke:#181818;stroke-width:1.0;" x1="133.5" x2="133.5" y1="69.9609" y2="157.0156"/><polygon fill="#181818" points="129.5,79.9609,133.5,69.9609,137.5,79.9609,133.5,75.9609" style="stroke:#181818;stroke-width:1.0;"/><polygon fill="#181818" points="129.5,147.0156,133.5,157.0156,137.5,147.0156,133.5,151.0156" style="stroke:#181818;stroke-width:1.0;"/><text fill="#000000" font-family="sans-serif" font-size="13" lengthAdjust="spacing" textLength="61" x="137.5" y="118.8076">some time</text><line style="stroke:#181818;stroke-width:0.5;stroke-dasharray:5.0,5.0;" x1="27" x2="27" y1="37.6094" y2="177.0156"/><line style="stroke:#181818;stroke-width:0.5;stroke-dasharray:5.0,5.0;" x1="240" x2="240" y1="37.6094" y2="177.0156"/><line style="stroke:#181818;stroke-width:0.5;stroke-dasharray:5.0,5.0;" x1="352" x2="352" y1="37.6094" y2="177.0156"/><rect fill="#E2E2F0" height="31.6094" rx="2.5" ry="2.5" style="stroke:#181818;stroke-width:0.5;" width="44" x="5" y="5"/><text fill="#000000" font-family="sans-serif" font-size="14" lengthAdjust="spacing" textLength="30" x="12" y="26.5332">Alice</text><rect fill="#E2E2F0" height="31.6094" rx="2.5" ry="2.5" style="stroke:#181818;stroke-width:0.5;" width="39" x="220.5" y="5"/><text fill="#000000" font-family="sans-serif" font-size="14" lengthAdjust="spacing" textLength="25" x="227.5" y="26.5332">Bob</text><rect fill="#E2E2F0" height="31.6094" rx="2.5" ry="2.5" style="stroke:#181818;stroke-width:0.5;" width="39" x="332.5" y="5"/><text fill="#000000" font-family="sans-serif" font-size="14" lengthAdjust="spacing" textLength="25" x="339.5" y="26.5332">Max</text><rect fill="#E2E2F0" height="31.6094" rx="2.5" ry="2.5" style="stroke:#181818;stroke-width:0.5;" width="44" x="5" y="177.0156"/><text fill="#000000" font-family="sans-serif" font-size="14" lengthAdjust="spacing" textLength="30" x="12" y="198.5488">Alice</text><rect fill="#E2E2F0" height="31.6094" rx="2.5" ry="2.5" style="stroke:#181818;stroke-width:0.5;" width="39" x="220.5" y="177.0156"/><text fill="#000000" font-family="sans-serif" font-size="14" lengthAdjust="spacing" textLength="25" x="227.5" y="198.5488">Bob</text><rect fill="#E2E2F0" height="31.6094" rx="2.5" ry="2.5" style="stroke:#181818;stroke-width:0.5;" width="39" x="332.5" y="177.0156"/><text fill="#000000" font-family="sans-serif" font-size="14" lengthAdjust="spacing" textLength="25" x="339.5" y="198.5488">Max</text><polygon fill="#181818" points="228,63.9609,238,67.9609,228,71.9609,232,67.9609" style="stroke:#181818;stroke-width:1.0;"/><line style="stroke:#181818;stroke-width:1.0;" x1="27" x2="234" y1="67.9609" y2="67.9609"/><text fill="#000000" font-family="sans-serif" font-size="13" lengthAdjust="spacing" textLength="189" x="34" y="63.1045">start doing things during duration</text><polygon fill="#181818" points="340,94.3125,350,98.3125,340,102.3125,344,98.3125" style="stroke:#181818;stroke-width:1.0;"/><line style="stroke:#181818;stroke-width:1.0;" x1="240" x2="346" y1="98.3125" y2="98.3125"/><text fill="#000000" font-family="sans-serif" font-size="13" lengthAdjust="spacing" textLength="60" x="247" y="93.4561">something</text><polygon fill="#181818" points="251,124.6641,241,128.6641,251,132.6641,247,128.6641" style="stroke:#181818;stroke-width:1.0;"/><line style="stroke:#181818;stroke-width:1.0;" x1="245" x2="351" y1="128.6641" y2="128.6641"/><text fill="#000000" font-family="sans-serif" font-size="13" lengthAdjust="spacing" textLength="88" x="257" y="123.8076">something else</text><polygon fill="#181818" points="38,155.0156,28,159.0156,38,163.0156,34,159.0156" style="stroke:#181818;stroke-width:1.0;"/><line style="stroke:#181818;stroke-width:1.0;" x1="32" x2="239" y1="159.0156" y2="159.0156"/><text fill="#000000" font-family="sans-serif" font-size="13" lengthAdjust="spacing" textLength="30" x="44" y="154.1592">finish</text><line style="stroke:#181818;stroke-width:1.0;" x1="133.5" x2="133.5" y1="69.9609" y2="157.0156"/><polygon fill="#181818" points="129.5,79.9609,133.5,69.9609,137.5,79.9609,133.5,75.9609" style="stroke:#181818;stroke-width:1.0;"/><polygon fill="#181818" points="129.5,147.0156,133.5,157.0156,137.5,147.0156,133.5,151.0156" style="stroke:#181818;stroke-width:1.0;"/><text fill="#000000" font-family="sans-serif" font-size="13" lengthAdjust="spacing" textLength="61" x="137.5" y="118.8076">some time</text><!--MD5=[5a90262f17fa8930cc02ee50f751ff90]
@startuml
!pragma teoz true
{start} Alice -> Bob : start doing things during duration
Bob -> Max : something
Max -> Bob : something else
{end} Bob -> Alice : finish
{start} <-> {end} : some time
@enduml

PlantUML version 1.2022.3beta3(Unknown compile time)
(GPL source distribution)
Java Runtime: OpenJDK Runtime Environment
JVM: OpenJDK 64-Bit Server VM
Default Encoding: UTF-8
Language: en
Country: US
--></g></svg>