<?xml version="1.0" encoding="UTF-8" standalone="no"?><svg xmlns="http://www.w3.org/2000/svg" xmlns:xlink="http://www.w3.org/1999/xlink" contentStyleType="text/css" height="133px" preserveAspectRatio="none" style="width:187px;height:133px;background:#FFFFFF;" version="1.1" viewBox="0 0 187 133" width="187px" zoomAndPan="magnify"><defs/><g><line style="stroke:#181818;stroke-width:0.5;stroke-dasharray:5.0,5.0;" x1="38" x2="38" y1="42" y2="92.3516"/><line style="stroke:#181818;stroke-width:0.5;stroke-dasharray:5.0,5.0;" x1="145.5" x2="145.5" y1="42" y2="92.3516"/><rect fill="#E2E2F0" height="36" rx="2.5" ry="2.5" style="stroke:#181818;stroke-width:0.5;" width="67" x="5" y="5"/><ellipse cx="23" cy="23" fill="#ADD1B2" rx="11" ry="11" style="stroke:#181818;stroke-width:1.0;"/><path d="M25.7656,18.875 Q25.9219,18.6563 26.1094,18.5469 Q26.2969,18.4375 26.5156,18.4375 Q26.8906,18.4375 27.125,18.7031 Q27.3594,18.9531 27.3594,19.5625 L27.3594,21.0156 Q27.3594,21.625 27.125,21.8906 Q26.8906,22.1563 26.5156,22.1563 Q26.1719,22.1563 25.9688,21.9531 Q25.7656,21.7656 25.6563,21.25 Q25.6094,20.8906 25.4219,20.7031 Q25.0938,20.3281 24.4844,20.1094 Q23.875,19.8906 23.25,19.8906 Q22.4844,19.8906 21.8438,20.2188 Q21.2188,20.5469 20.7188,21.2969 Q20.2344,22.0469 20.2344,23.0781 L20.2344,24.1719 Q20.2344,25.4063 21.125,26.2344 Q22.0156,27.0469 23.6094,27.0469 Q24.5469,27.0469 25.2031,26.7969 Q25.5938,26.6406 26.0156,26.2031 Q26.2813,25.9375 26.4219,25.8594 Q26.5781,25.7813 26.7813,25.7813 Q27.1094,25.7813 27.3594,26.0469 Q27.625,26.2969 27.625,26.6406 Q27.625,26.9844 27.2813,27.3906 Q26.7813,27.9688 25.9844,28.2969 Q24.9063,28.75 23.6094,28.75 Q22.0938,28.75 20.8906,28.125 Q19.9063,27.625 19.2188,26.5625 Q18.5313,25.4844 18.5313,24.2031 L18.5313,23.0469 Q18.5313,21.7188 19.1406,20.5781 Q19.7656,19.4219 20.8594,18.8125 Q21.9531,18.1875 23.1875,18.1875 Q23.9219,18.1875 24.5625,18.3594 Q25.2188,18.5156 25.7656,18.875 Z " fill="#000000"/><text fill="#000000" font-family="sans-serif" font-size="14" lengthAdjust="spacing" textLength="25" x="40" y="26.5332">Bob</text><rect fill="#E2E2F0" height="36" rx="2.5" ry="2.5" style="stroke:#181818;stroke-width:0.5;" width="67" x="5" y="91.3516"/><ellipse cx="23" cy="109.3516" fill="#ADD1B2" rx="11" ry="11" style="stroke:#181818;stroke-width:1.0;"/><path d="M25.7656,105.2266 Q25.9219,105.0078 26.1094,104.8984 Q26.2969,104.7891 26.5156,104.7891 Q26.8906,104.7891 27.125,105.0547 Q27.3594,105.3047 27.3594,105.9141 L27.3594,107.3672 Q27.3594,107.9766 27.125,108.2422 Q26.8906,108.5078 26.5156,108.5078 Q26.1719,108.5078 25.9688,108.3047 Q25.7656,108.1172 25.6563,107.6016 Q25.6094,107.2422 25.4219,107.0547 Q25.0938,106.6797 24.4844,106.4609 Q23.875,106.2422 23.25,106.2422 Q22.4844,106.2422 21.8438,106.5703 Q21.2188,106.8984 20.7188,107.6484 Q20.2344,108.3984 20.2344,109.4297 L20.2344,110.5234 Q20.2344,111.7578 21.125,112.5859 Q22.0156,113.3984 23.6094,113.3984 Q24.5469,113.3984 25.2031,113.1484 Q25.5938,112.9922 26.0156,112.5547 Q26.2813,112.2891 26.4219,112.2109 Q26.5781,112.1328 26.7813,112.1328 Q27.1094,112.1328 27.3594,112.3984 Q27.625,112.6484 27.625,112.9922 Q27.625,113.3359 27.2813,113.7422 Q26.7813,114.3203 25.9844,114.6484 Q24.9063,115.1016 23.6094,115.1016 Q22.0938,115.1016 20.8906,114.4766 Q19.9063,113.9766 19.2188,112.9141 Q18.5313,111.8359 18.5313,110.5547 L18.5313,109.3984 Q18.5313,108.0703 19.1406,106.9297 Q19.7656,105.7734 20.8594,105.1641 Q21.9531,104.5391 23.1875,104.5391 Q23.9219,104.5391 24.5625,104.7109 Q25.2188,104.8672 25.7656,105.2266 Z " fill="#000000"/><text fill="#000000" font-family="sans-serif" font-size="14" lengthAdjust="spacing" textLength="25" x="40" y="112.8848">Bob</text><rect fill="#E2E2F0" height="36" rx="2.5" ry="2.5" style="stroke:#181818;stroke-width:0.5;" width="72" x="109.5" y="5"/><ellipse cx="127.5" cy="23" fill="#ADD1B2" rx="11" ry="11" style="stroke:#181818;stroke-width:1.0;"/><path d="M130.2656,18.875 Q130.4219,18.6563 130.6094,18.5469 Q130.7969,18.4375 131.0156,18.4375 Q131.3906,18.4375 131.625,18.7031 Q131.8594,18.9531 131.8594,19.5625 L131.8594,21.0156 Q131.8594,21.625 131.625,21.8906 Q131.3906,22.1563 131.0156,22.1563 Q130.6719,22.1563 130.4688,21.9531 Q130.2656,21.7656 130.1563,21.25 Q130.1094,20.8906 129.9219,20.7031 Q129.5938,20.3281 128.9844,20.1094 Q128.375,19.8906 127.75,19.8906 Q126.9844,19.8906 126.3438,20.2188 Q125.7188,20.5469 125.2188,21.2969 Q124.7344,22.0469 124.7344,23.0781 L124.7344,24.1719 Q124.7344,25.4063 125.625,26.2344 Q126.5156,27.0469 128.1094,27.0469 Q129.0469,27.0469 129.7031,26.7969 Q130.0938,26.6406 130.5156,26.2031 Q130.7813,25.9375 130.9219,25.8594 Q131.0781,25.7813 131.2813,25.7813 Q131.6094,25.7813 131.8594,26.0469 Q132.125,26.2969 132.125,26.6406 Q132.125,26.9844 131.7813,27.3906 Q131.2813,27.9688 130.4844,28.2969 Q129.4063,28.75 128.1094,28.75 Q126.5938,28.75 125.3906,28.125 Q124.4063,27.625 123.7188,26.5625 Q123.0313,25.4844 123.0313,24.2031 L123.0313,23.0469 Q123.0313,21.7188 123.6406,20.5781 Q124.2656,19.4219 125.3594,18.8125 Q126.4531,18.1875 127.6875,18.1875 Q128.4219,18.1875 129.0625,18.3594 Q129.7188,18.5156 130.2656,18.875 Z " fill="#000000"/><text fill="#000000" font-family="sans-serif" font-size="14" lengthAdjust="spacing" textLength="30" x="144.5" y="26.5332">Alice</text><rect fill="#E2E2F0" height="36" rx="2.5" ry="2.5" style="stroke:#181818;stroke-width:0.5;" width="72" x="109.5" y="91.3516"/><ellipse cx="127.5" cy="109.3516" fill="#ADD1B2" rx="11" ry="11" style="stroke:#181818;stroke-width:1.0;"/><path d="M130.2656,105.2266 Q130.4219,105.0078 130.6094,104.8984 Q130.7969,104.7891 131.0156,104.7891 Q131.3906,104.7891 131.625,105.0547 Q131.8594,105.3047 131.8594,105.9141 L131.8594,107.3672 Q131.8594,107.9766 131.625,108.2422 Q131.3906,108.5078 131.0156,108.5078 Q130.6719,108.5078 130.4688,108.3047 Q130.2656,108.1172 130.1563,107.6016 Q130.1094,107.2422 129.9219,107.0547 Q129.5938,106.6797 128.9844,106.4609 Q128.375,106.2422 127.75,106.2422 Q126.9844,106.2422 126.3438,106.5703 Q125.7188,106.8984 125.2188,107.6484 Q124.7344,108.3984 124.7344,109.4297 L124.7344,110.5234 Q124.7344,111.7578 125.625,112.5859 Q126.5156,113.3984 128.1094,113.3984 Q129.0469,113.3984 129.7031,113.1484 Q130.0938,112.9922 130.5156,112.5547 Q130.7813,112.2891 130.9219,112.2109 Q131.0781,112.1328 131.2813,112.1328 Q131.6094,112.1328 131.8594,112.3984 Q132.125,112.6484 132.125,112.9922 Q132.125,113.3359 131.7813,113.7422 Q131.2813,114.3203 130.4844,114.6484 Q129.4063,115.1016 128.1094,115.1016 Q126.5938,115.1016 125.3906,114.4766 Q124.4063,113.9766 123.7188,112.9141 Q123.0313,111.8359 123.0313,110.5547 L123.0313,109.3984 Q123.0313,108.0703 123.6406,106.9297 Q124.2656,105.7734 125.3594,105.1641 Q126.4531,104.5391 127.6875,104.5391 Q128.4219,104.5391 129.0625,104.7109 Q129.7188,104.8672 130.2656,105.2266 Z " fill="#000000"/><text fill="#000000" font-family="sans-serif" font-size="14" lengthAdjust="spacing" textLength="30" x="144.5" y="112.8848">Alice</text><polygon fill="#181818" points="133.5,70.3516,143.5,74.3516,133.5,78.3516,137.5,74.3516" style="stroke:#181818;stroke-width:1.0;"/><line style="stroke:#181818;stroke-width:1.0;" x1="38.5" x2="139.5" y1="74.3516" y2="74.3516"/><text fill="#000000" font-family="sans-serif" font-size="13" lengthAdjust="spacing" textLength="83" x="45.5" y="69.4951">First message</text><!--MD5=[349fe68693d2333662fcd842f880bea3]
@startuml
participant Bob << (C,#ADD1B2) >>
participant Alice << (C,#ADD1B2) >>

Bob->Alice: First message
@enduml

PlantUML version 1.2022.3beta3(Unknown compile time)
(GPL source distribution)
Java Runtime: OpenJDK Runtime Environment
JVM: OpenJDK 64-Bit Server VM
Default Encoding: UTF-8
Language: en
Country: US
--></g></svg>