<?xml version="1.0" encoding="UTF-8" standalone="no"?><svg xmlns="http://www.w3.org/2000/svg" xmlns:xlink="http://www.w3.org/1999/xlink" contentStyleType="text/css" height="235px" preserveAspectRatio="none" style="width:326px;height:235px;background:#FFFFFF;" version="1.1" viewBox="0 0 326 235" width="326px" zoomAndPan="magnify"><defs/><g><line style="stroke:#181818;stroke-width:0.5;stroke-dasharray:5.0,5.0;" x1="131" x2="131" y1="37.6094" y2="199.3672"/><line style="stroke:#181818;stroke-width:0.5;stroke-dasharray:5.0,5.0;" x1="182" x2="182" y1="37.6094" y2="199.3672"/><rect fill="#E2E2F0" height="31.6094" rx="2.5" ry="2.5" style="stroke:#181818;stroke-width:0.5;" width="44" x="109" y="5"/><text fill="#000000" font-family="sans-serif" font-size="14" lengthAdjust="spacing" textLength="30" x="116" y="26.5332">Alice</text><rect fill="#E2E2F0" height="31.6094" rx="2.5" ry="2.5" style="stroke:#181818;stroke-width:0.5;" width="44" x="109" y="198.3672"/><text fill="#000000" font-family="sans-serif" font-size="14" lengthAdjust="spacing" textLength="30" x="116" y="219.9004">Alice</text><rect fill="#E2E2F0" height="31.6094" rx="2.5" ry="2.5" style="stroke:#181818;stroke-width:0.5;" width="39" x="163" y="5"/><text fill="#000000" font-family="sans-serif" font-size="14" lengthAdjust="spacing" textLength="25" x="170" y="26.5332">Bob</text><rect fill="#E2E2F0" height="31.6094" rx="2.5" ry="2.5" style="stroke:#181818;stroke-width:0.5;" width="39" x="163" y="198.3672"/><text fill="#000000" font-family="sans-serif" font-size="14" lengthAdjust="spacing" textLength="25" x="170" y="219.9004">Bob</text><polygon fill="#181818" points="170.5,68.9609,180.5,72.9609,170.5,76.9609,174.5,72.9609" style="stroke:#181818;stroke-width:1.0;"/><line style="stroke:#181818;stroke-width:1.0;" x1="131" x2="176.5" y1="72.9609" y2="72.9609"/><text fill="#000000" font-family="sans-serif" font-size="13" lengthAdjust="spacing" textLength="27" x="138" y="68.1045">hello</text><path d="M5,52.6094 L5,78.6094 L126,78.6094 L126,62.6094 L116,52.6094 L5,52.6094 " fill="#FEFFDD" style="stroke:#181818;stroke-width:0.5;"/><path d="M116,52.6094 L116,62.6094 L126,62.6094 L116,52.6094 " fill="#FEFFDD" style="stroke:#181818;stroke-width:0.5;"/><text fill="#000000" font-family="sans-serif" font-size="13" lengthAdjust="spacing" textLength="100" x="11" y="71.1045">this is a first note</text><polygon fill="#181818" points="142,105.3125,132,109.3125,142,113.3125,138,109.3125" style="stroke:#181818;stroke-width:1.0;"/><line style="stroke:#181818;stroke-width:1.0;" x1="136" x2="181.5" y1="109.3125" y2="109.3125"/><text fill="#000000" font-family="sans-serif" font-size="13" lengthAdjust="spacing" textLength="14" x="148" y="104.4561">ok</text><path d="M187,88.9609 L187,114.9609 L319,114.9609 L319,98.9609 L309,88.9609 L187,88.9609 " fill="#FEFFDD" style="stroke:#181818;stroke-width:0.5;"/><path d="M309,88.9609 L309,98.9609 L319,98.9609 L309,88.9609 " fill="#FEFFDD" style="stroke:#181818;stroke-width:0.5;"/><text fill="#000000" font-family="sans-serif" font-size="13" lengthAdjust="spacing" textLength="111" x="193" y="107.4561">this is another note</text><line style="stroke:#181818;stroke-width:1.0;" x1="182.5" x2="224.5" y1="155.5156" y2="155.5156"/><line style="stroke:#181818;stroke-width:1.0;" x1="224.5" x2="224.5" y1="155.5156" y2="168.5156"/><line style="stroke:#181818;stroke-width:1.0;" x1="183.5" x2="224.5" y1="168.5156" y2="168.5156"/><polygon fill="#181818" points="193.5,164.5156,183.5,168.5156,193.5,172.5156,189.5,168.5156" style="stroke:#181818;stroke-width:1.0;"/><text fill="#000000" font-family="sans-serif" font-size="13" lengthAdjust="spacing" textLength="74" x="189.5" y="150.6592">I am thinking</text><path d="M44,125.3125 L44,184.3125 L177,184.3125 L177,135.3125 L167,125.3125 L44,125.3125 " fill="#FEFFDD" style="stroke:#181818;stroke-width:0.5;"/><path d="M167,125.3125 L167,135.3125 L177,135.3125 L167,125.3125 " fill="#FEFFDD" style="stroke:#181818;stroke-width:0.5;"/><text fill="#000000" font-family="sans-serif" font-size="13" lengthAdjust="spacing" textLength="36" x="50" y="143.8076">a note</text><text fill="#000000" font-family="sans-serif" font-size="13" lengthAdjust="spacing" textLength="112" x="50" y="160.1592">can also be defined</text><text fill="#000000" font-family="sans-serif" font-size="13" lengthAdjust="spacing" textLength="89" x="50" y="176.5107">on several lines</text><!--MD5=[c170a58f19b98cc744a79b1e18b53f75]
@startuml
Alice->Bob : hello
note left: this is a first note
Bob->Alice : ok
note right: this is another note
Bob->Bob : I am thinking
note left
a note
can also be defined
on several lines
end note
@enduml

PlantUML version 1.2022.3beta3(Unknown compile time)
(GPL source distribution)
Java Runtime: OpenJDK Runtime Environment
JVM: OpenJDK 64-Bit Server VM
Default Encoding: UTF-8
Language: en
Country: US
--></g></svg>