<?xml version="1.0" encoding="UTF-8" standalone="no"?><svg xmlns="http://www.w3.org/2000/svg" xmlns:xlink="http://www.w3.org/1999/xlink" contentStyleType="text/css" height="197px" preserveAspectRatio="none" style="width:191px;height:197px;background:#FFFFFF;" version="1.1" viewBox="0 0 191 197" width="191px" zoomAndPan="magnify"><defs/><g><line style="stroke:#181818;stroke-width:0.5;stroke-dasharray:5.0,5.0;" x1="70" x2="70" y1="37.6094" y2="160.6641"/><line style="stroke:#181818;stroke-width:0.5;stroke-dasharray:5.0,5.0;" x1="121" x2="121" y1="37.6094" y2="160.6641"/><rect fill="#E2E2F0" height="31.6094" rx="2.5" ry="2.5" style="stroke:#181818;stroke-width:0.5;" width="44" x="48" y="5"/><text fill="#000000" font-family="sans-serif" font-size="14" lengthAdjust="spacing" textLength="30" x="55" y="26.5332">Alice</text><rect fill="#E2E2F0" height="31.6094" rx="2.5" ry="2.5" style="stroke:#181818;stroke-width:0.5;" width="44" x="48" y="159.6641"/><text fill="#000000" font-family="sans-serif" font-size="14" lengthAdjust="spacing" textLength="30" x="55" y="181.1973">Alice</text><rect fill="#E2E2F0" height="31.6094" rx="2.5" ry="2.5" style="stroke:#181818;stroke-width:0.5;" width="39" x="102" y="5"/><text fill="#000000" font-family="sans-serif" font-size="14" lengthAdjust="spacing" textLength="25" x="109" y="26.5332">Bob</text><rect fill="#E2E2F0" height="31.6094" rx="2.5" ry="2.5" style="stroke:#181818;stroke-width:0.5;" width="39" x="102" y="159.6641"/><text fill="#000000" font-family="sans-serif" font-size="14" lengthAdjust="spacing" textLength="25" x="109" y="181.1973">Bob</text><path d="M5,52.6094 L5,78.6094 L136,78.6094 L136,62.6094 L126,52.6094 L5,52.6094 " fill="#FEFFDD" style="stroke:#181818;stroke-width:0.5;"/><path d="M126,52.6094 L126,62.6094 L136,62.6094 L126,52.6094 " fill="#FEFFDD" style="stroke:#181818;stroke-width:0.5;"/><text fill="#000000" font-family="sans-serif" font-size="13" lengthAdjust="spacing" textLength="110" x="11" y="71.1045">initial state of Alice</text><path d="M59,88.9609 L59,114.9609 L184,114.9609 L184,98.9609 L174,88.9609 L59,88.9609 " fill="#FEFFDD" style="stroke:#181818;stroke-width:0.5;"/><path d="M174,88.9609 L174,98.9609 L184,98.9609 L174,88.9609 " fill="#FEFFDD" style="stroke:#181818;stroke-width:0.5;"/><text fill="#000000" font-family="sans-serif" font-size="13" lengthAdjust="spacing" textLength="104" x="65" y="107.4561">initial state of Bob</text><polygon fill="#181818" points="81,138.6641,71,142.6641,81,146.6641,77,142.6641" style="stroke:#181818;stroke-width:1.0;"/><line style="stroke:#181818;stroke-width:1.0;" x1="75" x2="120.5" y1="142.6641" y2="142.6641"/><text fill="#000000" font-family="sans-serif" font-size="13" lengthAdjust="spacing" textLength="27" x="87" y="137.8076">hello</text><!--MD5=[67e0b5b9af7002c1f59dc7792032f4bd]
@startuml
note over Alice : initial state of Alice
note over Bob : initial state of Bob
Bob -> Alice : hello
@enduml

PlantUML version 1.2022.3beta3(Unknown compile time)
(GPL source distribution)
Java Runtime: OpenJDK Runtime Environment
JVM: OpenJDK 64-Bit Server VM
Default Encoding: UTF-8
Language: en
Country: US
--></g></svg>