<?xml version="1.0" encoding="UTF-8" standalone="no"?><svg xmlns="http://www.w3.org/2000/svg" xmlns:xlink="http://www.w3.org/1999/xlink" contentStyleType="text/css" height="258px" preserveAspectRatio="none" style="width:235px;height:258px;background:#FFFFFF;" version="1.1" viewBox="0 0 235 258" width="235px" zoomAndPan="magnify"><defs/><g><rect fill="#FFFFFF" height="134.4063" style="stroke:#181818;stroke-width:1.0;" width="10" x="66" y="69.9609"/><rect fill="#FFFFFF" height="65.7031" style="stroke:#181818;stroke-width:1.0;" width="10" x="71" y="108.3125"/><line style="stroke:#181818;stroke-width:0.5;stroke-dasharray:5.0,5.0;" x1="70.5" x2="70.5" y1="37.6094" y2="222.3672"/><rect fill="#E2E2F0" height="31.6094" rx="2.5" ry="2.5" style="stroke:#181818;stroke-width:0.5;" width="23" x="59.5" y="5"/><text fill="#000000" font-family="sans-serif" font-size="14" lengthAdjust="spacing" textLength="9" x="66.5" y="26.5332">A</text><rect fill="#E2E2F0" height="31.6094" rx="2.5" ry="2.5" style="stroke:#181818;stroke-width:0.5;" width="23" x="59.5" y="221.3672"/><text fill="#000000" font-family="sans-serif" font-size="14" lengthAdjust="spacing" textLength="9" x="66.5" y="242.9004">A</text><rect fill="#FFFFFF" height="134.4063" style="stroke:#181818;stroke-width:1.0;" width="10" x="66" y="69.9609"/><rect fill="#FFFFFF" height="65.7031" style="stroke:#181818;stroke-width:1.0;" width="10" x="71" y="108.3125"/><polygon fill="#181818" points="54,65.9609,64,69.9609,54,73.9609,58,69.9609" style="stroke:#181818;stroke-width:1.0;"/><line style="stroke:#181818;stroke-width:1.0;" x1="0" x2="60" y1="69.9609" y2="69.9609"/><text fill="#000000" font-family="sans-serif" font-size="13" lengthAdjust="spacing" textLength="47" x="7" y="65.1045">DoWork</text><line style="stroke:#181818;stroke-width:1.0;" x1="76" x2="123" y1="95.3125" y2="95.3125"/><line style="stroke:#181818;stroke-width:1.0;" x1="123" x2="123" y1="95.3125" y2="108.3125"/><line style="stroke:#181818;stroke-width:1.0;" x1="82" x2="123" y1="108.3125" y2="108.3125"/><polygon fill="#181818" points="92,104.3125,82,108.3125,92,112.3125,88,108.3125" style="stroke:#181818;stroke-width:1.0;"/><text fill="#000000" font-family="sans-serif" font-size="13" lengthAdjust="spacing" textLength="66" x="88" y="90.4561">Internal call</text><polygon fill="#181818" points="217,139.6641,227,143.6641,217,147.6641,221,143.6641" style="stroke:#181818;stroke-width:1.0;"/><line style="stroke:#181818;stroke-width:1.0;" x1="81" x2="223" y1="143.6641" y2="143.6641"/><text fill="#000000" font-family="sans-serif" font-size="13" lengthAdjust="spacing" textLength="124" x="88" y="138.8076">&lt;&lt; createRequest &gt;&gt;</text><polygon fill="#181818" points="87,170.0156,77,174.0156,87,178.0156,83,174.0156" style="stroke:#181818;stroke-width:1.0;"/><line style="stroke:#181818;stroke-width:1.0;stroke-dasharray:2.0,2.0;" x1="81" x2="228" y1="174.0156" y2="174.0156"/><text fill="#000000" font-family="sans-serif" font-size="13" lengthAdjust="spacing" textLength="93" x="93" y="169.1592">RequestCreated</text><polygon fill="#181818" points="11,200.3672,1,204.3672,11,208.3672,7,204.3672" style="stroke:#181818;stroke-width:1.0;"/><line style="stroke:#181818;stroke-width:1.0;" x1="5" x2="70" y1="204.3672" y2="204.3672"/><text fill="#000000" font-family="sans-serif" font-size="13" lengthAdjust="spacing" textLength="30" x="17" y="199.5107">Done</text><!--MD5=[b5297052603222d709dabca4986071a2]
@startuml
[-> A: DoWork
activate A
A -> A: Internal call
activate A
A ->] : << createRequest >>
A<- -] : RequestCreated
deactivate A
[<- A: Done
deactivate A
@enduml

PlantUML version 1.2022.3beta3(Unknown compile time)
(GPL source distribution)
Java Runtime: OpenJDK Runtime Environment
JVM: OpenJDK 64-Bit Server VM
Default Encoding: UTF-8
Language: en
Country: US
--></g></svg>