<?xml version="1.0" encoding="UTF-8" standalone="no"?><svg xmlns="http://www.w3.org/2000/svg" xmlns:xlink="http://www.w3.org/1999/xlink" contentStyleType="text/css" height="231px" preserveAspectRatio="none" style="width:293px;height:231px;background:#FFFFFF;" version="1.1" viewBox="0 0 293 231" width="293px" zoomAndPan="magnify"><defs/><g><!--MD5=[bc938698130bec3721522f38f16e3aed]
cluster Restaurant--><g id="cluster_Restaurant"><rect height="218" rx="2.5" ry="2.5" style="stroke:#181818;stroke-width:1.0;fill:none;" width="168" x="119" y="7"/><text fill="#000000" font-family="sans-serif" font-size="14" font-weight="bold" lengthAdjust="spacing" textLength="77" x="164.5" y="23.5332">Restaurant</text></g><g id="elem_UC1"><ellipse cx="202.7806" cy="59.0229" fill="#F1F1F1" rx="52.7806" ry="15.5229" style="stroke:#181818;stroke-width:0.5;"/><text fill="#000000" font-family="sans-serif" font-size="14" lengthAdjust="spacing" textLength="58" x="170.7806" y="63.5395">Eat Food</text></g><g id="elem_UC2"><ellipse cx="203.0887" cy="126.0177" fill="#F1F1F1" rx="68.0887" ry="16.0177" style="stroke:#181818;stroke-width:0.5;"/><text fill="#000000" font-family="sans-serif" font-size="14" lengthAdjust="spacing" textLength="82" x="159.0887" y="130.5343">Pay for Food</text></g><g id="elem_UC3"><ellipse cx="202.8198" cy="192.9517" fill="#F1F1F1" rx="34.8198" ry="15.4517" style="stroke:#181818;stroke-width:0.5;"/><text fill="#000000" font-family="sans-serif" font-size="14" lengthAdjust="spacing" textLength="33" x="186.3198" y="196.6802">Drink</text></g><!--MD5=[db756db308cf6ff8cfeeb51570136b75]
entity fc--><g id="elem_fc"><ellipse cx="40.5" cy="95.5" fill="#F1F1F1" rx="8" ry="8" style="stroke:#181818;stroke-width:0.5;"/><path d="M40.5,103.5 L40.5,130.5 M27.5,111.5 L53.5,111.5 M40.5,130.5 L27.5,145.5 M40.5,130.5 L53.5,145.5 " fill="none" style="stroke:#181818;stroke-width:0.5;"/><text fill="#000000" font-family="sans-serif" font-size="14" lengthAdjust="spacing" textLength="69" x="6" y="161.5332">Food Critic</text></g><!--MD5=[e9923d9fd4075a960db40f09654be8d8]
link fc to UC1--><g id="link_fc_UC1"><path d="M75.1,108.66 C86.39,103.08 99.13,97.04 111,92 C127.68,84.92 146.46,77.95 162.6,72.25 " fill="none" id="fc-to-UC1" style="stroke:#181818;stroke-width:1.0;"/><polygon fill="#181818" points="167.53,70.52,157.7128,69.731,162.8129,72.1781,160.3658,77.2783,167.53,70.52" style="stroke:#181818;stroke-width:1.0;"/></g><!--MD5=[4af9e8427d276ef4a9c3c7d33d3ba91c]
link fc to UC2--><g id="link_fc_UC2"><path d="M75.15,126 C91.03,126 110.63,126 129.64,126 " fill="none" id="fc-to-UC2" style="stroke:#181818;stroke-width:1.0;"/><polygon fill="#181818" points="134.98,126,125.98,122,129.98,126,125.98,130,134.98,126" style="stroke:#181818;stroke-width:1.0;"/></g><!--MD5=[71fba4d683dd6a260b46bc412e62a629]
link fc to UC3--><g id="link_fc_UC3"><path d="M75.17,142.7 C86.47,148.11 99.19,154 111,159 C130.45,167.23 152.65,175.55 170.25,181.89 " fill="none" id="fc-to-UC3" style="stroke:#181818;stroke-width:1.0;"/><polygon fill="#181818" points="175.08,183.63,167.9523,176.8333,170.3719,181.9465,165.2587,184.3662,175.08,183.63" style="stroke:#181818;stroke-width:1.0;"/></g><!--MD5=[7e73a8407e9670a014dc033060b48e57]
@startuml
left to right direction
actor "Food Critic" as fc
rectangle Restaurant {
usecase "Eat Food" as UC1
usecase "Pay for Food" as UC2
usecase "Drink" as UC3
}
fc - -> UC1
fc - -> UC2
fc - -> UC3
@enduml

PlantUML version 1.2022.3beta3(Unknown compile time)
(GPL source distribution)
Java Runtime: OpenJDK Runtime Environment
JVM: OpenJDK 64-Bit Server VM
Default Encoding: UTF-8
Language: en
Country: US
--></g></svg>