<?xml version="1.0" encoding="UTF-8" standalone="no"?><svg xmlns="http://www.w3.org/2000/svg" xmlns:xlink="http://www.w3.org/1999/xlink" contentStyleType="text/css" height="162px" preserveAspectRatio="none" style="width:389px;height:162px;background:#FFFFFF;" version="1.1" viewBox="0 0 389 162" width="389px" zoomAndPan="magnify"><defs/><g><!--MD5=[fee662a292a0353a69bd162820bae93b]
entity User--><g id="elem_User"><ellipse cx="88.5" cy="10.5" fill="#F1F1F1" rx="4.5" ry="4.5" style="stroke:#181818;stroke-width:0.5;"/><path d="M76,17 L76,22 L85.5,22 L85.5,24.2574 L76,33.7574 L80.2426,38 L88.5,29.7426 L96.7574,38 L101,33.7574 L91.5,24.2574 L91.5,22 L101,22 L101,17 L76,17 " fill="#F1F1F1" style="stroke:#181818;stroke-width:0.5;"/><text fill="#000000" font-family="sans-serif" font-size="14" lengthAdjust="spacing" textLength="29" x="74" y="53.0332">User</text></g><g id="elem_Use"><ellipse cx="88.3351" cy="136.367" fill="#F1F1F1" rx="82.3351" ry="18.867" style="stroke:#181818;stroke-width:0.5;"/><text fill="#000000" font-family="sans-serif" font-size="14" lengthAdjust="spacing" textLength="120" x="28.3351" y="140.0955">Use the application</text></g><!--MD5=[97ab183161fd5d1db7fba7485cf76add]
entity Admin--><g id="elem_Admin"><ellipse cx="294.5" cy="10.5" fill="#F1F1F1" rx="4.5" ry="4.5" style="stroke:#181818;stroke-width:0.5;"/><path d="M282,17 L282,22 L291.5,22 L291.5,24.2574 L282,33.7574 L286.2426,38 L294.5,29.7426 L302.7574,38 L307,33.7574 L297.5,24.2574 L297.5,22 L307,22 L307,17 L282,17 " fill="#F1F1F1" style="stroke:#181818;stroke-width:0.5;"/><text fill="#000000" font-family="sans-serif" font-size="14" lengthAdjust="spacing" textLength="73" x="258" y="53.0332">Main Admin</text></g><g id="elem_Admin the application"><ellipse cx="294.6756" cy="136.6351" fill="#F1F1F1" rx="88.6756" ry="20.1351" style="stroke:#181818;stroke-width:0.5;"/><text fill="#000000" font-family="sans-serif" font-size="14" lengthAdjust="spacing" textLength="135" x="227.1756" y="140.3636">Admin the application</text></g><!--MD5=[9b1e83a301d632e8d5a1d64f176fc1f5]
link User to Use--><g id="link_User_Use"><path d="M88.5,56.53 C88.5,73.28 88.5,95.36 88.5,111.92 " fill="none" id="User-to-Use" style="stroke:#181818;stroke-width:1.0;"/><polygon fill="#181818" points="88.5,117.3,92.5,108.3,88.5,112.3,84.5,108.3,88.5,117.3" style="stroke:#181818;stroke-width:1.0;"/></g><!--MD5=[286837173fbad0561e8a9a3273598f57]
link Admin to Admin the application--><g id="link_Admin_Admin the application"><path d="M294.5,56.53 C294.5,72.96 294.5,94.52 294.5,110.95 " fill="none" id="Admin-to-Admin the application" style="stroke:#181818;stroke-width:1.0;"/><polygon fill="#181818" points="294.5,116.32,298.5,107.32,294.5,111.32,290.5,107.32,294.5,116.32" style="stroke:#181818;stroke-width:1.0;"/></g><!--MD5=[9d7254668702e5d29a225ad4d475c6a0]
@startuml
skinparam actorStyle hollow
:User: - -> (Use)
"Main Admin" as Admin
"Use the application" as (Use)
Admin - -> (Admin the application)
@enduml

PlantUML version 1.2022.3beta3(Unknown compile time)
(GPL source distribution)
Java Runtime: OpenJDK Runtime Environment
JVM: OpenJDK 64-Bit Server VM
Default Encoding: UTF-8
Language: en
Country: US
--></g></svg>