<?xml version="1.0" encoding="UTF-8" standalone="no"?><svg xmlns="http://www.w3.org/2000/svg" xmlns:xlink="http://www.w3.org/1999/xlink" contentStyleType="text/css" height="243px" preserveAspectRatio="none" style="width:172px;height:243px;background:#FFFFFF;" version="1.1" viewBox="0 0 172 243" width="172px" zoomAndPan="magnify"><defs/><g><!--MD5=[0154ce9715a30d7d18fef37a629d6312]
entity First Actor--><g id="elem_First Actor"><ellipse cx="38.5" cy="22.5" fill="#F1F1F1" rx="8" ry="8" style="stroke:#181818;stroke-width:0.5;"/><path d="M38.5,30.5 L38.5,57.5 M25.5,38.5 L51.5,38.5 M38.5,57.5 L25.5,72.5 M38.5,57.5 L51.5,72.5 " fill="none" style="stroke:#181818;stroke-width:0.5;"/><text fill="#000000" font-family="sans-serif" font-size="14" lengthAdjust="spacing" textLength="65" x="6" y="88.5332">First Actor</text></g><!--MD5=[6ea34d01e93ce4124975866a19813a2a]
entity Man2--><g id="elem_Man2"><ellipse cx="131.5" cy="14" fill="#F1F1F1" rx="8" ry="8" style="stroke:#181818;stroke-width:0.5;"/><path d="M131.5,22 L131.5,49 M118.5,30 L144.5,30 M131.5,49 L118.5,64 M131.5,49 L144.5,64 " fill="none" style="stroke:#181818;stroke-width:0.5;"/><text fill="#000000" font-family="sans-serif" font-size="14" lengthAdjust="spacing" textLength="50" x="106.5" y="80.0332">Another</text><text fill="#000000" font-family="sans-serif" font-size="14" lengthAdjust="spacing" textLength="32" x="106.5" y="97.6426">actor</text></g><!--MD5=[3d2197e14cb00aa5ec30b093ac7bde7f]
entity Woman3--><g id="elem_Woman3"><ellipse cx="38.5" cy="169" fill="#F1F1F1" rx="8" ry="8" style="stroke:#181818;stroke-width:0.5;"/><path d="M38.5,177 L38.5,204 M25.5,185 L51.5,185 M38.5,204 L25.5,219 M38.5,204 L51.5,219 " fill="none" style="stroke:#181818;stroke-width:0.5;"/><text fill="#000000" font-family="sans-serif" font-size="14" lengthAdjust="spacing" textLength="56" x="10.5" y="235.0332">Woman3</text></g><!--MD5=[3bc476eaaedde3319bb81330de87a5cd]
entity Person1--><g id="elem_Person1"><ellipse cx="133.5" cy="169" fill="#F1F1F1" rx="8" ry="8" style="stroke:#181818;stroke-width:0.5;"/><path d="M133.5,177 L133.5,204 M120.5,185 L146.5,185 M133.5,204 L120.5,219 M133.5,204 L146.5,219 " fill="none" style="stroke:#181818;stroke-width:0.5;"/><text fill="#000000" font-family="sans-serif" font-size="14" lengthAdjust="spacing" textLength="63" x="102" y="235.0332">Last actor</text></g><!--MD5=[b5fb66da371e057bbcaed64541d3455d]
link First Actor to Man2--></g></svg>