<?xml version="1.0" encoding="UTF-8" standalone="no"?><svg xmlns="http://www.w3.org/2000/svg" xmlns:xlink="http://www.w3.org/1999/xlink" contentStyleType="text/css" height="296px" preserveAspectRatio="none" style="width:479px;height:296px;background:#FFFFFF;" version="1.1" viewBox="0 0 479 296" width="479px" zoomAndPan="magnify"><defs/><g><!--MD5=[97ab183161fd5d1db7fba7485cf76add]
entity Admin--><g id="elem_Admin"><ellipse cx="266.5" cy="14" fill="#F1F1F1" rx="8" ry="8" style="stroke:#181818;stroke-width:0.5;"/><path d="M266.5,22 L266.5,49 M253.5,30 L279.5,30 M266.5,49 L253.5,64 M266.5,49 L279.5,64 " fill="none" style="stroke:#181818;stroke-width:0.5;"/><text fill="#000000" font-family="sans-serif" font-size="14" lengthAdjust="spacing" textLength="73" x="230" y="80.0332">Main Admin</text></g><g id="elem_Use"><ellipse cx="137.3351" cy="267.867" fill="#F1F1F1" rx="82.3351" ry="18.867" style="stroke:#181818;stroke-width:0.5;"/><text fill="#000000" font-family="sans-serif" font-size="14" lengthAdjust="spacing" textLength="120" x="77.3351" y="271.5955">Use the application</text></g><!--MD5=[fee662a292a0353a69bd162820bae93b]
entity User--><g id="elem_User"><ellipse cx="20.5" cy="14" fill="#F1F1F1" rx="8" ry="8" style="stroke:#181818;stroke-width:0.5;"/><path d="M20.5,22 L20.5,49 M7.5,30 L33.5,30 M20.5,49 L7.5,64 M20.5,49 L33.5,64 " fill="none" style="stroke:#181818;stroke-width:0.5;"/><text fill="#000000" font-family="sans-serif" font-size="14" lengthAdjust="spacing" textLength="29" x="6" y="80.0332">User</text></g><g id="elem_Start"><ellipse cx="114.6985" cy="44.4517" fill="#F1F1F1" rx="32.6985" ry="15.4517" style="stroke:#181818;stroke-width:0.5;"/><text fill="#000000" font-family="sans-serif" font-size="14" lengthAdjust="spacing" textLength="30" x="99.6985" y="48.1802">Start</text></g><g id="elem_GMN9"><path d="M338.5,31.5 L338.5,40.5 L303.15,44.5 L338.5,48.5 L338.5,57.8516 A0,0 0 0 0 338.5,57.8516 L472.5,57.8516 A0,0 0 0 0 472.5,57.8516 L472.5,41.5 L462.5,31.5 L338.5,31.5 A0,0 0 0 0 338.5,31.5 " fill="#FEFFDD" style="stroke:#181818;stroke-width:0.5;"/><path d="M462.5,31.5 L462.5,41.5 L472.5,41.5 L462.5,31.5 " fill="#FEFFDD" style="stroke:#181818;stroke-width:0.5;"/><text fill="#000000" font-family="sans-serif" font-size="13" lengthAdjust="spacing" textLength="113" x="344.5" y="49.9951">This is an example.</text></g><g id="elem_GMN12"><path d="M255.5,246.5 L255.5,264 L220.32,268 L255.5,272 L255.5,289.2031 A0,0 0 0 0 255.5,289.2031 L383.5,289.2031 A0,0 0 0 0 383.5,289.2031 L383.5,256.5 L373.5,246.5 L255.5,246.5 A0,0 0 0 0 255.5,246.5 " fill="#FEFFDD" style="stroke:#181818;stroke-width:0.5;"/><path d="M373.5,246.5 L373.5,256.5 L383.5,256.5 L373.5,246.5 " fill="#FEFFDD" style="stroke:#181818;stroke-width:0.5;"/><text fill="#000000" font-family="sans-serif" font-size="13" lengthAdjust="spacing" textLength="91" x="261.5" y="264.9951">A note can also</text><text fill="#000000" font-family="sans-serif" font-size="13" lengthAdjust="spacing" textLength="107" x="261.5" y="281.3467">be on several lines</text></g><g id="elem_N2"><path d="M61.5,143.5 L61.5,186.2031 L213.5,186.2031 L213.5,153.5 L203.5,143.5 L61.5,143.5 " fill="#FEFFDD" style="stroke:#181818;stroke-width:0.5;"/><path d="M203.5,143.5 L203.5,153.5 L213.5,153.5 L203.5,143.5 " fill="#FEFFDD" style="stroke:#181818;stroke-width:1.0;"/><text fill="#000000" font-family="sans-serif" font-size="13" lengthAdjust="spacing" textLength="131" x="67.5" y="161.9951">This note is connected</text><text fill="#000000" font-family="sans-serif" font-size="13" lengthAdjust="spacing" textLength="105" x="67.5" y="178.3467">to several objects.</text></g><!--MD5=[f4b2be5085d6f52f3a0e36c62efcf3ad]
link User to Start--><g id="link_User_Start"><path d="M35.19,44.5 C49.08,44.5 62.96,44.5 76.85,44.5 " fill="none" id="User-to-Start" style="stroke:#181818;stroke-width:1.0;"/><polygon fill="#181818" points="81.97,44.5,72.97,40.5,76.97,44.5,72.97,48.5,81.97,44.5" style="stroke:#181818;stroke-width:1.0;"/></g><!--MD5=[9b1e83a301d632e8d5a1d64f176fc1f5]
link User to Use--><g id="link_User_Use"><path d="M19.76,83.74 C20.77,113.51 25.75,154.93 43.5,186.5 C57.75,211.85 83.22,232.9 104.05,247.11 " fill="none" id="User-to-Use" style="stroke:#181818;stroke-width:1.0;"/><polygon fill="#181818" points="108.42,250.04,103.1701,241.707,104.2663,247.2566,98.7167,248.3528,108.42,250.04" style="stroke:#181818;stroke-width:1.0;"/></g><!--MD5=[eedd4bf29063d6184eb2b121c1f53f26]
link Admin to Use--><g id="link_Admin_Use"><path d="M263.42,83.56 C259.56,113.43 250.91,155.06 231.5,186.5 C216.12,211.42 190.47,232.63 169.84,247.01 " fill="none" id="Admin-to-Use" style="stroke:#181818;stroke-width:1.0;"/><polygon fill="#181818" points="165.53,249.97,175.2125,248.1674,169.6502,247.1374,170.6803,241.5751,165.53,249.97" style="stroke:#181818;stroke-width:1.0;"/></g><!--MD5=[18a852dfe38659cca840945dc1aef57a]
link Start to N2--><g id="link_Start_N2"><path d="M117.32,60.03 C121.37,80.92 128.87,119.54 133.5,143.38 " fill="none" id="Start-N2" style="stroke:#181818;stroke-width:1.0;stroke-dasharray:7.0,7.0;"/></g><!--MD5=[582b4f0da0cf139d0f490575cc867c3a]
link N2 to Use--><g id="link_N2_Use"><path d="M137.5,186.93 C137.5,205.19 137.5,231.41 137.5,248.81 " fill="none" id="N2-Use" style="stroke:#181818;stroke-width:1.0;stroke-dasharray:7.0,7.0;"/></g><!--MD5=[64f47ca22a2367572d8c7a006edca796]
@startuml
:Main Admin: as Admin
(Use the application) as (Use)

User -> (Start)
User - -> (Use)
Admin - - -> (Use)
note right of Admin : This is an example.
note right of (Use)
        A note can also
        be on several lines
end note
note "This note is connected\nto several objects." as N2
(Start) .. N2
(Use) .u. N2
@enduml

PlantUML version 1.2022.3beta3(Unknown compile time)
(GPL source distribution)
Java Runtime: OpenJDK Runtime Environment
JVM: OpenJDK 64-Bit Server VM
Default Encoding: UTF-8
Language: en
Country: US
--></g></svg>