<?xml version="1.0" encoding="UTF-8" standalone="no"?><svg xmlns="http://www.w3.org/2000/svg" xmlns:xlink="http://www.w3.org/1999/xlink" contentStyleType="text/css" height="159px" preserveAspectRatio="none" style="width:280px;height:159px;background:#FFFFFF;" version="1.1" viewBox="0 0 280 159" width="280px" zoomAndPan="magnify"><defs/><g><line style="stroke:#181818;stroke-width:0.5;stroke-dasharray:5.0,5.0;" x1="66" x2="66" y1="55.2188" y2="105.5703"/><line style="stroke:#181818;stroke-width:0.5;stroke-dasharray:5.0,5.0;" x1="205" x2="205" y1="55.2188" y2="105.5703"/><rect fill="#E2E2F0" height="49.2188" rx="2.5" ry="2.5" style="stroke:#181818;stroke-width:0.5;" width="122" x="5" y="5"/><text fill="#000000" font-family="sans-serif" font-size="14" font-style="italic" lengthAdjust="spacing" textLength="108" x="12" y="26.5332">&lt;&lt; Generated &gt;&gt;</text><text fill="#000000" font-family="sans-serif" font-size="14" lengthAdjust="spacing" textLength="80" x="26" y="44.1426">Famous Bob</text><rect fill="#E2E2F0" height="49.2188" rx="2.5" ry="2.5" style="stroke:#181818;stroke-width:0.5;" width="122" x="5" y="104.5703"/><text fill="#000000" font-family="sans-serif" font-size="14" font-style="italic" lengthAdjust="spacing" textLength="108" x="12" y="126.1035">&lt;&lt; Generated &gt;&gt;</text><text fill="#000000" font-family="sans-serif" font-size="14" lengthAdjust="spacing" textLength="80" x="26" y="143.7129">Famous Bob</text><rect fill="#E2E2F0" height="49.2188" rx="2.5" ry="2.5" style="stroke:#181818;stroke-width:0.5;" width="137" x="137" y="5"/><ellipse cx="155" cy="23" fill="#ADD1B2" rx="11" ry="11" style="stroke:#181818;stroke-width:1.0;"/><path d="M157.7656,18.875 Q157.9219,18.6563 158.1094,18.5469 Q158.2969,18.4375 158.5156,18.4375 Q158.8906,18.4375 159.125,18.7031 Q159.3594,18.9531 159.3594,19.5625 L159.3594,21.0156 Q159.3594,21.625 159.125,21.8906 Q158.8906,22.1563 158.5156,22.1563 Q158.1719,22.1563 157.9688,21.9531 Q157.7656,21.7656 157.6563,21.25 Q157.6094,20.8906 157.4219,20.7031 Q157.0938,20.3281 156.4844,20.1094 Q155.875,19.8906 155.25,19.8906 Q154.4844,19.8906 153.8438,20.2188 Q153.2188,20.5469 152.7188,21.2969 Q152.2344,22.0469 152.2344,23.0781 L152.2344,24.1719 Q152.2344,25.4063 153.125,26.2344 Q154.0156,27.0469 155.6094,27.0469 Q156.5469,27.0469 157.2031,26.7969 Q157.5938,26.6406 158.0156,26.2031 Q158.2813,25.9375 158.4219,25.8594 Q158.5781,25.7813 158.7813,25.7813 Q159.1094,25.7813 159.3594,26.0469 Q159.625,26.2969 159.625,26.6406 Q159.625,26.9844 159.2813,27.3906 Q158.7813,27.9688 157.9844,28.2969 Q156.9063,28.75 155.6094,28.75 Q154.0938,28.75 152.8906,28.125 Q151.9063,27.625 151.2188,26.5625 Q150.5313,25.4844 150.5313,24.2031 L150.5313,23.0469 Q150.5313,21.7188 151.1406,20.5781 Q151.7656,19.4219 152.8594,18.8125 Q153.9531,18.1875 155.1875,18.1875 Q155.9219,18.1875 156.5625,18.3594 Q157.2188,18.5156 157.7656,18.875 Z " fill="#000000"/><text fill="#000000" font-family="sans-serif" font-size="14" font-style="italic" lengthAdjust="spacing" textLength="95" x="172" y="26.5332">&lt;&lt; Testable &gt;&gt;</text><text fill="#000000" font-family="sans-serif" font-size="14" lengthAdjust="spacing" textLength="30" x="204.5" y="44.1426">Alice</text><rect fill="#E2E2F0" height="49.2188" rx="2.5" ry="2.5" style="stroke:#181818;stroke-width:0.5;" width="137" x="137" y="104.5703"/><ellipse cx="155" cy="122.5703" fill="#ADD1B2" rx="11" ry="11" style="stroke:#181818;stroke-width:1.0;"/><path d="M157.7656,118.4453 Q157.9219,118.2266 158.1094,118.1172 Q158.2969,118.0078 158.5156,118.0078 Q158.8906,118.0078 159.125,118.2734 Q159.3594,118.5234 159.3594,119.1328 L159.3594,120.5859 Q159.3594,121.1953 159.125,121.4609 Q158.8906,121.7266 158.5156,121.7266 Q158.1719,121.7266 157.9688,121.5234 Q157.7656,121.3359 157.6563,120.8203 Q157.6094,120.4609 157.4219,120.2734 Q157.0938,119.8984 156.4844,119.6797 Q155.875,119.4609 155.25,119.4609 Q154.4844,119.4609 153.8438,119.7891 Q153.2188,120.1172 152.7188,120.8672 Q152.2344,121.6172 152.2344,122.6484 L152.2344,123.7422 Q152.2344,124.9766 153.125,125.8047 Q154.0156,126.6172 155.6094,126.6172 Q156.5469,126.6172 157.2031,126.3672 Q157.5938,126.2109 158.0156,125.7734 Q158.2813,125.5078 158.4219,125.4297 Q158.5781,125.3516 158.7813,125.3516 Q159.1094,125.3516 159.3594,125.6172 Q159.625,125.8672 159.625,126.2109 Q159.625,126.5547 159.2813,126.9609 Q158.7813,127.5391 157.9844,127.8672 Q156.9063,128.3203 155.6094,128.3203 Q154.0938,128.3203 152.8906,127.6953 Q151.9063,127.1953 151.2188,126.1328 Q150.5313,125.0547 150.5313,123.7734 L150.5313,122.6172 Q150.5313,121.2891 151.1406,120.1484 Q151.7656,118.9922 152.8594,118.3828 Q153.9531,117.7578 155.1875,117.7578 Q155.9219,117.7578 156.5625,117.9297 Q157.2188,118.0859 157.7656,118.4453 Z " fill="#000000"/><text fill="#000000" font-family="sans-serif" font-size="14" font-style="italic" lengthAdjust="spacing" textLength="95" x="172" y="126.1035">&lt;&lt; Testable &gt;&gt;</text><text fill="#000000" font-family="sans-serif" font-size="14" lengthAdjust="spacing" textLength="30" x="204.5" y="143.7129">Alice</text><polygon fill="#181818" points="193.5,83.5703,203.5,87.5703,193.5,91.5703,197.5,87.5703" style="stroke:#181818;stroke-width:1.0;"/><line style="stroke:#181818;stroke-width:1.0;" x1="66" x2="199.5" y1="87.5703" y2="87.5703"/><text fill="#000000" font-family="sans-serif" font-size="13" lengthAdjust="spacing" textLength="83" x="73" y="82.7139">First message</text><!--MD5=[9a5ff2269a0fca35fcddc3d69ea7c2a1]
@startuml
skinparam guillemet false
participant "Famous Bob" as Bob << Generated >>
participant Alice << (C,#ADD1B2) Testable >>
Bob->Alice: First message

@enduml

PlantUML version 1.2022.3beta3(Unknown compile time)
(GPL source distribution)
Java Runtime: OpenJDK Runtime Environment
JVM: OpenJDK 64-Bit Server VM
Default Encoding: UTF-8
Language: en
Country: US
--></g></svg>