<?xml version="1.0" encoding="UTF-8" standalone="no"?><svg xmlns="http://www.w3.org/2000/svg" xmlns:xlink="http://www.w3.org/1999/xlink" contentStyleType="text/css" height="223px" preserveAspectRatio="none" style="width:146px;height:223px;background:#FFFFFF;" version="1.1" viewBox="0 0 146 223" width="146px" zoomAndPan="magnify"><defs/><g><rect height="27.6094" style="stroke:#00000000;stroke-width:1.0;fill:none;" width="103" x="17.75" y="23.5781"/><text fill="#000000" font-family="sans-serif" font-size="14" font-weight="bold" lengthAdjust="spacing" textLength="93" x="22.75" y="43.1113">Example Title</text><line style="stroke:#181818;stroke-width:0.5;stroke-dasharray:5.0,5.0;" x1="27" x2="27" y1="89.7969" y2="170.5"/><line style="stroke:#181818;stroke-width:0.5;stroke-dasharray:5.0,5.0;" x1="114.5" x2="114.5" y1="89.7969" y2="170.5"/><rect fill="#E2E2F0" height="31.6094" rx="2.5" ry="2.5" style="stroke:#181818;stroke-width:0.5;" width="44" x="5" y="57.1875"/><text fill="#000000" font-family="sans-serif" font-size="14" lengthAdjust="spacing" textLength="30" x="12" y="78.7207">Alice</text><rect fill="#E2E2F0" height="31.6094" rx="2.5" ry="2.5" style="stroke:#181818;stroke-width:0.5;" width="44" x="5" y="169.5"/><text fill="#000000" font-family="sans-serif" font-size="14" lengthAdjust="spacing" textLength="30" x="12" y="191.0332">Alice</text><rect fill="#E2E2F0" height="31.6094" rx="2.5" ry="2.5" style="stroke:#181818;stroke-width:0.5;" width="39" x="95.5" y="57.1875"/><text fill="#000000" font-family="sans-serif" font-size="14" lengthAdjust="spacing" textLength="25" x="102.5" y="78.7207">Bob</text><rect fill="#E2E2F0" height="31.6094" rx="2.5" ry="2.5" style="stroke:#181818;stroke-width:0.5;" width="39" x="95.5" y="169.5"/><text fill="#000000" font-family="sans-serif" font-size="14" lengthAdjust="spacing" textLength="25" x="102.5" y="191.0332">Bob</text><polygon fill="#181818" points="103,118.1484,113,122.1484,103,126.1484,107,122.1484" style="stroke:#181818;stroke-width:1.0;"/><line style="stroke:#181818;stroke-width:1.0;" x1="27" x2="109" y1="122.1484" y2="122.1484"/><text fill="#000000" font-family="sans-serif" font-size="13" lengthAdjust="spacing" textLength="64" x="34" y="117.292">message 1</text><polygon fill="#181818" points="103,148.5,113,152.5,103,156.5,107,152.5" style="stroke:#181818;stroke-width:1.0;"/><line style="stroke:#181818;stroke-width:1.0;" x1="27" x2="109" y1="152.5" y2="152.5"/><text fill="#000000" font-family="sans-serif" font-size="13" lengthAdjust="spacing" textLength="64" x="34" y="147.6436">message 2</text><rect height="12.5781" style="stroke:#00000000;stroke-width:1.0;fill:none;" width="62" x="76.5" y="5"/><text fill="#888888" font-family="sans-serif" font-size="10" lengthAdjust="spacing" textLength="62" x="76.5" y="15.3809">Page Header</text><rect height="12.5781" style="stroke:#00000000;stroke-width:1.0;fill:none;" width="55" x="41.75" y="203.1094"/><text fill="#888888" font-family="sans-serif" font-size="10" lengthAdjust="spacing" textLength="55" x="41.75" y="213.4902">Page 1 of 1</text><!--MD5=[c357bc62891a9d5a1194d3652b78fdb5]
@startuml

header Page Header
footer Page %page% of %lastpage%

title Example Title

Alice -> Bob : message 1
Alice -> Bob : message 2

@enduml

PlantUML version 1.2022.3beta3(Unknown compile time)
(GPL source distribution)
Java Runtime: OpenJDK Runtime Environment
JVM: OpenJDK 64-Bit Server VM
Default Encoding: UTF-8
Language: en
Country: US
--></g></svg>