<?xml version="1.0" encoding="UTF-8" standalone="no"?><svg xmlns="http://www.w3.org/2000/svg" xmlns:xlink="http://www.w3.org/1999/xlink" contentStyleType="text/css" height="374px" preserveAspectRatio="none" style="width:384px;height:374px;background:#EEEBDC;" version="1.1" viewBox="0 0 384 374" width="384px" zoomAndPan="magnify"><defs/><g><polygon fill="#A9DCDF" points="93.5,118.7344,93.5,118.8044,95.5,118.5963,97.5,118.7988,99.5,118.8676,101.5,118.4966,103.5,118.7344,103.4223,118.7344,103.0735,128.8516,103.1165,138.9688,103.4318,149.0859,102.8086,159.2031,104.0536,169.3203,102.8697,179.4375,103.3022,189.5547,103.9319,199.6719,103.4142,209.7891,103.5682,219.9063,103.4681,230.0234,103.6785,240.1406,103.7391,250.2578,104.0857,260.375,103.5,270.4922,103.5,270.7159,101.5,270.7186,99.5,270.5771,97.5,270.6467,95.5,270.7263,93.5,270.4922,92.7788,270.4922,94.1785,260.375,93.2035,250.2578,94.0338,240.1406,93.005,230.0234,93.4315,219.9063,94.2416,209.7891,93.4513,199.6719,93.6053,189.5547,93.8386,179.4375,93.9162,169.3203,93.4961,159.2031,93.7872,149.0859,92.9276,138.9688,93.7844,128.8516,93.5,118.7344" style="stroke:#0000FF;stroke-width:1.0;"/><polygon fill="#A9DCDF" points="224.5,149.0859,224.5,149.156,226.5,148.9478,228.5,149.1504,230.5,149.2192,232.5,148.8481,234.5,149.0859,234.4223,149.0859,234.0735,159.2031,234.1165,169.3203,234.4318,179.4375,233.8086,189.5547,235.0536,199.6719,233.8697,209.7891,234.3022,219.9063,234.9319,230.0234,234.5,240.1406,234.5,240.112,232.5,240.1634,230.5,240.13,228.5,240.2001,226.5,240.2203,224.5,240.1406,225.0857,240.1406,225.1711,230.0234,225.1793,219.9063,224.7546,209.7891,224.9636,199.6719,225.2022,189.5547,223.7788,179.4375,225.1785,169.3203,224.2035,159.2031,224.5,149.0859" style="stroke:#0000FF;stroke-width:1.0;"/><polygon fill="#A9DCDF" points="331,179.4375,331,179.5076,333,179.2994,335,179.5019,337,179.5707,339,179.1997,341,179.4375,340.9741,179.4375,340.8578,185.5078,340.8722,191.5781,340.9773,197.6484,340.7695,203.7188,341,209.7891,341,209.9736,339,209.579,337,209.7231,335,209.933,333,209.7605,331,209.7891,331.0227,209.7891,330.9894,203.7188,331.0595,197.6484,331.0797,191.5781,331.1952,185.5078,331,179.4375" style="stroke:#0000FF;stroke-width:1.0;"/><path d="M25,86.3828 L25.2802,86.3828 L24.4476,96.4883 L25.2577,106.5938 L25.5329,116.6992 L24.0488,126.8047 L24.8964,136.9102 L24.4313,147.0156 L24.4887,157.1211 L24.9091,167.2266 L24.0782,177.332 L25.7382,187.4375 L24.1596,197.543 L24.7363,207.6484 L25.5759,217.7539 L24.8856,227.8594 L25.091,237.9648 L24.9574,248.0703 L25.238,258.1758 L25.3188,268.2813 L25.7809,278.3867 L25,288.4922 " fill="none" style="stroke:#0000FF;stroke-width:0.5;stroke-dasharray:5.0,5.0;"/><path d="M98,86.3828 L98.2802,86.3828 L97.4476,96.4883 L98.2577,106.5938 L98.5329,116.6992 L97.0488,126.8047 L97.8964,136.9102 L97.4313,147.0156 L97.4887,157.1211 L97.9091,167.2266 L97.0782,177.332 L98.7382,187.4375 L97.1596,197.543 L97.7363,207.6484 L98.5759,217.7539 L97.8856,227.8594 L98.091,237.9648 L97.9574,248.0703 L98.238,258.1758 L98.3188,268.2813 L98.7809,278.3867 L98,288.4922 " fill="none" style="stroke:#0000FF;stroke-width:0.5;stroke-dasharray:5.0,5.0;"/><path d="M229,86.3828 L229.2802,86.3828 L228.4476,96.4883 L229.2577,106.5938 L229.5329,116.6992 L228.0488,126.8047 L228.8964,136.9102 L228.4313,147.0156 L228.4887,157.1211 L228.9091,167.2266 L228.0782,177.332 L229.7382,187.4375 L228.1596,197.543 L228.7363,207.6484 L229.5759,217.7539 L228.8856,227.8594 L229.091,237.9648 L228.9574,248.0703 L229.238,258.1758 L229.3188,268.2813 L229.7809,278.3867 L229,288.4922 " fill="none" style="stroke:#0000FF;stroke-width:0.5;stroke-dasharray:5.0,5.0;"/><path d="M336,86.3828 L336.2802,86.3828 L335.4476,96.4883 L336.2577,106.5938 L336.5329,116.6992 L335.0488,126.8047 L335.8964,136.9102 L335.4313,147.0156 L335.4887,157.1211 L335.9091,167.2266 L335.0782,177.332 L336.7382,187.4375 L335.1596,197.543 L335.7363,207.6484 L336.5759,217.7539 L335.8856,227.8594 L336.091,237.9648 L335.9574,248.0703 L336.238,258.1758 L336.3188,268.2813 L336.7809,278.3867 L336,288.4922 " fill="none" style="stroke:#0000FF;stroke-width:0.5;stroke-dasharray:5.0,5.0;"/><text fill="#00BFFF" font-family="Aapex" font-size="17" lengthAdjust="spacing" textLength="34" x="5" y="82.6475">User</text><polygon fill="#00FFFF" points="33.0442,15.4459,31.8715,17.0482,30.4845,19.3951,28.5008,20.9767,26.4163,21.8415,24.7542,21.9166,22.618,20.8349,20.6023,20.1283,19.0724,18.6936,18.2699,17.0511,17.7939,15.7433,17.3277,14.0351,16.5709,12.5651,17.1525,11.1298,17.662,9.5576,19.574,8.3142,20.9192,6.7008,22.5843,6.165,24.5637,5.7037,27.1021,5.9778,28.4924,6.6335,30.1089,6.9307,32.0743,8.9443,32.7595,11.0701,33.0571,12.5206,32.72,14.9108" style="stroke:#00BFFF;stroke-width:0.5;"/><path d="M25,21.5 L25.1868,21.5 L24.6317,26.9 L25.1718,32.3 L25.3553,37.7 L24.3659,43.1 L25,48.5 M12,29.5 L12,29.4309 L17.2,29.1209 L22.4,29.1591 L27.6,29.4394 L32.8,28.8854 L38,29.5 M25,48.5 L25.3719,48.8223 L21.9766,51.1331 L19.6672,54.3849 L17.4901,57.7515 L14.5424,60.4501 L12,63.5 M25,48.5 L25.0458,48.5397 L27.5785,51.4814 L30.3199,54.6039 L32.9606,57.6392 L35.7934,60.841 L38,63.5 " fill="none" style="stroke:#00BFFF;stroke-width:0.5;"/><text fill="#00BFFF" font-family="Aapex" font-size="17" lengthAdjust="spacing" textLength="34" x="5" y="305.1396">User</text><polygon fill="#00FFFF" points="33.0442,319.3209,31.8715,320.9232,30.4845,323.2701,28.5008,324.8517,26.4163,325.7165,24.7542,325.7916,22.618,324.7099,20.6023,324.0033,19.0724,322.5686,18.2699,320.9261,17.7939,319.6183,17.3277,317.9101,16.5709,316.4401,17.1525,315.0048,17.662,313.4326,19.574,312.1892,20.9192,310.5758,22.5843,310.04,24.5637,309.5787,27.1021,309.8528,28.4924,310.5085,30.1089,310.8057,32.0743,312.8193,32.7595,314.9451,33.0571,316.3956,32.72,318.7858" style="stroke:#00BFFF;stroke-width:0.5;"/><path d="M25,325.375 L25.1868,325.375 L24.6317,330.775 L25.1718,336.175 L25.3553,341.575 L24.3659,346.975 L25,352.375 M12,333.375 L12,333.3059 L17.2,332.9959 L22.4,333.0341 L27.6,333.3144 L32.8,332.7604 L38,333.375 M25,352.375 L25.3719,352.6973 L21.9766,355.0081 L19.6672,358.2599 L17.4901,361.6265 L14.5424,364.3251 L12,367.375 M25,352.375 L25.0458,352.4147 L27.5785,355.3564 L30.3199,358.4789 L32.9606,361.5142 L35.7934,364.716 L38,367.375 " fill="none" style="stroke:#00BFFF;stroke-width:0.5;"/><polygon fill="#1E90FF" points="57.5,50.6475,57.5,50.8576,67.75,50.2331,78,50.8407,88.25,51.0471,98.5,49.9341,108.75,50.5697,119,50.221,129.25,50.264,139.5,50.6475,139.4913,50.6265,139.7654,50.581,140.2777,51.1109,140.4803,50.8927,140.889,51.1723,141.2678,51.3797,141.4008,51.4348,141.3878,51.7223,141.5817,52.0955,141.6973,52.4363,141.9085,52.8167,142,53.1475,142.0797,53.1475,142.1952,59.0945,142.2237,65.0416,142.2264,70.9887,142.0849,76.9357,142,82.8828,142.1428,82.9419,142.0698,83.3259,141.485,83.4979,141.7696,84.03,141.3229,84.2592,141.2678,84.6506,141.3359,84.815,140.8511,84.6446,140.5519,84.9224,140.3017,85.3183,139.8473,85.2214,139.5,85.3828,139.5,85.4881,129.25,85.7214,119,85.799,108.75,85.3789,98.5,85.67,88.25,84.8104,78,85.6672,67.75,85.931,57.5,85.3828,57.5567,85.5197,57.2246,85.4252,56.7313,84.9412,56.3561,84.7426,56.0065,84.6057,55.7322,84.6506,55.7141,84.6431,55.5253,84.272,55.6492,84.0304,55.2391,83.5676,55.0408,83.1926,55,82.8828,55.0761,82.8828,54.7777,76.9357,54.827,70.9887,55.2163,65.0416,55.1452,59.0945,55,53.1475,55.2262,53.2412,55.0473,52.7529,55.3912,52.4811,55.6212,52.1621,55.4403,51.673,55.7322,51.3797,55.72,51.3502,56.1019,51.272,56.5225,51.2875,56.7924,50.9391,57.2055,50.9364,57.5,50.6475" style="stroke:#00BFFF;stroke-width:0.5;"/><text fill="#A9DCDF" font-family="Impact" font-size="17" lengthAdjust="spacing" textLength="73" x="62" y="74.7969">First Class</text><polygon fill="#1E90FF" points="57.5,287.4922,57.5,287.7024,67.75,287.0779,78,287.6855,88.25,287.8919,98.5,286.7788,108.75,287.4145,119,287.0657,129.25,287.1087,139.5,287.4922,139.4913,287.4712,139.7654,287.4257,140.2777,287.9556,140.4803,287.7374,140.889,288.0171,141.2678,288.2244,141.4008,288.2795,141.3878,288.567,141.5817,288.9402,141.6973,289.281,141.9085,289.6614,142,289.9922,142.0797,289.9922,142.1952,295.9393,142.2237,301.8863,142.2264,307.8334,142.0849,313.7805,142,319.7275,142.1428,319.7867,142.0698,320.1707,141.485,320.3427,141.7696,320.8748,141.3229,321.1039,141.2678,321.4953,141.3359,321.6597,140.8511,321.4893,140.5519,321.7671,140.3017,322.163,139.8473,322.0661,139.5,322.2275,139.5,322.3328,129.25,322.5662,119,322.6438,108.75,322.2236,98.5,322.5148,88.25,321.6551,78,322.5119,67.75,322.7757,57.5,322.2275,57.5567,322.3644,57.2246,322.2699,56.7313,321.7859,56.3561,321.5874,56.0065,321.4504,55.7322,321.4953,55.7141,321.4878,55.5253,321.1167,55.6492,320.8751,55.2391,320.4124,55.0408,320.0373,55,319.7275,55.0761,319.7275,54.7777,313.7805,54.827,307.8334,55.2163,301.8863,55.1452,295.9393,55,289.9922,55.2262,290.0859,55.0473,289.5976,55.3912,289.3258,55.6212,289.0068,55.4403,288.5177,55.7322,288.2244,55.72,288.1949,56.1019,288.1168,56.5225,288.1322,56.7924,287.7838,57.2055,287.7811,57.5,287.4922" style="stroke:#00BFFF;stroke-width:0.5;"/><text fill="#A9DCDF" font-family="Impact" font-size="17" lengthAdjust="spacing" textLength="73" x="62" y="311.6416">First Class</text><polygon fill="#1E90FF" points="177.5,50.6475,177.5,50.8576,187.9,50.2331,198.3,50.8407,208.7,51.0471,219.1,49.9341,229.5,50.5697,239.9,50.221,250.3,50.264,260.7,50.5793,271.1,49.9561,281.5,50.6475,281.5706,50.818,281.7732,50.5998,282.1819,50.8794,282.6158,51.2198,282.9033,51.2068,283.2678,51.3797,283.2888,51.3884,283.4044,51.7292,283.6156,52.1096,283.7808,52.4709,284.0339,52.8686,284,53.1475,284.2237,53.1475,284.2264,59.0945,284.0849,65.0416,284.1545,70.9887,284.2341,76.9357,284,82.8828,283.7779,82.7908,284.0625,83.3229,283.6158,83.5521,283.7251,84.0116,283.2618,84.2339,283.2678,84.6506,283.259,84.6295,283.0088,85.0254,282.5544,84.9285,282.2205,85.1223,281.8967,85.3406,281.5,85.3828,281.5,85.799,271.1,85.3789,260.7,85.67,250.3,84.8104,239.9,85.6672,229.5,85.931,219.1,85.8273,208.7,85.9958,198.3,84.8997,187.9,84.7306,177.5,85.3828,177.4207,85.1914,177.1389,85.2182,176.7678,85.0294,176.5263,85.1533,176.0635,84.7432,175.7322,84.6506,175.6266,84.6068,175.6561,84.3261,175.234,83.8584,175.133,83.5237,175.3463,83.3191,175,82.8828,175.1452,82.8828,175.2448,76.9357,174.8927,70.9887,175.1064,65.0416,175.1968,59.0945,175,53.1475,174.8545,53.0872,175.1169,52.7817,175.3317,52.4564,175.6401,52.1699,175.5845,51.7327,175.7322,51.3797,175.7912,51.5221,176.0151,51.0627,176.3529,50.8782,176.8571,51.0954,177.055,50.5731,177.5,50.6475" style="stroke:#00BFFF;stroke-width:0.5;"/><text fill="#A9DCDF" font-family="Impact" font-size="17" lengthAdjust="spacing" textLength="95" x="182" y="74.7969">Second Class</text><polygon fill="#1E90FF" points="177.5,287.4922,177.5,287.7024,187.9,287.0779,198.3,287.6855,208.7,287.8919,219.1,286.7788,229.5,287.4145,239.9,287.0657,250.3,287.1087,260.7,287.424,271.1,286.8008,281.5,287.4922,281.5706,287.6627,281.7732,287.4445,282.1819,287.7242,282.6158,288.0645,282.9033,288.0516,283.2678,288.2244,283.2888,288.2331,283.4044,288.5739,283.6156,288.9543,283.7808,289.3156,284.0339,289.7133,284,289.9922,284.2237,289.9922,284.2264,295.9393,284.0849,301.8863,284.1545,307.8334,284.2341,313.7805,284,319.7275,283.7779,319.6355,284.0625,320.1676,283.6158,320.3968,283.7251,320.8563,283.2618,321.0786,283.2678,321.4953,283.259,321.4742,283.0088,321.8701,282.5544,321.7732,282.2205,321.9671,281.8967,322.1854,281.5,322.2275,281.5,322.6438,271.1,322.2236,260.7,322.5148,250.3,321.6551,239.9,322.5119,229.5,322.7757,219.1,322.6721,208.7,322.8406,198.3,321.7445,187.9,321.5754,177.5,322.2275,177.4207,322.0362,177.1389,322.063,176.7678,321.8741,176.5263,321.998,176.0635,321.588,175.7322,321.4953,175.6266,321.4515,175.6561,321.1709,175.234,320.7031,175.133,320.3684,175.3463,320.1639,175,319.7275,175.1452,319.7275,175.2448,313.7805,174.8927,307.8334,175.1064,301.8863,175.1968,295.9393,175,289.9922,174.8545,289.9319,175.1169,289.6264,175.3317,289.3012,175.6401,289.0147,175.5845,288.5774,175.7322,288.2244,175.7912,288.3669,176.0151,287.9074,176.3529,287.723,176.8571,287.9402,177.055,287.4178,177.5,287.4922" style="stroke:#00BFFF;stroke-width:0.5;"/><text fill="#A9DCDF" font-family="Impact" font-size="17" lengthAdjust="spacing" textLength="95" x="182" y="311.6416">Second Class</text><polygon fill="#1E90FF" points="296.5,50.6475,296.5,50.8576,306.375,50.2331,316.25,50.8407,326.125,51.0471,336,49.9341,345.875,50.5697,355.75,50.221,365.625,50.264,375.5,50.6475,375.4913,50.6265,375.7654,50.581,376.2777,51.1109,376.4803,50.8927,376.889,51.1723,377.2678,51.3797,377.4008,51.4348,377.3878,51.7223,377.5817,52.0955,377.6973,52.4363,377.9085,52.8167,378,53.1475,378.0797,53.1475,378.1952,59.0945,378.2237,65.0416,378.2264,70.9887,378.0849,76.9357,378,82.8828,378.1428,82.9419,378.0698,83.3259,377.485,83.4979,377.7696,84.03,377.3229,84.2592,377.2678,84.6506,377.3359,84.815,376.8511,84.6446,376.5519,84.9224,376.3017,85.3183,375.8473,85.2214,375.5,85.3828,375.5,85.4881,365.625,85.7214,355.75,85.799,345.875,85.3789,336,85.67,326.125,84.8104,316.25,85.6672,306.375,85.931,296.5,85.3828,296.5567,85.5197,296.2246,85.4252,295.7313,84.9412,295.3561,84.7426,295.0065,84.6057,294.7322,84.6506,294.7141,84.6431,294.5253,84.272,294.6492,84.0304,294.2391,83.5676,294.0408,83.1926,294,82.8828,294.0761,82.8828,293.7777,76.9357,293.827,70.9887,294.2163,65.0416,294.1452,59.0945,294,53.1475,294.2262,53.2412,294.0473,52.7529,294.3912,52.4811,294.6212,52.1621,294.4403,51.673,294.7322,51.3797,294.72,51.3502,295.1019,51.272,295.5225,51.2875,295.7924,50.9391,296.2055,50.9364,296.5,50.6475" style="stroke:#00BFFF;stroke-width:0.5;"/><text fill="#A9DCDF" font-family="Impact" font-size="17" lengthAdjust="spacing" textLength="70" x="301" y="74.7969">Last Class</text><polygon fill="#1E90FF" points="296.5,287.4922,296.5,287.7024,306.375,287.0779,316.25,287.6855,326.125,287.8919,336,286.7788,345.875,287.4145,355.75,287.0657,365.625,287.1087,375.5,287.4922,375.4913,287.4712,375.7654,287.4257,376.2777,287.9556,376.4803,287.7374,376.889,288.0171,377.2678,288.2244,377.4008,288.2795,377.3878,288.567,377.5817,288.9402,377.6973,289.281,377.9085,289.6614,378,289.9922,378.0797,289.9922,378.1952,295.9393,378.2237,301.8863,378.2264,307.8334,378.0849,313.7805,378,319.7275,378.1428,319.7867,378.0698,320.1707,377.485,320.3427,377.7696,320.8748,377.3229,321.1039,377.2678,321.4953,377.3359,321.6597,376.8511,321.4893,376.5519,321.7671,376.3017,322.163,375.8473,322.0661,375.5,322.2275,375.5,322.3328,365.625,322.5662,355.75,322.6438,345.875,322.2236,336,322.5148,326.125,321.6551,316.25,322.5119,306.375,322.7757,296.5,322.2275,296.5567,322.3644,296.2246,322.2699,295.7313,321.7859,295.3561,321.5874,295.0065,321.4504,294.7322,321.4953,294.7141,321.4878,294.5253,321.1167,294.6492,320.8751,294.2391,320.4124,294.0408,320.0373,294,319.7275,294.0761,319.7275,293.7777,313.7805,293.827,307.8334,294.2163,301.8863,294.1452,295.9393,294,289.9922,294.2262,290.0859,294.0473,289.5976,294.3912,289.3258,294.6212,289.0068,294.4403,288.5177,294.7322,288.2244,294.72,288.1949,295.1019,288.1168,295.5225,288.1322,295.7924,287.7838,296.2055,287.7811,296.5,287.4922" style="stroke:#00BFFF;stroke-width:0.5;"/><text fill="#A9DCDF" font-family="Impact" font-size="17" lengthAdjust="spacing" textLength="70" x="301" y="311.6416">Last Class</text><polygon fill="#A9DCDF" points="93.5,118.7344,93.5,118.8044,95.5,118.5963,97.5,118.7988,99.5,118.8676,101.5,118.4966,103.5,118.7344,103.4223,118.7344,103.0735,128.8516,103.1165,138.9688,103.4318,149.0859,102.8086,159.2031,104.0536,169.3203,102.8697,179.4375,103.3022,189.5547,103.9319,199.6719,103.4142,209.7891,103.5682,219.9063,103.4681,230.0234,103.6785,240.1406,103.7391,250.2578,104.0857,260.375,103.5,270.4922,103.5,270.7159,101.5,270.7186,99.5,270.5771,97.5,270.6467,95.5,270.7263,93.5,270.4922,92.7788,270.4922,94.1785,260.375,93.2035,250.2578,94.0338,240.1406,93.005,230.0234,93.4315,219.9063,94.2416,209.7891,93.4513,199.6719,93.6053,189.5547,93.8386,179.4375,93.9162,169.3203,93.4961,159.2031,93.7872,149.0859,92.9276,138.9688,93.7844,128.8516,93.5,118.7344" style="stroke:#0000FF;stroke-width:1.0;"/><polygon fill="#A9DCDF" points="224.5,149.0859,224.5,149.156,226.5,148.9478,228.5,149.1504,230.5,149.2192,232.5,148.8481,234.5,149.0859,234.4223,149.0859,234.0735,159.2031,234.1165,169.3203,234.4318,179.4375,233.8086,189.5547,235.0536,199.6719,233.8697,209.7891,234.3022,219.9063,234.9319,230.0234,234.5,240.1406,234.5,240.112,232.5,240.1634,230.5,240.13,228.5,240.2001,226.5,240.2203,224.5,240.1406,225.0857,240.1406,225.1711,230.0234,225.1793,219.9063,224.7546,209.7891,224.9636,199.6719,225.2022,189.5547,223.7788,179.4375,225.1785,169.3203,224.2035,159.2031,224.5,149.0859" style="stroke:#0000FF;stroke-width:1.0;"/><polygon fill="#A9DCDF" points="331,179.4375,331,179.5076,333,179.2994,335,179.5019,337,179.5707,339,179.1997,341,179.4375,340.9741,179.4375,340.8578,185.5078,340.8722,191.5781,340.9773,197.6484,340.7695,203.7188,341,209.7891,341,209.9736,339,209.579,337,209.7231,335,209.933,333,209.7605,331,209.7891,331.0227,209.7891,330.9894,203.7188,331.0595,197.6484,331.0797,191.5781,331.1952,185.5078,331,179.4375" style="stroke:#0000FF;stroke-width:1.0;"/><polygon fill="#00BFFF" points="81.5,114.7344,81.526,114.7994,83.4487,115.4061,85.5239,116.3942,87.5495,117.2581,89.4117,117.7136,91.5,118.7344,91.4904,118.7103,89.4472,119.4024,87.4525,120.2157,85.4916,121.1133,83.4144,121.7204,81.5,122.7344,81.6305,122.8649,82.1514,121.7858,83.0534,121.0878,84.0018,120.4362,84.6798,119.5142,85.5,118.7344,85.5161,118.7505,84.6925,117.9268,83.9421,117.1765,83.1564,116.3907,82.438,115.6724,81.5,114.7344" style="stroke:#00BFFF;stroke-width:1.0;"/><path d="M25,118.7344 L25,119.0146 L35.4167,118.1819 L45.8333,118.9921 L56.25,119.2673 L66.6667,117.7832 L77.0833,118.6308 L87.5,118.7344 " fill="none" style="stroke:#00BFFF;stroke-width:1.0;"/><text fill="#000000" font-family="sans-serif" font-size="13" lengthAdjust="spacing" textLength="47" x="32" y="113.8779">DoWork</text><polygon fill="#00BFFF" points="212.5,145.0859,212.526,145.151,214.4487,145.7577,216.5239,146.7458,218.5495,147.6096,220.4117,148.0651,222.5,149.0859,222.4904,149.0619,220.4472,149.7539,218.4525,150.5672,216.4916,151.4648,214.4144,152.072,212.5,153.0859,212.6305,153.2164,213.1514,152.1374,214.0534,151.4393,215.0018,150.7877,215.6798,149.8657,216.5,149.0859,216.5161,149.102,215.6925,148.2784,214.9421,147.528,214.1564,146.7423,213.438,146.024,212.5,145.0859" style="stroke:#00BFFF;stroke-width:1.0;"/><path d="M103.5,149.0859 L103.5,149.3662 L113.0833,148.5335 L122.6667,149.3437 L132.25,149.6188 L141.8333,148.1347 L151.4167,148.9823 L161,148.5173 L170.5833,148.5746 L180.1667,148.9951 L189.75,148.1641 L199.3333,149.8241 L208.9167,148.2456 L218.5,149.0859 " fill="none" style="stroke:#00BFFF;stroke-width:1.0;"/><text fill="#000000" font-family="sans-serif" font-size="13" lengthAdjust="spacing" textLength="90" x="110.5" y="144.2295">Create Request</text><polygon fill="#00BFFF" points="319,175.4375,319.026,175.5025,320.9487,176.1093,323.0239,177.0973,325.0495,177.9612,326.9117,178.4167,329,179.4375,328.9904,179.4134,326.9472,180.1055,324.9525,180.9188,322.9916,181.8164,320.9144,182.4235,319,183.4375,319.1305,183.568,319.6514,182.4889,320.5534,181.7909,321.5018,181.1393,322.1798,180.2173,323,179.4375,323.0161,179.4536,322.1925,178.63,321.4421,177.8796,320.6564,177.0939,319.938,176.3755,319,175.4375" style="stroke:#00BFFF;stroke-width:1.0;"/><path d="M234.5,179.4375 L234.5,179.7177 L244.5556,178.8851 L254.6111,179.6952 L264.6667,179.9704 L274.7222,178.4863 L284.7778,179.3339 L294.8333,178.8688 L304.8889,178.9262 L314.9444,179.3466 L325,179.4375 " fill="none" style="stroke:#00BFFF;stroke-width:1.0;"/><text fill="#000000" font-family="sans-serif" font-size="13" lengthAdjust="spacing" textLength="47" x="241.5" y="174.5811">DoWork</text><polygon fill="#00BFFF" points="245.5,205.7891,245.526,205.8541,243.4487,206.4608,241.5239,207.4489,239.5495,208.3128,237.4117,208.7683,235.5,209.7891,235.4904,209.765,237.4472,210.4571,239.4525,211.2704,241.4916,212.168,243.4144,212.7751,245.5,213.7891,245.6305,213.9196,244.5514,212.8405,243.8534,212.1424,243.2018,211.4909,242.2798,210.5688,241.5,209.7891,241.5161,209.8051,242.2925,208.9815,243.1421,208.2311,243.9564,207.4454,244.838,206.7271,245.5,205.7891" style="stroke:#00BFFF;stroke-width:1.0;"/><path d="M239.5,209.7891 L239.5,210.0693 L249.05,209.2366 L258.6,210.0468 L268.15,210.322 L277.7,208.8379 L287.25,209.6854 L296.8,209.2204 L306.35,209.2777 L315.9,209.6982 L325.45,208.8672 L335,209.7891 " fill="none" style="stroke:#00BFFF;stroke-width:1.0;stroke-dasharray:2.0,2.0;"/><text fill="#000000" font-family="sans-serif" font-size="13" lengthAdjust="spacing" textLength="61" x="251.5" y="204.9326">WorkDone</text><path d="M327,200.7891 L327.0661,200.8551 L330.4698,204.2589 L334.2607,208.0498 L337.9256,211.7147 L341.1758,214.9649 L345,218.7891 " fill="none" style="stroke:#0000FF;stroke-width:2.0;"/><path d="M327,218.7891 L327.0661,218.8551 L330.4698,215.0589 L334.2607,211.6498 L337.9256,208.1147 L341.1758,204.1649 L345,200.7891 " fill="none" style="stroke:#0000FF;stroke-width:2.0;"/><polygon fill="#00BFFF" points="114.5,236.1406,114.526,236.2057,112.4487,236.8124,110.5239,237.8004,108.5495,238.6643,106.4117,239.1198,104.5,240.1406,104.4904,240.1166,106.4472,240.8086,108.4525,241.6219,110.4916,242.5195,112.4144,243.1267,114.5,244.1406,114.6305,244.2711,113.5514,243.1921,112.8534,242.494,112.2018,241.8424,111.2798,240.9204,110.5,240.1406,110.5161,240.1567,111.2925,239.3331,112.1421,238.5827,112.9564,237.797,113.838,237.0787,114.5,236.1406" style="stroke:#00BFFF;stroke-width:1.0;"/><path d="M108.5,240.1406 L108.5,240.4209 L118.5,239.5882 L128.5,240.3983 L138.5,240.6735 L148.5,239.1894 L158.5,240.037 L168.5,239.572 L178.5,239.6293 L188.5,240.0497 L198.5,239.2188 L208.5,240.8788 L218.5,239.3003 L228.5,240.1406 " fill="none" style="stroke:#00BFFF;stroke-width:1.0;stroke-dasharray:2.0,2.0;"/><text fill="#000000" font-family="sans-serif" font-size="13" lengthAdjust="spacing" textLength="97" x="120.5" y="235.2842">Request Created</text><polygon fill="#00BFFF" points="36,266.4922,36.026,266.5572,33.9487,267.164,32.0239,268.152,30.0495,269.0159,27.9117,269.4714,26,270.4922,25.9904,270.4681,27.9472,271.1602,29.9525,271.9735,31.9916,272.8711,33.9144,273.4782,36,274.4922,36.1305,274.6227,35.0514,273.5436,34.3534,272.8456,33.7018,272.194,32.7798,271.272,32,270.4922,32.0161,270.5083,32.7925,269.6847,33.6421,268.9343,34.4564,268.1486,35.338,267.4302,36,266.4922" style="stroke:#00BFFF;stroke-width:1.0;"/><path d="M30,270.4922 L30,270.7724 L39.6429,269.9398 L49.2857,270.7499 L58.9286,271.0251 L68.5714,269.541 L78.2143,270.3886 L87.8571,269.9235 L97.5,270.4922 " fill="none" style="stroke:#00BFFF;stroke-width:1.0;stroke-dasharray:2.0,2.0;"/><text fill="#000000" font-family="sans-serif" font-size="13" lengthAdjust="spacing" textLength="30" x="42" y="265.6357">Done</text><!--MD5=[e31119fec4f8de608bbd9c89404ee7bb]
@startuml
skinparam backgroundColor #EEEBDC
skinparam handwritten true
skinparam sequence {
ArrowColor DeepSkyBlue
ActorBorderColor DeepSkyBlue
LifeLineBorderColor blue
LifeLineBackgroundColor #A9DCDF
ParticipantBorderColor DeepSkyBlue
ParticipantBackgroundColor DodgerBlue
ParticipantFontName Impact
ParticipantFontSize 17
ParticipantFontColor #A9DCDF
ActorBackgroundColor aqua
ActorFontColor DeepSkyBlue
ActorFontSize 17
ActorFontName Aapex
}
actor User
participant "First Class" as A
participant "Second Class" as B
participant "Last Class" as C
User -> A: DoWork
activate A
A -> B: Create Request
activate B
B -> C: DoWork
activate C
C - -> B: WorkDone
destroy C
B - -> A: Request Created
deactivate B
A - -> User: Done
deactivate A
@enduml

PlantUML version 1.2022.3beta3(Unknown compile time)
(GPL source distribution)
Java Runtime: OpenJDK Runtime Environment
JVM: OpenJDK 64-Bit Server VM
Default Encoding: UTF-8
Language: en
Country: US
--></g></svg>