<?xml version="1.0" encoding="UTF-8" standalone="no"?><svg xmlns="http://www.w3.org/2000/svg" xmlns:xlink="http://www.w3.org/1999/xlink" contentStyleType="text/css" height="374px" preserveAspectRatio="none" style="width:171px;height:374px;background:#FFFFFF;" version="1.1" viewBox="0 0 171 374" width="171px" zoomAndPan="magnify"><defs/><g><line style="stroke:#181818;stroke-width:0.5;stroke-dasharray:5.0,5.0;" x1="46" x2="46" y1="37.6094" y2="337.4766"/><line style="stroke:#181818;stroke-width:0.5;stroke-dasharray:5.0,5.0;" x1="117" x2="117" y1="37.6094" y2="337.4766"/><rect fill="#E2E2F0" height="31.6094" rx="2.5" ry="2.5" style="stroke:#181818;stroke-width:0.5;" width="48" x="22" y="5"/><text fill="#000000" font-family="sans-serif" font-size="14" lengthAdjust="spacing" textLength="34" x="29" y="26.5332">caller</text><rect fill="#E2E2F0" height="31.6094" rx="2.5" ry="2.5" style="stroke:#181818;stroke-width:0.5;" width="48" x="22" y="336.4766"/><text fill="#000000" font-family="sans-serif" font-size="14" lengthAdjust="spacing" textLength="34" x="29" y="358.0098">caller</text><rect fill="#E2E2F0" height="31.6094" rx="2.5" ry="2.5" style="stroke:#181818;stroke-width:0.5;" width="54" x="90" y="5"/><text fill="#000000" font-family="sans-serif" font-size="14" lengthAdjust="spacing" textLength="40" x="97" y="26.5332">server</text><rect fill="#E2E2F0" height="31.6094" rx="2.5" ry="2.5" style="stroke:#181818;stroke-width:0.5;" width="54" x="90" y="336.4766"/><text fill="#000000" font-family="sans-serif" font-size="14" lengthAdjust="spacing" textLength="40" x="97" y="358.0098">server</text><polygon fill="#181818" points="105,65.9609,115,69.9609,105,73.9609,109,69.9609" style="stroke:#181818;stroke-width:1.0;"/><line style="stroke:#181818;stroke-width:1.0;" x1="46" x2="111" y1="69.9609" y2="69.9609"/><text fill="#000000" font-family="sans-serif" font-size="13" lengthAdjust="spacing" textLength="44" x="53" y="65.1045">conReq</text><polygon fill="#FEFFDD" points="34,82.9609,58,82.9609,68,94.9609,58,106.9609,34,106.9609,24,94.9609,34,82.9609" style="stroke:#181818;stroke-width:0.5;"/><text fill="#000000" font-family="sans-serif" font-size="13" lengthAdjust="spacing" textLength="20" x="36" y="100.4561">idle</text><polygon fill="#181818" points="57,130.6641,47,134.6641,57,138.6641,53,134.6641" style="stroke:#181818;stroke-width:1.0;"/><line style="stroke:#181818;stroke-width:1.0;" x1="51" x2="116" y1="134.6641" y2="134.6641"/><text fill="#000000" font-family="sans-serif" font-size="13" lengthAdjust="spacing" textLength="47" x="63" y="129.8076">conConf</text><rect fill="#FEFFDD" height="40" style="stroke:#181818;stroke-width:0.5;" width="97" x="68" y="147.6641"/><text fill="#000000" font-family="sans-serif" font-size="13" lengthAdjust="spacing" textLength="89" x="72" y="165.1592">"r" as rectangle</text><text fill="#000000" font-family="sans-serif" font-size="13" lengthAdjust="spacing" textLength="88" x="72" y="181.5107">"h" as hexagon</text><rect fill="#FEFFDD" height="57" style="stroke:#181818;stroke-width:0.5;" width="66" x="84" y="198.3672"/><text fill="#000000" font-family="sans-serif" font-size="13" lengthAdjust="spacing" textLength="35" x="88" y="215.8623">this is</text><text fill="#000000" font-family="sans-serif" font-size="13" lengthAdjust="spacing" textLength="58" x="88" y="232.2139">on several</text><text fill="#000000" font-family="sans-serif" font-size="13" lengthAdjust="spacing" textLength="27" x="88" y="248.5654">lines</text><polygon fill="#FEFFDD" points="15,265.4219,77,265.4219,87,293.4219,77,322.4219,15,322.4219,5,293.4219,15,265.4219" style="stroke:#181818;stroke-width:0.5;"/><text fill="#000000" font-family="sans-serif" font-size="13" lengthAdjust="spacing" textLength="35" x="17" y="282.917">this is</text><text fill="#000000" font-family="sans-serif" font-size="13" lengthAdjust="spacing" textLength="58" x="17" y="299.2686">on several</text><text fill="#000000" font-family="sans-serif" font-size="13" lengthAdjust="spacing" textLength="27" x="17" y="315.6201">lines</text><!--MD5=[27769c9a861a4aaa9b4fd79fe307c723]
@startuml
caller -> server : conReq
hnote over caller : idle
caller <- server : conConf
rnote over server
"r" as rectangle
"h" as hexagon
end rnote
rnote over server
this is
on several
lines
end rnote
hnote over caller
this is
on several
lines
end hnote
@enduml

PlantUML version 1.2022.3beta3(Unknown compile time)
(GPL source distribution)
Java Runtime: OpenJDK Runtime Environment
JVM: OpenJDK 64-Bit Server VM
Default Encoding: UTF-8
Language: en
Country: US
--></g></svg>