<?xml version="1.0" encoding="UTF-8" standalone="no"?><svg xmlns="http://www.w3.org/2000/svg" xmlns:xlink="http://www.w3.org/1999/xlink" contentStyleType="text/css" height="276px" preserveAspectRatio="none" style="width:363px;height:276px;background:#FFFFFF;" version="1.1" viewBox="0 0 363 276" width="363px" zoomAndPan="magnify"><defs/><g><rect fill="#FFFFFF" height="151.7578" style="stroke:#181818;stroke-width:1.0;" width="10" x="92.5" y="69.9609"/><rect fill="#FFFFFF" height="91.0547" style="stroke:#181818;stroke-width:1.0;" width="10" x="245.5" y="100.3125"/><rect fill="#FFFFFF" height="30.3516" style="stroke:#181818;stroke-width:1.0;" width="10" x="340.5" y="130.6641"/><line style="stroke:#181818;stroke-width:0.5;stroke-dasharray:5.0,5.0;" x1="26" x2="26" y1="37.6094" y2="239.7188"/><line style="stroke:#181818;stroke-width:0.5;stroke-dasharray:5.0,5.0;" x1="97" x2="97" y1="37.6094" y2="239.7188"/><line style="stroke:#181818;stroke-width:0.5;stroke-dasharray:5.0,5.0;" x1="250" x2="250" y1="37.6094" y2="239.7188"/><line style="stroke:#181818;stroke-width:0.5;stroke-dasharray:5.0,5.0;" x1="345.5" x2="345.5" y1="37.6094" y2="239.7188"/><rect fill="#E2E2F0" height="31.6094" rx="2.5" ry="2.5" style="stroke:#181818;stroke-width:0.5;" width="43" x="5" y="5"/><text fill="#000000" font-family="sans-serif" font-size="14" lengthAdjust="spacing" textLength="29" x="12" y="26.5332">User</text><rect fill="#E2E2F0" height="31.6094" rx="2.5" ry="2.5" style="stroke:#181818;stroke-width:0.5;" width="43" x="5" y="238.7188"/><text fill="#000000" font-family="sans-serif" font-size="14" lengthAdjust="spacing" textLength="29" x="12" y="260.252">User</text><rect fill="#E2E2F0" height="31.6094" rx="2.5" ry="2.5" style="stroke:#181818;stroke-width:0.5;" width="23" x="86" y="5"/><text fill="#000000" font-family="sans-serif" font-size="14" lengthAdjust="spacing" textLength="9" x="93" y="26.5332">A</text><rect fill="#E2E2F0" height="31.6094" rx="2.5" ry="2.5" style="stroke:#181818;stroke-width:0.5;" width="23" x="86" y="238.7188"/><text fill="#000000" font-family="sans-serif" font-size="14" lengthAdjust="spacing" textLength="9" x="93" y="260.252">A</text><rect fill="#E2E2F0" height="31.6094" rx="2.5" ry="2.5" style="stroke:#181818;stroke-width:0.5;" width="23" x="239" y="5"/><text fill="#000000" font-family="sans-serif" font-size="14" lengthAdjust="spacing" textLength="9" x="246" y="26.5332">B</text><rect fill="#E2E2F0" height="31.6094" rx="2.5" ry="2.5" style="stroke:#181818;stroke-width:0.5;" width="23" x="239" y="238.7188"/><text fill="#000000" font-family="sans-serif" font-size="14" lengthAdjust="spacing" textLength="9" x="246" y="260.252">B</text><rect fill="#E2E2F0" height="31.6094" rx="2.5" ry="2.5" style="stroke:#181818;stroke-width:0.5;" width="24" x="333.5" y="5"/><text fill="#000000" font-family="sans-serif" font-size="14" lengthAdjust="spacing" textLength="10" x="340.5" y="26.5332">C</text><rect fill="#E2E2F0" height="31.6094" rx="2.5" ry="2.5" style="stroke:#181818;stroke-width:0.5;" width="24" x="333.5" y="238.7188"/><text fill="#000000" font-family="sans-serif" font-size="14" lengthAdjust="spacing" textLength="10" x="340.5" y="260.252">C</text><rect fill="#FFFFFF" height="151.7578" style="stroke:#181818;stroke-width:1.0;" width="10" x="92.5" y="69.9609"/><rect fill="#FFFFFF" height="91.0547" style="stroke:#181818;stroke-width:1.0;" width="10" x="245.5" y="100.3125"/><rect fill="#FFFFFF" height="30.3516" style="stroke:#181818;stroke-width:1.0;" width="10" x="340.5" y="130.6641"/><polygon fill="#181818" points="80.5,65.9609,90.5,69.9609,80.5,73.9609,84.5,69.9609" style="stroke:#181818;stroke-width:1.0;"/><line style="stroke:#181818;stroke-width:1.0;" x1="26.5" x2="86.5" y1="69.9609" y2="69.9609"/><text fill="#000000" font-family="sans-serif" font-size="13" lengthAdjust="spacing" textLength="47" x="33.5" y="65.1045">DoWork</text><polygon fill="#181818" points="233.5,96.3125,243.5,100.3125,233.5,104.3125,237.5,100.3125" style="stroke:#181818;stroke-width:1.0;"/><line style="stroke:#181818;stroke-width:1.0;" x1="102.5" x2="239.5" y1="100.3125" y2="100.3125"/><text fill="#000000" font-family="sans-serif" font-size="13" lengthAdjust="spacing" textLength="124" x="109.5" y="95.4561">&lt;&lt; createRequest &gt;&gt;</text><polygon fill="#181818" points="328.5,126.6641,338.5,130.6641,328.5,134.6641,332.5,130.6641" style="stroke:#181818;stroke-width:1.0;"/><line style="stroke:#181818;stroke-width:1.0;" x1="255.5" x2="334.5" y1="130.6641" y2="130.6641"/><text fill="#000000" font-family="sans-serif" font-size="13" lengthAdjust="spacing" textLength="47" x="262.5" y="125.8076">DoWork</text><polygon fill="#181818" points="266.5,157.0156,256.5,161.0156,266.5,165.0156,262.5,161.0156" style="stroke:#181818;stroke-width:1.0;"/><line style="stroke:#181818;stroke-width:1.0;stroke-dasharray:2.0,2.0;" x1="260.5" x2="344.5" y1="161.0156" y2="161.0156"/><text fill="#000000" font-family="sans-serif" font-size="13" lengthAdjust="spacing" textLength="61" x="272.5" y="156.1592">WorkDone</text><line style="stroke:#A80036;stroke-width:2.0;" x1="336.5" x2="354.5" y1="152.0156" y2="170.0156"/><line style="stroke:#A80036;stroke-width:2.0;" x1="336.5" x2="354.5" y1="170.0156" y2="152.0156"/><polygon fill="#181818" points="113.5,187.3672,103.5,191.3672,113.5,195.3672,109.5,191.3672" style="stroke:#181818;stroke-width:1.0;"/><line style="stroke:#181818;stroke-width:1.0;stroke-dasharray:2.0,2.0;" x1="107.5" x2="249.5" y1="191.3672" y2="191.3672"/><text fill="#000000" font-family="sans-serif" font-size="13" lengthAdjust="spacing" textLength="93" x="119.5" y="186.5107">RequestCreated</text><polygon fill="#181818" points="37.5,217.7188,27.5,221.7188,37.5,225.7188,33.5,221.7188" style="stroke:#181818;stroke-width:1.0;"/><line style="stroke:#181818;stroke-width:1.0;" x1="31.5" x2="96.5" y1="221.7188" y2="221.7188"/><text fill="#000000" font-family="sans-serif" font-size="13" lengthAdjust="spacing" textLength="30" x="43.5" y="216.8623">Done</text><!--MD5=[511762f58b59e2ddb3abf1a569a171d2]
@startuml
participant User
User -> A: DoWork
activate A
        
A -> B: << createRequest >>
activate B

B -> C: DoWork
activate C
                        
C - -> B: WorkDone
destroy C
                        
B - -> A: RequestCreated
deactivate B
                
A -> User: Done
deactivate A        
@enduml

PlantUML version 1.2022.3beta3(Unknown compile time)
(GPL source distribution)
Java Runtime: OpenJDK Runtime Environment
JVM: OpenJDK 64-Bit Server VM
Default Encoding: UTF-8
Language: en
Country: US
--></g></svg>