<?xml version="1.0" encoding="UTF-8" standalone="no"?><svg xmlns="http://www.w3.org/2000/svg" xmlns:xlink="http://www.w3.org/1999/xlink" contentStyleType="text/css" height="341px" preserveAspectRatio="none" style="width:338px;height:341px;background:#FFFFFF;" version="1.1" viewBox="0 0 338 341" width="338px" zoomAndPan="magnify"><defs/><g><line style="stroke:#181818;stroke-width:0.5;stroke-dasharray:5.0,5.0;" x1="128" x2="128" y1="37.6094" y2="304.7734"/><line style="stroke:#181818;stroke-width:0.5;stroke-dasharray:5.0,5.0;" x1="179" x2="179" y1="37.6094" y2="304.7734"/><rect fill="#E2E2F0" height="31.6094" rx="2.5" ry="2.5" style="stroke:#181818;stroke-width:0.5;" width="44" x="106" y="5"/><text fill="#000000" font-family="sans-serif" font-size="14" lengthAdjust="spacing" textLength="30" x="113" y="26.5332">Alice</text><rect fill="#E2E2F0" height="31.6094" rx="2.5" ry="2.5" style="stroke:#181818;stroke-width:0.5;" width="44" x="106" y="303.7734"/><text fill="#000000" font-family="sans-serif" font-size="14" lengthAdjust="spacing" textLength="30" x="113" y="325.3066">Alice</text><rect fill="#E2E2F0" height="31.6094" rx="2.5" ry="2.5" style="stroke:#181818;stroke-width:0.5;" width="39" x="160" y="5"/><text fill="#000000" font-family="sans-serif" font-size="14" lengthAdjust="spacing" textLength="25" x="167" y="26.5332">Bob</text><rect fill="#E2E2F0" height="31.6094" rx="2.5" ry="2.5" style="stroke:#181818;stroke-width:0.5;" width="39" x="160" y="303.7734"/><text fill="#000000" font-family="sans-serif" font-size="14" lengthAdjust="spacing" textLength="25" x="167" y="325.3066">Bob</text><path d="M5,52.6094 L5,94.6094 L123,94.6094 L123,62.6094 L113,52.6094 L5,52.6094 " fill="#00FFFF" style="stroke:#181818;stroke-width:0.5;"/><path d="M113,52.6094 L113,62.6094 L123,62.6094 L113,52.6094 " fill="#00FFFF" style="stroke:#181818;stroke-width:0.5;"/><text fill="#000000" font-family="sans-serif" font-size="13" lengthAdjust="spacing" textLength="97" x="11" y="71.1045">This is displayed</text><text fill="#000000" font-family="sans-serif" font-size="13" lengthAdjust="spacing" textLength="68" x="11" y="87.4561">left of Alice.</text><path d="M133,105.3125 L133,131.3125 L331,131.3125 L331,115.3125 L321,105.3125 L133,105.3125 " fill="#FEFFDD" style="stroke:#181818;stroke-width:0.5;"/><path d="M321,105.3125 L321,115.3125 L331,115.3125 L321,105.3125 " fill="#FEFFDD" style="stroke:#181818;stroke-width:0.5;"/><text fill="#000000" font-family="sans-serif" font-size="13" lengthAdjust="spacing" textLength="177" x="139" y="123.8076">This is displayed right of Alice.</text><path d="M37,141.6641 L37,167.6641 L219,167.6641 L219,151.6641 L209,141.6641 L37,141.6641 " fill="#FEFFDD" style="stroke:#181818;stroke-width:0.5;"/><path d="M209,141.6641 L209,151.6641 L219,151.6641 L209,141.6641 " fill="#FEFFDD" style="stroke:#181818;stroke-width:0.5;"/><text fill="#000000" font-family="sans-serif" font-size="13" lengthAdjust="spacing" textLength="161" x="43" y="160.1592">This is displayed over Alice.</text><path d="M85,178.0156 L85,220.0156 L222,220.0156 L222,188.0156 L212,178.0156 L85,178.0156 " fill="#FFAAAA" style="stroke:#181818;stroke-width:0.5;"/><path d="M212,178.0156 L212,188.0156 L222,188.0156 L212,178.0156 " fill="#FFAAAA" style="stroke:#181818;stroke-width:0.5;"/><text fill="#000000" font-family="sans-serif" font-size="13" lengthAdjust="spacing" textLength="97" x="91" y="196.5107">This is displayed</text><text fill="#000000" font-family="sans-serif" font-size="13" lengthAdjust="spacing" textLength="112" x="95" y="212.8623">over Bob and Alice.</text><path d="M89,230.7188 L89,289.7188 L217,289.7188 L217,240.7188 L207,230.7188 L89,230.7188 " fill="#FFFF00" style="stroke:#181818;stroke-width:0.5;"/><path d="M207,230.7188 L207,240.7188 L217,240.7188 L207,230.7188 " fill="#FFFF00" style="stroke:#181818;stroke-width:0.5;"/><text fill="#000000" font-family="sans-serif" font-size="13" lengthAdjust="spacing" textLength="107" x="95" y="249.2139">This is yet another</text><text fill="#000000" font-family="sans-serif" font-size="13" lengthAdjust="spacing" textLength="63" x="95" y="265.5654">example of</text><text fill="#000000" font-family="sans-serif" font-size="13" lengthAdjust="spacing" textLength="68" x="95" y="281.917">a long note.</text><!--MD5=[c96fb6182d4d4664f077a6dc1389ae02]
@startuml
participant Alice
participant Bob
note left of Alice #aqua
This is displayed
left of Alice.
end note

note right of Alice: This is displayed right of Alice.

note over Alice: This is displayed over Alice.

note over Alice, Bob #FFAAAA: This is displayed\n over Bob and Alice.

note over Bob, Alice #yellow
This is yet another
example of
a long note.
end note
@enduml

PlantUML version 1.2022.3beta3(Unknown compile time)
(GPL source distribution)
Java Runtime: OpenJDK Runtime Environment
JVM: OpenJDK 64-Bit Server VM
Default Encoding: UTF-8
Language: en
Country: US
--></g></svg>