<?xml version="1.0" encoding="UTF-8" standalone="no"?><svg xmlns="http://www.w3.org/2000/svg" xmlns:xlink="http://www.w3.org/1999/xlink" contentStyleType="text/css" height="215px" preserveAspectRatio="none" style="width:123px;height:215px;background:#FFFFFF;" version="1.1" viewBox="0 0 123 215" width="123px" zoomAndPan="magnify"><defs/><g><rect fill="#FFD700" height="30.3516" style="stroke:#181818;stroke-width:1.0;" width="10" x="21.5" y="100.3125"/><rect fill="#FFD700" height="30.3516" style="stroke:#181818;stroke-width:1.0;" width="10" x="93.5" y="69.9609"/><line style="stroke:#181818;stroke-width:0.5;stroke-dasharray:5.0,5.0;" x1="26" x2="26" y1="37.6094" y2="179.0156"/><line style="stroke:#181818;stroke-width:0.5;stroke-dasharray:5.0,5.0;" x1="98.5" x2="98.5" y1="37.6094" y2="179.0156"/><rect fill="#E2E2F0" height="31.6094" rx="2.5" ry="2.5" style="stroke:#181818;stroke-width:0.5;" width="43" x="5" y="5"/><text fill="#000000" font-family="sans-serif" font-size="14" lengthAdjust="spacing" textLength="29" x="12" y="26.5332">alice</text><rect fill="#E2E2F0" height="31.6094" rx="2.5" ry="2.5" style="stroke:#181818;stroke-width:0.5;" width="43" x="5" y="178.0156"/><text fill="#000000" font-family="sans-serif" font-size="14" lengthAdjust="spacing" textLength="29" x="12" y="199.5488">alice</text><rect fill="#E2E2F0" height="31.6094" rx="2.5" ry="2.5" style="stroke:#181818;stroke-width:0.5;" width="38" x="79.5" y="5"/><text fill="#000000" font-family="sans-serif" font-size="14" lengthAdjust="spacing" textLength="24" x="86.5" y="26.5332">bob</text><rect fill="#E2E2F0" height="31.6094" rx="2.5" ry="2.5" style="stroke:#181818;stroke-width:0.5;" width="38" x="79.5" y="178.0156"/><text fill="#000000" font-family="sans-serif" font-size="14" lengthAdjust="spacing" textLength="24" x="86.5" y="199.5488">bob</text><rect fill="#FFD700" height="30.3516" style="stroke:#181818;stroke-width:1.0;" width="10" x="21.5" y="100.3125"/><rect fill="#FFD700" height="30.3516" style="stroke:#181818;stroke-width:1.0;" width="10" x="93.5" y="69.9609"/><polygon fill="#181818" points="81.5,65.9609,91.5,69.9609,81.5,73.9609,85.5,69.9609" style="stroke:#181818;stroke-width:1.0;"/><line style="stroke:#181818;stroke-width:1.0;" x1="26.5" x2="87.5" y1="69.9609" y2="69.9609"/><text fill="#000000" font-family="sans-serif" font-size="13" lengthAdjust="spacing" textLength="27" x="33.5" y="65.1045">hello</text><polygon fill="#181818" points="42.5,96.3125,32.5,100.3125,42.5,104.3125,38.5,100.3125" style="stroke:#181818;stroke-width:1.0;"/><line style="stroke:#181818;stroke-width:1.0;" x1="36.5" x2="97.5" y1="100.3125" y2="100.3125"/><text fill="#000000" font-family="sans-serif" font-size="13" lengthAdjust="spacing" textLength="43" x="48.5" y="95.4561">you too</text><polygon fill="#181818" points="86.5,126.6641,96.5,130.6641,86.5,134.6641,90.5,130.6641" style="stroke:#181818;stroke-width:1.0;"/><line style="stroke:#181818;stroke-width:1.0;" x1="26.5" x2="92.5" y1="130.6641" y2="130.6641"/><text fill="#000000" font-family="sans-serif" font-size="13" lengthAdjust="spacing" textLength="32" x="33.5" y="125.8076">step1</text><polygon fill="#181818" points="86.5,157.0156,96.5,161.0156,86.5,165.0156,90.5,161.0156" style="stroke:#181818;stroke-width:1.0;"/><line style="stroke:#181818;stroke-width:1.0;" x1="26.5" x2="92.5" y1="161.0156" y2="161.0156"/><text fill="#000000" font-family="sans-serif" font-size="13" lengthAdjust="spacing" textLength="32" x="33.5" y="156.1592">step2</text><!--MD5=[50dedfe84e93d6b8865ea0c41030140c]
@startuml
alice -> bob   ++   #gold : hello
bob   -> alice - -++ #gold : you too
alice -> bob   - -         : step1
alice -> bob              : step2
@enduml

PlantUML version 1.2022.3beta3(Unknown compile time)
(GPL source distribution)
Java Runtime: OpenJDK Runtime Environment
JVM: OpenJDK 64-Bit Server VM
Default Encoding: UTF-8
Language: en
Country: US
--></g></svg>