<?xml version="1.0" encoding="UTF-8" standalone="no"?><svg xmlns="http://www.w3.org/2000/svg" xmlns:xlink="http://www.w3.org/1999/xlink" contentStyleType="text/css" height="713px" preserveAspectRatio="none" style="width:116px;height:713px;background:#FFFFFF;" version="1.1" viewBox="0 0 116 713" width="116px" zoomAndPan="magnify"><defs/><g><line style="stroke:#181818;stroke-width:0.5;stroke-dasharray:5.0,5.0;" x1="27" x2="27" y1="37.6094" y2="677.082"/><line style="stroke:#181818;stroke-width:0.5;stroke-dasharray:5.0,5.0;" x1="90.5" x2="90.5" y1="37.6094" y2="677.082"/><rect fill="#E2E2F0" height="31.6094" rx="2.5" ry="2.5" style="stroke:#181818;stroke-width:0.5;" width="44" x="5" y="5"/><text fill="#000000" font-family="sans-serif" font-size="14" lengthAdjust="spacing" textLength="30" x="12" y="26.5332">Alice</text><rect fill="#E2E2F0" height="31.6094" rx="2.5" ry="2.5" style="stroke:#181818;stroke-width:0.5;" width="44" x="5" y="676.082"/><text fill="#000000" font-family="sans-serif" font-size="14" lengthAdjust="spacing" textLength="30" x="12" y="697.6152">Alice</text><rect fill="#E2E2F0" height="31.6094" rx="2.5" ry="2.5" style="stroke:#181818;stroke-width:0.5;" width="39" x="71.5" y="5"/><text fill="#000000" font-family="sans-serif" font-size="14" lengthAdjust="spacing" textLength="25" x="78.5" y="26.5332">Bob</text><rect fill="#E2E2F0" height="31.6094" rx="2.5" ry="2.5" style="stroke:#181818;stroke-width:0.5;" width="39" x="71.5" y="676.082"/><text fill="#000000" font-family="sans-serif" font-size="14" lengthAdjust="spacing" textLength="25" x="78.5" y="697.6152">Bob</text><polygon fill="#181818" points="79,66.583,89,70.583,79,74.583,83,70.583" style="stroke:#181818;stroke-width:1.0;"/><line style="stroke:#181818;stroke-width:1.0;" x1="27" x2="85" y1="70.583" y2="70.583"/><text fill="#000000" font-family="monospace" font-size="13" lengthAdjust="spacing" textLength="16" x="34" y="64.6792">-&gt;</text><line style="stroke:#181818;stroke-width:1.0;" x1="89" x2="79" y1="101.5566" y2="97.5566"/><line style="stroke:#181818;stroke-width:1.0;" x1="89" x2="79" y1="101.5566" y2="105.5566"/><line style="stroke:#181818;stroke-width:1.0;" x1="27" x2="90" y1="101.5566" y2="101.5566"/><text fill="#000000" font-family="monospace" font-size="13" lengthAdjust="spacing" textLength="24" x="34" y="95.6528">-&gt;&gt;</text><polygon fill="#181818" points="79,128.5303,89,132.5303,79,132.5303" style="stroke:#181818;stroke-width:1.0;"/><line style="stroke:#181818;stroke-width:1.0;" x1="27" x2="90" y1="132.5303" y2="132.5303"/><text fill="#000000" font-family="monospace" font-size="13" lengthAdjust="spacing" textLength="16" x="34" y="126.6265">-\</text><line style="stroke:#181818;stroke-width:1.0;" x1="89" x2="79" y1="163.5039" y2="159.5039"/><line style="stroke:#181818;stroke-width:1.0;" x1="27" x2="90" y1="163.5039" y2="163.5039"/><text fill="#000000" font-family="monospace" font-size="13" lengthAdjust="spacing" textLength="24" x="34" y="157.6001">-\\</text><polygon fill="#181818" points="79,195.4775,89,195.4775,79,199.4775" style="stroke:#181818;stroke-width:1.0;"/><line style="stroke:#181818;stroke-width:1.0;" x1="27" x2="90" y1="194.4775" y2="194.4775"/><text fill="#000000" font-family="monospace" font-size="13" lengthAdjust="spacing" textLength="16" x="34" y="188.5737">-/</text><line style="stroke:#181818;stroke-width:1.0;" x1="89" x2="79" y1="225.4512" y2="229.4512"/><line style="stroke:#181818;stroke-width:1.0;" x1="27" x2="90" y1="225.4512" y2="225.4512"/><text fill="#000000" font-family="monospace" font-size="13" lengthAdjust="spacing" textLength="24" x="34" y="219.5474">-//</text><line style="stroke:#181818;stroke-width:2.0;" x1="73" x2="83" y1="251.4248" y2="261.4248"/><line style="stroke:#181818;stroke-width:2.0;" x1="73" x2="83" y1="261.4248" y2="251.4248"/><line style="stroke:#181818;stroke-width:1.0;" x1="27" x2="78" y1="256.4248" y2="256.4248"/><text fill="#000000" font-family="monospace" font-size="13" lengthAdjust="spacing" textLength="24" x="34" y="250.521">-&gt;x</text><line style="stroke:#181818;stroke-width:2.0;" x1="33" x2="43" y1="282.3984" y2="292.3984"/><line style="stroke:#181818;stroke-width:2.0;" x1="33" x2="43" y1="292.3984" y2="282.3984"/><polygon fill="#181818" points="79,283.3984,89,287.3984,79,291.3984,83,287.3984" style="stroke:#181818;stroke-width:1.0;"/><line style="stroke:#181818;stroke-width:1.0;" x1="39" x2="85" y1="287.3984" y2="287.3984"/><text fill="#000000" font-family="monospace" font-size="13" lengthAdjust="spacing" textLength="24" x="44" y="281.4946">x-&gt;</text><ellipse cx="26.5" cy="317.6221" fill="none" rx="4" ry="4" style="stroke:#181818;stroke-width:1.5;"/><polygon fill="#181818" points="79,314.3721,89,318.3721,79,322.3721,83,318.3721" style="stroke:#181818;stroke-width:1.0;"/><line style="stroke:#181818;stroke-width:1.0;" x1="31" x2="85" y1="318.3721" y2="318.3721"/><text fill="#000000" font-family="monospace" font-size="13" lengthAdjust="spacing" textLength="24" x="34" y="312.4683">o-&gt;</text><ellipse cx="90.5" cy="348.5957" fill="none" rx="4" ry="4" style="stroke:#181818;stroke-width:1.5;"/><polygon fill="#181818" points="73.5,345.3457,83.5,349.3457,73.5,353.3457,77.5,349.3457" style="stroke:#181818;stroke-width:1.0;"/><line style="stroke:#181818;stroke-width:1.0;" x1="27" x2="79.5" y1="349.3457" y2="349.3457"/><text fill="#000000" font-family="monospace" font-size="13" lengthAdjust="spacing" textLength="24" x="34" y="343.4419">-&gt;o</text><ellipse cx="26.5" cy="379.5693" fill="none" rx="4" ry="4" style="stroke:#181818;stroke-width:1.5;"/><ellipse cx="90.5" cy="379.5693" fill="none" rx="4" ry="4" style="stroke:#181818;stroke-width:1.5;"/><polygon fill="#181818" points="73.5,376.3193,83.5,380.3193,73.5,384.3193,77.5,380.3193" style="stroke:#181818;stroke-width:1.0;"/><line style="stroke:#181818;stroke-width:1.0;" x1="31" x2="79.5" y1="380.3193" y2="380.3193"/><text fill="#000000" font-family="monospace" font-size="13" lengthAdjust="spacing" textLength="32" x="34" y="374.4155">o-&gt;o</text><polygon fill="#181818" points="38,407.293,28,411.293,38,415.293,34,411.293" style="stroke:#181818;stroke-width:1.0;"/><polygon fill="#181818" points="79,407.293,89,411.293,79,415.293,83,411.293" style="stroke:#181818;stroke-width:1.0;"/><line style="stroke:#181818;stroke-width:1.0;" x1="32" x2="85" y1="411.293" y2="411.293"/><text fill="#000000" font-family="monospace" font-size="13" lengthAdjust="spacing" textLength="24" x="44" y="405.3892">&lt;-&gt;</text><ellipse cx="26.5" cy="441.5166" fill="none" rx="4" ry="4" style="stroke:#181818;stroke-width:1.5;"/><polygon fill="#181818" points="43.5,438.2666,33.5,442.2666,43.5,446.2666,39.5,442.2666" style="stroke:#181818;stroke-width:1.0;"/><ellipse cx="90.5" cy="441.5166" fill="none" rx="4" ry="4" style="stroke:#181818;stroke-width:1.5;"/><polygon fill="#181818" points="73.5,438.2666,83.5,442.2666,73.5,446.2666,77.5,442.2666" style="stroke:#181818;stroke-width:1.0;"/><line style="stroke:#181818;stroke-width:1.0;" x1="41.5" x2="79.5" y1="442.2666" y2="442.2666"/><text fill="#000000" font-family="monospace" font-size="13" lengthAdjust="spacing" textLength="40" x="44" y="436.3628">o&lt;-&gt;o</text><line style="stroke:#181818;stroke-width:2.0;" x1="33" x2="43" y1="468.2402" y2="478.2402"/><line style="stroke:#181818;stroke-width:2.0;" x1="33" x2="43" y1="478.2402" y2="468.2402"/><line style="stroke:#181818;stroke-width:2.0;" x1="73" x2="83" y1="468.2402" y2="478.2402"/><line style="stroke:#181818;stroke-width:2.0;" x1="73" x2="83" y1="478.2402" y2="468.2402"/><line style="stroke:#181818;stroke-width:1.0;" x1="39" x2="78" y1="473.2402" y2="473.2402"/><text fill="#000000" font-family="monospace" font-size="13" lengthAdjust="spacing" textLength="40" x="44" y="467.3364">x&lt;-&gt;x</text><ellipse cx="90.5" cy="503.4639" fill="none" rx="4" ry="4" style="stroke:#181818;stroke-width:1.5;"/><line style="stroke:#181818;stroke-width:1.0;" x1="83.5" x2="73.5" y1="504.2139" y2="500.2139"/><line style="stroke:#181818;stroke-width:1.0;" x1="83.5" x2="73.5" y1="504.2139" y2="508.2139"/><line style="stroke:#181818;stroke-width:1.0;" x1="27" x2="84.5" y1="504.2139" y2="504.2139"/><text fill="#000000" font-family="monospace" font-size="13" lengthAdjust="spacing" textLength="32" x="34" y="498.3101">-&gt;&gt;o</text><ellipse cx="90.5" cy="534.4375" fill="none" rx="4" ry="4" style="stroke:#181818;stroke-width:1.5;"/><polygon fill="#181818" points="73.5,531.1875,83.5,535.1875,73.5,535.1875" style="stroke:#181818;stroke-width:1.0;"/><line style="stroke:#181818;stroke-width:1.0;" x1="27" x2="84.5" y1="535.1875" y2="535.1875"/><text fill="#000000" font-family="monospace" font-size="13" lengthAdjust="spacing" textLength="24" x="34" y="529.2837">-\o</text><ellipse cx="90.5" cy="565.4111" fill="none" rx="4" ry="4" style="stroke:#181818;stroke-width:1.5;"/><line style="stroke:#181818;stroke-width:1.0;" x1="83.5" x2="73.5" y1="566.1611" y2="562.1611"/><line style="stroke:#181818;stroke-width:1.0;" x1="27" x2="84.5" y1="566.1611" y2="566.1611"/><text fill="#000000" font-family="monospace" font-size="13" lengthAdjust="spacing" textLength="32" x="34" y="560.2573">-\\o</text><ellipse cx="90.5" cy="596.3848" fill="none" rx="4" ry="4" style="stroke:#181818;stroke-width:1.5;"/><polygon fill="#181818" points="73.5,598.1348,83.5,598.1348,73.5,602.1348" style="stroke:#181818;stroke-width:1.0;"/><line style="stroke:#181818;stroke-width:1.0;" x1="27" x2="84.5" y1="597.1348" y2="597.1348"/><text fill="#000000" font-family="monospace" font-size="13" lengthAdjust="spacing" textLength="24" x="34" y="591.231">-/o</text><ellipse cx="90.5" cy="627.3584" fill="none" rx="4" ry="4" style="stroke:#181818;stroke-width:1.5;"/><line style="stroke:#181818;stroke-width:1.0;" x1="83.5" x2="73.5" y1="628.1084" y2="632.1084"/><line style="stroke:#181818;stroke-width:1.0;" x1="27" x2="84.5" y1="628.1084" y2="628.1084"/><text fill="#000000" font-family="monospace" font-size="13" lengthAdjust="spacing" textLength="32" x="34" y="622.2046">-//o</text><line style="stroke:#181818;stroke-width:2.0;" x1="33" x2="43" y1="654.082" y2="664.082"/><line style="stroke:#181818;stroke-width:2.0;" x1="33" x2="43" y1="664.082" y2="654.082"/><ellipse cx="90.5" cy="658.332" fill="none" rx="4" ry="4" style="stroke:#181818;stroke-width:1.5;"/><polygon fill="#181818" points="73.5,655.082,83.5,659.082,73.5,663.082,77.5,659.082" style="stroke:#181818;stroke-width:1.0;"/><line style="stroke:#181818;stroke-width:1.0;" x1="39" x2="79.5" y1="659.082" y2="659.082"/><text fill="#000000" font-family="monospace" font-size="13" lengthAdjust="spacing" textLength="32" x="44" y="653.1782">x-&gt;o</text><!--MD5=[720299ba8c025ae8167ff39ce489d7eb]
@startuml
participant Alice as a
participant Bob   as b
a ->     b : ""->   ""
a ->>    b : ""->>  ""
a -\     b : ""-\   ""
a -\\    b : ""-\\\\""
a -/     b : ""-/   ""
a -//    b : ""-//  ""
a ->x    b : ""->x  ""
a x->    b : ""x->  ""
a o->    b : ""o->  ""
a ->o    b : ""->o  ""
a o->o   b : ""o->o ""
a <->    b : ""<->  ""
a o<->o  b : ""o<->o""
a x<->x  b : ""x<->x""
a ->>o   b : ""->>o ""
a -\o    b : ""-\o  ""
a -\\o   b : ""-\\\\o""
a -/o    b : ""-/o  ""
a -//o   b : ""-//o ""
a x->o   b : ""x->o ""
@enduml

PlantUML version 1.2022.3beta3(Unknown compile time)
(GPL source distribution)
Java Runtime: OpenJDK Runtime Environment
JVM: OpenJDK 64-Bit Server VM
Default Encoding: UTF-8
Language: en
Country: US
--></g></svg>