<?xml version="1.0" encoding="UTF-8" standalone="no"?><svg xmlns="http://www.w3.org/2000/svg" xmlns:xlink="http://www.w3.org/1999/xlink" contentStyleType="text/css" height="396px" preserveAspectRatio="none" style="width:313px;height:396px;background:#FFFFFF;" version="1.1" viewBox="0 0 313 396" width="313px" zoomAndPan="magnify"><defs/><g><!--MD5=[fb1b454ac1984f657a61539df0e47555]
cluster Professional--><g id="cluster_Professional"><path d="M8.5,146 L97.5,146 A3.75,3.75 0 0 1 100,148.5 L107,169.6094 L107.5,169.6094 A2.5,2.5 0 0 1 110,172.1094 L110,386.5 A2.5,2.5 0 0 1 107.5,389 L8.5,389 A2.5,2.5 0 0 1 6,386.5 L6,148.5 A2.5,2.5 0 0 1 8.5,146 " style="stroke:#000000;stroke-width:1.5;fill:none;"/><line style="stroke:#000000;stroke-width:1.5;fill:none;" x1="6" x2="107" y1="169.6094" y2="169.6094"/><text fill="#000000" font-family="sans-serif" font-size="14" font-weight="bold" lengthAdjust="spacing" textLength="88" x="10" y="162.5332">Professional</text></g><!--MD5=[bc938698130bec3721522f38f16e3aed]
cluster Restaurant--><g id="cluster_Restaurant"><path d="M140.5,6 L218.5,6 A3.75,3.75 0 0 1 221,8.5 L228,29.6094 L303.5,29.6094 A2.5,2.5 0 0 1 306,32.1094 L306,287.5 A2.5,2.5 0 0 1 303.5,290 L140.5,290 A2.5,2.5 0 0 1 138,287.5 L138,8.5 A2.5,2.5 0 0 1 140.5,6 " style="stroke:#000000;stroke-width:1.5;fill:none;"/><line style="stroke:#000000;stroke-width:1.5;fill:none;" x1="138" x2="228" y1="29.6094" y2="29.6094"/><text fill="#000000" font-family="sans-serif" font-size="14" font-weight="bold" lengthAdjust="spacing" textLength="77" x="142" y="22.5332">Restaurant</text></g><!--MD5=[8e9b2d9d80e066cced8e5d90e9bdea61]
entity c--><g id="elem_c"><ellipse cx="57.5" cy="190.5" fill="#F1F1F1" rx="8" ry="8" style="stroke:#181818;stroke-width:0.5;"/><path d="M57.5,198.5 L57.5,225.5 M44.5,206.5 L70.5,206.5 M57.5,225.5 L44.5,240.5 M57.5,225.5 L70.5,240.5 " fill="none" style="stroke:#181818;stroke-width:0.5;"/><text fill="#000000" font-family="sans-serif" font-size="14" lengthAdjust="spacing" textLength="30" x="42.5" y="256.5332">Chef</text></g><!--MD5=[db756db308cf6ff8cfeeb51570136b75]
entity fc--><g id="elem_fc"><ellipse cx="57.5" cy="303.5" fill="#F1F1F1" rx="8" ry="8" style="stroke:#181818;stroke-width:0.5;"/><path d="M57.5,311.5 L57.5,338.5 M44.5,319.5 L70.5,319.5 M57.5,338.5 L44.5,353.5 M57.5,338.5 L70.5,353.5 " fill="none" style="stroke:#181818;stroke-width:0.5;"/><text fill="#000000" font-family="sans-serif" font-size="14" lengthAdjust="spacing" textLength="69" x="23" y="369.5332">Food Critic</text></g><g id="elem_UC1"><ellipse cx="221.7806" cy="58.0229" fill="#F1F1F1" rx="52.7806" ry="15.5229" style="stroke:#181818;stroke-width:0.5;"/><text fill="#000000" font-family="sans-serif" font-size="14" lengthAdjust="spacing" textLength="58" x="189.7806" y="62.5395">Eat Food</text></g><g id="elem_UC2"><ellipse cx="222.0887" cy="125.0177" fill="#F1F1F1" rx="68.0887" ry="16.0177" style="stroke:#181818;stroke-width:0.5;"/><text fill="#000000" font-family="sans-serif" font-size="14" lengthAdjust="spacing" textLength="82" x="178.0887" y="129.5343">Pay for Food</text></g><g id="elem_UC3"><ellipse cx="221.8198" cy="191.9517" fill="#F1F1F1" rx="34.8198" ry="15.4517" style="stroke:#181818;stroke-width:0.5;"/><text fill="#000000" font-family="sans-serif" font-size="14" lengthAdjust="spacing" textLength="33" x="205.3198" y="195.6802">Drink</text></g><g id="elem_UC4"><ellipse cx="221.811" cy="257.9535" fill="#F1F1F1" rx="43.311" ry="15.4535" style="stroke:#181818;stroke-width:0.5;"/><text fill="#000000" font-family="sans-serif" font-size="14" lengthAdjust="spacing" textLength="45" x="198.8228" y="261.8329">Review</text></g><!--MD5=[338e9af232e5abde8a6bc8ae9f528414]
entity g--><g id="elem_g"><ellipse cx="57.5" cy="60.5" fill="#F1F1F1" rx="8" ry="8" style="stroke:#181818;stroke-width:0.5;"/><path d="M57.5,68.5 L57.5,95.5 M44.5,76.5 L70.5,76.5 M57.5,95.5 L44.5,110.5 M57.5,95.5 L70.5,110.5 " fill="none" style="stroke:#181818;stroke-width:0.5;"/><text fill="#000000" font-family="sans-serif" font-size="14" lengthAdjust="spacing" textLength="38" x="38.5" y="126.5332">Guest</text></g><!--MD5=[671315809142cbf8f95afb4988884e94]
link fc to UC4--><g id="link_fc_UC4"><path d="M92.17,318.25 C120.99,304.77 162.15,285.52 190.14,272.43 " fill="none" id="fc-to-UC4" style="stroke:#181818;stroke-width:1.0;"/><polygon fill="#181818" points="194.86,270.23,185.0128,270.4129,190.3294,272.3452,188.3972,277.6618,194.86,270.23" style="stroke:#181818;stroke-width:1.0;"/></g><!--MD5=[e6283e10ea57013afd663a209f443892]
link g to UC1--><g id="link_g_UC1"><path d="M76.51,87.34 C99.57,82.66 140.42,74.36 172.81,67.79 " fill="none" id="g-to-UC1" style="stroke:#181818;stroke-width:1.0;"/><polygon fill="#181818" points="177.94,66.75,168.3279,64.6035,173.0382,67.7361,169.9056,72.4464,177.94,66.75" style="stroke:#181818;stroke-width:1.0;"/></g><!--MD5=[de7f95d11870be32e701ecd3c2a76950]
link g to UC2--><g id="link_g_UC2"><path d="M76.51,94.77 C97.92,99.25 134.68,106.94 165.75,113.44 " fill="none" id="g-to-UC2" style="stroke:#181818;stroke-width:1.0;"/><polygon fill="#181818" points="170.69,114.47,162.691,108.7241,165.7944,113.4537,161.0648,116.5571,170.69,114.47" style="stroke:#181818;stroke-width:1.0;"/></g><!--MD5=[ea36581ba262fe67fca98703761d6744]
link g to UC3--><g id="link_g_UC3"><path d="M76.68,112.46 C90.13,127.23 109.61,146.38 130,159 C147.24,169.67 168.45,177.61 186.05,183.03 " fill="none" id="g-to-UC3" style="stroke:#181818;stroke-width:1.0;"/><polygon fill="#181818" points="190.91,184.49,183.4249,178.0889,186.1177,183.0637,181.1429,185.7565,190.91,184.49" style="stroke:#181818;stroke-width:1.0;"/></g><!--MD5=[867b1a9b19f795cbbf4e69e729fa8dd0]
@startuml
left to right direction
actor Guest as g
package Professional {
actor Chef as c
actor "Food Critic" as fc
}
package Restaurant {
usecase "Eat Food" as UC1
usecase "Pay for Food" as UC2
usecase "Drink" as UC3
usecase "Review" as UC4
}
fc - -> UC4
g - -> UC1
g - -> UC2
g - -> UC3        
@enduml

PlantUML version 1.2022.3beta3(Unknown compile time)
(GPL source distribution)
Java Runtime: OpenJDK Runtime Environment
JVM: OpenJDK 64-Bit Server VM
Default Encoding: UTF-8
Language: en
Country: US
--></g></svg>