<?xml version="1.0" encoding="UTF-8" standalone="no"?><svg xmlns="http://www.w3.org/2000/svg" xmlns:xlink="http://www.w3.org/1999/xlink" contentStyleType="text/css" height="189px" preserveAspectRatio="none" style="width:389px;height:189px;background:#FFFFFF;" version="1.1" viewBox="0 0 389 189" width="389px" zoomAndPan="magnify"><defs/><g><!--MD5=[fee662a292a0353a69bd162820bae93b]
entity User--><g id="elem_User"><ellipse cx="88.5" cy="14" fill="#F1F1F1" rx="8" ry="8" style="stroke:#181818;stroke-width:0.5;"/><path d="M88.5,22 L88.5,49 M75.5,30 L101.5,30 M88.5,49 L75.5,64 M88.5,49 L101.5,64 " fill="none" style="stroke:#181818;stroke-width:0.5;"/><text fill="#000000" font-family="sans-serif" font-size="14" lengthAdjust="spacing" textLength="29" x="74" y="80.0332">User</text></g><g id="elem_Use"><ellipse cx="88.3351" cy="163.367" fill="#F1F1F1" rx="82.3351" ry="18.867" style="stroke:#181818;stroke-width:0.5;"/><text fill="#000000" font-family="sans-serif" font-size="14" lengthAdjust="spacing" textLength="120" x="28.3351" y="167.0955">Use the application</text></g><!--MD5=[97ab183161fd5d1db7fba7485cf76add]
entity Admin--><g id="elem_Admin"><ellipse cx="294.5" cy="14" fill="#F1F1F1" rx="8" ry="8" style="stroke:#181818;stroke-width:0.5;"/><path d="M294.5,22 L294.5,49 M281.5,30 L307.5,30 M294.5,49 L281.5,64 M294.5,49 L307.5,64 " fill="none" style="stroke:#181818;stroke-width:0.5;"/><text fill="#000000" font-family="sans-serif" font-size="14" lengthAdjust="spacing" textLength="73" x="258" y="80.0332">Main Admin</text></g><g id="elem_Admin the application"><ellipse cx="294.6756" cy="163.6351" fill="#F1F1F1" rx="88.6756" ry="20.1351" style="stroke:#181818;stroke-width:0.5;"/><text fill="#000000" font-family="sans-serif" font-size="14" lengthAdjust="spacing" textLength="135" x="227.1756" y="167.3636">Admin the application</text></g><!--MD5=[9b1e83a301d632e8d5a1d64f176fc1f5]
link User to Use--><g id="link_User_Use"><path d="M88.5,83.81 C88.5,102.13 88.5,123.47 88.5,139.29 " fill="none" id="User-to-Use" style="stroke:#181818;stroke-width:1.0;"/><polygon fill="#181818" points="88.5,144.44,92.5,135.44,88.5,139.44,84.5,135.44,88.5,144.44" style="stroke:#181818;stroke-width:1.0;"/></g><!--MD5=[286837173fbad0561e8a9a3273598f57]
link Admin to Admin the application--><g id="link_Admin_Admin the application"><path d="M294.5,83.81 C294.5,101.77 294.5,122.63 294.5,138.36 " fill="none" id="Admin-to-Admin the application" style="stroke:#181818;stroke-width:1.0;"/><polygon fill="#181818" points="294.5,143.48,298.5,134.48,294.5,138.48,290.5,134.48,294.5,143.48" style="stroke:#181818;stroke-width:1.0;"/></g><!--MD5=[c14176db0dc32dae90e264d59d671b6d]
@startuml
:User: - -> (Use)
"Main Admin" as Admin
"Use the application" as (Use)
Admin - -> (Admin the application)
@enduml

PlantUML version 1.2022.3beta3(Unknown compile time)
(GPL source distribution)
Java Runtime: OpenJDK Runtime Environment
JVM: OpenJDK 64-Bit Server VM
Default Encoding: UTF-8
Language: en
Country: US
--></g></svg>