<?xml version="1.0" encoding="UTF-8" standalone="no"?><svg xmlns="http://www.w3.org/2000/svg" xmlns:xlink="http://www.w3.org/1999/xlink" contentStyleType="text/css" height="226px" preserveAspectRatio="none" style="width:284px;height:226px;background:#FFFFFF;" version="1.1" viewBox="0 0 284 226" width="284px" zoomAndPan="magnify"><defs/><g><!--MD5=[97ab183161fd5d1db7fba7485cf76add]
entity Admin--><g id="elem_Admin"><ellipse cx="42.5" cy="152" fill="#F1F1F1" rx="8" ry="8" style="stroke:#181818;stroke-width:0.5;"/><path d="M42.5,160 L42.5,187 M29.5,168 L55.5,168 M42.5,187 L29.5,202 M42.5,187 L55.5,202 " fill="none" style="stroke:#181818;stroke-width:0.5;"/><text fill="#000000" font-family="sans-serif" font-size="14" lengthAdjust="spacing" textLength="73" x="6" y="218.0332">Main Admin</text></g><g id="elem_Use"><ellipse cx="196.3351" cy="182.367" fill="#F1F1F1" rx="82.3351" ry="18.867" style="stroke:#181818;stroke-width:0.5;"/><text fill="#000000" font-family="sans-serif" font-size="14" lengthAdjust="spacing" textLength="120" x="136.3351" y="186.0955">Use the application</text></g><!--MD5=[fee662a292a0353a69bd162820bae93b]
entity User--><g id="elem_User"><ellipse cx="42.5" cy="14" fill="#F1F1F1" rx="8" ry="8" style="stroke:#181818;stroke-width:0.5;"/><path d="M42.5,22 L42.5,49 M29.5,30 L55.5,30 M42.5,49 L29.5,64 M42.5,49 L55.5,64 " fill="none" style="stroke:#181818;stroke-width:0.5;"/><text fill="#000000" font-family="sans-serif" font-size="14" lengthAdjust="spacing" textLength="29" x="28" y="80.0332">User</text></g><g id="elem_Start"><ellipse cx="196.6985" cy="44.4517" fill="#F1F1F1" rx="32.6985" ry="15.4517" style="stroke:#181818;stroke-width:0.5;"/><text fill="#000000" font-family="sans-serif" font-size="14" lengthAdjust="spacing" textLength="30" x="181.6985" y="48.1802">Start</text></g><!--MD5=[933987b91d2b08b1b4941f3221fa6cec]
reverse link User to Admin--><g id="link_User_Admin"><path d="M42.5,103.87 C42.5,117.13 42.5,130.89 42.5,143.07 " fill="none" id="User-backto-Admin" style="stroke:#181818;stroke-width:1.0;"/><polygon fill="none" points="35.5,103.75,42.5,83.75,49.5,103.75,35.5,103.75" style="stroke:#181818;stroke-width:1.0;"/></g><!--MD5=[2cb1453f0b23e2ba7216b1bf4a67bc96]
reverse link Start to Use--><g id="link_Start_Use"><path d="M196.5,80.42 C196.5,106.83 196.5,142.05 196.5,163.18 " fill="none" id="Start-backto-Use" style="stroke:#181818;stroke-width:1.0;"/><polygon fill="none" points="189.5,80.05,196.5,60.05,203.5,80.05,189.5,80.05" style="stroke:#181818;stroke-width:1.0;"/></g><!--MD5=[f26ee54e0c42962dc483f26b188f80d8]
@startuml
:Main Admin: as Admin
(Use the application) as (Use)
User <|- - Admin
(Start) <|- - (Use)
@enduml

PlantUML version 1.2022.3beta3(Unknown compile time)
(GPL source distribution)
Java Runtime: OpenJDK Runtime Environment
JVM: OpenJDK 64-Bit Server VM
Default Encoding: UTF-8
Language: en
Country: US
--></g></svg>